<svg width="20" height="20" viewBox="0 0 20 20" fill="currentColor" xmlns="http://www.w3.org/2000/svg">
<path fill-rule="currentColor"  d="M3.33325 9.58333C2.18266 9.58333 1.24992 8.65059 1.24992 7.5L1.24992 3.33333C1.24992 2.18274 2.18266 1.25 3.33325 1.25H7.49992C8.65051 1.25 9.58325 2.18274 9.58325 3.33333V7.5C9.58325 8.65059 8.65051 9.58333 7.49992 9.58333H3.33325ZM2.91659 7.5C2.91659 7.73012 3.10313 7.91667 3.33325 7.91667L7.49992 7.91667C7.73004 7.91667 7.91658 7.73012 7.91658 7.5V3.33333C7.91658 3.10322 7.73004 2.91667 7.49992 2.91667L3.33325 2.91667C3.10313 2.91667 2.91658 3.10322 2.91658 3.33333L2.91659 7.5Z"/>
<path fill-rule="currentColor"  d="M6.39662 10.9952C5.62524 10.2238 4.3746 10.2238 3.60322 10.9952L1.41178 13.1866C0.640408 13.958 0.640408 15.2087 1.41178 15.98L3.60322 18.1715C4.3746 18.9428 5.62524 18.9428 6.39662 18.1715L8.58805 15.98C9.35943 15.2087 9.35943 13.958 8.58805 13.1866L6.39662 10.9952ZM4.78173 12.1737C4.90223 12.0532 5.0976 12.0532 5.2181 12.1737L7.40954 14.3651C7.53004 14.4856 7.53004 14.681 7.40954 14.8015L5.2181 16.993C5.0976 17.1135 4.90223 17.1135 4.78173 16.993L2.59029 14.8015C2.46979 14.681 2.46979 14.4856 2.59029 14.3651L4.78173 12.1737Z"/>
<path fill-rule="currentColor"  d="M10.4166 16.6667C10.4166 17.8173 11.3493 18.75 12.4999 18.75H16.6666C17.8172 18.75 18.7499 17.8173 18.7499 16.6667V12.5C18.7499 11.3494 17.8172 10.4167 16.6666 10.4167H12.4999C11.3493 10.4167 10.4166 11.3494 10.4166 12.5V16.6667ZM12.4999 17.0833C12.2698 17.0833 12.0833 16.8968 12.0833 16.6667V12.5C12.0833 12.2699 12.2698 12.0833 12.4999 12.0833H16.6666C16.8967 12.0833 17.0833 12.2699 17.0833 12.5V16.6667C17.0833 16.8968 16.8967 17.0833 16.6666 17.0833H12.4999Z"/>
<path fill-rule="currentColor"  d="M10.4166 5.41667C10.4166 7.71785 12.2821 9.58333 14.5833 9.58333C16.8844 9.58333 18.7499 7.71785 18.7499 5.41667C18.7499 3.11548 16.8844 1.25 14.5833 1.25C12.2821 1.25 10.4166 3.11548 10.4166 5.41667ZM14.5833 2.91667C15.964 2.91667 17.0833 4.03595 17.0833 5.41667C17.0833 6.79738 15.964 7.91667 14.5833 7.91667C13.2025 7.91667 12.0833 6.79738 12.0833 5.41667C12.0833 4.03596 13.2025 2.91667 14.5833 2.91667Z"/>
</svg>
