<svg width="24" height="25" viewBox="0 0 24 25" fill="none" xmlns="http://www.w3.org/2000/svg">
<path d="M21.3265 10.5507H20.5398V10.5102H11.7497V14.4169H17.2694C16.4641 16.6911 14.3003 18.3236 11.7497 18.3236C8.51346 18.3236 5.88962 15.6998 5.88962 12.4635C5.88962 9.22732 8.51346 6.60348 11.7497 6.60348C13.2435 6.60348 14.6025 7.16702 15.6373 8.08754L18.3999 5.32501C16.6555 3.69934 14.3222 2.69678 11.7497 2.69678C6.35598 2.69678 1.98291 7.06985 1.98291 12.4635C1.98291 17.8572 6.35598 22.2303 11.7497 22.2303C17.1434 22.2303 21.5164 17.8572 21.5164 12.4635C21.5164 11.8087 21.449 11.1694 21.3265 10.5507Z" fill="#FFC107"/>
<path d="M3.10889 7.9176L6.31776 10.2709C7.18602 8.12124 9.28881 6.60348 11.7495 6.60348C13.2434 6.60348 14.6024 7.16703 15.6372 8.08754L18.3997 5.32501C16.6554 3.69934 14.3221 2.69678 11.7495 2.69678C7.99813 2.69678 4.74482 4.8147 3.10889 7.9176Z" fill="#FF3D00"/>
<path d="M11.75 22.2304C14.2728 22.2304 16.5651 21.265 18.2982 19.6949L15.2754 17.137C14.2618 17.9078 13.0234 18.3247 11.75 18.3237C9.2097 18.3237 7.05271 16.7039 6.24012 14.4434L3.05518 16.8973C4.67158 20.0602 7.95419 22.2304 11.75 22.2304Z" fill="#4CAF50"/>
<path d="M21.3268 10.5508H20.5401V10.5103H11.75V14.417H17.2697C16.8845 15.4993 16.1906 16.4451 15.2738 17.1375L15.2753 17.1365L18.2981 19.6944C18.0842 19.8888 21.5168 17.347 21.5168 12.4636C21.5168 11.8087 21.4494 11.1695 21.3268 10.5508Z" fill="#1976D2"/>
</svg>
