<svg width="20" height="20" viewBox="0 0 20 20" fill="none" xmlns="http://www.w3.org/2000/svg">
<path d="M17.7645 5.95117L17.3532 5.23734C17.0421 4.69748 16.8866 4.42755 16.6219 4.31991C16.3572 4.21228 16.0579 4.29721 15.4593 4.46708L14.4425 4.7535C14.0603 4.84163 13.6593 4.79163 13.3104 4.61234L13.0297 4.45036C12.7304 4.2587 12.5003 3.97612 12.3728 3.64396L12.0946 2.81281C11.9116 2.2628 11.8201 1.98779 11.6023 1.83049C11.3845 1.67319 11.0952 1.67319 10.5165 1.67319H9.5875C9.00892 1.67319 8.71958 1.67319 8.50175 1.83049C8.28396 1.98779 8.19247 2.2628 8.00949 2.81281L7.73119 3.64396C7.60379 3.97612 7.37363 4.2587 7.07439 4.45036L6.79366 4.61234C6.4447 4.79163 6.04374 4.84163 5.66157 4.7535L4.64471 4.46708C4.04609 4.29721 3.74679 4.21228 3.48214 4.31991C3.21749 4.42755 3.06196 4.69748 2.75088 5.23734L2.33956 5.95117C2.04797 6.45721 1.90217 6.71024 1.93047 6.97959C1.95876 7.24894 2.15394 7.466 2.5443 7.90011L3.4035 8.86068C3.6135 9.12651 3.76259 9.58984 3.76259 10.0064C3.76259 10.4232 3.61355 10.8863 3.40353 11.1523L2.5443 12.1128C2.15394 12.547 1.95877 12.764 1.93047 13.0334C1.90217 13.3028 2.04797 13.5558 2.33956 14.0618L2.75087 14.7756C3.06194 15.3154 3.21749 15.5854 3.48214 15.693C3.74679 15.8007 4.0461 15.7158 4.64473 15.5458L5.66153 15.2594C6.04378 15.1713 6.44481 15.2213 6.79381 15.4007L7.0745 15.5627C7.37368 15.7543 7.60378 16.0368 7.73117 16.369L8.00949 17.2003C8.19247 17.7503 8.28396 18.0253 8.50175 18.1826C8.71958 18.3398 9.00892 18.3398 9.5875 18.3398H10.5165C11.0952 18.3398 11.3845 18.3398 11.6023 18.1826C11.8201 18.0253 11.9116 17.7503 12.0946 17.2003L12.3729 16.369C12.5003 16.0368 12.7303 15.7543 13.0296 15.5627L13.3103 15.4007C13.6593 15.2213 14.0603 15.1713 14.4425 15.2594L15.4593 15.5458C16.0579 15.7158 16.3572 15.8007 16.6219 15.693C16.8866 15.5854 17.0421 15.3154 17.3532 14.7756L17.7645 14.0618C18.0561 13.5558 18.2018 13.3028 18.1736 13.0334C18.1452 12.764 17.9501 12.547 17.5598 12.1128L16.7005 11.1523C16.4905 10.8863 16.3414 10.4232 16.3414 10.0064C16.3414 9.58984 16.4906 9.12651 16.7005 8.86068L17.5598 7.90011C17.9501 7.466 18.1452 7.24894 18.1736 6.97959C18.2018 6.71024 18.0561 6.45721 17.7645 5.95117Z" stroke="#E5E5E5" stroke-width="1.25" stroke-linecap="round"/>
<path d="M12.9329 10C12.9329 11.6108 11.6271 12.9167 10.0163 12.9167C8.40542 12.9167 7.09961 11.6108 7.09961 10C7.09961 8.38918 8.40542 7.08334 10.0163 7.08334C11.6271 7.08334 12.9329 8.38918 12.9329 10Z" stroke="#E5E5E5" stroke-width="1.25"/>
</svg>
