<svg width="19" height="20" viewBox="0 0 19 20" fill="none" xmlns="http://www.w3.org/2000/svg">
<g clip-path="url(#clip0_13_1002)">
<path d="M3.26562 15C2.93906 15 2.67188 15.2812 2.67188 15.625V16.25C2.67188 16.5938 2.93906 16.875 3.26562 16.875C3.59219 16.875 3.85938 16.5938 3.85938 16.25V15.625C3.85938 15.2812 3.59219 15 3.26562 15Z" fill="white"/>
<path d="M5.64062 15C5.31406 15 5.04688 15.2812 5.04688 15.625V16.25C5.04688 16.5938 5.31406 16.875 5.64062 16.875C5.96719 16.875 6.23438 16.5938 6.23438 16.25V15.625C6.23438 15.2812 5.96719 15 5.64062 15Z" fill="white"/>
<path d="M17.8125 3.125H12.5044L11.0913 0.8875C10.8716 0.5375 10.3254 0.5375 10.0997 0.8875L8.90036 2.78125L7.70098 0.8875C7.4813 0.5375 6.93505 0.5375 6.70942 0.8875L5.29628 3.125H2.95691C1.64472 3.125 0.581909 4.24375 0.581909 5.625V16.25C0.581909 17.975 1.91191 19.375 3.55066 19.375H15.4257C15.7522 19.375 16.0194 19.0938 16.0194 18.75V17.5H17.8007C18.1272 17.5 18.3944 17.2188 18.3944 16.875V3.75C18.3944 3.40625 18.1272 3.125 17.8007 3.125H17.8125ZM10.5985 2.3625L13.4485 6.875H7.74255L10.5925 2.3625H10.5985ZM12.1719 14.0625C11.6791 14.0625 11.2813 13.6438 11.2813 13.125C11.2813 12.6062 11.6791 12.1875 12.1719 12.1875H12.4688V14.0625H12.1719ZM13.6563 12.1875H14.8438V14.0625H13.6563V12.1875ZM7.21411 2.3625L8.1938 3.9125L6.32348 6.875H4.3641L7.21411 2.3625ZM2.96878 4.375H4.51847L2.9391 6.86875C2.29785 6.85 1.78128 6.3 1.78128 5.625C1.78128 4.95 2.31566 4.375 2.96878 4.375ZM1.78128 16.25V13.75H5.34378C6.32348 13.75 7.12505 14.5938 7.12505 15.625V18.125H3.56253C2.58285 18.125 1.78128 17.2812 1.78128 16.25ZM8.31255 18.125V15.625C8.31255 13.9 6.98255 12.5 5.34378 12.5H1.78128V7.7875C2.1316 8 2.53535 8.125 2.96878 8.125H14.8438V10.9375H12.1719C11.026 10.9375 10.0938 11.9187 10.0938 13.125C10.0938 14.3313 11.026 15.3125 12.1719 15.3125H14.8438V18.125H8.31255ZM17.2188 16.25H16.0313V7.5C16.0313 7.15625 15.7641 6.875 15.4375 6.875H14.8735L13.2941 4.375H17.2188V16.25Z" fill="white"/>
</g>
<defs>
<clipPath id="clip0_13_1002">
<rect width="19" height="20" fill="white"/>
</clipPath>
</defs>
</svg>
