<?xml version="1.0" encoding="UTF-8"?>
<svg version="1.1" xmlns="http://www.w3.org/2000/svg" width="749" height="488">
<path d="M0 0 C247.17 0 494.34 0 749 0 C749 161.04 749 322.08 749 488 C501.83 488 254.66 488 0 488 C0 326.96 0 165.92 0 0 Z " fill="#484E58" transform="translate(0,0)"/>
<path d="M0 0 C35.45534202 30.5781615 57.77336991 72.94406111 61.6796875 119.69140625 C62.91120847 137.90736072 62.60850215 155.29322669 58 173 C57.67238418 174.33183646 57.34552806 175.66386008 57.01953125 176.99609375 C56.07889852 180.68567762 55.04858997 184.33982747 54 188 C53.68933594 189.22332031 53.37867188 190.44664062 53.05859375 191.70703125 C48.44310269 208.51695625 39.08009383 223.89124797 29 238 C28.35144043 238.91040039 27.70288086 239.82080078 27.03466797 240.75878906 C21.6424025 248.14110194 15.81833215 254.69101769 9.3125 261.125 C8.83166962 261.602789 8.35083923 262.080578 7.85543823 262.57284546 C0.39972399 269.95913534 -7.05626715 276.47719135 -16 282 C-17.14892194 282.74274075 -18.29734705 283.48625052 -19.4453125 284.23046875 C-34.52199496 293.80770085 -50.74739757 301.37264637 -68 306 C-68.96164062 306.28230469 -69.92328125 306.56460937 -70.9140625 306.85546875 C-109.56545274 317.57986858 -152.96646005 313.12147379 -189 296 C-189.63969727 295.70480469 -190.27939453 295.40960938 -190.93847656 295.10546875 C-215.30273474 283.84262434 -237.78554905 266.43255607 -254 245 C-255.21816406 243.51693359 -255.21816406 243.51693359 -256.4609375 242.00390625 C-263.08283055 233.73608069 -268.07132003 224.68089756 -272.9375 215.3125 C-273.26051086 214.69570374 -273.58352173 214.07890747 -273.9163208 213.44342041 C-280.69720314 200.4268762 -284.67042173 187.22502857 -288 173 C-288.20625 172.12730469 -288.4125 171.25460937 -288.625 170.35546875 C-296.12425524 135.96435293 -292.9414488 96.97614405 -278 65 C-277.70899414 64.36868164 -277.41798828 63.73736328 -277.11816406 63.08691406 C-265.14661463 37.33224739 -247.93003651 13.0863707 -225 -4 C-224.4853418 -4.38961914 -223.97068359 -4.77923828 -223.44042969 -5.18066406 C-209.33434434 -15.81707349 -194.39597402 -24.42398031 -178 -31 C-176.57300781 -31.58201172 -176.57300781 -31.58201172 -175.1171875 -32.17578125 C-167.95381225 -34.94490691 -160.57108087 -36.85708326 -153.08740234 -38.52978516 C-151.13252242 -38.97014758 -149.18502 -39.44290789 -147.23828125 -39.91796875 C-95.69984232 -51.29767676 -39.6232488 -33.35855817 0 0 Z " fill="#4A505A" transform="translate(477,105)"/>
<path d="M0 0 C10.41342925 -0.02312359 20.82685244 -0.04091517 31.24030209 -0.05181217 C36.07516827 -0.05704097 40.91001694 -0.06413854 45.74487305 -0.07543945 C50.4067712 -0.08626847 55.06865246 -0.09227686 59.73056221 -0.09487724 C61.51324288 -0.09673147 63.29592259 -0.10035203 65.07859612 -0.10573006 C67.5666596 -0.11294069 70.05465243 -0.11399093 72.54272461 -0.11352539 C73.28718842 -0.11712067 74.03165222 -0.12071594 74.79867554 -0.12442017 C79.88594784 -0.11405216 79.88594784 -0.11405216 81 1 C81.0927833 2.38160115 81.11747043 3.76788038 81.11352539 5.15258789 C81.11341209 6.47384422 81.11341209 6.47384422 81.11329651 7.8217926 C81.10813522 8.77907761 81.10297394 9.73636261 81.09765625 10.72265625 C81.0962413 11.69786728 81.09482635 12.67307831 81.09336853 13.67784119 C81.08775133 16.80609143 81.07519593 19.93427123 81.0625 23.0625 C81.05748722 25.17773334 81.05292393 27.29296781 81.04882812 29.40820312 C81.03777631 34.60549296 81.02102146 39.80274145 81 45 C79.35 45 77.7 45 76 45 C76 46.65 76 48.3 76 50 C74.68 50 73.36 50 72 50 C72 51.32 72 52.64 72 54 C61.45618688 54.02312343 50.91237975 54.04091509 40.36854649 54.05181217 C35.47314626 54.057041 30.57776332 54.06413864 25.68237305 54.07543945 C20.96212022 54.08626834 16.24188408 54.09227684 11.5216198 54.09487724 C9.71661046 54.09673149 7.91160208 54.10035209 6.10659981 54.10573006 C3.58740356 54.11294052 1.0682771 54.11399094 -1.45092773 54.11352539 C-2.20474228 54.11712067 -2.95855682 54.12071594 -3.73521423 54.12442017 C-8.88594784 54.11405216 -8.88594784 54.11405216 -10 53 C-10.09268999 51.64905018 -10.11747326 50.29332909 -10.11352539 48.93920898 C-10.11344986 48.07839218 -10.11337433 47.21757538 -10.11329651 46.33067322 C-10.10813522 45.39526199 -10.10297394 44.45985077 -10.09765625 43.49609375 C-10.0962413 42.54307877 -10.09482635 41.59006378 -10.09336853 40.60816956 C-10.08775152 37.55124835 -10.07519616 34.49439923 -10.0625 31.4375 C-10.05748719 29.37044376 -10.05292391 27.30338638 -10.04882812 25.23632812 C-10.03777656 20.15752412 -10.02050055 15.0787743 -10 10 C-8.35 9.67 -6.7 9.34 -5 9 C-5 7.68 -5 6.36 -5 5 C-3.68 5 -2.36 5 -1 5 C-0.67 3.35 -0.34 1.7 0 0 Z " fill="#E5E6E8" transform="translate(326,175)"/>
<path d="M0 0 C35.45534202 30.5781615 57.77336991 72.94406111 61.6796875 119.69140625 C62.91120847 137.90736072 62.60850215 155.29322669 58 173 C57.67238418 174.33183646 57.34552806 175.66386008 57.01953125 176.99609375 C56.07889852 180.68567762 55.04858997 184.33982747 54 188 C53.68933594 189.22332031 53.37867188 190.44664062 53.05859375 191.70703125 C48.44310269 208.51695625 39.08009383 223.89124797 29 238 C28.35144043 238.91040039 27.70288086 239.82080078 27.03466797 240.75878906 C21.6424025 248.14110194 15.81833215 254.69101769 9.3125 261.125 C8.83166962 261.602789 8.35083923 262.080578 7.85543823 262.57284546 C0.39972399 269.95913534 -7.05626715 276.47719135 -16 282 C-17.14892194 282.74274075 -18.29734705 283.48625052 -19.4453125 284.23046875 C-34.52199496 293.80770085 -50.74739757 301.37264637 -68 306 C-68.96164062 306.28230469 -69.92328125 306.56460937 -70.9140625 306.85546875 C-109.56545274 317.57986858 -152.96646005 313.12147379 -189 296 C-189.63969727 295.70480469 -190.27939453 295.40960938 -190.93847656 295.10546875 C-215.30273474 283.84262434 -237.78554905 266.43255607 -254 245 C-255.21816406 243.51693359 -255.21816406 243.51693359 -256.4609375 242.00390625 C-263.08283055 233.73608069 -268.07132003 224.68089756 -272.9375 215.3125 C-273.26051086 214.69570374 -273.58352173 214.07890747 -273.9163208 213.44342041 C-280.69720314 200.4268762 -284.67042173 187.22502857 -288 173 C-288.20625 172.12730469 -288.4125 171.25460937 -288.625 170.35546875 C-296.12425524 135.96435293 -292.9414488 96.97614405 -278 65 C-277.70899414 64.36868164 -277.41798828 63.73736328 -277.11816406 63.08691406 C-265.14661463 37.33224739 -247.93003651 13.0863707 -225 -4 C-224.4853418 -4.38961914 -223.97068359 -4.77923828 -223.44042969 -5.18066406 C-209.33434434 -15.81707349 -194.39597402 -24.42398031 -178 -31 C-176.57300781 -31.58201172 -176.57300781 -31.58201172 -175.1171875 -32.17578125 C-167.95381225 -34.94490691 -160.57108087 -36.85708326 -153.08740234 -38.52978516 C-151.13252242 -38.97014758 -149.18502 -39.44290789 -147.23828125 -39.91796875 C-95.69984232 -51.29767676 -39.6232488 -33.35855817 0 0 Z M-249.625 23.375 C-251.10251088 25.23492546 -252.56298372 27.10861286 -254 29 C-254.87591797 30.13501953 -254.87591797 30.13501953 -255.76953125 31.29296875 C-265.20099646 44.125946 -272.49420199 58.10611051 -278 73 C-278.50660156 74.14597656 -279.01320313 75.29195313 -279.53515625 76.47265625 C-281.85763136 82.06517631 -283.11924871 87.88227765 -284.46630859 93.76660156 C-284.97620471 95.90042118 -285.55296376 98.00480485 -286.14453125 100.1171875 C-292.23338536 123.5427659 -291.6112235 152.78100041 -285 176 C-284.80212891 176.72074707 -284.60425781 177.44149414 -284.40039062 178.18408203 C-283.0978074 182.85377966 -281.60672235 187.42626277 -280 192 C-279.62101563 193.093125 -279.24203125 194.18625 -278.8515625 195.3125 C-262.38673732 240.39739043 -228.08105356 275.15800765 -185 295.4375 C-183.00717405 296.30827289 -181.0077173 297.16413402 -179 298 C-178.18660156 298.35320312 -177.37320313 298.70640625 -176.53515625 299.0703125 C-166.79263776 302.97963272 -156.25996415 304.9235468 -146 307 C-145.09660889 307.19126465 -144.19321777 307.3825293 -143.26245117 307.57958984 C-134.25312741 309.30944195 -125.32785234 309.39689986 -116.1875 309.375 C-115.37318512 309.37478851 -114.55887024 309.37457703 -113.71987915 309.37435913 C-94.33262184 309.32422602 -76.27791993 306.54791417 -58 300 C-56.90945313 299.62101562 -55.81890625 299.24203125 -54.6953125 298.8515625 C-26.66544278 288.64019187 0.47741374 270.647572 19 247 C19.42845215 246.46213867 19.8569043 245.92427734 20.29833984 245.37011719 C27.91079599 235.76374109 34.4144132 225.90965031 40 215 C40.31275879 214.39365723 40.62551758 213.78731445 40.94775391 213.16259766 C55.31269543 184.93069925 60.44413513 155.54369917 59 124 C58.95987793 123.06575195 58.91975586 122.13150391 58.87841797 121.16894531 C56.52661883 74.98342863 32.97782967 33.11812921 -0.859375 2.54296875 C-37.01635283 -29.06462452 -85.63657528 -42.22784794 -132.93737793 -39.18023682 C-178.00792799 -35.24186508 -220.65569419 -10.84140991 -249.625 23.375 Z " fill="#885E2D" transform="translate(477,105)"/>
<path d="M0 0 C0.99 0 1.98 0 3 0 C3 161.04 3 322.08 3 488 C2.01 488 1.02 488 0 488 C0 326.96 0 165.92 0 0 Z " fill="#FFFFFF" transform="translate(746,0)"/>
<path d="M0 0 C9.24 0 18.48 0 28 0 C31.3809126 9.01576694 31.3809126 9.01576694 31.3984375 13.05859375 C31.40423828 14.38020508 31.40423828 14.38020508 31.41015625 15.72851562 C31.39855469 16.62248047 31.38695312 17.51644531 31.375 18.4375 C31.38660156 19.32759766 31.39820313 20.21769531 31.41015625 21.13476562 C31.40628906 22.01712891 31.40242188 22.89949219 31.3984375 23.80859375 C31.39505371 24.59032959 31.39166992 25.37206543 31.38818359 26.17749023 C30.82963444 30.23873978 29.29636897 34.11089309 28 38 C18.76 38 9.52 38 0 38 C-2.23339342 30.55535525 -3.47870889 25.33051707 -3.375 17.875 C-3.39240234 16.61236328 -3.39240234 16.61236328 -3.41015625 15.32421875 C-3.40628906 14.49277344 -3.40242188 13.66132813 -3.3984375 12.8046875 C-3.39505371 12.07233887 -3.39166992 11.33999023 -3.38818359 10.58544922 C-3 8 -3 8 0 0 Z " fill="#4F555F" transform="translate(343,188)"/>
<path d="M0 0 C10.10666861 8.71641133 21.17592279 18.41244929 28 30 C28 30.99 28 31.98 28 33 C24.64338326 31.59355584 23.04378112 30.06625189 20.9375 27.125 C-5.41342927 -7.89696155 -47.101465 -30.33833736 -90.125 -36.8125 C-139.61238554 -43.30440318 -185.20426151 -29.63512441 -225 0 C-225.66 -0.33 -226.32 -0.66 -227 -1 C-214.29779996 -15.01622073 -195.291935 -24.06463252 -178 -31 C-177.04867187 -31.38800781 -176.09734375 -31.77601562 -175.1171875 -32.17578125 C-167.95381225 -34.94490691 -160.57108087 -36.85708326 -153.08740234 -38.52978516 C-151.13252242 -38.97014758 -149.18502 -39.44290789 -147.23828125 -39.91796875 C-95.69984232 -51.29767676 -39.6232488 -33.35855817 0 0 Z " fill="#CABD80" transform="translate(477,105)"/>
<path d="M0 0 C6.93 0 13.86 0 21 0 C21 12.87 21 25.74 21 39 C14.07 39 7.14 39 0 39 C0.33 37.1025 0.66 35.205 1 33.25 C2.73926211 21.75844675 1.83189539 11.44934617 0 0 Z " fill="#515761" transform="translate(374,187)"/>
<path d="M0 0 C7.26 0 14.52 0 22 0 C21.505 1.505625 21.01 3.01125 20.5 4.5625 C17.39637993 16.02088878 18.93032307 27.48742208 21 39 C14.07 39 7.14 39 0 39 C0 26.13 0 13.26 0 0 Z " fill="#4F555F" transform="translate(319,187)"/>
<path d="M0 0 C4.52204044 4.07310141 7.38250514 8.53988296 10.375 13.8125 C10.85469238 14.65127686 11.33438477 15.49005371 11.82861328 16.35424805 C16.13736929 24.01659214 19.76366941 31.83438893 23 40 C23.46019531 41.12277344 23.92039062 42.24554688 24.39453125 43.40234375 C35.91985017 73.24282204 38.01100798 110.2201289 30 141 C29.67238418 142.33183646 29.34552806 143.66386008 29.01953125 144.99609375 C28.07889852 148.68567762 27.04858997 152.33982747 26 156 C25.68933594 157.22332031 25.37867188 158.44664062 25.05859375 159.70703125 C20.44262089 176.518711 11.07776427 191.88798865 1 206 C0.3594165 206.90314941 -0.28116699 207.80629883 -0.94116211 208.73681641 C-6.11229449 215.83781902 -11.67107411 222.1442425 -17.91357422 228.3046875 C-19.4058275 229.78048761 -20.88090231 231.27217249 -22.35546875 232.765625 C-23.30632841 233.71450791 -24.25811521 234.66246288 -25.2109375 235.609375 C-26.48396729 236.8773291 -26.48396729 236.8773291 -27.78271484 238.17089844 C-30 240 -30 240 -33 240 C-31.69712452 237.08626104 -30.36880433 235.16433891 -27.98828125 233.046875 C-27.39901855 232.51473389 -26.80975586 231.98259277 -26.20263672 231.43432617 C-25.5788916 230.87849854 -24.95514648 230.3226709 -24.3125 229.75 C-19.18945293 225.07313714 -14.29808903 220.4644508 -10 215 C-9.35514648 214.19103271 -9.35514648 214.19103271 -8.69726562 213.36572266 C-1.08658831 203.76092595 5.41549768 193.90753214 11 183 C11.31275879 182.39365723 11.62551758 181.78731445 11.94775391 181.16259766 C26.31269543 152.93069925 31.44413513 123.54369917 30 92 C29.93981689 90.59862793 29.93981689 90.59862793 29.87841797 89.16894531 C28.41419469 60.41397747 18.6764321 29.29383737 1.13671875 6.17578125 C0.43160156 5.12777344 -0.27351563 4.07976562 -1 3 C-0.67 2.01 -0.34 1.02 0 0 Z " fill="#886134" transform="translate(505,137)"/>
<path d="M0 0 C2.95199471 1.38023914 5.44916273 2.99765437 8.0625 4.9375 C19.8381266 13.26405254 32.68620513 20.45711397 46 26 C47.22009766 26.52980469 47.22009766 26.52980469 48.46484375 27.0703125 C58.20736224 30.97963272 68.74003585 32.9235468 79 35 C79.90339111 35.19126465 80.80678223 35.3825293 81.73754883 35.57958984 C90.74687259 37.30944195 99.67214766 37.39689986 108.8125 37.375 C109.62681488 37.37478851 110.44112976 37.37457703 111.28012085 37.37435913 C130.66737816 37.32422602 148.72208007 34.54791417 167 28 C168.09054687 27.62101562 169.18109375 27.24203125 170.3046875 26.8515625 C186.644378 20.89896131 202.99172277 12.53732584 216.1953125 1.15234375 C216.79085937 0.77207031 217.38640625 0.39179688 218 0 C218.99 0.33 219.98 0.66 221 1 C205.38667741 18.17465485 178.95074702 28.91810512 157 35 C156.03320312 35.28488281 155.06640625 35.56976563 154.0703125 35.86328125 C115.39600208 46.54527917 72.05409899 42.13124249 36 25 C35.36030273 24.70480469 34.72060547 24.40960938 34.06152344 24.10546875 C21.40621552 18.25531058 9.76565677 10.85745834 -1 2 C-0.67 1.34 -0.34 0.68 0 0 Z " fill="#D5C883" transform="translate(252,376)"/>
<path d="M0 0 C1.22847656 -0.00773438 2.45695312 -0.01546875 3.72265625 -0.0234375 C6.9375 0.375 6.9375 0.375 8.61352539 1.54418945 C10.46169186 4.09985981 10.32552797 5.93189987 10.3359375 9.06640625 C10.34173828 10.73026367 10.34173828 10.73026367 10.34765625 12.42773438 C10.33605469 13.58595703 10.32445312 14.74417969 10.3125 15.9375 C10.32410156 17.09958984 10.33570313 18.26167969 10.34765625 19.45898438 C10.34378906 20.56693359 10.33992188 21.67488281 10.3359375 22.81640625 C10.33255371 23.83420166 10.32916992 24.85199707 10.32568359 25.90063477 C10.19758301 26.71717529 10.06948242 27.53371582 9.9375 28.375 C6.32286441 30.78475706 3.6153074 30.70739432 -0.5625 30.6875 C-1.23925781 30.70361328 -1.91601562 30.71972656 -2.61328125 30.73632812 C-7.53940919 30.74118624 -7.53940919 30.74118624 -9.75219727 29.19213867 C-12.52016756 25.35349456 -11.52918345 19.92761825 -11.5 15.375 C-11.51998047 14.26898438 -11.53996094 13.16296875 -11.56054688 12.0234375 C-11.55990234 10.96382813 -11.55925781 9.90421875 -11.55859375 8.8125 C-11.56044678 7.84183594 -11.5622998 6.87117188 -11.56420898 5.87109375 C-11.0625 3.375 -11.0625 3.375 -9.24072266 1.56005859 C-6.11723611 -0.13926933 -3.53148465 -0.02228066 0 0 Z " fill="#F9F9F9" transform="translate(384.0625,251.625)"/>
<path d="M0 0 C4.33125 -0.12375 4.33125 -0.12375 8.75 -0.25 C9.65331055 -0.28641602 10.55662109 -0.32283203 11.48730469 -0.36035156 C15.15782571 -0.41121708 17.37453461 -0.38755831 20.546875 1.578125 C22.50689896 4.8448316 22.53214672 7.20668648 22.5 11 C22.5103125 12.216875 22.520625 13.43375 22.53125 14.6875 C22 18 22 18 20.328125 20.421875 C17.41033624 22.39970496 15.74097498 22.4162369 12.25 22.25 C11.26515625 22.21390625 10.2803125 22.1778125 9.265625 22.140625 C8.51796875 22.09421875 7.7703125 22.0478125 7 22 C7 24.64 7 27.28 7 30 C4.69 30 2.38 30 0 30 C0 20.1 0 10.2 0 0 Z " fill="#F4F4F5" transform="translate(400,252)"/>
<path d="M0 0 C0.69738281 0.01804688 1.39476562 0.03609375 2.11328125 0.0546875 C3.82611539 0.10161446 5.53823824 0.17335395 7.25 0.25 C7.25 2.56 7.25 4.87 7.25 7.25 C3.29 7.25 -0.67 7.25 -4.75 7.25 C-4.75 8.9 -4.75 10.55 -4.75 12.25 C-4.13511719 12.22679687 -3.52023437 12.20359375 -2.88671875 12.1796875 C-2.07847656 12.16164063 -1.27023437 12.14359375 -0.4375 12.125 C0.36300781 12.10179687 1.16351563 12.07859375 1.98828125 12.0546875 C4.25 12.25 4.25 12.25 7.25 14.25 C7.6484375 17.18359375 7.6484375 17.18359375 7.625 20.6875 C7.63273437 21.84121094 7.64046875 22.99492187 7.6484375 24.18359375 C7.25 27.25 7.25 27.25 6.23828125 29.1484375 C3.01461372 30.93443798 -0.35801744 30.55942124 -3.9375 30.4375 C-4.68708984 30.42396484 -5.43667969 30.41042969 -6.20898438 30.39648438 C-8.05629767 30.36118539 -9.90324066 30.30737917 -11.75 30.25 C-11.75 27.94 -11.75 25.63 -11.75 23.25 C-7.79 23.25 -3.83 23.25 0.25 23.25 C0.25 21.6 0.25 19.95 0.25 18.25 C-0.44867188 18.28480469 -1.14734375 18.31960938 -1.8671875 18.35546875 C-2.77726562 18.38253906 -3.68734375 18.40960938 -4.625 18.4375 C-5.52992188 18.47230469 -6.43484375 18.50710938 -7.3671875 18.54296875 C-8.54667969 18.39794922 -8.54667969 18.39794922 -9.75 18.25 C-11.95257572 14.94613642 -12.07249903 13.68182123 -12.125 9.8125 C-12.16753906 8.39130859 -12.16753906 8.39130859 -12.2109375 6.94140625 C-11.75 4.25 -11.75 4.25 -10.2109375 1.91796875 C-6.8519845 -0.35865495 -3.90205643 -0.19178349 0 0 Z " fill="#F6F6F7" transform="translate(259.75,251.75)"/>
<path d="M0 0 C2.31 0 4.62 0 7 0 C7.96631969 3.12258525 8.92151999 6.24847254 9.875 9.375 C10.14441406 10.24511719 10.41382813 11.11523438 10.69140625 12.01171875 C12.49660242 17.95565735 13.89591329 23.88720995 15 30 C12.69 30 10.38 30 8 30 C7.67 28.68 7.34 27.36 7 26 C4.36 26 1.72 26 -1 26 C-1 27.32 -1 28.64 -1 30 C-3.31 30 -5.62 30 -8 30 C-6.62391506 23.64440772 -5.09913478 17.34910045 -3.4375 11.0625 C-3.10588867 9.78922852 -3.10588867 9.78922852 -2.76757812 8.49023438 C-2.44756836 7.2749707 -2.44756836 7.2749707 -2.12109375 6.03515625 C-1.9295874 5.3069165 -1.73808105 4.57867676 -1.54077148 3.82836914 C-1 2 -1 2 0 0 Z " fill="#F3F4F4" transform="translate(436,252)"/>
<path d="M0 0 C5.94 0 11.88 0 18 0 C18 2.31 18 4.62 18 7 C14.04 7 10.08 7 6 7 C6 8.65 6 10.3 6 12 C8.97 12 11.94 12 15 12 C15 13.98 15 15.96 15 18 C12.03 18 9.06 18 6 18 C6 19.65 6 21.3 6 23 C9.96 23 13.92 23 18 23 C18 25.31 18 27.62 18 30 C12.06 30 6.12 30 0 30 C0 20.1 0 10.2 0 0 Z " fill="#FBFBFB" transform="translate(301,252)"/>
<path d="M0 0 C0.66 0 1.32 0 2 0 C2.37511719 1.22074219 2.75023437 2.44148438 3.13671875 3.69921875 C12.36625135 33.50532287 25.18619598 59.37003662 46.625 82.375 C47.2341626 83.02895752 47.8433252 83.68291504 48.47094727 84.35668945 C52.27506569 88.36718143 56.24454419 92.02297198 60.50927734 95.54150391 C61.00121582 96.02280762 61.4931543 96.50411133 62 97 C62 97.66 62 98.32 62 99 C58.64385474 98.40874286 56.9022065 97.32147909 54.42578125 95.0078125 C53.76280029 94.39099609 53.09981934 93.77417969 52.41674805 93.13867188 C51.72234619 92.47416016 51.02794434 91.80964844 50.3125 91.125 C49.59425049 90.44244141 48.87600098 89.75988281 48.13598633 89.05664062 C42.58936892 83.7138277 37.63673212 78.15374059 33 72 C32.18917969 71.01257813 31.37835938 70.02515625 30.54296875 69.0078125 C23.91879352 60.7392774 18.92957016 51.68261136 14.0625 42.3125 C13.73948914 41.69570374 13.41647827 41.07890747 13.0836792 40.44342041 C7.8898617 30.47339709 3.95142501 20.42576336 1.25 9.5 C1.00765625 8.5409375 0.7653125 7.581875 0.515625 6.59375 C0 4 0 4 0 0 Z " fill="#8C6432" transform="translate(190,278)"/>
<path d="M0 0 C2.31 0 4.62 0 7 0 C8.32 2.97 9.64 5.94 11 9 C12.65 6.03 14.3 3.06 16 0 C18.31 0 20.62 0 23 0 C22.13281631 2.91689059 21.16536508 5.67353732 19.7890625 8.390625 C16.13167527 15.6208356 15.14117664 21.92726298 15 30 C12.69 30 10.38 30 8 30 C8.00902344 29.22398437 8.01804687 28.44796875 8.02734375 27.6484375 C7.78953411 18.98389497 5.63335183 13.30720952 1.49609375 5.8984375 C0 3 0 3 0 0 Z " fill="#F6F6F7" transform="translate(452,252)"/>
<path d="M0 0 C1.39482072 4.44287623 0.15283303 7.87200519 -1.1875 12.1875 C-1.39697266 12.90486328 -1.60644531 13.62222656 -1.82226562 14.36132812 C-8.87705008 37.74469383 -22.97239643 60.60276683 -40 78 C-40.65790527 78.68223633 -41.31581055 79.36447266 -41.99365234 80.06738281 C-44.27668986 82.43065806 -46.57338433 84.77982139 -48.875 87.125 C-49.62547607 87.89714844 -50.37595215 88.66929687 -51.14916992 89.46484375 C-51.86049072 90.18027344 -52.57181152 90.89570313 -53.3046875 91.6328125 C-54.2635083 92.60565186 -54.2635083 92.60565186 -55.24169922 93.59814453 C-57 95 -57 95 -60 95 C-58.69712452 92.08626104 -57.36880433 90.16433891 -54.98828125 88.046875 C-54.39901855 87.51473389 -53.80975586 86.98259277 -53.20263672 86.43432617 C-52.5788916 85.87849854 -51.95514648 85.3226709 -51.3125 84.75 C-46.18945293 80.07313714 -41.29808903 75.4644508 -37 70 C-36.57009766 69.46068848 -36.14019531 68.92137695 -35.69726562 68.36572266 C-28.08647922 58.76078828 -21.58504548 48.90742794 -16 38 C-15.69255859 37.40429199 -15.38511719 36.80858398 -15.06835938 36.19482422 C-9.61607858 25.48328999 -5.67715002 14.23098779 -1.73681641 2.89501953 C-1 1 -1 1 0 0 Z " fill="#8B6536" transform="translate(532,282)"/>
<path d="M0 0 C7.26 0 14.52 0 22 0 C22 2.31 22 4.62 22 7 C19.36 7 16.72 7 14 7 C14 14.59 14 22.18 14 30 C12.02 30 10.04 30 8 30 C8 22.41 8 14.82 8 7 C5.36 7 2.72 7 0 7 C0 4.69 0 2.38 0 0 Z " fill="#F7F8F8" transform="translate(273,252)"/>
<path d="M0 0 C2.31 0 4.62 0 7 0 C7 7.59 7 15.18 7 23 C10.63 23 14.26 23 18 23 C18 25.31 18 27.62 18 30 C12.06 30 6.12 30 0 30 C0 20.1 0 10.2 0 0 Z " fill="#F5F5F6" transform="translate(349,252)"/>
<path d="M0 0 C2.31 0 4.62 0 7 0 C7 7.59 7 15.18 7 23 C10.63 23 14.26 23 18 23 C18 25.31 18 27.62 18 30 C12.06 30 6.12 30 0 30 C0 20.1 0 10.2 0 0 Z " fill="#F3F4F4" transform="translate(325,252)"/>
<path d="M0 0 C28.98931053 8.88886409 63.49128986 33.66560199 79 60 C79 60.99 79 61.98 79 63 C75.64338326 61.59355584 74.04378112 60.06625189 71.9375 57.125 C54.2805409 33.65784495 30.26665427 16.94679504 3.57421875 5.19140625 C1 4 1 4 -2 2 C-1.34 1.34 -0.68 0.68 0 0 Z " fill="#B5A169" transform="translate(426,75)"/>
<path d="M0 0 C0.66 0 1.32 0 2 0 C2 0.66 2 1.32 2 2 C2.78375 2.061875 3.5675 2.12375 4.375 2.1875 C5.24125 2.455625 6.1075 2.72375 7 3 C8.3125 5.5625 8.3125 5.5625 9 8 C5 8 5 8 3.25 6.5 C2.63125 5.7575 2.63125 5.7575 2 5 C2 7.31 2 9.62 2 12 C2.969375 12.309375 3.93875 12.61875 4.9375 12.9375 C8 14 8 14 9 15 C9.46511628 21.27906977 9.46511628 21.27906977 7.75 23.9375 C6 25 6 25 2 25 C2 25.99 2 26.98 2 28 C1.34 28 0.68 28 0 28 C0 27.01 0 26.02 0 25 C-0.78375 24.87625 -1.5675 24.7525 -2.375 24.625 C-5 24 -5 24 -7 22 C-7 21.01 -7 20.02 -7 19 C-3 19 -3 19 -1.25 20.5 C-0.8375 20.995 -0.425 21.49 0 22 C-0.10407917 18.59919423 -0.10407917 18.59919423 -1 15 C-1.845625 14.505 -2.69125 14.01 -3.5625 13.5 C-4.366875 13.005 -5.17125 12.51 -6 12 C-6.5625 8.5 -6.5625 8.5 -6 5 C-4.125 3.0625 -4.125 3.0625 -2 2 C-1.34 2 -0.68 2 0 2 C0 1.34 0 0.68 0 0 Z " fill="#ECECED" transform="translate(356,193)"/>
<path d="M0 0 C0.66 0.33 1.32 0.66 2 1 C0.64990736 4.06586134 -0.79921076 5.97433711 -3.30859375 8.1796875 C-3.96802979 8.77177002 -4.62746582 9.36385254 -5.30688477 9.97387695 C-6.36153931 10.91493286 -6.36153931 10.91493286 -7.4375 11.875 C-14.88477157 18.68491126 -21.08070964 25.85097695 -27 34 C-27.928125 35.22009766 -27.928125 35.22009766 -28.875 36.46484375 C-36.18074886 46.35804533 -42.35584361 57.61578546 -47 69 C-47.99 69 -48.98 69 -50 69 C-41.81280864 42.73770502 -21.27551623 16.98076916 0 0 Z " fill="#936B38" transform="translate(249,103)"/>
<path d="M0 0 C25.08 0 50.16 0 76 0 C76 12.87 76 25.74 76 39 C75.67 39 75.34 39 75 39 C74.67 27.12 74.34 15.24 74 3 C37.37 2.505 37.37 2.505 0 2 C0 1.34 0 0.68 0 0 Z " fill="#82878E" transform="translate(328,178)"/>
<path d="M0 0 C0.99 0.33 1.98 0.66 3 1 C-10.89456815 16.28402496 -34.49661755 26.89681178 -53.9375 33.0625 C-54.618125 33.27874023 -55.29875 33.49498047 -56 33.71777344 C-60.73812048 35.13093976 -60.73812048 35.13093976 -63 34 C-63 33.34 -63 32.68 -63 32 C-62.45287354 31.82984375 -61.90574707 31.6596875 -61.34204102 31.484375 C-39.7485968 24.70218014 -18.97416333 16.11700266 -1.69921875 1.08203125 C-1.13847656 0.72496094 -0.57773437 0.36789062 0 0 Z " fill="#AC9158" transform="translate(470,376)"/>
<path d="M0 0 C2.95199471 1.38023914 5.44916273 2.99765437 8.0625 4.9375 C25.35669256 17.16623379 45.09104633 27.88676321 66 32 C65.01 32.495 65.01 32.495 64 33 C64 33.66 64 34.32 64 35 C57.57598624 33.79829679 51.79765137 31.91714345 45.8125 29.3125 C44.98661377 28.95728271 44.16072754 28.60206543 43.30981445 28.23608398 C27.29900804 21.27816744 12.52069916 13.12417312 -1 2 C-0.67 1.34 -0.34 0.68 0 0 Z " fill="#AB8F56" transform="translate(252,376)"/>
<path d="M0 0 C0.495 0.391875 0.99 0.78375 1.5 1.1875 C-1.16402848 2.56469891 -3.82259939 3.73684871 -6.6328125 4.78125 C-22.23485662 10.70731446 -36.65611888 17.86508708 -49.99951172 27.96435547 C-53.05178451 30.26321319 -55.87580821 31.95487285 -59.5 33.1875 C-51.7760237 18.13362783 -25.55036109 8.20445242 -10.5 2.1875 C-9.78924316 1.89560791 -9.07848633 1.60371582 -8.34619141 1.30297852 C-2.79248165 -0.90755654 -2.79248165 -0.90755654 0 0 Z " fill="#B39A5F" transform="translate(309.5,71.8125)"/>
<path d="M0 0 C0.66 0 1.32 0 2 0 C4.51289622 19.18381745 3.8176661 38.27108119 -1 57 C-1.12318604 57.71736328 -1.24637207 58.43472656 -1.37329102 59.17382812 C-1.68351196 60.0777832 -1.68351196 60.0777832 -2 61 C-3.485 61.495 -3.485 61.495 -5 62 C-4.46539857 57.36195398 -3.80133481 52.82786052 -2.87995911 48.24742126 C-0.85323886 37.97525277 -0.45588863 27.8821751 -0.3125 17.4375 C-0.27920674 15.73239778 -0.24470681 14.02731868 -0.20898438 12.32226562 C-0.12548764 8.21497551 -0.05805405 4.10772522 0 0 Z " fill="#885E2F" transform="translate(536,221)"/>
<path d="M0 0 C2.64 0 5.28 0 8 0 C8 5.28 8 10.56 8 16 C5.36 16 2.72 16 0 16 C0 10.72 0 5.44 0 0 Z " fill="#565C65" transform="translate(380,259)"/>
<path d="M0 0 C4.07678701 1.65835404 7.02363874 4.53454489 10.1875 7.5 C10.76121338 8.03463867 11.33492676 8.56927734 11.92602539 9.12011719 C19.15015167 15.92904057 26.92712112 23.38605273 32 32 C32 32.99 32 33.98 32 35 C28.64338326 33.59355584 27.04378112 32.06625189 24.9375 29.125 C18.13890639 20.08926234 10.47567444 12.08466124 1.80078125 4.83984375 C0 3 0 3 0 0 Z " fill="#A2814A" transform="translate(473,103)"/>
<path d="M0 0 C4.62171784 4.13610256 7.46826676 8.74645915 10.5 14.125 C10.98122314 14.9694165 11.46244629 15.81383301 11.95825195 16.68383789 C21 32.71553496 21 32.71553496 21 39 C20.34 39 19.68 39 19 39 C18.55011719 37.98164063 18.10023438 36.96328125 17.63671875 35.9140625 C13.52576014 26.80889757 8.95722113 18.27244719 3.5065918 9.89111328 C3.0506665 9.17810059 2.59474121 8.46508789 2.125 7.73046875 C1.71507812 7.10551514 1.30515625 6.48056152 0.8828125 5.83666992 C0 4 0 4 0 0 Z " fill="#906A39" transform="translate(505,137)"/>
<path d="M0 0 C3.51973222 0.5718844 5.03020165 1.71983397 7.390625 4.3515625 C8.01839844 5.03863281 8.64617187 5.72570312 9.29296875 6.43359375 C9.93878906 7.15675781 10.58460938 7.87992187 11.25 8.625 C15.76390546 13.63737354 20.29704575 18.28763762 25.52246094 22.56787109 C26.01004883 23.04047363 26.49763672 23.51307617 27 24 C27 24.66 27 25.32 27 26 C23.60415348 25.40868577 21.85740452 24.27846135 19.35546875 21.9375 C18.68128906 21.30924316 18.00710937 20.68098633 17.3125 20.03369141 C16.61125 19.36257324 15.91 18.69145508 15.1875 18 C14.47207031 17.32243652 13.75664062 16.64487305 13.01953125 15.94677734 C8.22368739 11.34087877 3.56175944 6.65860168 0 1 C0 0.67 0 0.34 0 0 Z " fill="#A4824A" transform="translate(225,351)"/>
<path d="M0 0 C0.66 0.33 1.32 0.66 2 1 C0.61403119 4.16929206 -0.9641972 6.14458209 -3.51953125 8.4609375 C-4.21240234 9.09773438 -4.90527344 9.73453125 -5.61914062 10.390625 C-6.34294922 11.04546875 -7.06675781 11.7003125 -7.8125 12.375 C-13.63931735 17.61924234 -13.63931735 17.61924234 -18.82421875 23.4765625 C-19.54222656 24.30929688 -20.26023438 25.14203125 -21 26 C-21.99 26 -22.98 26 -24 26 C-22.67289545 23.08825141 -21.20313507 20.91075556 -19.0234375 18.57421875 C-18.14582764 17.63074585 -18.14582764 17.63074585 -17.25048828 16.66821289 C-16.63157715 16.01457764 -16.01266602 15.36094238 -15.375 14.6875 C-14.74706543 14.01904053 -14.11913086 13.35058105 -13.47216797 12.66186523 C-9.20941255 8.16558686 -4.84895854 3.87013151 0 0 Z " fill="#A3824A" transform="translate(249,103)"/>
<path d="M0 0 C0.99 0.33 1.98 0.66 3 1 C2.67386719 1.78375 2.34773438 2.5675 2.01171875 3.375 C0.71959938 8.00467868 0.7457391 12.22132478 0.8125 17 C0.8134668 18.31484375 0.8134668 18.31484375 0.81445312 19.65625 C0.8453199 24.21081371 1.07891177 28.51982683 2 33 C1.34 33 0.68 33 0 33 C-0.33 33.66 -0.66 34.32 -1 35 C-3.73979525 23.23355789 -4.76473486 11.31624528 0 0 Z " fill="#E4E5E7" transform="translate(340,189)"/>
<path d="M0 0 C0.66 0 1.32 0 2 0 C1.52424704 4.24806187 -1.12474638 6.55921659 -4.0234375 9.421875 C-4.52541656 9.92672424 -5.02739563 10.43157349 -5.54458618 10.95172119 C-6.60513951 12.01431203 -7.66947499 13.07313962 -8.73730469 14.12841797 C-10.37275981 15.74778186 -11.99156748 17.38255772 -13.609375 19.01953125 C-14.64226833 20.05044275 -15.67609157 21.08042357 -16.7109375 22.109375 C-17.19541351 22.59992371 -17.67988953 23.09047241 -18.17904663 23.59588623 C-21.65508477 27 -21.65508477 27 -25 27 C-23.69712452 24.08626104 -22.36880433 22.16433891 -19.98828125 20.046875 C-19.39821289 19.51360596 -18.80814453 18.98033691 -18.20019531 18.4309082 C-17.57725586 17.8762085 -16.95431641 17.32150879 -16.3125 16.75 C-11.17676368 12.09025556 -6.43180395 7.34340919 -2 2 C-1.34 1.34 -0.68 0.68 0 0 Z " fill="#A4824A" transform="translate(497,350)"/>
<path d="M0 0 C1 3 1 3 -0.265625 5.828125 C-5.59748022 15.02242652 -11.56032127 23.54792167 -18 32 C-18.66 31.67 -19.32 31.34 -20 31 C-18.59203426 27.98001551 -16.91638511 25.4259392 -14.9375 22.75 C-11.18360421 17.48981409 -8.07932399 11.95264125 -5.02124023 6.27050781 C-2.20467455 1.10233727 -2.20467455 1.10233727 0 0 Z " fill="#936D3B" transform="translate(518,319)"/>
<path d="M0 0 C3.95756958 1.2706188 7.75461779 2.71203058 11.5625 4.375 C17.00959661 6.68032553 22.50674323 8.46946649 28.1875 10.10546875 C30.62978406 10.88225076 32.75659099 11.7758321 35 13 C34.34 13 33.68 13 33 13 C33 13.66 33 14.32 33 15 C26.34526202 13.71047748 20.45759227 11.76037702 14.25 9.0625 C13.42628906 8.71509766 12.60257812 8.36769531 11.75390625 8.00976562 C3.44392871 4.45694914 3.44392871 4.45694914 0 2 C0 1.34 0 0.68 0 0 Z " fill="#BFAB6D" transform="translate(283,396)"/>
<path d="M0 0 C4.41625486 1.50133168 5.58484926 4.38128602 7.6875 8.375 C11.51911662 15.44946363 16.01022842 21.69348314 21 28 C20.01 28.33 19.02 28.66 18 29 C12.63131189 22.37715115 7.5984021 15.7345653 3.375 8.3125 C3.03275391 7.7129248 2.69050781 7.11334961 2.33789062 6.49560547 C0 2.27792441 0 2.27792441 0 0 Z " fill="#98743F" transform="translate(206,322)"/>
<path d="M0 0 C0.61875 0.165 1.2375 0.33 1.875 0.5 C4.16786836 1.23577017 4.16786836 1.23577017 7 0 C9.125 0.25 9.125 0.25 11 1 C11.33 1.99 11.66 2.98 12 4 C11.67 4.66 11.34 5.32 11 6 C5.33333333 6 -0.33333333 6 -6 6 C-6 4.35 -6 2.7 -6 1 C-4.7934375 1.0309375 -4.7934375 1.0309375 -3.5625 1.0625 C-1.06645115 1.29633621 -1.06645115 1.29633621 0 0 Z " fill="#7D8289" transform="translate(277,298)"/>
<path d="M0 0 C0 0.66 0 1.32 0 2 C-3.70605005 2.84371205 -7.41516381 3.6731088 -11.125 4.5 C-12.17171875 4.73847656 -13.2184375 4.97695312 -14.296875 5.22265625 C-15.31523437 5.44824219 -16.33359375 5.67382812 -17.3828125 5.90625 C-18.78104248 6.22045898 -18.78104248 6.22045898 -20.20751953 6.54101562 C-23.18407693 7.03025569 -25.98883181 7.07770757 -29 7 C-26.38574414 3.07861621 -23.66123098 2.85532709 -19.3125 1.875 C-18.61705078 1.70613281 -17.92160156 1.53726563 -17.20507812 1.36328125 C-4.55002756 -1.63800992 -4.55002756 -1.63800992 0 0 Z " fill="#CAB977" transform="translate(337,66)"/>
<path d="M0 0 C0.93263672 -0.00386719 1.86527344 -0.00773437 2.82617188 -0.01171875 C3.73044922 -0.01042969 4.63472656 -0.00914063 5.56640625 -0.0078125 C6.78952515 -0.00612061 6.78952515 -0.00612061 8.03735352 -0.00439453 C10.58331827 0.13286122 12.95224209 0.56842161 15.4375 1.125 C15.4375 1.455 15.4375 1.785 15.4375 2.125 C10.93784522 2.46310356 6.43772839 2.79462609 1.9375 3.125 C0.03484375 3.26808594 0.03484375 3.26808594 -1.90625 3.4140625 C-8.1420729 3.86875792 -14.30988456 4.25131546 -20.5625 4.125 C-14.78816078 -0.98306931 -7.27815254 -0.03030459 0 0 Z " fill="#DBD28E" transform="translate(354.5625,62.875)"/>
<path d="M0 0 C-1 3 -1 3 -2.50390625 3.9921875 C-7.72193123 6.2298984 -13.03515887 8.0776092 -18.4375 9.8125 C-19.50303101 10.15933838 -19.50303101 10.15933838 -20.59008789 10.51318359 C-25.75966095 12.12016952 -25.75966095 12.12016952 -28 11 C-28 10.34 -28 9.68 -28 9 C-27.38479492 8.79842285 -26.76958984 8.5968457 -26.13574219 8.38916016 C-23.33944079 7.47094802 -20.54471607 6.54802549 -17.75 5.625 C-16.78191406 5.30789063 -15.81382812 4.99078125 -14.81640625 4.6640625 C-13.88183594 4.3546875 -12.94726562 4.0453125 -11.984375 3.7265625 C-11.12553711 3.44377441 -10.26669922 3.16098633 -9.38183594 2.86962891 C-6.99964262 2.05850941 -6.99964262 2.05850941 -4.87597656 0.89208984 C-3 0 -3 0 0 0 Z " fill="#B9A66B" transform="translate(435,399)"/>
<path d="M0 0 C0.51046875 0.38285156 1.0209375 0.76570313 1.546875 1.16015625 C-3.02646323 3.50530711 -7.75868256 5.41039398 -12.515625 7.34765625 C-13.42634766 7.72857422 -14.33707031 8.10949219 -15.27539062 8.50195312 C-16.15001953 8.85708984 -17.02464844 9.21222656 -17.92578125 9.578125 C-18.72250244 9.90578857 -19.51922363 10.23345215 -20.34008789 10.57104492 C-22.453125 11.16015625 -22.453125 11.16015625 -25.453125 10.16015625 C-20.43899313 6.68096271 -15.31751673 4.06623175 -9.703125 1.72265625 C-9.05335693 1.4395459 -8.40358887 1.15643555 -7.73413086 0.86474609 C-3.02606266 -1.03599279 -3.02606266 -1.03599279 0 0 Z " fill="#B7A369" transform="translate(309.453125,71.83984375)"/>
<path d="M0 0 C6.23505228 0.64285324 12.3861106 1.50005935 18.5625 2.5625 C19.38041016 2.70107422 20.19832031 2.83964844 21.04101562 2.98242188 C23.02772915 3.3193499 25.01392199 3.65934584 27 4 C27 4.99 27 5.98 27 7 C17.75404154 6.01391911 8.9025662 4.82920536 0 2 C0 1.34 0 0.68 0 0 Z " fill="#CEBF7D" transform="translate(316,409)"/>
<path d="M0 0 C2.52458117 0.56977342 5.04378339 1.1552722 7.5625 1.75 C8.26697266 1.90726562 8.97144531 2.06453125 9.69726562 2.2265625 C14.72456335 3.43126057 18.61484518 5.25711736 23 8 C19.51664404 9.19784792 17.30493975 8.78454679 13.796875 7.78515625 C12.8171875 7.51123047 11.8375 7.23730469 10.828125 6.95507812 C9.81234375 6.66052734 8.7965625 6.36597656 7.75 6.0625 C6.71875 5.77181641 5.6875 5.48113281 4.625 5.18164062 C2.0807248 4.46311846 -0.46062901 3.73563156 -3 3 C-2.01 2.67 -1.02 2.34 0 2 C0 1.34 0 0.68 0 0 Z " fill="#BCAD75" transform="translate(404,68)"/>
<path d="M0 0 C2.64 0 5.28 0 8 0 C8 2.64 8 5.28 8 8 C5.36 8 2.72 8 0 8 C0 5.36 0 2.72 0 0 Z " fill="#575D67" transform="translate(407,259)"/>
<path d="M0 0 C4.67199091 1.53093488 8.02170005 4.10757395 11.8125 7.125 C12.40998047 7.59292969 13.00746094 8.06085938 13.62304688 8.54296875 C15.08616792 9.69005565 16.54366297 10.84431234 18 12 C17.67 12.99 17.34 13.98 17 15 C14.37261708 13.21180836 11.74851693 11.41885773 9.125 9.625 C8.37863281 9.11710937 7.63226563 8.60921875 6.86328125 8.0859375 C6.14785156 7.59609375 5.43242187 7.10625 4.6953125 6.6015625 C4.03547363 6.15119629 3.37563477 5.70083008 2.69580078 5.23681641 C1 4 1 4 -1 2 C-0.67 1.34 -0.34 0.68 0 0 Z " fill="#AB9059" transform="translate(455,90)"/>
<path d="M0 0 C2.45840605 -0.02691685 4.91651882 -0.04679802 7.375 -0.0625 C8.07367188 -0.07087891 8.77234375 -0.07925781 9.4921875 -0.08789062 C14.7734375 -0.11328125 14.7734375 -0.11328125 17 1 C17 1.66 17 2.32 17 3 C7.76 3 -1.48 3 -11 3 C-11 2.67 -11 2.34 -11 2 C-5.555 1.505 -5.555 1.505 0 1 C0 0.67 0 0.34 0 0 Z " fill="#CCC488" transform="translate(365,63)"/>
<path d="M0 0 C0.66 0.33 1.32 0.66 2 1 C-1.60713139 4.9875445 -4.89265412 7.17559724 -9.8125 9.3125 C-10.97394531 9.82425781 -12.13539063 10.33601563 -13.33203125 10.86328125 C-14.21246094 11.23839844 -15.09289062 11.61351562 -16 12 C-16.33 11.01 -16.66 10.02 -17 9 C-15.85660156 8.43410156 -14.71320313 7.86820312 -13.53515625 7.28515625 C-12.04421862 6.54437592 -10.55333604 5.80348478 -9.0625 5.0625 C-8.30775391 4.68931641 -7.55300781 4.31613281 -6.77539062 3.93164062 C-6.05673828 3.57392578 -5.33808594 3.21621094 -4.59765625 2.84765625 C-3.93258057 2.51773682 -3.26750488 2.18781738 -2.58227539 1.84790039 C-1.00380637 1.10022992 -1.00380637 1.10022992 0 0 Z " fill="#B59E63" transform="translate(451,389)"/>
<path d="M0 0 C8.05358138 -0.14525497 15.97875848 0.28586721 24 1 C17.50875857 5.32749429 7.45791887 2.99438918 0 2 C0 1.34 0 0.68 0 0 Z " fill="#E6DC91" transform="translate(343,414)"/>
<path d="M0 0 C0.99 0.33 1.98 0.66 3 1 C1.40764308 3.34222857 -0.19773557 5.67330188 -1.8125 8 C-2.26431641 8.66773438 -2.71613281 9.33546875 -3.18164062 10.0234375 C-4.37950812 11.73717493 -5.68400422 13.37521151 -7 15 C-7.99 15 -8.98 15 -10 15 C-8.59601721 10.89889238 -6.62912962 8.01910841 -3.875 4.6875 C-3.15054688 3.80449219 -2.42609375 2.92148438 -1.6796875 2.01171875 C-1.12539062 1.34785156 -0.57109375 0.68398437 0 0 Z " fill="#987440" transform="translate(224,129)"/>
<path d="M0 0 C0.99 0 1.98 0 3 0 C3.18451025 12.66970387 3.18451025 12.66970387 2 18 C1.01 18 0.02 18 -1 18 C-0.505 9.09 -0.505 9.09 0 0 Z " fill="#E5E6E8" transform="translate(374,201)"/>
<path d="M0 0 C4.18659858 3.82774727 7.37820862 7.94607874 10 13 C10 13.66 10 14.32 10 15 C8.203125 14.80078125 8.203125 14.80078125 6 14 C4.296875 11.85546875 4.296875 11.85546875 2.75 9.1875 C2.22921875 8.31480469 1.7084375 7.44210938 1.171875 6.54296875 C0 4 0 4 0 0 Z " fill="#96723E" transform="translate(505,137)"/>
<path d="M0 0 C0.33 0.66 0.66 1.32 1 2 C-3.95 8.93 -3.95 8.93 -9 16 C-9.66 15.67 -10.32 15.34 -11 15 C-9.4628015 11.70270923 -7.57926258 8.79483213 -5.5 5.8125 C-4.8915625 4.93207031 -4.283125 4.05164063 -3.65625 3.14453125 C-2 1 -2 1 0 0 Z " fill="#997540" transform="translate(509,335)"/>
<path d="M0 0 C4.97209562 1.76429199 9.43438061 4.3939166 14 7 C13.67 7.99 13.34 8.98 13 10 C11.22566188 9.06915029 9.45564851 8.13005387 7.6875 7.1875 C6.70136719 6.66542969 5.71523438 6.14335937 4.69921875 5.60546875 C2.38334932 4.2280124 0.76388999 3.00469409 -1 1 C-0.67 0.67 -0.34 0.34 0 0 Z " fill="#B59C60" transform="translate(269,388)"/>
<path d="M0 0 C0.66 0.33 1.32 0.66 2 1 C0.73459948 4.79620155 -0.78218431 5.48678188 -4.0625 7.6875 C-4.98160156 8.31011719 -5.90070313 8.93273437 -6.84765625 9.57421875 C-7.55792969 10.04472656 -8.26820313 10.51523438 -9 11 C-9.66 10.67 -10.32 10.34 -11 10 C-7.50640535 6.40365256 -3.88901869 3.16548033 0 0 Z " fill="#AB8E55" transform="translate(261,94)"/>
<path d="M0 0 C4.06476236 0.30109351 7.58868696 2.96633261 11 5 C11 5.99 11 6.98 11 8 C6.1725201 6.58707905 2.2837641 4.57025846 -2 2 C-1.34 1.34 -0.68 0.68 0 0 Z " fill="#B09961" transform="translate(444,84)"/>
<path d="M0 0 C1.98 0 3.96 0 6 0 C6.33 0.66 6.66 1.32 7 2 C7.66 1.67 8.32 1.34 9 1 C9 2.65 9 4.3 9 6 C7.33333333 6 5.66666667 6 4 6 C4 4.68 4 3.36 4 2 C3.67 3.32 3.34 4.64 3 6 C2.01 6 1.02 6 0 6 C0 4.02 0 2.04 0 0 Z " fill="#A1A4AA" transform="translate(434,298)"/>
<path d="M0 0 C3.9429464 1.46596725 5.01834588 3.37308275 6.75 7.125 C7.17796875 8.03507812 7.6059375 8.94515625 8.046875 9.8828125 C8.51867187 10.93082031 8.51867187 10.93082031 9 12 C8.01 12.33 7.02 12.66 6 13 C4.99491199 11.21118264 3.99607264 9.41885304 3 7.625 C2.1646875 6.12839844 2.1646875 6.12839844 1.3125 4.6015625 C0 2 0 2 0 0 Z " fill="#946D39" transform="translate(206,322)"/>
<path d="M0 0 C2.64 0 5.28 0 8 0 C8 1.65 8 3.3 8 5 C5.36 5 2.72 5 0 5 C0 3.35 0 1.7 0 0 Z " fill="#9A9DA3" transform="translate(271,299)"/>
<path d="M0 0 C1.134375 0.020625 2.26875 0.04125 3.4375 0.0625 C3.1075 2.0425 2.7775 4.0225 2.4375 6.0625 C1.7775 6.0625 1.1175 6.0625 0.4375 6.0625 C0.4375 4.7425 0.4375 3.4225 0.4375 2.0625 C-0.5525 2.5575 -0.5525 2.5575 -1.5625 3.0625 C-1.2325 4.0525 -0.9025 5.0425 -0.5625 6.0625 C-1.8825 6.0625 -3.2025 6.0625 -4.5625 6.0625 C-4.605221 4.39638095 -4.60313832 2.72867115 -4.5625 1.0625 C-3.5625 0.0625 -3.5625 0.0625 0 0 Z " fill="#94989E" transform="translate(390.5625,297.9375)"/>
<path d="M0 0 C2.74708629 4.12062943 3.11949692 6.84276139 3.0625 11.6875 C3.05347656 12.68136719 3.04445313 13.67523438 3.03515625 14.69921875 C3.02355469 15.45847656 3.01195312 16.21773437 3 17 C0.84197329 13.76295994 0.42630053 11.73567919 -0.1875 7.9375 C-0.36667969 6.87402344 -0.54585938 5.81054688 -0.73046875 4.71484375 C-1 2 -1 2 0 0 Z " fill="#F0F1F1" transform="translate(373,187)"/>
<path d="M0 0 C2.5419589 -0.05434116 5.08273682 -0.0938339 7.625 -0.125 C8.33785156 -0.14175781 9.05070312 -0.15851563 9.78515625 -0.17578125 C14.2612164 -0.21684602 17.77949278 0.30913433 22 2 C22 2.33 22 2.66 22 3 C18.04 3 14.08 3 10 3 C10 2.67 10 2.34 10 2 C6.7 1.67 3.4 1.34 0 1 C0 0.67 0 0.34 0 0 Z " fill="#C0BA84" transform="translate(354,414)"/>
<path d="M0 0 C0.8353125 0.556875 0.8353125 0.556875 1.6875 1.125 C-6.32412791 5.43895349 -6.32412791 5.43895349 -10.6875 4.75 C-11.22375 4.54375 -11.76 4.3375 -12.3125 4.125 C-3.58934049 -1.35812883 -3.58934049 -1.35812883 0 0 Z " fill="#BDAB70" transform="translate(309.3125,71.875)"/>
<path d="M0 0 C0 0.66 0 1.32 0 2 C-1.78810766 2.69670416 -3.58062052 3.38211189 -5.375 4.0625 C-6.37273437 4.44535156 -7.37046875 4.82820313 -8.3984375 5.22265625 C-11 6 -11 6 -13 5 C-13 4.34 -13 3.68 -13 3 C-11.58603098 2.49242138 -10.16868271 1.99425075 -8.75 1.5 C-7.96109375 1.2215625 -7.1721875 0.943125 -6.359375 0.65625 C-4 0 -4 0 0 0 Z " fill="#C3B274" transform="translate(420,405)"/>
<path d="M0 0 C2.31 0 4.62 0 7 0 C8 3 8 3 8 6 C7.01 5.67 6.02 5.34 5 5 C4.67 4.34 4.34 3.68 4 3 C3.67 3.99 3.34 4.98 3 6 C2.34 6 1.68 6 1 6 C0.67 4.02 0.34 2.04 0 0 Z " fill="#9B9EA4" transform="translate(444,298)"/>
<path d="M0 0 C0 0.66 0 1.32 0 2 C-5.94 2.495 -5.94 2.495 -12 3 C-11.67 2.01 -11.34 1.02 -11 0 C-3.57142857 -1.28571429 -3.57142857 -1.28571429 0 0 Z " fill="#CCBF7F" transform="translate(337,66)"/>
<path d="M0 0 C1.98 0 3.96 0 6 0 C6 1.32 6 2.64 6 4 C3.92446352 4.5534764 2.15634036 5 0 5 C0 3.35 0 1.7 0 0 Z " fill="#979AA0" transform="translate(315,299)"/>
<path d="M0 0 C2.475 0.495 2.475 0.495 5 1 C4.67 2.32 4.34 3.64 4 5 C2.68 5 1.36 5 0 5 C0 3.35 0 1.7 0 0 Z " fill="#94979D" transform="translate(326,299)"/>
<path d="M0 0 C1.98 0.99 1.98 0.99 4 2 C3.67 3.65 3.34 5.3 3 7 C2.01 7 1.02 7 0 7 C0 4.69 0 2.38 0 0 Z " fill="#737880" transform="translate(358,208)"/>
<path d="M0 0 C0 1.32 0 2.64 0 4 C-2.31 4 -4.62 4 -7 4 C-6.67 3.01 -6.34 2.02 -6 1 C-3 0 -3 0 0 0 Z " fill="#72767F" transform="translate(358,300)"/>
<path d="M0 0 C1.5 1.3125 1.5 1.3125 3 3 C3 3.99 3 4.98 3 6 C1.35 6 -0.3 6 -2 6 C-1.34 4.02 -0.68 2.04 0 0 Z " fill="#A3A7AC" transform="translate(371,298)"/>
<path d="M0 0 C5.75 0.875 5.75 0.875 8 2 C8 2.66 8 3.32 8 4 C5.69 3.67 3.38 3.34 1 3 C0.67 2.01 0.34 1.02 0 0 Z " fill="#C7B472" transform="translate(301,404)"/>
<path d="M0 0 C5.53846154 0.61538462 5.53846154 0.61538462 7.875 2.5625 C8.431875 3.2740625 8.431875 3.2740625 9 4 C6.36 3.67 3.72 3.34 1 3 C0.67 2.01 0.34 1.02 0 0 Z " fill="#CAB571" transform="translate(418,73)"/>
<path d="M0 0 C-0.99 1.485 -0.99 1.485 -2 3 C-3.9453125 3.29296875 -3.9453125 3.29296875 -6.125 3.1875 C-7.40375 3.125625 -8.6825 3.06375 -10 3 C-6.68152292 -0.06320961 -4.44849969 -0.3033068 0 0 Z " fill="#D6CA86" transform="translate(344,64)"/>
<path d="M0 0 C2.97 0 5.94 0 9 0 C8.67 0.66 8.34 1.32 8 2 C5.67843403 2.40729228 3.3431213 2.74438677 1 3 C0.67 2.01 0.34 1.02 0 0 Z " fill="#D7CB86" transform="translate(380,413)"/>
<path d="M0 0 C0.33 0.66 0.66 1.32 1 2 C-1.31 2.33 -3.62 2.66 -6 3 C-6 2.34 -6 1.68 -6 1 C-6.66 0.67 -7.32 0.34 -8 0 C-2.25 -1.125 -2.25 -1.125 0 0 Z " fill="#BFB279" transform="translate(326,68)"/>
<path d="M0 0 C2.64 0 5.28 0 8 0 C8 0.99 8 1.98 8 3 C5.6568787 2.74438677 3.32156597 2.40729228 1 2 C0.67 1.34 0.34 0.68 0 0 Z " fill="#DBCE87" transform="translate(335,413)"/>
<path d="M0 0 C0.625 1.8125 0.625 1.8125 1 4 C0.01 5.485 0.01 5.485 -1 7 C-1.66 6.67 -2.32 6.34 -3 6 C-2.625 3.5625 -2.625 3.5625 -2 1 C-1.34 0.67 -0.68 0.34 0 0 Z " fill="#846237" transform="translate(200,171)"/>
</svg>
