<?xml version="1.0" encoding="UTF-8"?>
<svg version="1.1" xmlns="http://www.w3.org/2000/svg" width="582" height="368">
<path d="M0 0 C192.06 0 384.12 0 582 0 C582 121.44 582 242.88 582 368 C389.94 368 197.88 368 0 368 C0 246.56 0 125.12 0 0 Z " fill="#495057" transform="translate(0,0)"/>
<path d="M0 0 C2.63614798 2.39627381 4.32582505 4.97691125 6.13671875 8.03515625 C6.71357422 9.00904297 7.29042969 9.98292969 7.88476562 10.98632812 C8.47966797 12.00146484 9.07457031 13.01660156 9.6875 14.0625 C10.29400391 15.08150391 10.90050781 16.10050781 11.52539062 17.15039062 C16 24.74564996 16 24.74564996 16 27 C5.77 27 -4.46 27 -15 27 C-9.18965517 15.37931034 -9.18965517 15.37931034 -6.3125 10.375 C-5.73113281 9.35148438 -5.14976562 8.32796875 -4.55078125 7.2734375 C-4.03902344 6.52320313 -3.52726562 5.77296875 -3 5 C-2.34 5 -1.68 5 -1 5 C-1 4.01 -1 3.02 -1 2 C-0.67 1.34 -0.34 0.68 0 0 Z " fill="#BEC0C1" transform="translate(299,129)"/>
<path d="M0 0 C1.3921875 0.3403125 1.3921875 0.3403125 2.8125 0.6875 C3.30053157 8.85750995 3.06869555 18.31287206 -1.984375 25.1015625 C-4.1875 26.6875 -4.1875 26.6875 -6.9375 26.4375 C-7.68 26.19 -8.4225 25.9425 -9.1875 25.6875 C-9.57092282 17.55041578 -10.01882844 7.66822698 -4.78125 0.859375 C-3.1875 -0.3125 -3.1875 -0.3125 0 0 Z " fill="#8E8F90" transform="translate(264.1875,129.3125)"/>
<path d="M0 0 C2.1640625 0.34765625 2.1640625 0.34765625 4.7265625 1.97265625 C6.62949901 5.1166383 6.8286918 6.72911896 6.1640625 10.34765625 C3.55616422 13.9829084 2.0938267 15.18162693 -2.3359375 15.97265625 C-5.8359375 15.34765625 -5.8359375 15.34765625 -8.8359375 13.28515625 C-10.8359375 10.34765625 -10.8359375 10.34765625 -10.8359375 6.72265625 C-8.9656013 0.41027156 -6.17380155 -0.23126618 0 0 Z " fill="#CFD0D2" transform="translate(254.8359375,163.65234375)"/>
<path d="M0 0 C10.48121592 -0.36992527 10.48121592 -0.36992527 12.82421875 1.30078125 C14.85392099 4.23407186 14.47445243 6.5602199 14 10 C12.0625 12.9375 12.0625 12.9375 9 15 C5.87335485 15.40782328 3.17557846 15.23698347 0 15 C0 10.05 0 5.1 0 0 Z " fill="#9C9EA0" transform="translate(169,164)"/>
<path d="M0 0 C5.625 -0.25 5.625 -0.25 9 2 C9.59228608 7.13314606 8.94967032 10.72806367 6 15 C3.3125 15.875 3.3125 15.875 1 16 C0.67 19.3 0.34 22.6 0 26 C-1.32 26.33 -2.64 26.66 -4 27 C-3.50137275 17.76679887 -1.95827206 9.01544116 0 0 Z " fill="#6D6D6E" transform="translate(271,129)"/>
<path d="M0 0 C1.32 0.33 2.64 0.66 4 1 C5.75 4.5625 5.75 4.5625 7 8 C9.01136276 5.44008376 10.62845496 2.95409701 12 0 C12.99 0 13.98 0 15 0 C15.33 4.95 15.66 9.9 16 15 C14.68 15 13.36 15 12 15 C11.67 12.69 11.34 10.38 11 8 C9.68 10.31 8.36 12.62 7 15 C4.27573689 12.64722731 3.1858237 10.37503669 2 7 C1.67 9.64 1.34 12.28 1 15 C0.01 15 -0.98 15 -2 15 C-1.34 10.05 -0.68 5.1 0 0 Z " fill="#787A7B" transform="translate(450,164)"/>
<path d="M0 0 C1 1 1 1 1.0625 4.0625 C1.041875 5.031875 1.02125 6.00125 1 7 C0.01 7 -0.98 7 -2 7 C-2 5.68 -2 4.36 -2 3 C-3.66621425 4.1645201 -3.66621425 4.1645201 -5 6 C-4.99077298 8.54713404 -4.99077298 8.54713404 -4 11 C-3.2265625 11.6496875 -3.2265625 11.6496875 -2.4375 12.3125 C-0.40514144 14.69831223 -0.52497404 16.95049673 -0.6484375 19.9921875 C-1.21690578 23.23877301 -2.5437234 24.87565267 -5 27 C-7.75 27.3125 -7.75 27.3125 -10 27 C-11.35439668 24.29120665 -11.06501451 21.99066732 -11 19 C-10.01 19 -9.02 19 -8 19 C-8 20.65 -8 22.3 -8 24 C-7.34 23.67 -6.68 23.34 -6 23 C-4.9872962 19.66364808 -4.9872962 19.66364808 -5 16 C-5.66 15.401875 -6.32 14.80375 -7 14.1875 C-9 12 -9 12 -9.15234375 9.60546875 C-8.94384055 6.95558266 -8.74326199 4.55468492 -8 2 C-4.77786243 -0.14809171 -3.72224599 -0.29386153 0 0 Z " fill="#707172" transform="translate(214,129)"/>
<path d="M0 0 C2.64 0 5.28 0 8 0 C8 0.99 8 1.98 8 3 C6.35 3 4.7 3 3 3 C2.67 5.64 2.34 8.28 2 11 C3.32 11 4.64 11 6 11 C5.67 11.99 5.34 12.98 5 14 C3.68 14 2.36 14 1 14 C0.67 16.97 0.34 19.94 0 23 C1.32 23 2.64 23 4 23 C4 24.32 4 25.64 4 27 C1.36 27 -1.28 27 -4 27 C-2.93170365 17.94221076 -1.78270374 8.95144855 0 0 Z " fill="#B1B3B4" transform="translate(229,129)"/>
<path d="M0 0 C1.2065625 0.0309375 1.2065625 0.0309375 2.4375 0.0625 C3.13824844 3.215868 3.4375 5.78974974 3.4375 9.0625 C4.7575 8.4025 6.0775 7.7425 7.4375 7.0625 C7.23125 7.825625 7.025 8.58875 6.8125 9.375 C6.10358797 12.28135944 6.10358797 12.28135944 8.4375 15.0625 C6.31277424 15.11636629 4.18766348 15.15523071 2.0625 15.1875 C0.28746094 15.22230469 0.28746094 15.22230469 -1.5234375 15.2578125 C-4.5625 15.0625 -4.5625 15.0625 -6.5625 13.0625 C-6.17371812 10.04944043 -5.29793126 8.66564689 -3.5625 6.0625 C-3.5228287 4.39630554 -3.51865553 2.72858987 -3.5625 1.0625 C-2.5625 0.0625 -2.5625 0.0625 0 0 Z " fill="#C6C7C9" transform="translate(296.5625,163.9375)"/>
<path d="M0 0 C2.97 0 5.94 0 9 0 C9.625 2.3125 9.625 2.3125 10 5 C9.01 6.485 9.01 6.485 8 8 C8.7425 9.175625 8.7425 9.175625 9.5 10.375 C11 13 11 13 11 15 C9.68 15 8.36 15 7 15 C6.34 13.68 5.68 12.36 5 11 C4.67 12.32 4.34 13.64 4 15 C2.68 15 1.36 15 0 15 C0 10.05 0 5.1 0 0 Z " fill="#BCBEC0" transform="translate(232,164)"/>
<path d="M0 0 C6.93359375 -0.09765625 6.93359375 -0.09765625 9 0 C10 1 10 1 10.1875 3.4375 C10 6 10 6 8 8 C8.99 9.98 9.98 11.96 11 14 C8.5625 13.625 8.5625 13.625 6 13 C5.67 12.34 5.34 11.68 5 11 C4.67 12.32 4.34 13.64 4 15 C2.68 15 1.36 15 0 15 C0 10.05 0 5.1 0 0 Z " fill="#74777A" transform="translate(99,164)"/>
<path d="M0 0 C0.99 0 1.98 0 3 0 C3.33 1.98 3.66 3.96 4 6 C4.99 4.02 5.98 2.04 7 0 C7.99 0 8.98 0 10 0 C9.5625 1.3125 9.125 2.625 8.6875 3.9375 C8.27757812 5.17306641 8.27757812 5.17306641 7.859375 6.43359375 C7.31677709 8.05398843 6.76579364 9.67162118 6.203125 11.28515625 C4.41369578 16.46171935 3.07892168 21.63077801 2 27 C1.34 27 0.68 27 0 27 C0 18.09 0 9.18 0 0 Z " fill="#A7A8A9" transform="translate(321,129)"/>
<path d="M0 0 C4.81429916 2.40714958 6.6345082 4.86962371 10 9 C10.33 6.03 10.66 3.06 11 0 C11.66 0 12.32 0 13 0 C13 5.28 13 10.56 13 16 C10 16 10 16 8.46484375 14.50390625 C7.96082031 13.86324219 7.45679688 13.22257813 6.9375 12.5625 C4.8328667 9.84124807 4.8328667 9.84124807 2 8 C2 10.64 2 13.28 2 16 C1.01 16 0.02 16 -1 16 C-0.67 10.72 -0.34 5.44 0 0 Z " fill="#6A6B6D" transform="translate(480,163)"/>
<path d="M0 0 C0.99 0 1.98 0 3 0 C2.6893306 2.70855454 2.37652255 5.41683388 2.0625 8.125 C1.97548828 8.88554687 1.88847656 9.64609375 1.79882812 10.4296875 C1.3084513 14.64329577 0.74097022 18.821195 0 23 C0.99 23 1.98 23 3 23 C3 24.32 3 25.64 3 27 C0.36 27 -2.28 27 -5 27 C-4.52581532 23.9177996 -4.05119953 20.83567567 -3.57421875 17.75390625 C-3.19319909 15.26302263 -2.8207173 12.77081716 -2.45703125 10.27734375 C-2.28558594 9.11332031 -2.11414063 7.94929687 -1.9375 6.75 C-1.78152344 5.67234375 -1.62554687 4.5946875 -1.46484375 3.484375 C-1 1 -1 1 0 0 Z " fill="#D1D2D3" transform="translate(249,129)"/>
<path d="M0 0 C3.3 0 6.6 0 10 0 C10 0.99 10 1.98 10 3 C9.01 3 8.02 3 7 3 C5.68 10.92 4.36 18.84 3 27 C1.68 27 0.36 27 -1 27 C0.19960703 18.97284232 1.49746145 10.9762419 3 3 C2.01 3 1.02 3 0 3 C0 2.01 0 1.02 0 0 Z " fill="#999A9B" transform="translate(217,129)"/>
<path d="M0 0 C1.32 0 2.64 0 4 0 C2.68 7.59 1.36 15.18 0 23 C1.32 23 2.64 23 4 23 C3.67 24.32 3.34 25.64 3 27 C0.69 27 -1.62 27 -4 27 C-2.93170365 17.94221076 -1.78270374 8.95144855 0 0 Z " fill="#CDCFD0" transform="translate(239,129)"/>
<path d="M0 0 C2.34058637 2.12780579 3.70700306 4.11562221 5 7 C5.66 5.68 6.32 4.36 7 3 C8.17192047 4.95519384 9.3373929 6.9142539 10.5 8.875 C11.1496875 9.96554688 11.799375 11.05609375 12.46875 12.1796875 C14 15 14 15 14 17 C11.36 17 8.72 17 6 17 C6 16.01 6 15.02 6 14 C5.01 13.67 4.02 13.34 3 13 C3.99 13 4.98 13 6 13 C6 12.01 6 11.02 6 10 C4.54119891 10.14107747 3.08296449 10.28802415 1.625 10.4375 C0.81289063 10.51871094 0.00078125 10.59992188 -0.8359375 10.68359375 C-3.04272805 10.89090114 -3.04272805 10.89090114 -5 12 C-3.92598892 9.08482708 -3.22189824 7.22189824 -1 5 C-0.67 5.99 -0.34 6.98 0 8 C0.99 8 1.98 8 3 8 C2.505 7.05125 2.01 6.1025 1.5 5.125 C0 2 0 2 0 0 Z " fill="#8A8D90" transform="translate(301,139)"/>
<path d="M0 0 C0.66 0.99 1.32 1.98 2 3 C2.66 2.67 3.32 2.34 4 2 C2.125 6.75 2.125 6.75 1 9 C0.77532169 10.53668865 0.59203195 12.07968054 0.4375 13.625 C0.2209375 15.790625 0.2209375 15.790625 0 18 C-3.3 18 -6.6 18 -10 18 C-6.99599866 11.76190359 -3.80083844 5.79021346 0 0 Z " fill="#9B9DA0" transform="translate(294,138)"/>
<path d="M0 0 C9.21641791 -0.48507463 9.21641791 -0.48507463 12.625 1.625 C14.42208081 4.72904866 14.58890625 6.46656253 14 10 C12 12.375 12 12.375 10 14 C9.01 13.67 8.02 13.34 7 13 C7.66 12.34 8.32 11.68 9 11 C9.24212873 9.01871492 9.24212873 9.01871492 9.125 6.875 C9.08375 5.59625 9.0425 4.3175 9 3 C7.02 2.34 5.04 1.68 3 1 C3 5.29 3 9.58 3 14 C2.01 14 1.02 14 0 14 C0 9.38 0 4.76 0 0 Z " fill="#616262" transform="translate(17,164)"/>
<path d="M0 0 C2.5 -0.3125 2.5 -0.3125 5 0 C7 2 7 2 7.265625 3.875 C7.26046875 4.57625 7.2553125 5.2775 7.25 6 C7.25515625 6.70125 7.2603125 7.4025 7.265625 8.125 C7 10 7 10 5 12 C1.875 12.125 1.875 12.125 -1 12 C-2.50934217 8.98131566 -2.17510672 6.32702771 -2 3 C-1.34 2.01 -0.68 1.02 0 0 Z " fill="#4D545B" transform="translate(250,165)"/>
<path d="M0 0 C3 0 3 0 4.82421875 1.75 C5.43910156 2.4925 6.05398438 3.235 6.6875 4 C7.31011719 4.7425 7.93273437 5.485 8.57421875 6.25 C9.04472656 6.8275 9.51523437 7.405 10 8 C10.33 5.36 10.66 2.72 11 0 C11.66 0 12.32 0 13 0 C13 4.95 13 9.9 13 15 C10 15 10 15 8.17578125 13.3203125 C7.56089844 12.59585938 6.94601562 11.87140625 6.3125 11.125 C5.68988281 10.40570313 5.06726563 9.68640625 4.42578125 8.9453125 C3 7 3 7 3 5 C2.34 5 1.68 5 1 5 C1 7.97 1 10.94 1 14 C0.67 14 0.34 14 0 14 C0 9.38 0 4.76 0 0 Z " fill="#9E9FA0" transform="translate(375,164)"/>
<path d="M0 0 C0.99 0 1.98 0 3 0 C3.83739781 2.1234016 4.66980283 4.2487728 5.5 6.375 C5.9640625 7.55835938 6.428125 8.74171875 6.90625 9.9609375 C8 13 8 13 8 15 C6.68 15 5.36 15 4 15 C3.67 13.35 3.34 11.7 3 10 C1.35 10.33 -0.3 10.66 -2 11 C-2.33 12.32 -2.66 13.64 -3 15 C-3.99 15 -4.98 15 -6 15 C-4.36041242 9.76727367 -2.61047965 4.84803364 0 0 Z " fill="#7F8183" transform="translate(426,164)"/>
<path d="M0 0 C4.35143616 1.08785904 5.0207114 1.75586189 7.75 5.0625 C8.36359375 5.79597656 8.9771875 6.52945313 9.609375 7.28515625 C10.06828125 7.85105469 10.5271875 8.41695312 11 9 C11.33 6.03 11.66 3.06 12 0 C12.33 0 12.66 0 13 0 C13 4.62 13 9.24 13 14 C10 14 10 14 8.17578125 12.25 C7.56089844 11.5075 6.94601562 10.765 6.3125 10 C5.68988281 9.2575 5.06726563 8.515 4.42578125 7.75 C3.95527344 7.1725 3.48476563 6.595 3 6 C2.67 8.97 2.34 11.94 2 15 C1.34 15 0.68 15 0 15 C0 10.05 0 5.1 0 0 Z " fill="#B7B9BA" transform="translate(320,164)"/>
<path d="M0 0 C0.66 0 1.32 0 2 0 C1.79503906 1.07378906 1.59007812 2.14757812 1.37890625 3.25390625 C1.10668868 4.6900886 0.83455789 6.1262874 0.5625 7.5625 C0.42779297 8.26697266 0.29308594 8.97144531 0.15429688 9.69726562 C-0.68138642 14.12027231 -1.39625245 18.53930209 -2 23 C-0.35 22.34 1.3 21.68 3 21 C2.67 22.32 2.34 23.64 2 25 C0.0085944 25.38133299 -1.99279077 25.71325582 -4 26 C-5.73419159 24.26580841 -5.2135677 21.98702756 -5.25 19.625 C-5.20322128 13.10716556 -4.83536226 4.83536226 0 0 Z " fill="#A6A7A8" transform="translate(260,130)"/>
<path d="M0 0 C6.0546875 -0.1953125 6.0546875 -0.1953125 8 0 C8.66 0.66 9.32 1.32 10 2 C9.44444444 6.55555556 9.44444444 6.55555556 8 8 C6.33382885 8.04063832 4.66611905 8.042721 3 8 C3 9.98 3 11.96 3 14 C2.01 14 1.02 14 0 14 C0 9.38 0 4.76 0 0 Z " fill="#B4B6B7" transform="translate(192,164)"/>
<path d="M0 0 C2.97 0 5.94 0 9 0 C9 0.66 9 1.32 9 2 C7.35 2 5.7 2 4 2 C4 3.32 4 4.64 4 6 C5.65 6 7.3 6 9 6 C9 6.66 9 7.32 9 8 C7.35 8 5.7 8 4 8 C4 9.65 4 11.3 4 13 C5.65 13 7.3 13 9 13 C9 13.66 9 14.32 9 15 C6.03 15 3.06 15 0 15 C0 10.05 0 5.1 0 0 Z " fill="#96989A" transform="translate(158,164)"/>
<path d="M0 0 C0.99 0 1.98 0 3 0 C3.83986084 1.93467942 4.67168027 3.87285129 5.5 5.8125 C5.9640625 6.89144531 6.428125 7.97039062 6.90625 9.08203125 C8 12 8 12 8 15 C6.68 15 5.36 15 4 15 C3.67 13.68 3.34 12.36 3 11 C1.35 10.67 -0.3 10.34 -2 10 C-2.33 11.65 -2.66 13.3 -3 15 C-3.66 15 -4.32 15 -5 15 C-4.37321829 11.33827525 -3.35548154 8.1181005 -1.9375 4.6875 C-1.39416016 3.36298828 -1.39416016 3.36298828 -0.83984375 2.01171875 C-0.56269531 1.34785156 -0.28554688 0.68398437 0 0 Z " fill="#999B9E" transform="translate(364,164)"/>
<path d="M0 0 C6.15234375 -0.09765625 6.15234375 -0.09765625 8 0 C9 1 9 1 9.0625 4.0625 C9.041875 5.031875 9.02125 6.00125 9 7 C7.02 7.33 5.04 7.66 3 8 C3 9.98 3 11.96 3 14 C2.01 14 1.02 14 0 14 C0 9.38 0 4.76 0 0 Z " fill="#959697" transform="translate(410,164)"/>
<path d="M0 0 C3.3 0 6.6 0 10 0 C10.33 0.99 10.66 1.98 11 3 C10.01 3.33 9.02 3.66 8 4 C7.67 7.96 7.34 11.92 7 16 C5.68 16 4.36 16 3 16 C3 11.71 3 7.42 3 3 C1.68 3 0.36 3 -1 3 C-0.67 2.01 -0.34 1.02 0 0 Z " fill="#636567" transform="translate(496,163)"/>
<path d="M0 0 C0.763125 0.20625 1.52625 0.4125 2.3125 0.625 C1.9825 1.615 1.6525 2.605 1.3125 3.625 C0.3225 3.295 -0.6675 2.965 -1.6875 2.625 C-1.6875 3.285 -1.6875 3.945 -1.6875 4.625 C-0.06123596 6.00732443 1.6050002 7.34437515 3.3125 8.625 C2.9375 11.5625 2.9375 11.5625 2.3125 14.625 C-0.39629335 15.97939668 -2.69683268 15.69001451 -5.6875 15.625 C-5.3575 14.305 -5.0275 12.985 -4.6875 11.625 C-2.2125 12.615 -2.2125 12.615 0.3125 13.625 C-0.37014644 10.41004624 -0.37014644 10.41004624 -3.25 9.3125 C-4.054375 8.755625 -4.85875 8.19875 -5.6875 7.625 C-6.1875 4.5625 -6.1875 4.5625 -5.6875 1.625 C-2.6875 -0.375 -2.6875 -0.375 0 0 Z " fill="#5F6162" transform="translate(513.6875,163.375)"/>
<path d="M0 0 C0.66 0 1.32 0 2 0 C2.83764268 1.95649397 3.66999059 3.91525556 4.5 5.875 C4.9640625 6.96554688 5.428125 8.05609375 5.90625 9.1796875 C7 12 7 12 7 14 C5.68 13.67 4.36 13.34 3 13 C3 12.01 3 11.02 3 10 C1.02 10 -0.96 10 -3 10 C-3.33 11.65 -3.66 13.3 -4 15 C-4.66 15 -5.32 15 -6 15 C-4.36041242 9.76727367 -2.61047965 4.84803364 0 0 Z " fill="#ABADB0" transform="translate(209,164)"/>
<path d="M0 0 C3.63 0 7.26 0 11 0 C8.69 3.96 6.38 7.92 4 12 C6.31 12.33 8.62 12.66 11 13 C11 13.66 11 14.32 11 15 C7.04 15 3.08 15 -1 15 C0.41156979 11.47107553 1.77384533 8.45137797 3.625 5.1875 C4.07101563 4.39730469 4.51703125 3.60710937 4.9765625 2.79296875 C5.31429687 2.20128906 5.65203125 1.60960937 6 1 C4.02 1 2.04 1 0 1 C0 0.67 0 0.34 0 0 Z " fill="#9C9D9F" transform="translate(145,164)"/>
<path d="M0 0 C0.26404456 6.86515862 -0.74158054 13.25846717 -2 20 C-3.32 20.33 -4.64 20.66 -6 21 C-5.56600274 14.14741173 -5.10519153 7.56324417 -3 1 C-1 0 -1 0 0 0 Z " fill="#7B7C7E" transform="translate(273,135)"/>
<path d="M0 0 C2.475 0.495 2.475 0.495 5 1 C5.33 2.32 5.66 3.64 6 5 C8.51083114 3.74458443 8.87125446 2.49936512 10 0 C10.66 0 11.32 0 12 0 C11.566875 0.928125 11.566875 0.928125 11.125 1.875 C9.58288195 6.15866124 8.81601453 10.52928212 8 15 C6.68 15 5.36 15 4 15 C3.87882812 14.33613281 3.75765625 13.67226562 3.6328125 12.98828125 C2.77452292 8.46575541 1.96028689 4.20061476 0 0 Z " fill="#7F8182" transform="translate(435,164)"/>
<path d="M0 0 C0.66 0 1.32 0 2 0 C2.83764268 1.95649397 3.66999059 3.91525556 4.5 5.875 C4.9640625 6.96554688 5.428125 8.05609375 5.90625 9.1796875 C7 12 7 12 7 14 C6.01 14 5.02 14 4 14 C3.67 12.68 3.34 11.36 3 10 C1.02 10 -0.96 10 -3 10 C-3.33 11.32 -3.66 12.64 -4 14 C-5.305239 10.08428299 -4.32239848 8.96107003 -2.5625 5.3125 C-2.08941406 4.31863281 -1.61632812 3.32476562 -1.12890625 2.30078125 C-0.75636719 1.54152344 -0.38382812 0.78226563 0 0 Z " fill="#949495" transform="translate(117,164)"/>
<path d="M0 0 C5 1 5 1 7 3 C7.34490322 7.05261287 7.30163882 8.54754176 5 12 C3.35 12 1.7 12 0 12 C0 8.04 0 4.08 0 0 Z " fill="#495058" transform="translate(173,165)"/>
<path d="M0 0 C4.81429916 2.40714958 6.6345082 4.86962371 10 9 C10.33 6.03 10.66 3.06 11 0 C11.33 0 11.66 0 12 0 C12 4.62 12 9.24 12 14 C9 14 9 14 7.17578125 12.25 C6.56089844 11.5075 5.94601563 10.765 5.3125 10 C4.68988281 9.2575 4.06726563 8.515 3.42578125 7.75 C2.95527344 7.1725 2.48476562 6.595 2 6 C1.67 8.64 1.34 11.28 1 14 C0.67 14 0.34 14 0 14 C0 9.38 0 4.76 0 0 Z " fill="#7E7F7F" transform="translate(71,164)"/>
<path d="M0 0 C0.99 0 1.98 0 3 0 C1.90657878 15.3942198 1.90657878 15.3942198 0 20 C-0.99 20.33 -1.98 20.66 -3 21 C-2.22095672 6.21867882 -2.22095672 6.21867882 0 0 Z " fill="#535A61" transform="translate(261,132)"/>
<path d="M0 0 C1.32 0 2.64 0 4 0 C4 4.29 4 8.58 4 13 C5.65 13 7.3 13 9 13 C9 13.66 9 14.32 9 15 C6.03 15 3.06 15 0 15 C0 10.05 0 5.1 0 0 Z " fill="#C0C2C5" transform="translate(274,164)"/>
<path d="M0 0 C0.94875 0.04125 1.8975 0.0825 2.875 0.125 C2.545 0.785 2.215 1.445 1.875 2.125 C0.555 1.795 -0.765 1.465 -2.125 1.125 C-1.0519128 3.71829406 -0.36198002 4.96468999 2 6.5625 C3.875 8.125 3.875 8.125 4.3125 10.6875 C4.168125 11.491875 4.02375 12.29625 3.875 13.125 C0.64708445 15.2769437 -0.40900809 15.32586443 -4.125 15.125 C-4.455 14.135 -4.785 13.145 -5.125 12.125 C-2.155 12.62 -2.155 12.62 0.875 13.125 C0.875 11.805 0.875 10.485 0.875 9.125 C0.070625 8.898125 -0.73375 8.67125 -1.5625 8.4375 C-4.125 7.125 -4.125 7.125 -5.0625 4.625 C-5.083125 3.8 -5.10375 2.975 -5.125 2.125 C-3.125 0.125 -3.125 0.125 0 0 Z " fill="#ADAFB1" transform="translate(341.125,163.875)"/>
<path d="M0 0 C1.32 0 2.64 0 4 0 C5.75 2.5 5.75 2.5 7 5 C7.99 3.35 8.98 1.7 10 0 C10.33 0.66 10.66 1.32 11 2 C10.34249689 3.33787589 9.6743074 4.67051448 9 6 C8.55188863 8.35564596 8.55188863 8.35564596 8.375 10.75 C8.30023438 11.54921875 8.22546875 12.3484375 8.1484375 13.171875 C8.09945312 13.77515625 8.05046875 14.3784375 8 15 C6.68 15 5.36 15 4 15 C3.87882813 14.33613281 3.75765625 13.67226562 3.6328125 12.98828125 C2.77452292 8.46575541 1.96028689 4.20061476 0 0 Z " fill="#BCBEC0" transform="translate(218,164)"/>
<path d="M0 0 C2.64 0 5.28 0 8 0 C7.360625 0.2475 6.72125 0.495 6.0625 0.75 C3.81258459 1.81562433 3.81258459 1.81562433 3.25 4.125 C3.1675 4.74375 3.085 5.3625 3 6 C4.65 6 6.3 6 8 6 C8 6.33 8 6.66 8 7 C6.35 7 4.7 7 3 7 C3 8.98 3 10.96 3 13 C4.98 13 6.96 13 9 13 C9 13.66 9 14.32 9 15 C6.03 15 3.06 15 0 15 C0 10.05 0 5.1 0 0 Z " fill="#717273" transform="translate(59,164)"/>
<path d="M0 0 C2.64 0 5.28 0 8 0 C8 0.66 8 1.32 8 2 C6.35 2 4.7 2 3 2 C3 3.32 3 4.64 3 6 C4.65 6 6.3 6 8 6 C8 6.66 8 7.32 8 8 C6.35 8 4.7 8 3 8 C3 9.65 3 11.3 3 13 C4.65 13 6.3 13 8 13 C8 13.33 8 13.66 8 14 C5.36 14 2.72 14 0 14 C0 9.38 0 4.76 0 0 Z " fill="#767777" transform="translate(469,164)"/>
<path d="M0 0 C5 1 5 1 6 2 C6.27314815 7.73611111 6.27314815 7.73611111 6 10 C5.34 10.66 4.68 11.32 4 12 C2.68 12 1.36 12 0 12 C0 8.04 0 4.08 0 0 Z " fill="#3D454D" transform="translate(21,165)"/>
<path d="M0 0 C2.64 0 5.28 0 8 0 C8 0.66 8 1.32 8 2 C6.35 2 4.7 2 3 2 C3 3.32 3 4.64 3 6 C4.65 6 6.3 6 8 6 C8 6.33 8 6.66 8 7 C6.35 7 4.7 7 3 7 C3 8.98 3 10.96 3 13 C4.65 13 6.3 13 8 13 C8 13.33 8 13.66 8 14 C5.36 14 2.72 14 0 14 C0 9.38 0 4.76 0 0 Z " fill="#6A6A6A" transform="translate(34,164)"/>
<path d="M0 0 C-0.33 0.66 -0.66 1.32 -1 2 C-1.78375 1.938125 -2.5675 1.87625 -3.375 1.8125 C-4.674375 1.9053125 -4.674375 1.9053125 -6 2 C-8.56687367 5.8503105 -7.83288724 7.58569763 -7 12 C-4.69 12.33 -2.38 12.66 0 13 C-0.33 13.66 -0.66 14.32 -1 15 C-7.25 15.48076923 -7.25 15.48076923 -10.4375 13.4375 C-12.60396028 10.05782196 -12.56288002 7.94016013 -12 4 C-8.92690336 -0.99378204 -5.33129622 -0.35541975 0 0 Z " fill="#6D6E6E" transform="translate(56,164)"/>
<path d="M0 0 C4.49155941 4.14909447 7.77549254 9.44061494 8.3125 15.5625 C8.1578125 16.7690625 8.1578125 16.7690625 8 18 C5.63719073 15.85199157 4.41659766 13.83319533 3 11 C2.34 10.67 1.68 10.34 1 10 C0.33203125 8.22265625 0.33203125 8.22265625 -0.1875 6.0625 C-0.36667969 5.35222656 -0.54585938 4.64195312 -0.73046875 3.91015625 C-1 2 -1 2 0 0 Z " fill="#AEB0B1" transform="translate(299,129)"/>
<path d="M0 0 C3.63 0 7.26 0 11 0 C11 0.66 11 1.32 11 2 C9.68 2 8.36 2 7 2 C7 5.96 7 9.92 7 14 C6.01 14 5.02 14 4 14 C4 9.71 4 5.42 4 1 C2.68 0.67 1.36 0.34 0 0 Z " fill="#868687" transform="translate(86,164)"/>
<path d="M0 0 C0.99 0 1.98 0 3 0 C2.34 5.61 1.68 11.22 1 17 C0.34 16.34 -0.32 15.68 -1 15 C-1.99 15.495 -1.99 15.495 -3 16 C-2.69262339 13.52009745 -2.37935917 11.04119265 -2.0625 8.5625 C-1.97548828 7.85544922 -1.88847656 7.14839844 -1.79882812 6.41992188 C-1.11328125 1.11328125 -1.11328125 1.11328125 0 0 Z " fill="#BBBDBE" transform="translate(249,129)"/>
<path d="M0 0 C1.21236328 0.02707031 1.21236328 0.02707031 2.44921875 0.0546875 C3.37154297 0.08949219 3.37154297 0.08949219 4.3125 0.125 C4.3125 2.435 4.3125 4.745 4.3125 7.125 C2.9925 7.125 1.6725 7.125 0.3125 7.125 C0.3125 6.135 0.3125 5.145 0.3125 4.125 C-2.3275 4.125 -4.9675 4.125 -7.6875 4.125 C-7.6875 3.465 -7.6875 2.805 -7.6875 2.125 C-4.48369983 -0.01086678 -3.66810033 -0.10632175 0 0 Z " fill="#A4A6A9" transform="translate(302.6875,148.875)"/>
<path d="M0 0 C0.66 0 1.32 0 2 0 C3.00508801 1.78881736 4.00392736 3.58114696 5 5.375 C5.8353125 6.87160156 5.8353125 6.87160156 6.6875 8.3984375 C8 11 8 11 8 13 C7.01 13 6.02 13 5 13 C2.8125 10 2.8125 10 1 7 C0.01 7.495 0.01 7.495 -1 8 C-1.125 2.25 -1.125 2.25 0 0 Z " fill="#CFD0D1" transform="translate(296,134)"/>
<path d="M0 0 C3.3 0 6.6 0 10 0 C8.68 0.33 7.36 0.66 6 1 C6 5.29 6 9.58 6 14 C5.01 14 4.02 14 3 14 C3 9.71 3 5.42 3 1 C2.01 0.67 1.02 0.34 0 0 Z " fill="#9D9E9E" transform="translate(391,164)"/>
<path d="M0 0 C3.3 0 6.6 0 10 0 C9.01 0.33 8.02 0.66 7 1 C7 5.29 7 9.58 7 14 C6.01 14 5.02 14 4 14 C4 9.71 4 5.42 4 1 C2.68 0.67 1.36 0.34 0 0 Z " fill="#B7B8B8" transform="translate(347,164)"/>
<path d="M0 0 C1.625 1 1.625 1 3 3 C2.65009645 5.8158905 1.84980278 8.2716858 1 11 C-1.31 11 -3.62 11 -6 11 C-5.18993474 9.35296694 -4.3768779 7.70740494 -3.5625 6.0625 C-3.11003906 5.14597656 -2.65757812 4.22945312 -2.19140625 3.28515625 C-1 1 -1 1 0 0 Z " fill="#898A8C" transform="translate(290,145)"/>
<path d="M0 0 C0.99 0 1.98 0 3 0 C3 4.29 3 8.58 3 13 C4.65 13 6.3 13 8 13 C8 13.33 8 13.66 8 14 C5.36 14 2.72 14 0 14 C0 9.38 0 4.76 0 0 Z " fill="#DDDEDF" transform="translate(264,164)"/>
<path d="M0 0 C0.99 0 1.98 0 3 0 C3 4.29 3 8.58 3 13 C4.65 13 6.3 13 8 13 C8 13.33 8 13.66 8 14 C5.36 14 2.72 14 0 14 C0 9.38 0 4.76 0 0 Z " fill="#9A9B9B" transform="translate(127,164)"/>
<path d="M0 0 C1.65 0 3.3 0 5 0 C4.01 0.495 4.01 0.495 3 1 C3 2.98 3 4.96 3 7 C3.66 7.33 4.32 7.66 5 8 C4.34 8 3.68 8 3 8 C3 9.98 3 11.96 3 14 C2.01 14 1.02 14 0 14 C0 9.38 0 4.76 0 0 Z " fill="#BBBCBD" transform="translate(192,164)"/>
<path d="M0 0 C0.99 0.33 1.98 0.66 3 1 C3.125 3.375 3.125 3.375 3 6 C2.34 6.66 1.68 7.32 1 8 C1.99 9.98 2.98 11.96 4 14 C2.35 13.67 0.7 13.34 -1 13 C-2.01177697 8.16595448 -2.24173161 4.48346322 0 0 Z " fill="#8B8C8D" transform="translate(106,164)"/>
<path d="M0 0 C0.33 3.3 0.66 6.6 1 10 C2.65 10 4.3 10 6 10 C5.01 10.66 4.02 11.32 3 12 C-0.77126791 10.98819642 -1.78414572 10.32378142 -4 7 C-4.3125 4.4375 -4.3125 4.4375 -4 2 C-1 0 -1 0 0 0 Z " fill="#C5C6C8" transform="translate(248,167)"/>
<path d="M0 0 C3.875 0.875 3.875 0.875 5 2 C5.47058824 8.23529412 5.47058824 8.23529412 3.5 11.4375 C3.005 11.953125 2.51 12.46875 2 13 C0.68 12.67 -0.64 12.34 -2 12 C-1.505 11.62875 -1.01 11.2575 -0.5 10.875 C1.62732389 8.21584514 1.27676873 6.32122475 1 3 C0.67 2.01 0.34 1.02 0 0 Z " fill="#B2B3B4" transform="translate(178,165)"/>
<path d="M0 0 C0.99 0 1.98 0 3 0 C3 4.62 3 9.24 3 14 C2.01 14 1.02 14 0 14 C0 9.38 0 4.76 0 0 Z " fill="#C5C6C7" transform="translate(313,164)"/>
<path d="M0 0 C0.99 0 1.98 0 3 0 C3 4.62 3 9.24 3 14 C2.01 14 1.02 14 0 14 C0 9.38 0 4.76 0 0 Z " fill="#A0A1A2" transform="translate(138,164)"/>
<path d="M0 0 C1.98 1.65 3.96 3.3 6 5 C2.77626323 7.14915785 1.73296326 7.38286803 -2 7 C-2.66 6.34 -3.32 5.68 -4 5 C-3 2 -3 2 0 0 Z " fill="#C1C3C5" transform="translate(294,172)"/>
<path d="M0 0 C0.99 0 1.98 0 3 0 C1.36041242 5.23272633 -0.38952035 10.15196636 -3 15 C-3.33 15 -3.66 15 -4 15 C-3.63495936 9.33557626 -2.9445679 4.99296295 0 0 Z " fill="#B1B2B3" transform="translate(328,129)"/>
<path d="M0 0 C0 1.98 0 3.96 0 6 C-3 7 -3 7 -6 6 C-6 4.02 -6 2.04 -6 0 C-3 -1 -3 -1 0 0 Z " fill="#777A7E" transform="translate(419,165)"/>
<path d="M0 0 C0.99 0 1.98 0 3 0 C3 1.65 3 3.3 3 5 C4.65 4.34 6.3 3.68 8 3 C8 3.99 8 4.98 8 6 C6 8 6 8 3.375 8.125 C2.59125 8.08375 1.8075 8.0425 1 8 C-0.35439668 5.29120665 -0.06501451 2.99066732 0 0 Z " fill="#6B6B6C" transform="translate(203,148)"/>
<path d="M0 0 C0.33 0 0.66 0 1 0 C1 6.93 1 13.86 1 21 C1.66 21 2.32 21 3 21 C2.67 22.98 2.34 24.96 2 27 C1.34 27 0.68 27 0 27 C0 18.09 0 9.18 0 0 Z " fill="#909292" transform="translate(321,129)"/>
<path d="M0 0 C1.32 0.33 2.64 0.66 4 1 C3.34 1 2.68 1 2 1 C2 2.98 2 4.96 2 7 C2.66 7.33 3.32 7.66 4 8 C3.34 8 2.68 8 2 8 C2 9.98 2 11.96 2 14 C1.34 14 0.68 14 0 14 C0 9.38 0 4.76 0 0 Z " fill="#D4D5D6" transform="translate(233,164)"/>
<path d="M0 0 C0.99 0 1.98 0 3 0 C3 2.64 3 5.28 3 8 C1.02 8.99 1.02 8.99 -1 10 C-0.67 6.7 -0.34 3.4 0 0 Z " fill="#4D545B" transform="translate(274,132)"/>
<path d="M0 0 C0.99 0 1.98 0 3 0 C3.33 1.65 3.66 3.3 4 5 C2.35 5.33 0.7 5.66 -1 6 C-1.33 7.32 -1.66 8.64 -2 10 C-3.39195915 5.82412255 -1.82323219 3.86525224 0 0 Z " fill="#727579" transform="translate(115,168)"/>
<path d="M0 0 C2.32472205 2.85306797 3.7508258 5.54074837 5 9 C3.68 9 2.36 9 1 9 C1 8.01 1 7.02 1 6 C0.01 5.67 -0.98 5.34 -2 5 C-1.34 3.35 -0.68 1.7 0 0 Z " fill="#737577" transform="translate(310,147)"/>
<path d="M0 0 C2.1640625 -0.29296875 2.1640625 -0.29296875 4.625 -0.1875 C5.44226563 -0.16042969 6.25953125 -0.13335937 7.1015625 -0.10546875 C8.04128906 -0.05326172 8.04128906 -0.05326172 9 0 C9 0.66 9 1.32 9 2 C5.32589215 3.17571451 1.83070817 3.07366746 -2 3 C-1.34 2.01 -0.68 1.02 0 0 Z " fill="#C7C8CA" transform="translate(298,149)"/>
<path d="M0 0 C0.66 0.33 1.32 0.66 2 1 C1.67 3.31 1.34 5.62 1 8 C-0.32 8 -1.64 8 -3 8 C-2.74438677 5.6568787 -2.40729228 3.32156597 -2 1 C-1.34 0.67 -0.68 0.34 0 0 Z " fill="#8C8D8F" transform="translate(219,148)"/>
<path d="M0 0 C1.65 0 3.3 0 5 0 C5.33 1.65 5.66 3.3 6 5 C5.01 5.495 5.01 5.495 4 6 C1 4 1 4 0.3125 1.875 C0.209375 1.25625 0.10625 0.6375 0 0 Z " fill="#92969A" transform="translate(294,164)"/>
<path d="M0 0 C0.33 0.99 0.66 1.98 1 3 C1.99 3 2.98 3 4 3 C4 4.32 4 5.64 4 7 C1.36 7 -1.28 7 -4 7 C-3.67 6.01 -3.34 5.02 -3 4 C-3 4.66 -3 5.32 -3 6 C-2.01 6 -1.02 6 0 6 C0 4.02 0 2.04 0 0 Z " fill="#AFB1B4" transform="translate(248,149)"/>
<path d="M0 0 C2.52259061 1.97420135 2.9929808 2.96745642 3.6875 6.1875 C3.790625 7.115625 3.89375 8.04375 4 9 C3.01 8.67 2.02 8.34 1 8 C-0.25 5.0625 -0.25 5.0625 -1 2 C-0.67 1.34 -0.34 0.68 0 0 Z " fill="#D2D3D4" transform="translate(299,129)"/>
<path d="M0 0 C0.66 0 1.32 0 2 0 C2 2.31 2 4.62 2 7 C0.68 7.33 -0.64 7.66 -2 8 C-1.125 1.125 -1.125 1.125 0 0 Z " fill="#7A7B7C" transform="translate(211,144)"/>
<path d="M0 0 C1 4 1 4 1 8 C-0.65 8 -2.3 8 -4 8 C-2.68 5.36 -1.36 2.72 0 0 Z " fill="#757678" transform="translate(288,148)"/>
<path d="M0 0 C0.33 0 0.66 0 1 0 C1 3.3 1 6.6 1 10 C0.01 10 -0.98 10 -2 10 C-1.85950482 8.52031676 -1.71245174 7.04125484 -1.5625 5.5625 C-1.48128906 4.73878906 -1.40007812 3.91507813 -1.31640625 3.06640625 C-1 1 -1 1 0 0 Z " fill="#737678" transform="translate(450,169)"/>
<path d="M0 0 C1.32 0.33 2.64 0.66 4 1 C3.6875 2.9375 3.6875 2.9375 3 5 C2.01 5.33 1.02 5.66 0 6 C0 4.02 0 2.04 0 0 Z " fill="#62686F" transform="translate(235,165)"/>
<path d="M0 0 C0.33 0 0.66 0 1 0 C0.67 2.97 0.34 5.94 0 9 C-0.99 9 -1.98 9 -3 9 C-2.01 6.03 -1.02 3.06 0 0 Z " fill="#98999A" transform="translate(264,143)"/>
<path d="M0 0 C1.32 0 2.64 0 4 0 C4 1.98 4 3.96 4 6 C3.01 6 2.02 6 1 6 C0.67 4.02 0.34 2.04 0 0 Z " fill="#838384" transform="translate(211,130)"/>
<path d="M0 0 C0.99 0 1.98 0 3 0 C3 1.98 3 3.96 3 6 C2.01 6 1.02 6 0 6 C0 4.02 0 2.04 0 0 Z " fill="#5B6067" transform="translate(195,165)"/>
<path d="M0 0 C1.98 0 3.96 0 6 0 C6 0.99 6 1.98 6 3 C4.02 3 2.04 3 0 3 C0 2.01 0 1.02 0 0 Z " fill="#D9DADA" transform="translate(297,153)"/>
<path d="M0 0 C0.33 0 0.66 0 1 0 C1 2.64 1 5.28 1 8 C0.01 8 -0.98 8 -2 8 C-1.125 2.25 -1.125 2.25 0 0 Z " fill="#AAABAC" transform="translate(293,148)"/>
<path d="M0 0 C2 1.375 2 1.375 4 3 C4 3.66 4 4.32 4 5 C2.35 4.67 0.7 4.34 -1 4 C-0.67 2.68 -0.34 1.36 0 0 Z " fill="#5B6268" transform="translate(294,172)"/>
</svg>
