<?xml version="1.0" encoding="UTF-8"?>
<svg version="1.1" xmlns="http://www.w3.org/2000/svg" width="616" height="350">
<path d="M0 0 C203.28 0 406.56 0 616 0 C616 115.5 616 231 616 350 C412.72 350 209.44 350 0 350 C0 234.5 0 119 0 0 Z " fill="#FEFEFE" transform="translate(0,0)"/>
<path d="M0 0 C10.80984678 7.70242905 16.24960644 18.16483007 19 31 C20.52755298 43.52936712 16.70784893 55.35555947 9.25 65.34375 C1.35088259 74.89913397 -8.89494723 79.9403343 -21 82 C-33.41706316 83.01669913 -43.67176577 80.51445115 -53.6796875 72.984375 C-60.02887023 67.55443421 -64.78094783 61.71550599 -68 54 C-68.391875 53.154375 -68.78375 52.30875 -69.1875 51.4375 C-72.82370739 40.52887784 -72.06625282 28.42054375 -67.546875 17.97265625 C-60.94348962 5.28281717 -50.73679572 -2.14202434 -37.6875 -7.3125 C-23.816794 -9.89856383 -11.95386321 -7.17231792 0 0 Z " fill="#FCFCFD" transform="translate(128,157)"/>
<path d="M0 0 C10.80984678 7.70242905 16.24960644 18.16483007 19 31 C20.52755298 43.52936712 16.70784893 55.35555947 9.25 65.34375 C1.35088259 74.89913397 -8.89494723 79.9403343 -21 82 C-33.41706316 83.01669913 -43.67176577 80.51445115 -53.6796875 72.984375 C-60.02887023 67.55443421 -64.78094783 61.71550599 -68 54 C-68.391875 53.154375 -68.78375 52.30875 -69.1875 51.4375 C-72.82370739 40.52887784 -72.06625282 28.42054375 -67.546875 17.97265625 C-60.94348962 5.28281717 -50.73679572 -2.14202434 -37.6875 -7.3125 C-23.816794 -9.89856383 -11.95386321 -7.17231792 0 0 Z M-57.25 12.1875 C-64.52742109 21.39608032 -66.31575072 31.54902597 -65.27783203 42.953125 C-63.87833001 53.26369175 -58.72682388 61.2390291 -51 68 C-40.60717996 75.5285338 -30.56383958 77.16824287 -18 76 C-7.00281438 73.78464415 1.03969778 67.08138358 7.5625 58.203125 C13.38429829 49.28058632 13.90759728 39.37548706 13 29 C9.87810233 17.40053538 3.13255324 8.36305013 -7 2 C-24.78133739 -7.70672041 -43.95098089 -1.72218836 -57.25 12.1875 Z " fill="#566688" transform="translate(128,157)"/>
<path d="M0 0 C5.66932256 5.66932256 5.78330891 11.28546475 5.83398438 18.91796875 C5.82689453 20.22378906 5.81980469 21.52960938 5.8125 22.875 C5.8424707 24.83373047 5.8424707 24.83373047 5.87304688 26.83203125 C5.87240234 28.09402344 5.87175781 29.35601562 5.87109375 30.65625 C5.87387329 32.37424805 5.87387329 32.37424805 5.87670898 34.12695312 C5.26305562 38.09972408 3.8692718 40.25525418 1.375 43.375 C-4.55300999 47.08000624 -10.77105364 47.19338166 -17.625 46.375 C-21.7330523 45.1620777 -24.06892299 43.31444304 -26.28515625 39.5703125 C-28.54339654 33.91771689 -28.05777405 27.79853369 -28 21.8125 C-28.01160156 20.60658203 -28.02320313 19.40066406 -28.03515625 18.15820312 C-28.03128906 16.99095703 -28.02742188 15.82371094 -28.0234375 14.62109375 C-28.02005371 13.56591553 -28.01666992 12.5107373 -28.01318359 11.42358398 C-27.45231874 7.01885476 -25.94397846 3.60888308 -22.6875 0.5625 C-16.20829743 -3.16794996 -6.62910162 -2.97166624 0 0 Z " fill="#9E42D8" transform="translate(432.625,153.625)"/>
<path d="M0 0 C21.45386534 0 21.45386534 0 26.8515625 4.56640625 C28.73579988 8.55919498 28.43125799 12.58375701 28.375 16.9375 C28.38660156 17.83146484 28.39820313 18.72542969 28.41015625 19.64648438 C28.38830135 24.5529093 28.25611719 28.06164873 25 32 C19.99261901 35.45747735 15.86845206 35.26674782 10 35 C10 38.96 10 42.92 10 47 C6.7 47 3.4 47 0 47 C0 31.49 0 15.98 0 0 Z " fill="#AC5DDE" transform="translate(450,152)"/>
<path d="M0 0 C3.3 0 6.6 0 10 0 C12.14709188 6.19856092 13.91472671 12.37249376 15.4375 18.75 C17.13263955 25.73055748 19.0065089 32.56082287 21.30078125 39.37109375 C22.009066 42.03408614 22.13434183 44.25843163 22 47 C19.03 47 16.06 47 13 47 C12.34 43.7 11.68 40.4 11 37 C7.37 37 3.74 37 0 37 C-0.309375 38.464375 -0.61875 39.92875 -0.9375 41.4375 C-1.875 45.875 -1.875 45.875 -3 47 C-6.00003445 47.14177857 -8.99757235 47.04228771 -12 47 C-10.58159254 39.2386756 -8.64893871 31.6684772 -6.5625 24.0625 C-6.26279297 22.95970703 -5.96308594 21.85691406 -5.65429688 20.72070312 C-4.77278531 17.47957057 -3.88680316 14.23968819 -3 11 C-2.42556819 8.89458937 -1.85133434 6.78912471 -1.27734375 4.68359375 C-0.85582031 3.13800781 -0.43429687 1.59242188 0 0 Z " fill="#A044D9" transform="translate(497,152)"/>
<path d="M0 0 C4.3545082 3.58606557 4.3545082 3.58606557 6.125 5.75 C6.125 7.07 6.125 8.39 6.125 9.75 C3.875 11.625 3.875 11.625 1.125 12.75 C-1 12.0625 -1 12.0625 -2.875 10.75 C-6.5191774 8.3205484 -8.58741272 8.58820425 -12.875 8.75 C-11.93087695 12.17896223 -11.31394079 13.48028158 -8.23046875 15.375 C-7.18503906 15.82875 -6.13960937 16.2825 -5.0625 16.75 C1.11361066 19.62725395 4.33803626 22.06955438 8.125 27.75 C8.89404933 32.44477792 8.5704875 35.92047155 6.3125 40.125 C1.81730769 45.51923077 1.81730769 45.51923077 -1.875 46.75 C-7.85001722 47.28476918 -12.7874861 47.26280722 -17.875 43.75 C-21.875 39.53947368 -21.875 39.53947368 -21.875 35.75 C-20.34375 34.36328125 -20.34375 34.36328125 -18.375 33.0625 C-17.7253125 32.62550781 -17.075625 32.18851563 -16.40625 31.73828125 C-15.9009375 31.41214844 -15.395625 31.08601563 -14.875 30.75 C-14.17375 31.575 -13.4725 32.4 -12.75 33.25 C-10.08872773 36.05423396 -10.08872773 36.05423396 -6.5625 36.0625 C-5.2321875 35.9078125 -5.2321875 35.9078125 -3.875 35.75 C-3.10257731 33.91299211 -3.10257731 33.91299211 -2.875 31.75 C-5.1417169 28.86438429 -8.02054759 27.51184574 -11.25 25.875 C-16.56781532 23.04023866 -20.88874188 20.70877437 -22.875 14.75 C-23.26677998 10.59713223 -23.13015206 8.26030413 -21.25 4.5 C-15.76517784 -1.85084671 -7.68458707 -3.34112481 0 0 Z " fill="#A44DDB" transform="translate(241.875,153.25)"/>
<path d="M0 0 C8.58 0 17.16 0 26 0 C26 2.97 26 5.94 26 9 C20.72 9 15.44 9 10 9 C10 12.3 10 15.6 10 19 C13.96 19 17.92 19 22 19 C22 21.97 22 24.94 22 28 C18.04 28 14.08 28 10 28 C10 31.3 10 34.6 10 38 C11.60681641 37.98259766 11.60681641 37.98259766 13.24609375 37.96484375 C14.64322743 37.95546701 16.04036299 37.94636669 17.4375 37.9375 C18.14455078 37.92912109 18.85160156 37.92074219 19.58007812 37.91210938 C21.38693559 37.90346412 23.19387603 37.94779989 25 38 C26 39 26 39 26 47 C17.42 47 8.84 47 0 47 C0 31.49 0 15.98 0 0 Z " fill="#A753DC" transform="translate(298,152)"/>
<path d="M0 0 C2.5 0.25 2.5 0.25 4.5 2.25 C4.625 4.875 4.625 4.875 4.5 7.25 C5.2425 7.3325 5.985 7.415 6.75 7.5 C10.08468741 8.4094602 11.44773334 9.48733334 13.5 12.25 C13.30984746 14.46844626 13.08477845 15.66522155 11.5 17.25 C7.25702801 17.70869967 5.80420901 16.72815676 2.5 14.25 C-0.08462162 13.83282721 -0.08462162 13.83282721 -2.5 14.25 C-4.76481374 16.05455272 -4.76481374 16.05455272 -4.5546875 18.58984375 C-3.02216822 22.45519792 -0.0854202 23.83363695 3.375 25.8125 C11.46224271 30.54231165 11.46224271 30.54231165 13.5 34.25 C14.01197712 38.85779404 14.15440831 41.09220068 11.875 45.125 C9.18515727 47.53170139 6.97661483 48.38084629 3.5 49.25 C3.561875 50.03375 3.62375 50.8175 3.6875 51.625 C3.5946875 52.924375 3.5946875 52.924375 3.5 54.25 C0.5 56.25 0.5 56.25 -2.125 55.9375 C-4.5 55.25 -4.5 55.25 -5.5 54.25 C-5.54063832 52.58382885 -5.542721 50.91611905 -5.5 49.25 C-6.2425 49.1675 -6.985 49.085 -7.75 49 C-11.11204018 48.08307995 -12.46464165 47.06818848 -14.5 44.25 C-14.25 41.5 -14.25 41.5 -13.5 39.25 C-10.6875 39.0625 -10.6875 39.0625 -7.5 39.25 C-6.5 40.25 -5.5 41.25 -4.5 42.25 C-1.40498792 42.50265405 0.70129973 42.64935013 3.5 41.25 C3.92916986 38.91941135 3.92916986 38.91941135 3.5 36.25 C1.29678626 34.06359545 1.29678626 34.06359545 -1.625 32.25 C-2.6253125 31.56679687 -3.625625 30.88359375 -4.65625 30.1796875 C-5.5946875 29.54289062 -6.533125 28.90609375 -7.5 28.25 C-13.16978193 23.91043614 -13.16978193 23.91043614 -14.5 21.25 C-14.8885634 17.13122799 -14.95820463 14.96100718 -12.6875 11.4375 C-10.5 9.25 -10.5 9.25 -7.5 7.25 C-6.51 7.25 -5.52 7.25 -4.5 7.25 C-4.54125 6.46625 -4.5825 5.6825 -4.625 4.875 C-4.45379857 1.27977007 -3.58504467 0.35850447 0 0 Z " fill="#556588" transform="translate(102.5,165.75)"/>
<path d="M0 0 C5.66932256 5.66932256 5.78330891 11.28546475 5.83398438 18.91796875 C5.82689453 20.22378906 5.81980469 21.52960938 5.8125 22.875 C5.8424707 24.83373047 5.8424707 24.83373047 5.87304688 26.83203125 C5.87240234 28.09402344 5.87175781 29.35601562 5.87109375 30.65625 C5.87387329 32.37424805 5.87387329 32.37424805 5.87670898 34.12695312 C5.26305562 38.09972408 3.8692718 40.25525418 1.375 43.375 C-4.55300999 47.08000624 -10.77105364 47.19338166 -17.625 46.375 C-21.7330523 45.1620777 -24.06892299 43.31444304 -26.28515625 39.5703125 C-28.54339654 33.91771689 -28.05777405 27.79853369 -28 21.8125 C-28.01160156 20.60658203 -28.02320313 19.40066406 -28.03515625 18.15820312 C-28.03128906 16.99095703 -28.02742188 15.82371094 -28.0234375 14.62109375 C-28.02005371 13.56591553 -28.01666992 12.5107373 -28.01318359 11.42358398 C-27.45231874 7.01885476 -25.94397846 3.60888308 -22.6875 0.5625 C-16.20829743 -3.16794996 -6.62910162 -2.97166624 0 0 Z M-19.4375 5.05859375 C-22.93063884 10.35444174 -22.34797316 15.67656479 -22.25 21.875 C-22.26933594 23.09832031 -22.28867187 24.32164062 -22.30859375 25.58203125 C-22.32318358 32.53650614 -22.32318358 32.53650614 -19.4296875 38.68359375 C-14.8500428 41.4454129 -10.80374075 41.23034757 -5.625 40.375 C-2.00808725 38.27719061 -0.94208591 37.32625774 0.375 33.375 C0.6322155 29.58769657 0.60635079 25.79511514 0.625 22 C0.645625 20.9584375 0.66625 19.916875 0.6875 18.84375 C0.85169778 11.56236195 0.85169778 11.56236195 -2.625 5.375 C-5.89816391 3.19289073 -7.16720719 3.02675682 -11 2.9375 C-11.93585938 2.89753906 -12.87171875 2.85757813 -13.8359375 2.81640625 C-16.75391407 3.23879181 -16.75391407 3.23879181 -19.4375 5.05859375 Z " fill="#A957DD" transform="translate(432.625,153.625)"/>
<path d="M0 0 C10.23 0 20.46 0 31 0 C31 2.97 31 5.94 31 9 C27.7 9 24.4 9 21 9 C21 21.54 21 34.08 21 47 C17.7 47 14.4 47 11 47 C11 34.46 11 21.92 11 9 C7.37 9 3.74 9 0 9 C0 6.03 0 3.06 0 0 Z " fill="#A753DC" transform="translate(257,152)"/>
<path d="M0 0 C2.97 0 5.94 0 9 0 C9.83819158 1.62249941 10.6704116 3.24808497 11.5 4.875 C11.9640625 5.77992188 12.428125 6.68484375 12.90625 7.6171875 C14 10 14 10 14 12 C14.66 12 15.32 12 16 12 C16.268125 11.13375 16.53625 10.2675 16.8125 9.375 C17.97111987 6.08208036 19.38209839 3.08872125 21 0 C23.97 0 26.94 0 30 0 C28.71917186 4.12711291 27.5054386 8.03255894 25.5 11.87109375 C19.72254156 23.21768881 20.0205536 34.48285645 20 47 C16.7 47 13.4 47 10 47 C10.03222656 45.49953125 10.06445312 43.9990625 10.09765625 42.453125 C10.11537758 28.06222086 7.79252248 17.40492704 0.81030273 4.7956543 C0 3 0 3 0 0 Z " fill="#A54EDB" transform="translate(526,152)"/>
<path d="M0 0 C0.85743805 -0.0030011 1.7148761 -0.0060022 2.59829712 -0.00909424 C3.52024872 0.00325256 4.44220032 0.01559937 5.39208984 0.02832031 C6.33990326 0.03019348 7.28771667 0.03206665 8.26425171 0.03399658 C10.26653565 0.0407178 12.26880645 0.05463367 14.27099609 0.07519531 C17.34794205 0.10639375 20.4243763 0.11616986 23.50146484 0.12207031 C25.44417947 0.13123831 27.38688886 0.14161343 29.32958984 0.15332031 C30.2555899 0.15757019 31.18158997 0.16182007 32.13565063 0.16619873 C33.41235123 0.18061005 33.41235123 0.18061005 34.71484375 0.1953125 C35.4674649 0.2021405 36.22008606 0.20896851 36.99551392 0.21600342 C38.72802734 0.35644531 38.72802734 0.35644531 39.72802734 1.35644531 C39.82626671 3.02073583 39.85776365 4.68926462 39.85302734 6.35644531 C39.85689453 7.71769531 39.85689453 7.71769531 39.86083984 9.10644531 C39.72802734 11.35644531 39.72802734 11.35644531 38.72802734 12.35644531 C36.79496236 12.45040588 34.85843896 12.47388049 32.9230957 12.4699707 C31.06127907 12.46985741 31.06127907 12.46985741 29.16184998 12.46974182 C27.79718995 12.46463442 26.43253032 12.45941841 25.06787109 12.45410156 C23.67924551 12.45223732 22.29061927 12.45081344 20.9019928 12.44981384 C17.2408162 12.44598918 13.57967904 12.43615934 9.91851807 12.42510986 C6.18510471 12.41489463 2.45168501 12.41031598 -1.28173828 12.40527344 C-8.61183442 12.39453702 -15.94189802 12.37746123 -23.27197266 12.35644531 C-19.12993601 9.59508755 -14.71469271 7.41047615 -10.30322266 5.11035156 C-7.35402483 3.61321984 -7.35402483 3.61321984 -5.84951782 1.769104 C-3.80293543 -0.06356771 -2.71751709 -0.01313564 0 0 Z " fill="#526185" transform="translate(138.27197265625,226.6435546875)"/>
<path d="M0 0 C2.01808167 -0.36749268 2.01808167 -0.36749268 4.52563477 -0.35644531 C5.93202965 -0.36094696 5.93202965 -0.36094696 7.36683655 -0.36553955 C8.88874855 -0.34701935 8.88874855 -0.34701935 10.44140625 -0.328125 C11.47941879 -0.32625183 12.51743134 -0.32437866 13.5868988 -0.32244873 C15.78346971 -0.31571867 17.98002845 -0.3017854 20.17651367 -0.28125 C23.55203289 -0.2500966 26.92708567 -0.24028122 30.30273438 -0.234375 C32.4322974 -0.22520547 34.56185565 -0.21482986 36.69140625 -0.203125 C37.70803848 -0.19887512 38.72467072 -0.19462524 39.77210999 -0.19024658 C41.17377663 -0.17583527 41.17377663 -0.17583527 42.60375977 -0.16113281 C43.4304567 -0.15430481 44.25715363 -0.14747681 45.10890198 -0.14044189 C47 0 47 0 48 1 C48.09823937 2.66429051 48.12973631 4.33281931 48.125 6 C48.12886719 7.36125 48.12886719 7.36125 48.1328125 8.75 C48 11 48 11 47 12 C45.31198015 12.09353163 43.62004793 12.11744791 41.92944336 12.11352539 C40.84839828 12.11344986 39.76735321 12.11337433 38.65354919 12.11329651 C36.889515 12.10555458 36.889515 12.10555458 35.08984375 12.09765625 C33.89267227 12.0962413 32.69550079 12.09482635 31.46205139 12.09336853 C27.62050934 12.08774979 23.77902457 12.07519411 19.9375 12.0625 C17.34049563 12.05748741 14.74349035 12.05292409 12.14648438 12.04882812 C5.76430321 12.03777427 -0.6178443 12.02101792 -7 12 C-6.20994338 10.56161448 -5.41788955 9.12432585 -4.625 7.6875 C-4.18414062 6.88699219 -3.74328125 6.08648437 -3.2890625 5.26171875 C-2.26486665 3.46472057 -1.14732862 1.72099292 0 0 Z " fill="#546386" transform="translate(144,213)"/>
<path d="M0 0 C2.97 0 5.94 0 9 0 C9 12.54 9 25.08 9 38 C14.28 38 19.56 38 25 38 C25 40.97 25 43.94 25 47 C16.75 47 8.5 47 0 47 C0 31.49 0 15.98 0 0 Z " fill="#A24ADA" transform="translate(371,152)"/>
<path d="M0 0 C2.97 0 5.94 0 9 0 C9 12.54 9 25.08 9 38 C14.28 38 19.56 38 25 38 C25 40.97 25 43.94 25 47 C16.75 47 8.5 47 0 47 C0 31.49 0 15.98 0 0 Z " fill="#A249DA" transform="translate(336,152)"/>
<path d="M0 0 C6.1055471 -0.02464513 12.21106551 -0.04283371 18.31665039 -0.05493164 C20.39543156 -0.05997288 22.47420916 -0.06680574 24.55297852 -0.07543945 C27.53402586 -0.08751422 30.51502649 -0.09323024 33.49609375 -0.09765625 C34.89921059 -0.10539818 34.89921059 -0.10539818 36.33067322 -0.11329651 C37.19149002 -0.11337204 38.05230682 -0.11344757 38.93920898 -0.11352539 C40.08171364 -0.11685631 40.08171364 -0.11685631 41.24729919 -0.12025452 C43 0 43 0 44 1 C44.09823937 2.66429051 44.12973631 4.33281931 44.125 6 C44.12886719 7.36125 44.12886719 7.36125 44.1328125 8.75 C44 11 44 11 43 12 C41.64905018 12.09268999 40.29332909 12.11747326 38.93920898 12.11352539 C38.07839218 12.11344986 37.21757538 12.11337433 36.33067322 12.11329651 C35.39526199 12.10813522 34.45985077 12.10297394 33.49609375 12.09765625 C32.54307877 12.0962413 31.59006378 12.09482635 30.60816956 12.09336853 C27.55124835 12.08775152 24.49439923 12.07519616 21.4375 12.0625 C19.37044376 12.05748719 17.30338638 12.05292391 15.23632812 12.04882812 C10.15752412 12.03777656 5.0787743 12.02050055 0 12 C0 8.04 0 4.08 0 0 Z " fill="#546487" transform="translate(148,186)"/>
<path d="M0 0 C5.10863896 -0.0246501 10.21724359 -0.04283607 15.32592773 -0.05493164 C17.06519168 -0.05997204 18.80445136 -0.0668043 20.54370117 -0.07543945 C23.03825937 -0.08751792 25.53276173 -0.09323108 28.02734375 -0.09765625 C28.80963852 -0.10281754 29.59193329 -0.10797882 30.39793396 -0.11329651 C32.26567114 -0.11349226 34.13329204 -0.06199694 36 0 C37 1 37 1 37.1328125 3.25 C37.13023437 4.1575 37.12765625 5.065 37.125 6 C37.12886719 7.36125 37.12886719 7.36125 37.1328125 8.75 C37 11 37 11 36 12 C33.1156618 12.08865208 30.25537842 12.11521296 27.37109375 12.09765625 C26.07474754 12.09553383 26.07474754 12.09553383 24.75221252 12.09336853 C21.98060708 12.08775239 19.2090812 12.07519719 16.4375 12.0625 C14.5631522 12.05748708 12.68880315 12.05292381 10.81445312 12.04882812 C6.20960456 12.03777772 1.60481579 12.0205023 -3 12 C-2.01 8.04 -1.02 4.08 0 0 Z " fill="#556487" transform="translate(148,200)"/>
<path d="M0 0 C13.38833747 -0.49131514 13.38833747 -0.49131514 15.92578125 1.546875 C17.41651871 4.95117728 17.39688815 7.79360606 17.375 11.5 C17.38273437 12.8096875 17.39046875 14.119375 17.3984375 15.46875 C16.9913138 19.07698355 16.55560906 20.49401441 14 23 C9.41627231 24.61778624 4.93441591 24 0 24 C0 16.08 0 8.16 0 0 Z " fill="#9D3FD8" transform="translate(456,158)"/>
<path d="M0 0 C1.69165039 1.18359375 1.69165039 1.18359375 3 3 C3.64257076 6.9695731 3.46324172 10.98429129 3.4375 15 C3.45748047 16.10601562 3.47746094 17.21203125 3.49804688 18.3515625 C3.49740234 19.41117188 3.49675781 20.47078125 3.49609375 21.5625 C3.49794678 22.53316406 3.4997998 23.50382812 3.50170898 24.50390625 C3 27 3 27 1.19555664 28.84375 C-2.15786609 30.60976913 -4.43266427 29.99092659 -8 29 C-11.08256591 24.50082998 -10.32932585 19.17033791 -10.3125 13.9375 C-10.32861328 12.93138672 -10.34472656 11.92527344 -10.36132812 10.88867188 C-10.36197266 9.92380859 -10.36261719 8.95894531 -10.36328125 7.96484375 C-10.36626221 7.0843335 -10.36924316 6.20382324 -10.37231445 5.29663086 C-10 3 -10 3 -8.69604492 1.21313477 C-5.86477526 -0.81199536 -3.35057944 -0.35899065 0 0 Z " fill="#FCFAFE" transform="translate(425,161)"/>
<path d="M0 0 C0.99 0.33 1.98 0.66 3 1 C6.55496124 8.25212093 7.03259658 17.10143559 8 25 C8.66 25 9.32 25 10 25 C10.53394179 26.4117783 11.05165104 27.82970244 11.5625 29.25 C11.85253906 30.03890625 12.14257812 30.8278125 12.44140625 31.640625 C13 34 13 34 12 38 C11.01 34.37 10.02 30.74 9 27 C3.72 27 -1.56 27 -7 27 C-7.28875 28.629375 -7.5775 30.25875 -7.875 31.9375 C-8.3671875 34.71484375 -8.3671875 34.71484375 -9 37 C-9.99 37.495 -9.99 37.495 -11 38 C-8.0255586 25.10459569 -4.12300962 12.57066003 0 0 Z " fill="#9C3DD7" transform="translate(501,157)"/>
<path d="M0 0 C8.58 0 17.16 0 26 0 C26 3.63 26 7.26 26 11 C18.41 11 10.82 11 3 11 C2.01 7.37 1.02 3.74 0 0 Z " fill="#506084" transform="translate(144,173)"/>
<path d="M0 0 C0.66 0 1.32 0 2 0 C0.46917209 4.33734575 -1.30638437 6.95957656 -4 11 C13.49 11.33 30.98 11.66 49 12 C49 12.33 49 12.66 49 13 C40.82037013 13.75666365 32.71717247 14.07334762 24.5078125 14.10546875 C22.63020545 14.12007705 20.75260126 14.13505609 18.875 14.15039062 C15.98495655 14.17330792 13.09617894 14.18737706 10.20605469 14.17504883 C7.36825809 14.16621355 4.5328595 14.1951215 1.6953125 14.23046875 C0.83994904 14.21823776 -0.01541443 14.20600677 -0.896698 14.19340515 C-6.70428572 14.3098267 -9.87556127 15.76826298 -14.28987122 19.5436554 C-16.59679519 21.50823041 -19.06710367 22.7431662 -21.8125 24 C-22.72644531 24.433125 -23.64039062 24.86625 -24.58203125 25.3125 C-25.77892578 25.6528125 -25.77892578 25.6528125 -27 26 C-27.99 25.34 -28.98 24.68 -30 24 C-29.31035156 23.78085938 -28.62070313 23.56171875 -27.91015625 23.3359375 C-16.51434791 19.49043839 -6.6742758 13.56694391 -1.0625 2.5 C-0.5365625 1.2625 -0.5365625 1.2625 0 0 Z " fill="#E3E5EB" transform="translate(142,213)"/>
<path d="M0 0 C2.31 0 4.62 0 7 0 C9 2 9 2 9.265625 4.53125 C9.26046875 5.5109375 9.2553125 6.490625 9.25 7.5 C9.25515625 8.4796875 9.2603125 9.459375 9.265625 10.46875 C9 13 9 13 7 15 C4.69 15 2.38 15 0 15 C0 10.05 0 5.1 0 0 Z " fill="#FDFBFE" transform="translate(460,162)"/>
<path d="M0 0 C0.66 0 1.32 0 2 0 C2 3.96 2 7.92 2 12 C13.55 12 25.1 12 37 12 C37 12.66 37 13.32 37 14 C25.45 14 13.9 14 2 14 C1.67 16.64 1.34 19.28 1 22 C-0.0625 24.5 -0.0625 24.5 -1 26 C-1.66 25.67 -2.32 25.34 -3 25 C-2.7834375 24.28457031 -2.566875 23.56914062 -2.34375 22.83203125 C-0.17529276 15.07176529 0.34988865 8.03448002 0 0 Z " fill="#E5E7ED" transform="translate(146,186)"/>
<path d="M0 0 C0.99 0.33 1.98 0.66 3 1 C3.984375 3.14453125 3.984375 3.14453125 4.75 5.8125 C5.01296875 6.68519531 5.2759375 7.55789062 5.546875 8.45703125 C6.00968292 11.05434119 5.85082224 12.53376528 5 15 C4.49440092 13.56445975 3.9957251 12.1264798 3.5 10.6875 C3.2215625 9.88699219 2.943125 9.08648437 2.65625 8.26171875 C2 6 2 6 2 3 C1.34 3 0.68 3 0 3 C-0.09796875 3.57105469 -0.1959375 4.14210937 -0.296875 4.73046875 C-1.64131995 12.02060561 -3.74658329 18.93929431 -6 26 C-0.72 25.67 4.56 25.34 10 25 C13.125 33.5 13.125 33.5 12 38 C11.01 34.37 10.02 30.74 9 27 C3.72 27 -1.56 27 -7 27 C-7.28875 28.629375 -7.5775 30.25875 -7.875 31.9375 C-8.3671875 34.71484375 -8.3671875 34.71484375 -9 37 C-9.99 37.495 -9.99 37.495 -11 38 C-8.0255586 25.10459569 -4.12300962 12.57066003 0 0 Z " fill="#DBB8F0" transform="translate(501,157)"/>
<path d="M0 0 C3.66666667 0 7.33333333 0 11 0 C11 2.97 11 5.94 11 9 C10.34 9 9.68 9 9 9 C8.67 8.01 8.34 7.02 8 6 C7.67 6.99 7.34 7.98 7 9 C4.69 9 2.38 9 0 9 C0 6.03 0 3.06 0 0 Z " fill="#B4BBCA" transform="translate(464,227)"/>
<path d="M0 0 C3.53571429 0.53571429 3.53571429 0.53571429 5 2 C5.1875 4.4375 5.1875 4.4375 5 7 C4.34 7.66 3.68 8.32 3 9 C-0.53571429 8.46428571 -0.53571429 8.46428571 -2 7 C-2.1875 4.5625 -2.1875 4.5625 -2 2 C-1.34 1.34 -0.68 0.68 0 0 Z " fill="#A4ACBF" transform="translate(343,227)"/>
<path d="M0 0 C0.99 0.33 1.98 0.66 3 1 C3.984375 3.14453125 3.984375 3.14453125 4.75 5.8125 C5.01296875 6.68519531 5.2759375 7.55789062 5.546875 8.45703125 C6.00968292 11.05434119 5.85082224 12.53376528 5 15 C4.49440092 13.56445975 3.9957251 12.1264798 3.5 10.6875 C3.2215625 9.88699219 2.943125 9.08648437 2.65625 8.26171875 C2 6 2 6 2 3 C1.34 3 0.68 3 0 3 C-0.10957031 3.60585937 -0.21914063 4.21171875 -0.33203125 4.8359375 C-1.50441057 11.03143795 -3.08338447 16.99460467 -5 23 C-5.66 22.67 -6.32 22.34 -7 22 C-4.69 14.74 -2.38 7.48 0 0 Z " fill="#D5ADEE" transform="translate(501,157)"/>
<path d="M0 0 C0.66 0 1.32 0 2 0 C2.33 0.99 2.66 1.98 3 3 C3.99 2.01 4.98 1.02 6 0 C6.33 2.97 6.66 5.94 7 9 C6.21625 8.814375 5.4325 8.62875 4.625 8.4375 C2.02910225 7.74037734 2.02910225 7.74037734 0 9 C0 6.03 0 3.06 0 0 Z " fill="#727E9B" transform="translate(454,227)"/>
<path d="M0 0 C1.66666667 0 3.33333333 0 5 0 C5 2.97 5 5.94 5 9 C4.34 9 3.68 9 3 9 C2.67 8.01 2.34 7.02 2 6 C1.34 6.99 0.68 7.98 0 9 C0 6.03 0 3.06 0 0 Z " fill="#6B7997" transform="translate(470,227)"/>
<path d="M0 0 C0.66 0 1.32 0 2 0 C2.33 0.66 2.66 1.32 3 2 C3.66 1.34 4.32 0.68 5 0 C5 2.97 5 5.94 5 9 C3.33333333 9 1.66666667 9 0 9 C0 6.03 0 3.06 0 0 Z " fill="#717E9B" transform="translate(383,227)"/>
<path d="M0 0 C1.32 0.33 2.64 0.66 4 1 C4.33 3.64 4.66 6.28 5 9 C3.35 9 1.7 9 0 9 C0 6.03 0 3.06 0 0 Z " fill="#77839F" transform="translate(334,227)"/>
<path d="M0 0 C2.29633824 3.44450737 2.54016485 5.93812283 3 10 C1.35 10 -0.3 10 -2 10 C-1.85950482 8.52031676 -1.71245174 7.04125484 -1.5625 5.5625 C-1.48128906 4.73878906 -1.40007812 3.91507813 -1.31640625 3.06640625 C-1 1 -1 1 0 0 Z " fill="#F3E7FA" transform="translate(502,170)"/>
<path d="M0 0 C1.32 0 2.64 0 4 0 C4.33 1.65 4.66 3.3 5 5 C4.01 5.33 3.02 5.66 2 6 C2 6.99 2 7.98 2 9 C1.34 9 0.68 9 0 9 C0 6.03 0 3.06 0 0 Z " fill="#8B95AD" transform="translate(311,227)"/>
<path d="M0 0 C0.66 0 1.32 0 2 0 C2.33 0.99 2.66 1.98 3 3 C3.66 2.01 4.32 1.02 5 0 C5 2.97 5 5.94 5 9 C3.33333333 9 1.66666667 9 0 9 C0 6.03 0 3.06 0 0 Z " fill="#6F7C9A" transform="translate(412,227)"/>
<path d="M0 0 C0.99 0.33 1.98 0.66 3 1 C3.33 3.64 3.66 6.28 4 9 C2.35 9 0.7 9 -1 9 C-0.67 6.03 -0.34 3.06 0 0 Z " fill="#7A86A1" transform="translate(406,227)"/>
<path d="M0 0 C0.99 0.33 1.98 0.66 3 1 C2.67 2.65 2.34 4.3 2 6 C2.66 6 3.32 6 4 6 C4 6.99 4 7.98 4 9 C2.35 8.67 0.7 8.34 -1 8 C-1.04241723 5.66705225 -1.04092937 3.33297433 -1 1 C-0.67 0.67 -0.34 0.34 0 0 Z " fill="#73809C" transform="translate(368,227)"/>
<path d="M0 0 C0.66 0 1.32 0 2 0 C2.33 2.97 2.66 5.94 3 9 C1.35 9 -0.3 9 -2 9 C-1.34 6.03 -0.68 3.06 0 0 Z " fill="#76829F" transform="translate(270,227)"/>
<path d="M0 0 C1.32 0.33 2.64 0.66 4 1 C4.33 3.64 4.66 6.28 5 9 C3.33333333 9 1.66666667 9 0 9 C0 6.03 0 3.06 0 0 Z " fill="#727E9B" transform="translate(261,227)"/>
<path d="M0 0 C0.66 0 1.32 0 2 0 C2.33 2.97 2.66 5.94 3 9 C1.35 9 -0.3 9 -2 9 C-1.34 6.03 -0.68 3.06 0 0 Z " fill="#74809D" transform="translate(320,227)"/>
<path d="M0 0 C1.32 0 2.64 0 4 0 C4 1.65 4 3.3 4 5 C3.34 5 2.68 5 2 5 C2 5.66 2 6.32 2 7 C2.66 7 3.32 7 4 7 C4 7.66 4 8.32 4 9 C2.68 9 1.36 9 0 9 C0 6.03 0 3.06 0 0 Z " fill="#73809D" transform="translate(293,227)"/>
<path d="M0 0 C1.32 0 2.64 0 4 0 C4 1.65 4 3.3 4 5 C3.34 5 2.68 5 2 5 C2 5.66 2 6.32 2 7 C2.66 7 3.32 7 4 7 C4 7.66 4 8.32 4 9 C2.68 9 1.36 9 0 9 C0 6.03 0 3.06 0 0 Z " fill="#74809D" transform="translate(240,227)"/>
<path d="M0 0 C0.66 0.33 1.32 0.66 2 1 C2.59355614 3.64860427 2.74209269 6.29197322 3 9 C1.35 9 -0.3 9 -2 9 C-1.34 6.03 -0.68 3.06 0 0 Z " fill="#707D9B" transform="translate(440,227)"/>
<path d="M0 0 C1.32 0.33 2.64 0.66 4 1 C3.67 2.65 3.34 4.3 3 6 C2.34 6 1.68 6 1 6 C0.67 6.99 0.34 7.98 0 9 C0 6.03 0 3.06 0 0 Z " fill="#74819D" transform="translate(431,227)"/>
<path d="M0 0 C0.99 0 1.98 0 3 0 C3 0.66 3 1.32 3 2 C2.34 2 1.68 2 1 2 C1.99 3.485 1.99 3.485 3 5 C2.625 7.1875 2.625 7.1875 2 9 C1.01 9 0.02 9 -1 9 C-1 8.34 -1 7.68 -1 7 C-0.34 7 0.32 7 1 7 C0.34 6.01 -0.32 5.02 -1 4 C-0.625 1.8125 -0.625 1.8125 0 0 Z " fill="#818CA6" transform="translate(392,227)"/>
<path d="M0 0 C1.32 0 2.64 0 4 0 C3.125 5.75 3.125 5.75 2 8 C2.66 8.33 3.32 8.66 4 9 C2.68 9 1.36 9 0 9 C0.66 6.69 1.32 4.38 2 2 C1.34 2 0.68 2 0 2 C0 1.34 0 0.68 0 0 Z " fill="#73809D" transform="translate(286,227)"/>
<path d="M0 0 C1.32 0 2.64 0 4 0 C3.67 2.97 3.34 5.94 3 9 C2.34 9 1.68 9 1 9 C0.67 6.03 0.34 3.06 0 0 Z " fill="#7D88A3" transform="translate(420,227)"/>
<path d="M0 0 C0.66 0 1.32 0 2 0 C2 2.31 2 4.62 2 7 C2.66 7 3.32 7 4 7 C4 7.66 4 8.32 4 9 C2.68 9 1.36 9 0 9 C0 6.03 0 3.06 0 0 Z " fill="#7986A1" transform="translate(350,227)"/>
<path d="M0 0 C1.32 0 2.64 0 4 0 C3.67 2.97 3.34 5.94 3 9 C2.34 9 1.68 9 1 9 C0.67 6.03 0.34 3.06 0 0 Z " fill="#7C88A3" transform="translate(398,227)"/>
<path d="M0 0 C1.32 0 2.64 0 4 0 C3.67 2.97 3.34 5.94 3 9 C2.34 9 1.68 9 1 9 C0.67 6.03 0.34 3.06 0 0 Z " fill="#7C88A3" transform="translate(254,227)"/>
<path d="M0 0 C0.66 0 1.32 0 2 0 C2.84454356 3.37817425 3.10844919 5.67465243 2 9 C1.34 9 0.68 9 0 9 C0 6.03 0 3.06 0 0 Z " fill="#7D89A3" transform="translate(246,227)"/>
<path d="M0 0 C0.99 0.33 1.98 0.66 3 1 C3.33 2.65 3.66 4.3 4 6 C3.01 6.495 3.01 6.495 2 7 C1.34 6.67 0.68 6.34 0 6 C0 4.02 0 2.04 0 0 Z " fill="#B3BAC9" transform="translate(220,229)"/>
<path d="M0 0 C0.66 0 1.32 0 2 0 C2.33 2.64 2.66 5.28 3 8 C2.01 8.33 1.02 8.66 0 9 C0 6.03 0 3.06 0 0 Z " fill="#6A7896" transform="translate(454,227)"/>
<path d="M0 0 C1.65 0 3.3 0 5 0 C5 0.66 5 1.32 5 2 C4.34 2 3.68 2 3 2 C3 4.31 3 6.62 3 9 C2.67 9 2.34 9 2 9 C2 6.69 2 4.38 2 2 C1.34 2 0.68 2 0 2 C0 1.34 0 0.68 0 0 Z " fill="#6F7C9A" transform="translate(477,227)"/>
</svg>
