<?xml version="1.0" encoding="UTF-8"?>
<svg version="1.1" xmlns="http://www.w3.org/2000/svg" width="472" height="443">
<path d="M0 0 C155.76 0 311.52 0 472 0 C472 146.19 472 292.38 472 443 C316.24 443 160.48 443 0 443 C0 296.81 0 150.62 0 0 Z " fill="#1E7954" transform="translate(0,0)"/>
<path d="M0 0 C0.81417892 0.00424484 1.62835785 0.00848969 2.46720886 0.01286316 C5.05530543 0.02959122 7.64260946 0.06723163 10.23046875 0.10546875 C11.99022309 0.12052322 13.7499897 0.13421029 15.50976562 0.14648438 C19.81280312 0.17947539 24.11525178 0.23121635 28.41796875 0.29296875 C25.65573597 3.05520153 23.21090258 2.87153166 19.41796875 3.29296875 C24.12203674 5.15837502 28.36540911 6.6613988 33.41796875 7.29296875 C33.41796875 6.30296875 33.41796875 5.31296875 33.41796875 4.29296875 C35.39796875 4.29296875 37.37796875 4.29296875 39.41796875 4.29296875 C39.41796875 5.28296875 39.41796875 6.27296875 39.41796875 7.29296875 C37.43796875 6.30296875 37.43796875 6.30296875 35.41796875 5.29296875 C35.74796875 5.95296875 36.07796875 6.61296875 36.41796875 7.29296875 C38.7739611 7.76048663 38.7739611 7.76048663 41.48046875 7.91796875 C42.39957031 7.99273437 43.31867188 8.0675 44.265625 8.14453125 C44.97589844 8.19351563 45.68617188 8.2425 46.41796875 8.29296875 C46.41796875 7.63296875 46.41796875 6.97296875 46.41796875 6.29296875 C47.40796875 6.78796875 47.40796875 6.78796875 48.41796875 7.29296875 C49.88884541 7.85675829 51.36932648 8.3957447 52.85546875 8.91796875 C53.63792969 9.19898438 54.42039063 9.48 55.2265625 9.76953125 C57.5743553 10.53416038 57.5743553 10.53416038 60.41796875 9.29296875 C62.82379055 9.85773063 65.07684165 10.51832345 67.41796875 11.29296875 C68.29936523 11.58026855 69.18076172 11.86756836 70.08886719 12.16357422 C73.16091583 13.17418353 76.22738687 14.20041812 79.29296875 15.23046875 C80.33066406 15.57787109 81.36835938 15.92527344 82.4375 16.28320312 C84.47903142 16.96671711 86.52037717 17.65078593 88.56152344 18.33544922 C91.14049533 19.19995586 93.72029736 20.06189388 96.30078125 20.921875 C97.01790283 21.16252686 97.73502441 21.40317871 98.47387695 21.65112305 C100.13130448 22.19832598 101.79913195 22.71386099 103.46875 23.22265625 C108.10922032 24.90674746 112.39319186 27.2586795 116.75976562 29.546875 C120.87307949 31.70530153 120.87307949 31.70530153 125.41796875 32.29296875 C124.18046875 31.48859375 124.18046875 31.48859375 122.91796875 30.66796875 C120.32353795 28.94448162 117.83404238 27.11644223 115.35546875 25.23046875 C112.47445829 23.04620938 109.57462137 21.06858585 106.41796875 19.29296875 C107.40796875 18.96296875 108.39796875 18.63296875 109.41796875 18.29296875 C111.46875 19.33203125 111.46875 19.33203125 113.73046875 20.91796875 C114.52582031 21.47355469 115.32117188 22.02914062 116.140625 22.6015625 C118.03853209 24.0111573 119.86700685 25.45082059 121.66796875 26.98046875 C124.27991448 29.30894547 124.27991448 29.30894547 126.98046875 30.79296875 C129.92388477 32.60430169 131.98384834 34.83768208 134.41796875 37.29296875 C137.19375982 39.81283582 139.99316315 42.30423701 142.796875 44.79296875 C145.2721376 47.15387496 147.3088556 49.60864292 149.41796875 52.29296875 C152.10583793 54.64485428 154.77100431 56.85583061 157.73046875 58.85546875 C159.76472274 60.58835178 159.90617936 61.73402182 160.41796875 64.29296875 C161.07796875 64.62296875 161.73796875 64.95296875 162.41796875 65.29296875 C162.41796875 64.63296875 162.41796875 63.97296875 162.41796875 63.29296875 C163.07796875 63.29296875 163.73796875 63.29296875 164.41796875 63.29296875 C166.0390625 65.70703125 166.0390625 65.70703125 167.85546875 68.91796875 C168.45230469 69.96210937 169.04914063 71.00625 169.6640625 72.08203125 C170.81767437 74.19398883 171.93371006 76.32698573 173.0078125 78.48046875 C174.4365052 81.44343453 174.4365052 81.44343453 176.54296875 84.66796875 C178.78050974 88.4854528 179.11056468 91.9124608 179.41796875 96.29296875 C180.40796875 96.29296875 181.39796875 96.29296875 182.41796875 96.29296875 C186.77199209 105.33338362 189.43664535 112.98619132 190.07421875 122.99609375 C190.44227935 125.45540773 191.31100543 127.08800538 192.41796875 129.29296875 C192.38429825 131.17851684 192.34810198 133.06406594 192.296875 134.94921875 C192.43312088 137.58623583 193.04451108 139.76087316 193.79296875 142.29296875 C196.07229342 150.65766022 196.37228023 159.26319754 196.98828125 167.87890625 C197.26764235 171.74041329 197.77260804 175.47503646 198.41796875 179.29296875 C199.74242277 199.31176563 195.4220224 221.28486144 186.41796875 239.29296875 C186.18379568 241.8211706 186.03639979 244.34784578 185.89453125 246.8828125 C185.34201982 249.67707111 184.50369937 250.44747935 182.41796875 252.29296875 C182.03923941 253.9499096 181.71546821 255.61953427 181.41796875 257.29296875 C180.45992194 259.98462408 179.46012843 262.63477292 178.41796875 265.29296875 C177.93263672 266.61361328 177.93263672 266.61361328 177.4375 267.9609375 C177.10105469 268.85425781 176.76460938 269.74757813 176.41796875 270.66796875 C175.95390625 271.91707031 175.95390625 271.91707031 175.48046875 273.19140625 C174.41796875 275.29296875 174.41796875 275.29296875 171.41796875 277.29296875 C170.69035718 279.87533561 170.69035718 279.87533561 170.35546875 282.79296875 C169.62407562 288.08686188 169.62407562 288.08686188 167.41796875 290.29296875 C164.75130208 290.29296875 162.08463542 290.29296875 159.41796875 290.29296875 C158.75796875 290.95296875 158.09796875 291.61296875 157.41796875 292.29296875 C156.66644531 292.58429688 155.91492188 292.875625 155.140625 293.17578125 C151.99828108 294.46517919 149.58746301 296.15412041 146.85546875 298.16796875 C145.92605469 298.84601563 144.99664062 299.5240625 144.0390625 300.22265625 C141.41422488 302.21256858 141.41422488 302.21256858 139.2734375 304.44140625 C137.2230131 306.48751396 135.02226639 307.64990574 132.48828125 309.015625 C128.94920184 311.19917022 125.83625001 313.9211464 122.65234375 316.5859375 C120.41796875 318.29296875 120.41796875 318.29296875 117.41796875 319.29296875 C116.75796875 320.28296875 116.09796875 321.27296875 115.41796875 322.29296875 C112.79296875 322.98046875 112.79296875 322.98046875 110.41796875 323.29296875 C110.08796875 324.28296875 109.75796875 325.27296875 109.41796875 326.29296875 C107.37890625 327.35546875 107.37890625 327.35546875 104.79296875 328.29296875 C103.88675781 328.63199219 102.98054687 328.97101563 102.046875 329.3203125 C100.74556641 329.80177734 100.74556641 329.80177734 99.41796875 330.29296875 C98.18447305 330.80346499 96.95458751 331.32287949 95.73046875 331.85546875 C93.3587201 332.88471816 90.98407172 333.90486008 88.60546875 334.91796875 C86.85923634 335.67124548 85.11896927 336.44246849 83.41796875 337.29296875 C81.73495743 337.5001086 80.0459439 337.65982303 78.35546875 337.79296875 C74.12526572 338.14548567 69.91179121 338.55498568 65.6953125 339.04296875 C62.26422157 339.41962367 58.8255305 339.71453749 55.38671875 340.01171875 C53.41901042 340.09192708 53.41901042 340.09192708 52.41796875 341.29296875 C49.45770373 341.70262159 46.51436909 342.05065185 43.54296875 342.35546875 C42.7334375 342.44634766 41.92390625 342.53722656 41.08984375 342.63085938 C15.40268558 345.32517486 -15.05032571 342.28690673 -38.58203125 331.29296875 C-38.58203125 330.96296875 -38.58203125 330.63296875 -38.58203125 330.29296875 C-28.90237636 329.61369472 -20.22737392 332.53036732 -11.06640625 335.390625 C-7.46397045 336.32354279 -4.16863416 336.66377058 -0.45703125 336.85546875 C6.00708599 337.20201333 6.00708599 337.20201333 8.69873047 337.79785156 C13.84475808 338.73483702 19.10844288 338.47888283 24.32568359 338.47827148 C26.38400752 338.48043308 28.44177248 338.49854335 30.5 338.51757812 C39.89290236 338.55730906 49.43209952 338.28825849 58.41796875 335.29296875 C57.14783936 335.39689941 57.14783936 335.39689941 55.85205078 335.50292969 C27.26910109 337.7115943 -1.87139888 337.18588623 -29.58203125 329.29296875 C-31.37125187 328.94674609 -33.16263552 328.61128385 -34.95703125 328.29296875 C-36.15328125 327.96296875 -37.34953125 327.63296875 -38.58203125 327.29296875 C-39.2839373 325.97784514 -39.95309633 324.64450975 -40.58203125 323.29296875 C-42.94398536 322.6869421 -42.94398536 322.6869421 -45.58203125 322.29296875 C-46.35546875 321.82375 -47.12890625 321.35453125 -47.92578125 320.87109375 C-50.54482886 319.31507134 -52.86607211 318.48465505 -55.76953125 317.60546875 C-61.98277424 315.43589885 -66.93837398 311.94669903 -71.58203125 307.29296875 C-71.58203125 306.63296875 -71.58203125 305.97296875 -71.58203125 305.29296875 C-72.13890625 305.04546875 -72.69578125 304.79796875 -73.26953125 304.54296875 C-75.58203125 303.29296875 -75.58203125 303.29296875 -77.83203125 301.41796875 C-82.8815702 297.51605229 -88.48303952 295.12266627 -94.58203125 293.29296875 C-95.07703125 289.82796875 -95.07703125 289.82796875 -95.58203125 286.29296875 C-96.57203125 286.62296875 -97.56203125 286.95296875 -98.58203125 287.29296875 C-101.26953125 286.35546875 -101.26953125 286.35546875 -103.58203125 285.29296875 C-103.58203125 283.97296875 -103.58203125 282.65296875 -103.58203125 281.29296875 C-104.47921875 280.98359375 -104.47921875 280.98359375 -105.39453125 280.66796875 C-107.58203125 279.29296875 -107.58203125 279.29296875 -108.83203125 276.66796875 C-110.51720555 273.41798974 -111.9732981 271.77792989 -114.58203125 269.29296875 C-118.57418537 265.44024648 -121.3955696 262.15204746 -121.76953125 256.41796875 C-121.70765625 255.71671875 -121.64578125 255.01546875 -121.58203125 254.29296875 C-122.24203125 254.29296875 -122.90203125 254.29296875 -123.58203125 254.29296875 C-128.00485768 246.32796717 -130.9538815 238.01391634 -133.85009766 229.4140625 C-134.5191926 227.47507089 -135.24134889 225.55459886 -135.96875 223.63671875 C-142.09360751 207.00947793 -147.27123982 180.77701783 -142.58203125 163.29296875 C-141.09703125 162.30296875 -141.09703125 162.30296875 -139.58203125 161.29296875 C-139.60265625 162.32421875 -139.62328125 163.35546875 -139.64453125 164.41796875 C-139.70185343 168.08445773 -139.70185343 168.08445773 -139.08203125 170.79296875 C-138.34988987 175.91795839 -138.47815186 180.99872753 -138.51953125 186.16796875 C-138.52404297 187.23789063 -138.52855469 188.3078125 -138.53320312 189.41015625 C-138.54493376 192.03781861 -138.56134897 194.66536413 -138.58203125 197.29296875 C-137.59203125 197.62296875 -136.60203125 197.95296875 -135.58203125 198.29296875 C-135.59363281 197.52210938 -135.60523438 196.75125 -135.6171875 195.95703125 C-135.63072266 194.45269531 -135.63072266 194.45269531 -135.64453125 192.91796875 C-135.65613281 191.92023438 -135.66773438 190.9225 -135.6796875 189.89453125 C-135.58203125 187.29296875 -135.58203125 187.29296875 -134.58203125 185.29296875 C-135.24203125 184.96296875 -135.90203125 184.63296875 -136.58203125 184.29296875 C-136.20703125 182.35546875 -136.20703125 182.35546875 -135.58203125 180.29296875 C-134.92203125 179.96296875 -134.26203125 179.63296875 -133.58203125 179.29296875 C-133.11204264 176.96672858 -133.11204264 176.96672858 -132.94921875 174.1640625 C-132.86542969 173.12958984 -132.78164062 172.09511719 -132.6953125 171.02929688 C-132.61667969 169.94068359 -132.53804687 168.85207031 -132.45703125 167.73046875 C-132.37066406 166.63798828 -132.28429687 165.54550781 -132.1953125 164.41992188 C-131.98242171 161.71147794 -131.77839888 159.00265268 -131.58203125 156.29296875 C-132.57203125 155.96296875 -133.56203125 155.63296875 -134.58203125 155.29296875 C-134.68515625 154.69484375 -134.78828125 154.09671875 -134.89453125 153.48046875 C-135.12140625 152.75859375 -135.34828125 152.03671875 -135.58203125 151.29296875 C-136.57332031 150.77734375 -137.56460938 150.26171875 -138.5859375 149.73046875 C-141.58203125 147.29296875 -141.58203125 147.29296875 -142.13891602 145.33520508 C-142.32079217 142.89911144 -142.30901434 140.5462483 -142.20703125 138.10546875 C-142.18882324 137.24993408 -142.17061523 136.39439941 -142.15185547 135.51293945 C-141.90618822 129.30064374 -140.71247512 124.67684498 -137.58203125 119.29296875 C-137.27265625 118.15859375 -136.96328125 117.02421875 -136.64453125 115.85546875 C-135.58203125 113.29296875 -135.58203125 113.29296875 -132.95703125 111.91796875 C-131.78140625 111.60859375 -131.78140625 111.60859375 -130.58203125 111.29296875 C-129.54026736 114.18675732 -129.65075461 115.72821667 -130.14453125 118.85546875 C-130.97826117 122.40854449 -130.97826117 122.40854449 -128.58203125 125.29296875 C-127.92203125 125.29296875 -127.26203125 125.29296875 -126.58203125 125.29296875 C-126.12054688 124.05804688 -125.6590625 122.823125 -125.18359375 121.55078125 C-118.52105215 104.0958944 -110.4244679 88.76486129 -98.58203125 74.29296875 C-97.20234426 72.52578469 -95.8267861 70.75536236 -94.45703125 68.98046875 C-93.49907024 67.75101188 -92.5409 66.52171778 -91.58203125 65.29296875 C-92.57203125 64.79796875 -92.57203125 64.79796875 -93.58203125 64.29296875 C-94.07703125 65.77796875 -94.07703125 65.77796875 -94.58203125 67.29296875 C-95.57203125 67.29296875 -96.56203125 67.29296875 -97.58203125 67.29296875 C-97.68515625 68.05609375 -97.78828125 68.81921875 -97.89453125 69.60546875 C-98.62914319 72.47713359 -99.25363775 73.52338969 -101.58203125 75.29296875 C-102.24203125 75.29296875 -102.90203125 75.29296875 -103.58203125 75.29296875 C-104.24203125 77.60296875 -104.90203125 79.91296875 -105.58203125 82.29296875 C-107.56203125 82.29296875 -109.54203125 82.29296875 -111.58203125 82.29296875 C-111.76765625 82.97359375 -111.95328125 83.65421875 -112.14453125 84.35546875 C-114.16792299 88.49022579 -117.25309645 91.17601801 -120.58203125 94.29296875 C-121.57203125 95.28296875 -121.57203125 95.28296875 -122.58203125 96.29296875 C-124.17174539 91.52382633 -121.6559907 87.6927454 -119.69921875 83.3203125 C-117.38468448 78.73986862 -115.10262321 77.41487926 -110.58203125 75.29296875 C-107.99497814 72.52112613 -105.86599114 69.73919144 -103.83203125 66.54296875 C-96.86713225 56.48255908 -86.81894612 45.04668438 -75.89453125 39.16796875 C-72.5437969 37.47534297 -72.5437969 37.47534297 -70.26953125 34.91796875 C-59.23183516 24.13696327 -42.05572884 18.7479934 -27.58203125 14.29296875 C-30.7049376 14.77875418 -33.57783484 15.29156995 -36.58203125 16.29296875 C-36.25203125 15.30296875 -35.92203125 14.31296875 -35.58203125 13.29296875 C-33.01953125 12.10546875 -33.01953125 12.10546875 -30.58203125 11.29296875 C-32.23203125 10.96296875 -33.88203125 10.63296875 -35.58203125 10.29296875 C-29.852068 5.27925091 -23.33876088 3.98466748 -15.9765625 3.69921875 C-13.48509218 3.45564001 -13.48509218 3.45564001 -11.46875 1.78588867 C-7.64049446 -0.19396439 -4.20256409 -0.08305036 0 0 Z " fill="#C7AD67" transform="translate(199.58203125,52.70703125)"/>
<path d="M0 0 C8.58 0 17.16 0 26 0 C26 3.96 26 7.92 26 12 C24.68 12 23.36 12 22 12 C22.19335938 12.59425781 22.38671875 13.18851563 22.5859375 13.80078125 C25.09617736 21.79129724 27 29.59440996 27 38 C23.7 38 20.4 38 17 38 C16.67 36.68 16.34 35.36 16 34 C13.03 33.67 10.06 33.34 7 33 C6.505 35.475 6.505 35.475 6 38 C3.36 38 0.72 38 -2 38 C-1.24595285 29.55467195 0.37828042 21.31258777 2 13 C1.34 13 0.68 13 0 13 C0 8.71 0 4.42 0 0 Z " fill="#03693E" transform="translate(291,239)"/>
<path d="M0 0 C7.26 0 14.52 0 22 0 C22 3.63 22 7.26 22 11 C17.71 11 13.42 11 9 11 C9 12.32 9 13.64 9 15 C12.63 15 16.26 15 20 15 C20 17.64 20 20.28 20 23 C16.37 23 12.74 23 9 23 C9 24.32 9 25.64 9 27 C13.29 27 17.58 27 22 27 C22 30.63 22 34.26 22 38 C14.74 38 7.48 38 0 38 C0 25.46 0 12.92 0 0 Z " fill="#056A3F" transform="translate(176,239)"/>
<path d="M0 0 C0.66 0.66 1.32 1.32 2 2 C1.979375 2.969375 1.95875 3.93875 1.9375 4.9375 C1.958125 5.948125 1.97875 6.95875 2 8 C2.7734375 8.7115625 2.7734375 8.7115625 3.5625 9.4375 C4.036875 9.953125 4.51125 10.46875 5 11 C4.75 14.125 4.75 14.125 4 18 C3.86830104 19.56194963 3.74344888 21.12448973 3.625 22.6875 C3.25469179 26.24488707 2.60708653 28.39291347 0 31 C0.66 31 1.32 31 2 31 C0.02180309 40.28230857 -2.05882843 49.32942256 -6 58 C-6.29777344 58.804375 -6.59554688 59.60875 -6.90234375 60.4375 C-8.90789603 65.85007482 -10.89604948 69.89604948 -15 74 C-15.66 74 -16.32 74 -17 74 C-17 72.35 -17 70.7 -17 69 C-19.475 69.99 -19.475 69.99 -22 71 C-21.52494322 69.18641846 -21.04483958 67.37415821 -20.5625 65.5625 C-20.16224609 64.04849609 -20.16224609 64.04849609 -19.75390625 62.50390625 C-19 60 -19 60 -18 59 C-17.53786761 56.65273349 -17.16530805 54.29665802 -16.79296875 51.93359375 C-16.08592224 49.31786996 -15.26231849 47.57058455 -13.96484375 45.234375 C-11.63461469 40.75422278 -11.40841343 36.79527759 -11.375 31.8125 C-11.22006609 22.43125192 -11.22006609 22.43125192 -9 18 C-8.01 19.32 -7.02 20.64 -6 22 C-4.75271311 18.09183441 -3.89548141 14.53039648 -3.5625 10.4375 C-3.19207067 6.43137543 -2.0623618 3.49704828 0 0 Z " fill="#94692F" transform="translate(410,226)"/>
<path d="M0 0 C18 0 18 0 23 3 C23.63110352 5.03710938 23.63110352 5.03710938 23.62890625 7.34375 C23.63180664 8.59478516 23.63180664 8.59478516 23.63476562 9.87109375 C23.61091797 10.73863281 23.58707031 11.60617188 23.5625 12.5 C23.57345703 13.36753906 23.58441406 14.23507813 23.59570312 15.12890625 C23.52345451 21.36155319 23.52345451 21.36155319 21.29296875 24.08203125 C18.60089442 25.15977821 16.64250931 25.301678 13.75 25.1875 C12.1825 25.125625 10.615 25.06375 9 25 C9 29.29 9 33.58 9 38 C6.03 38 3.06 38 0 38 C0 25.46 0 12.92 0 0 Z " fill="#046A3F" transform="translate(263,239)"/>
<path d="M0 0 C1.11246094 -0.00773438 2.22492188 -0.01546875 3.37109375 -0.0234375 C6.94441483 0.42268092 8.83963439 1.0101408 11.5625 3.375 C12.05078125 6.07421875 12.05078125 6.07421875 11.875 9.0625 C11.80732422 10.55330078 11.80732422 10.55330078 11.73828125 12.07421875 C11.68027344 12.83347656 11.62226563 13.59273437 11.5625 14.375 C9.2525 14.375 6.9425 14.375 4.5625 14.375 C4.2325 12.395 3.9025 10.415 3.5625 8.375 C2.2425 8.375 0.9225 8.375 -0.4375 8.375 C-0.458125 9.674375 -0.47875 10.97375 -0.5 12.3125 C-0.51160156 13.04339844 -0.52320313 13.77429688 -0.53515625 14.52734375 C-0.64311184 16.39232141 -0.64311184 16.39232141 0.5625 17.375 C2.81665378 17.65789181 5.07090656 17.8227119 7.3359375 17.99609375 C9.5625 18.375 9.5625 18.375 12.5625 20.375 C12.9609375 23.52734375 12.9609375 23.52734375 12.9375 27.3125 C12.94523437 28.55902344 12.95296875 29.80554688 12.9609375 31.08984375 C12.5625 34.375 12.5625 34.375 11.1640625 36.25390625 C7.75400805 38.64094436 5.25876871 38.50921688 1.125 38.5 C-0.60556641 38.50386719 -0.60556641 38.50386719 -2.37109375 38.5078125 C-5.4375 38.375 -5.4375 38.375 -8.4375 37.375 C-10.57336678 34.17119983 -10.66882175 33.35560033 -10.5625 29.6875 C-10.54445313 28.87925781 -10.52640625 28.07101562 -10.5078125 27.23828125 C-10.48460938 26.62339844 -10.46140625 26.00851562 -10.4375 25.375 C-7.7975 25.375 -5.1575 25.375 -2.4375 25.375 C-2.1075 26.365 -1.7775 27.355 -1.4375 28.375 C0.8725 28.375 3.1825 28.375 5.5625 28.375 C5.5625 26.725 5.5625 25.075 5.5625 23.375 C4.74265625 23.42140625 3.9228125 23.4678125 3.078125 23.515625 C1.46164063 23.56976563 1.46164063 23.56976563 -0.1875 23.625 C-1.78851563 23.69460938 -1.78851563 23.69460938 -3.421875 23.765625 C-6.4375 23.375 -6.4375 23.375 -8.796875 21.86328125 C-11.06745871 18.41956262 -11.02362573 15.29940342 -10.9375 11.3125 C-10.95296875 10.59255859 -10.9684375 9.87261719 -10.984375 9.13085938 C-10.96074193 5.94925691 -10.87037423 3.89922419 -8.80859375 1.40234375 C-5.74430979 0.07465564 -3.33620679 -0.02314132 0 0 Z " fill="#086A3F" transform="translate(130.4375,238.625)"/>
<path d="M0 0 C8.91 0 17.82 0 27 0 C27 4.29 27 8.58 27 13 C24.03 13 21.06 13 18 13 C18 21.25 18 29.5 18 38 C15.03 38 12.06 38 9 38 C9 29.75 9 21.5 9 13 C6.03 13 3.06 13 0 13 C0 8.71 0 4.42 0 0 Z " fill="#02683E" transform="translate(146,239)"/>
<path d="M0 0 C2.31 0 4.62 0 7 0 C7 9.24 7 18.48 7 28 C15.25 28 23.5 28 32 28 C32 31.3 32 34.6 32 38 C21.44 38 10.88 38 0 38 C0 25.46 0 12.92 0 0 Z " fill="#046A3F" transform="translate(229,239)"/>
<path d="M0 0 C3.63 0 7.26 0 11 0 C12.32 2.31 13.64 4.62 15 7 C16.74271938 4.702779 18.39911152 2.40133271 20 0 C21.9453125 -0.29296875 21.9453125 -0.29296875 24.125 -0.1875 C25.40375 -0.125625 26.6825 -0.06375 28 0 C26.69974479 4.4234813 24.91220249 7.81787126 22.4375 11.6875 C17.74123092 20.08622189 17.93025128 28.56399411 18 38 C15.03 38 12.06 38 9 38 C9.020625 36.8140625 9.04125 35.628125 9.0625 34.40625 C9.00658331 23.41462722 7.22778558 15.6455415 1.71484375 6.125 C0 3 0 3 0 0 Z " fill="#07693E" transform="translate(322,239)"/>
<path d="M0 0 C2.64 0 5.28 0 8 0 C8.33 8.58 8.66 17.16 9 26 C14.28 26.33 19.56 26.66 25 27 C25 30.63 25 34.26 25 38 C16.75 38 8.5 38 0 38 C0 25.46 0 12.92 0 0 Z " fill="#00683E" transform="translate(201,239)"/>
<path d="M0 0 C0.83402344 -0.0103125 1.66804687 -0.020625 2.52734375 -0.03125 C6.08811632 0.71492114 7.6452738 1.7667407 10.0625 4.5 C10.71626446 7.35688685 10.62622788 10.08438355 10.5 13 C10.49419922 13.75925781 10.48839844 14.51851562 10.48242188 15.30078125 C10.3991533 19.10448998 10.32544154 22.34315629 8.0625 25.5 C5.36207819 26.8502109 3.13798373 26.74311007 0.125 26.8125 C-1.46634766 26.86857422 -1.46634766 26.86857422 -3.08984375 26.92578125 C-5.9375 26.5 -5.9375 26.5 -7.7890625 25.04296875 C-9.51583381 21.21940372 -9.41144655 17.64827952 -9.375 13.5 C-9.39498047 12.69304687 -9.41496094 11.88609375 -9.43554688 11.0546875 C-9.43243272 7.28033225 -9.37619535 5.14607861 -7.21875 1.96875 C-4.57775789 0.26838522 -3.12265574 -0.0384919 0 0 Z " fill="#03693F" transform="translate(247.9375,238.5)"/>
<path d="M0 0 C9.67965489 -0.67927403 18.35465733 2.23739857 27.515625 5.09765625 C31.1180608 6.03057404 34.41339709 6.37080183 38.125 6.5625 C44.58911724 6.90904458 44.58911724 6.90904458 47.28076172 7.50488281 C52.42678933 8.44186827 57.69047413 8.18591408 62.90771484 8.18530273 C64.96603877 8.18746433 67.02380373 8.2055746 69.08203125 8.22460938 C76.58313143 8.25555828 83.76369599 7.79830453 91.15112305 6.44311523 C95.43928763 5.77613274 99.67367967 5.82421272 104 6 C102 9 102 9 99.65234375 9.4765625 C98.30849609 9.55003906 98.30849609 9.55003906 96.9375 9.625 C93.6617361 9.56041737 93.6617361 9.56041737 91 11 C88.03973498 11.40965284 85.09640034 11.7576831 82.125 12.0625 C81.31546875 12.15337891 80.5059375 12.24425781 79.671875 12.33789062 C53.98471683 15.03220611 23.53170554 11.99393798 0 1 C0 0.67 0 0.34 0 0 Z " fill="#E2DA8D" transform="translate(161,383)"/>
<path d="M0 0 C1.27875 -0.061875 2.5575 -0.12375 3.875 -0.1875 C4.95394531 -0.23970703 4.95394531 -0.23970703 6.0546875 -0.29296875 C6.69664062 -0.19628906 7.33859375 -0.09960938 8 0 C8.66 0.99 9.32 1.98 10 3 C10.99 3 11.98 3 13 3 C14.6875 5 14.6875 5 16 7 C15.67 7.66 15.34 8.32 15 9 C15.39938767 11.09821215 15.39938767 11.09821215 16 13 C14.68 12.67 13.36 12.34 12 12 C12.66 13.32 13.32 14.64 14 16 C12.68 15.67 11.36 15.34 10 15 C10.66 16.32 11.32 17.64 12 19 C10.02 19.99 10.02 19.99 8 21 C7.01 20.34 6.02 19.68 5 19 C5.33 19.99 5.66 20.98 6 22 C1.43201951 22 -1.46292973 20.77085354 -5 18 C-6.96492741 14.41187169 -7 12.00963961 -7 8 C-6.01 8 -5.02 8 -4 8 C-4.33 7.01 -4.66 6.02 -5 5 C-3.68 5.33 -2.36 5.66 -1 6 C-1.66 4.68 -2.32 3.36 -3 2 C-1.68 2.33 -0.36 2.66 1 3 C0.67 2.01 0.34 1.02 0 0 Z " fill="#D5CC82" transform="translate(253,191)"/>
<path d="M0 0 C26.44208329 4.43018918 53.34849454 3.55143899 80 2 C80 2.33 80 2.66 80 3 C77.6884626 3.48423511 75.37592629 3.96244112 73.0625 4.4375 C71.77472656 4.70433594 70.48695313 4.97117187 69.16015625 5.24609375 C60.22552861 6.92988695 51.42974683 7.15804348 42.35107422 7.13037109 C40.24048804 7.12497568 38.13011128 7.13036305 36.01953125 7.13671875 C34.66406204 7.13605848 33.30859295 7.13477839 31.953125 7.1328125 C30.13022949 7.13112061 30.13022949 7.13112061 28.27050781 7.12939453 C25.3723063 7.01472994 22.81991622 6.62937524 20 6 C16.52499037 5.74122269 13.05023386 5.55863845 9.5703125 5.37890625 C5.83326268 4.98230468 2.58460898 4.11521168 -1 3 C-8.98576869 0.73423051 -16.68816462 -1.41671331 -25 -2 C-25 -2.33 -25 -2.66 -25 -3 C-17.2375479 -4.74259129 -7.22000122 -3.61000061 0 0 Z " fill="#267C53" transform="translate(186,385)"/>
<path d="M0 0 C1.63984529 0.00031732 3.27971127 0.01165397 4.91943359 0.03173828 C6.21365738 0.03598312 6.21365738 0.03598312 7.5340271 0.04031372 C10.29544829 0.05152746 13.05654759 0.07663394 15.81787109 0.10205078 C17.68765808 0.11207905 19.55745015 0.12120517 21.42724609 0.12939453 C26.01591218 0.15147066 30.60433702 0.18600844 35.19287109 0.22705078 C34.86287109 0.88705078 34.53287109 1.54705078 34.19287109 2.22705078 C21.65287109 2.22705078 9.11287109 2.22705078 -3.80712891 2.22705078 C-3.80712891 15.42705078 -3.80712891 28.62705078 -3.80712891 42.22705078 C-2.32212891 41.73205078 -2.32212891 41.73205078 -0.80712891 41.22705078 C-1.13712891 40.56705078 -1.46712891 39.90705078 -1.80712891 39.22705078 C1.19287109 40.72705078 1.19287109 40.72705078 4.19287109 42.22705078 C3.20287109 40.57705078 2.21287109 38.92705078 1.19287109 37.22705078 C1.99724609 37.66017578 1.99724609 37.66017578 2.81787109 38.10205078 C5.54567593 39.39416886 8.31899827 40.3126367 11.19287109 41.22705078 C12.35098498 40.17434615 12.35098498 40.17434615 13.19287109 38.22705078 C13.85287109 39.54705078 14.51287109 40.86705078 15.19287109 42.22705078 C26.08287109 42.22705078 36.97287109 42.22705078 48.19287109 42.22705078 C48.19287109 42.88705078 48.19287109 43.54705078 48.19287109 44.22705078 C40.66317457 44.25231726 33.1334889 44.2698822 25.60375977 44.28198242 C23.03995353 44.28702448 20.47615018 44.29385792 17.91235352 44.30249023 C14.23632088 44.31456143 10.56032611 44.3202802 6.88427734 44.32470703 C5.73012833 44.32986832 4.57597931 44.3350296 3.38685608 44.34034729 C2.32583176 44.34042282 1.26480743 44.34049835 0.17163086 44.34057617 C-0.76768784 44.34279678 -1.70700653 44.3450174 -2.67478943 44.3473053 C-4.80712891 44.22705078 -4.80712891 44.22705078 -5.80712891 43.22705078 C-5.92069615 40.22066828 -5.97131802 37.23812636 -5.97509766 34.23095703 C-5.97842606 33.32707748 -5.98175446 32.42319794 -5.98518372 31.4919281 C-5.99025687 29.57608552 -5.99259192 27.66023406 -5.99243164 25.74438477 C-5.99461703 22.8055166 -6.01276555 19.86702427 -6.03173828 16.92822266 C-6.03467228 15.07080207 -6.03665703 13.21337969 -6.03759766 11.35595703 C-6.04478317 10.47259171 -6.05196869 9.58922638 -6.05937195 8.67909241 C-6.02806043 0.35950341 -6.02806043 0.35950341 0 0 Z " fill="#23794A" transform="translate(195.80712890625,166.77294921875)"/>
<path d="M0 0 C3.28482919 1.24288895 6.24389705 2.63749078 9.23828125 4.46875 C18.73706041 10.15229825 28.12363443 15.07565377 38.4375 19.125 C48.05230629 22.90885682 56.04681315 27.41901793 64 34 C63.43782602 37.50747678 62.57556219 40.08624775 60.75 43.125 C57.78448732 48.25196508 55.38008014 53.58151969 53 59 C51.24637196 53.73911589 54.69576248 48.81216455 57 44 C57.73596474 42.79058023 58.49905196 41.59622454 59.3125 40.4375 C61.28460499 38.08300979 61.28460499 38.08300979 61 35 C59.11845152 33.31364618 57.33953444 31.95755603 55.25 30.5625 C54.60603271 30.13001953 53.96206543 29.69753906 53.29858398 29.25195312 C45.47920048 24.28569533 36.92299709 20.99389308 28.38037109 17.48950195 C19.90519436 13.96437278 12.28465293 9.92801645 4.7109375 4.765625 C2.25988687 2.81808265 2.25988687 2.81808265 0 3 C-5.0555406 8.8499827 -7.6881996 15.72462814 -10 23 C-11.67711477 17.9686557 -9.19472111 13.64220505 -7 9 C-4.86194028 5.81575293 -2.53102559 2.87939709 0 0 Z " fill="#177245" transform="translate(217,133)"/>
<path d="M0 0 C3.77919927 1.81961446 5.56575525 3.36964472 7.9375 6.8125 C9.28257347 10.84772042 9.21813135 12.91567723 8 17 C5.31245895 21.07253153 2.53993942 24.08513446 -2 26 C-5.29905113 26.59982748 -7.23252638 26.45907596 -10.12890625 24.7265625 C-15.6680791 20.66384181 -15.6680791 20.66384181 -17 18 C-17.57425085 13.29302583 -17.45554552 9.87855208 -15.25 5.625 C-10.56883137 0.1636366 -7.18036033 -1.1094654 0 0 Z M-9 2 C-8.67 2.99 -8.34 3.98 -8 5 C-9.32 4.67 -10.64 4.34 -12 4 C-11.34 5.32 -10.68 6.64 -10 8 C-11.32 7.67 -12.64 7.34 -14 7 C-13.67 8.32 -13.34 9.64 -13 11 C-13.99 10.67 -14.98 10.34 -16 10 C-15.835 10.5775 -15.67 11.155 -15.5 11.75 C-15 14 -15 14 -15 18 C-12.425698 20.99175638 -10.76922693 22.74359102 -7 24 C-5.68 24 -4.36 24 -3 24 C-3 23.01 -3 22.02 -3 21 C-2.01 21.66 -1.02 22.32 0 23 C0.99 22.34 1.98 21.68 3 21 C2.67 19.68 2.34 18.36 2 17 C2.99 17.33 3.98 17.66 5 18 C4.67 16.68 4.34 15.36 4 14 C4.99 14.33 5.98 14.66 7 15 C7 14.01 7 13.02 7 12 C7 11.67 7 11.34 7 11 C5.77411725 7.32235176 5.33696057 6.22464038 2 4 C1.67 4.33 1.34 4.66 1 5 C0.34 4.01 -0.32 3.02 -1 2 C-2.97747122 1.63702064 -2.97747122 1.63702064 -5.125 1.8125 C-6.40375 1.874375 -7.6825 1.93625 -9 2 Z " fill="#217848" transform="translate(262,189)"/>
<path d="M0 0 C0.33 0 0.66 0 1 0 C1.06058594 0.98742187 1.12117188 1.97484375 1.18359375 2.9921875 C1.26738281 4.27351562 1.35117187 5.55484375 1.4375 6.875 C1.51871094 8.15117187 1.59992188 9.42734375 1.68359375 10.7421875 C1.79206027 13.88300152 1.79206027 13.88300152 3 16 C2.34 16 1.68 16 1 16 C1.185625 16.7425 1.37125 17.485 1.5625 18.25 C2.47505683 26.07191571 1.96234049 33.13141186 -2.01953125 39.98828125 C-3.54608948 43.12046248 -3.98131852 46.37857038 -4.5078125 49.80078125 C-5 52 -5 52 -7 55 C-7.43738696 56.71444889 -7.80848688 58.44667784 -8.125 60.1875 C-8.29257812 61.08855469 -8.46015625 61.98960937 -8.6328125 62.91796875 C-8.81457031 63.94857422 -8.81457031 63.94857422 -9 65 C-9.66 65 -10.32 65 -11 65 C-11.66 64.34 -12.32 63.68 -13 63 C-12.67098321 57.00995896 -10.09519686 51.29779054 -8.125 45.6875 C-2.92961182 30.45413 -0.62579608 16.03332707 0 0 Z " fill="#3A7951" transform="translate(398,233)"/>
<path d="M0 0 C0.8353125 0.2165625 0.8353125 0.2165625 1.6875 0.4375 C4.11384195 1.02769128 6.54906345 1.523429 9 2 C10.33333333 8.33333333 10.33333333 8.33333333 9 11 C9 11.66 9 12.32 9 13 C7.68 13.33 6.36 13.66 5 14 C5 14.66 5 15.32 5 16 C4.01 16 3.02 16 2 16 C1.34 15.34 0.68 14.68 0 14 C-0.99 14.495 -0.99 14.495 -2 15 C-4.0625 13.25 -4.0625 13.25 -6 11 C-5.6875 9 -5.6875 9 -5 7 C-5.185625 6.29875 -5.37125 5.5975 -5.5625 4.875 C-5.706875 4.25625 -5.85125 3.6375 -6 3 C-5.34 2.34 -4.68 1.68 -4 1 C-1.375 1.375 -1.375 1.375 1 2 C0.67 1.34 0.34 0.68 0 0 Z " fill="#DED88B" transform="translate(241,162)"/>
<path d="M0 0 C0.33 0 0.66 0 1 0 C1 12.21 1 24.42 1 37 C0.67 37 0.34 37 0 37 C0 33.7 0 30.4 0 27 C-4.62 27 -9.24 27 -14 27 C-14 25.68 -14 24.36 -14 23 C-10.37 23 -6.74 23 -3 23 C-3 20.36 -3 17.72 -3 15 C-6.63 15 -10.26 15 -14 15 C-14 13.68 -14 12.36 -14 11 C-7.565 10.505 -7.565 10.505 -1 10 C-0.67 6.7 -0.34 3.4 0 0 Z " fill="#E1D084" transform="translate(199,239)"/>
<path d="M0 0 C-1.71252914 5.10153419 -4.65266322 8.08978763 -8.3203125 11.9140625 C-10.31359105 13.94307806 -10.31359105 13.94307806 -10 17 C-11.3125 19.26171875 -11.3125 19.26171875 -13 21.6875 C-13.556875 22.49574219 -14.11375 23.30398437 -14.6875 24.13671875 C-15.3371875 25.05904297 -15.3371875 25.05904297 -16 26 C-16.33 25.34 -16.66 24.68 -17 24 C-18.32 24 -19.64 24 -21 24 C-21.28875 24.804375 -21.5775 25.60875 -21.875 26.4375 C-23 29 -23 29 -25 30 C-24.48517802 25.49530764 -22.88403208 23.42965977 -20 20 C-19.00887855 18.50787211 -18.03065633 17.00712995 -17.0625 15.5 C-14.67565874 11.8899026 -12.2292575 8.91420799 -9 6 C-8.11054687 5.19175781 -8.11054687 5.19175781 -7.203125 4.3671875 C-2.2875 0 -2.2875 0 0 0 Z " fill="#8D733B" transform="translate(109,99)"/>
<path d="M0 0 C0.99 0.33 1.98 0.66 3 1 C2.23816406 1.92039062 1.47632812 2.84078125 0.69140625 3.7890625 C-5.48746688 11.33644458 -11.13833972 18.96577321 -16.2578125 27.26953125 C-18 30 -18 30 -20 32 C-20.99 31.67 -21.98 31.34 -23 31 C-23.33 30.34 -23.66 29.68 -24 29 C-25.32 29.99 -26.64 30.98 -28 32 C-26.58397787 28.85093585 -24.86264918 26.50476328 -22.5625 23.9375 C-21.96566406 23.26589844 -21.36882812 22.59429687 -20.75390625 21.90234375 C-19.88572266 20.96068359 -19.88572266 20.96068359 -19 20 C-18.49339844 19.42378906 -17.98679687 18.84757812 -17.46484375 18.25390625 C-16 17 -16 17 -13 17 C-12.608125 16.0925 -12.21625 15.185 -11.8125 14.25 C-9.90354043 10.82703801 -8.02772424 9.39030861 -5 7 C-4.36707617 4.88719655 -4.36707617 4.88719655 -4 3 C-3.01 2.67 -2.02 2.34 -1 2 C-0.67 1.34 -0.34 0.68 0 0 Z " fill="#2E774D" transform="translate(106,117)"/>
<path d="M0 0 C2.8100346 1.79363911 4.50940468 3.01880935 6 6 C6.04107268 10.25512922 5.71525498 13.89960772 3.375 17.5 C0.15914004 19.53106945 -2.20574107 19.93343405 -6 20 C-9.62334274 18.43537473 -12.29653659 16.59620054 -14 13 C-14.28854134 8.40031159 -13.8584693 5.06658307 -10.9375 1.4375 C-7.14389674 -0.41894415 -4.14720686 -0.85457596 0 0 Z M-6 2 C-6 2.66 -6 3.32 -6 4 C-6.61875 3.79375 -7.2375 3.5875 -7.875 3.375 C-8.926875 3.189375 -8.926875 3.189375 -10 3 C-10.66 3.66 -11.32 4.32 -12 5 C-11.68770276 6.33841672 -11.35169068 7.67139075 -11 9 C-11.226875 9.66 -11.45375 10.32 -11.6875 11 C-11.790625 11.66 -11.89375 12.32 -12 13 C-10.14567913 15.27144074 -10.14567913 15.27144074 -8 17 C-7.01 16.67 -6.02 16.34 -5 16 C-4.67 16.66 -4.34 17.32 -4 18 C-3.01 18 -2.02 18 -1 18 C-1 17.01 -1 16.02 -1 15 C0.32 15 1.64 15 3 15 C3 14.34 3 13.68 3 13 C3 10.16032769 3.40267181 7.76264289 4 5 C1.1575146 3.42726432 1.1575146 3.42726432 -2 3 C-3.33783393 2.68521554 -4.67203709 2.35412344 -6 2 Z " fill="#1F7849" transform="translate(247,160)"/>
<path d="M0 0 C1.65 0.33 3.3 0.66 5 1 C5.33 1.99 5.66 2.98 6 4 C3.525 3.01 3.525 3.01 1 2 C1 4.31 1 6.62 1 9 C1.61875 9.268125 2.2375 9.53625 2.875 9.8125 C5 11 5 11 7 14 C6.625 17.1875 6.625 17.1875 6 20 C4.68 20.33 3.36 20.66 2 21 C2 21.66 2 22.32 2 23 C1.34 23 0.68 23 0 23 C0 22.34 0 21.68 0 21 C-1.98 20.67 -3.96 20.34 -6 20 C-6.33 19.01 -6.66 18.02 -7 17 C-6.401875 17.309375 -5.80375 17.61875 -5.1875 17.9375 C-2.91043228 19.10209704 -2.91043228 19.10209704 0 20 C-0.28211877 18.3733152 -0.57602375 16.74867104 -0.875 15.125 C-1.03742188 14.22007812 -1.19984375 13.31515625 -1.3671875 12.3828125 C-1.83044703 9.83494012 -1.83044703 9.83494012 -4 8 C-3.01 8 -2.02 8 -1 8 C-0.67 5.36 -0.34 2.72 0 0 Z " fill="#157345" transform="translate(225,179)"/>
<path d="M0 0 C0 0.33 0 0.66 0 1 C-2.3115374 1.48423511 -4.62407371 1.96244112 -6.9375 2.4375 C-8.22527344 2.70433594 -9.51304687 2.97117187 -10.83984375 3.24609375 C-19.93431193 4.96440341 -28.81660715 5.12640038 -38.0625 5.0625 C-39.30966797 5.05798828 -40.55683594 5.05347656 -41.84179688 5.04882812 C-44.89458221 5.03713163 -47.94726498 5.02074086 -51 5 C-51 4.67 -51 4.34 -51 4 C-49.02 3.67 -47.04 3.34 -45 3 C-45 2.67 -45 2.34 -45 2 C-39.87726928 1.71234368 -34.75438694 1.42761561 -29.63134766 1.14550781 C-27.89139496 1.04929221 -26.15148501 0.95230004 -24.41162109 0.85449219 C-21.89952471 0.7134117 -19.38728385 0.57519705 -16.875 0.4375 C-16.10696045 0.39375244 -15.3389209 0.35000488 -14.54760742 0.30493164 C-9.69056755 0.04217461 -4.86423571 -0.03860505 0 0 Z " fill="#458D5E" transform="translate(266,387)"/>
<path d="M0 0 C0.33 0 0.66 0 1 0 C1.66 2.31 2.32 4.62 3 7 C3.99 7 4.98 7 6 7 C5.67 7.99 5.34 8.98 5 10 C4.34 10 3.68 10 3 10 C2.67 10.99 2.34 11.98 2 13 C2.99 13.33 3.98 13.66 5 14 C4.7525 14.9590625 4.7525 14.9590625 4.5 15.9375 C3.84067485 19.97586652 3.91996221 23.91807258 4 28 C2.046875 27.234375 2.046875 27.234375 0 26 C-1.58197196 18.09014018 -2.56265565 7.68796696 0 0 Z " fill="#3F6E42" transform="translate(61,224)"/>
<path d="M0 0 C7.3074554 -0.51280389 13.48804814 1.010556 20.44921875 3.02734375 C23.63311983 3.89950147 26.73667909 4.52378574 30 5 C29.01 5.495 29.01 5.495 28 6 C28 6.66 28 7.32 28 8 C18.12878308 8.64377502 9.09832803 4.40754871 0 1 C0 0.67 0 0.34 0 0 Z " fill="#BEB873" transform="translate(161,383)"/>
<path d="M0 0 C2.33944736 0.28730055 4.6739143 0.61936779 7 1 C7.125 4.375 7.125 4.375 7 8 C5 10 5 10 2.4375 10.1875 C0 10 0 10 -1 9 C-1.1328125 7.1875 -1.1328125 7.1875 -1.125 5 C-1.12757813 4.278125 -1.13015625 3.55625 -1.1328125 2.8125 C-1 1 -1 1 0 0 Z " fill="#D4D085" transform="translate(246,247)"/>
<path d="M0 0 C0.99 0.33 1.98 0.66 3 1 C-2.33333333 7.66666667 -7.66666667 14.33333333 -13 21 C-13.33 20.01 -13.66 19.02 -14 18 C-14.66 17.67 -15.32 17.34 -16 17 C-15.01 17 -14.02 17 -13 17 C-12.4121875 15.63875 -12.4121875 15.63875 -11.8125 14.25 C-9.90354043 10.82703801 -8.02772424 9.39030861 -5 7 C-4.36707617 4.88719655 -4.36707617 4.88719655 -4 3 C-3.01 2.67 -2.02 2.34 -1 2 C-0.67 1.34 -0.34 0.68 0 0 Z " fill="#4F7D4E" transform="translate(106,117)"/>
<path d="M0 0 C2.622286 2.20824084 3.88874721 3.75658647 4.19921875 7.2265625 C4.0604716 9.66058387 3.79138224 11.69254279 3 14 C0.4375 16.0625 0.4375 16.0625 -2 17 C-2.66 15.68 -3.32 14.36 -4 13 C-2.68 13.33 -1.36 13.66 0 14 C-0.33 12.68 -0.66 11.36 -1 10 C-0.34 10 0.32 10 1 10 C1 7.35220307 0.82804069 5.48412207 0 3 C-0.66 2.67 -1.32 2.34 -2 2 C-2.33 2.66 -2.66 3.32 -3 4 C-4.65 2.68 -6.3 1.36 -8 0 C-4.60398243 -1.13200586 -3.35097244 -1.14423449 0 0 Z " fill="#30804E" transform="translate(249,161)"/>
<path d="M0 0 C1.98 0.99 3.96 1.98 6 3 C4.48941618 7.22963468 1.87685679 8.91246173 -2 11 C-5.125 11.5 -5.125 11.5 -8 11 C-10.375 9 -10.375 9 -12 7 C-11.401875 7.165 -10.80375 7.33 -10.1875 7.5 C-7.88655664 8.1114124 -7.88655664 8.1114124 -5 8 C-4.34 8.33 -3.68 8.66 -3 9 C-3.66 7.35 -4.32 5.7 -5 4 C-4.236875 4.515625 -3.47375 5.03125 -2.6875 5.5625 C-1.3571875 6.2740625 -1.3571875 6.2740625 0 7 C0.99 6.67 1.98 6.34 3 6 C2.2575 5.071875 2.2575 5.071875 1.5 4.125 C0 2 0 2 0 0 Z " fill="#1E7547" transform="translate(262,204)"/>
<path d="M0 0 C0.33 7.26 0.66 14.52 1 22 C0.01 21.67 -0.98 21.34 -2 21 C-2 14.73 -2 8.46 -2 2 C-4.31 2 -6.62 2 -9 2 C-5.53785351 -0.05164237 -4.40610765 0 0 0 Z " fill="#1B7446" transform="translate(264,166)"/>
<path d="M0 0 C3.2935979 1.43567088 4.84223097 2.76860543 6.875 5.75 C8.22636324 9.65393825 7.99491541 12.02033836 7 16 C6.34 16.66 5.68 17.32 5 18 C3.68 16.35 2.36 14.7 1 13 C1.33 12.34 1.66 11.68 2 11 C3.32 11.99 4.64 12.98 6 14 C6 13.01 6 12.02 6 11 C5.01 10.67 4.02 10.34 3 10 C3.33 9.34 3.66 8.68 4 8 C3.10836423 5.88316159 3.10836423 5.88316159 2 4 C1.01 4 0.02 4 -1 4 C-1.33 3.01 -1.66 2.02 -2 1 C-1.34 0.67 -0.68 0.34 0 0 Z " fill="#37814E" transform="translate(263,190)"/>
<path d="M0 0 C1.65 0.33 3.3 0.66 5 1 C5.33 1.99 5.66 2.98 6 4 C3.525 3.01 3.525 3.01 1 2 C1 7.94 1 13.88 1 20 C-1 16 -1 16 -1.5 12.875 C-1.73686321 9.87947452 -1.73686321 9.87947452 -4 8 C-3.01 8 -2.02 8 -1 8 C-0.67 5.36 -0.34 2.72 0 0 Z M-7 17 C-4.50638429 18.20381448 -2.31856917 19.45428722 0 21 C-2.97 20.505 -2.97 20.505 -6 20 C-6.33 19.01 -6.66 18.02 -7 17 Z " fill="#096C41" transform="translate(225,179)"/>
<path d="M0 0 C2.475 0.495 2.475 0.495 5 1 C5 3.97 5 6.94 5 10 C3.35 10 1.7 10 0 10 C0 6.7 0 3.4 0 0 Z " fill="#D5C379" transform="translate(272,247)"/>
<path d="M0 0 C1.27351308 2.54702616 0.80191925 3.4282945 0.0625 6.125 C-0.13214844 6.84945312 -0.32679688 7.57390625 -0.52734375 8.3203125 C-0.76130859 9.15175781 -0.76130859 9.15175781 -1 10 C-2.9375 10.5625 -2.9375 10.5625 -5 11 C-6 10 -6 10 -6.4375 7.1875 C-6 4 -6 4 -3 1.625 C-2.01 1.08875 -1.02 0.5525 0 0 Z " fill="#1D7749" transform="translate(225,177)"/>
<path d="M0 0 C-0.49831724 3.68754757 -1.10067643 5.60490662 -4 8 C-4 7.34 -4 6.68 -4 6 C-5.32 6 -6.64 6 -8 6 C-8.28875 6.804375 -8.5775 7.60875 -8.875 8.4375 C-10 11 -10 11 -12 12 C-11.58443583 7.15175132 -9.62551755 5.11963138 -6 2 C-3.75361682 0.65217009 -2.60554166 0 0 0 Z " fill="#517042" transform="translate(96,117)"/>
<path d="M0 0 C0 0.99 0 1.98 0 3 C1.32 3.66 2.64 4.32 4 5 C1.69 6.65 -0.62 8.3 -3 10 C-3.99 9.34 -4.98 8.68 -6 8 C-5.8125 5.6875 -5.8125 5.6875 -5 3 C-2.4375 1.1875 -2.4375 1.1875 0 0 Z " fill="#75844F" transform="translate(116,90)"/>
<path d="M0 0 C2.66740923 0.11518358 5.33347241 0.24189546 8 0.375 C8.74378906 0.4059375 9.48757812 0.436875 10.25390625 0.46875 C15.40567483 0.73753793 20.02992756 1.61063884 25 3 C25 3.66 25 4.32 25 5 C23.9378125 4.86722656 22.875625 4.73445313 21.78125 4.59765625 C21.09546875 4.51193359 20.4096875 4.42621094 19.703125 4.33789062 C13.28125 3.53515625 13.28125 3.53515625 11.15625 3.26220703 C9.67928323 3.08260306 8.19977322 2.92309464 6.71875 2.78076172 C4.80466275 2.58636223 2.90030523 2.30060138 1 2 C0.67 1.34 0.34 0.68 0 0 Z " fill="#688F5D" transform="translate(234,51)"/>
<path d="M0 0 C0.33 0 0.66 0 1 0 C1.66 2.31 2.32 4.62 3 7 C3.99 7 4.98 7 6 7 C5.67 7.99 5.34 8.98 5 10 C4.34 10 3.68 10 3 10 C2.01 12.31 1.02 14.62 0 17 C-0.33 17 -0.66 17 -1 17 C-1.02699725 14.72923158 -1.04639453 12.45837179 -1.0625 10.1875 C-1.07990234 8.29064453 -1.07990234 8.29064453 -1.09765625 6.35546875 C-1 3 -1 3 0 0 Z " fill="#526B3C" transform="translate(61,224)"/>
<path d="M0 0 C8.91 0 17.82 0 27 0 C24.50494038 2.49505962 23.32671112 2.35948376 19.875 2.625 C18.96492188 2.69976562 18.05484375 2.77453125 17.1171875 2.8515625 C16.41851562 2.90054688 15.71984375 2.94953125 15 3 C15 2.34 15 1.68 15 1 C10.05 1 5.1 1 0 1 C0 0.67 0 0.34 0 0 Z " fill="#D2D48B" transform="translate(201,53)"/>
<path d="M0 0 C0.89203125 0.00902344 1.7840625 0.01804687 2.703125 0.02734375 C3.37859375 0.03894531 4.0540625 0.05054688 4.75 0.0625 C3.76 1.5475 3.76 1.5475 2.75 3.0625 C0.1484375 3.57421875 0.1484375 3.57421875 -2.875 3.75 C-4.37933594 3.84861328 -4.37933594 3.84861328 -5.9140625 3.94921875 C-7.07035156 4.00529297 -7.07035156 4.00529297 -8.25 4.0625 C-8.58 3.0725 -8.91 2.0825 -9.25 1.0625 C-6.09493858 0.12630187 -3.28413498 -0.0432123 0 0 Z " fill="#D4CC82" transform="translate(260.25,388.9375)"/>
<path d="M0 0 C0.33 0 0.66 0 1 0 C1.06058594 0.98742187 1.12117188 1.97484375 1.18359375 2.9921875 C1.26738281 4.27351562 1.35117187 5.55484375 1.4375 6.875 C1.51871094 8.15117187 1.59992188 9.42734375 1.68359375 10.7421875 C1.79206027 13.88300152 1.79206027 13.88300152 3 16 C2.34 16 1.68 16 1 16 C1.33 17.98 1.66 19.96 2 22 C1.01 22 0.02 22 -1 22 C-0.67 14.74 -0.34 7.48 0 0 Z " fill="#4E7347" transform="translate(398,233)"/>
<path d="M0 0 C0.66 0 1.32 0 2 0 C2.66 2.97 3.32 5.94 4 9 C2.35 9 0.7 9 -1 9 C-0.67 6.03 -0.34 3.06 0 0 Z " fill="#B4A763" transform="translate(301,252)"/>
<path d="M0 0 C1.32 0 2.64 0 4 0 C3.44225728 3.23490776 2.62788492 4.97855006 0 7 C-0.99 7 -1.98 7 -3 7 C-1.125 2.25 -1.125 2.25 0 0 Z " fill="#2D764D" transform="translate(88,123)"/>
<path d="M0 0 C1.32 0.99 2.64 1.98 4 3 C3.67 4.65 3.34 6.3 3 8 C2.01 8 1.02 8 0 8 C0 5.36 0 2.72 0 0 Z " fill="#DEDF92" transform="translate(226,190)"/>
<path d="M0 0 C0.99 0 1.98 0 3 0 C3 2.97 3 5.94 3 9 C2.01 8.34 1.02 7.68 0 7 C-0.1875 3.375 -0.1875 3.375 0 0 Z " fill="#327045" transform="translate(62,243)"/>
<path d="M0 0 C0.66 0.33 1.32 0.66 2 1 C1.42655063 3.86724686 1.1385485 4.8614515 -1 7 C-1.33 6.34 -1.66 5.68 -2 5 C-3.32 5.99 -4.64 6.98 -6 8 C-4.55746343 4.63408134 -2.66735273 2.48952921 0 0 Z " fill="#536F40" transform="translate(84,141)"/>
<path d="M0 0 C0.66 0 1.32 0 2 0 C1.42647107 3.87132028 -0.48704352 6.08172796 -3 9 C-3.33 8.01 -3.66 7.02 -4 6 C-4.66 5.67 -5.32 5.34 -6 5 C-5.01 5 -4.02 5 -3 5 C-1.96986723 3.35178756 -0.96885372 1.68496298 0 0 Z " fill="#4E794A" transform="translate(96,129)"/>
<path d="M0 0 C0.99 0.33 1.98 0.66 3 1 C-2 7.57142857 -2 7.57142857 -7 9 C-6.02180976 7.68677212 -5.0424189 6.37443848 -4.0625 5.0625 C-3.51722656 4.33160156 -2.97195312 3.60070312 -2.41015625 2.84765625 C-1 1 -1 1 0 0 Z " fill="#3F7A4E" transform="translate(105,105)"/>
<path d="M0 0 C3 1 3 1 5 2 C4.67 2.66 4.34 3.32 4 4 C1.67504723 4.38749213 -0.6599583 4.71758117 -3 5 C-3.99 5.33 -4.98 5.66 -6 6 C-5.67 5.01 -5.34 4.02 -5 3 C-2.4375 1.8125 -2.4375 1.8125 0 1 C0 0.67 0 0.34 0 0 Z " fill="#97A568" transform="translate(169,63)"/>
<path d="M0 0 C0.66 0.33 1.32 0.66 2 1 C2.625 3.5625 2.625 3.5625 3 6 C-1 6 -1 6 -4 4 C-3.34 3.01 -2.68 2.02 -2 1 C-1.34 1.33 -0.68 1.66 0 2 C0 1.34 0 0.68 0 0 Z " fill="#A8B774" transform="translate(256,207)"/>
<path d="M0 0 C1.60875 0.5878125 1.60875 0.5878125 3.25 1.1875 C0.25 3.1875 0.25 3.1875 -2.75 3.1875 C-2.75 2.5275 -2.75 1.8675 -2.75 1.1875 C-4.4 1.5175 -6.05 1.8475 -7.75 2.1875 C-4.89394414 -0.7827981 -4.16493458 -0.90240249 0 0 Z " fill="#45875A" transform="translate(166.75,62.8125)"/>
<path d="M0 0 C0.99 0 1.98 0 3 0 C3 1.98 3 3.96 3 6 C1.68 5.34 0.36 4.68 -1 4 C-0.67 2.68 -0.34 1.36 0 0 Z " fill="#DADB8E" transform="translate(221,181)"/>
<path d="M0 0 C2.475 0.495 2.475 0.495 5 1 C5.33 1.99 5.66 2.98 6 4 C3.525 3.01 3.525 3.01 1 2 C1 3.65 1 5.3 1 7 C0.67 7 0.34 7 0 7 C0 4.69 0 2.38 0 0 Z " fill="#127245" transform="translate(225,179)"/>
<path d="M0 0 C0 1.65 0 3.3 0 5 C-0.99 5 -1.98 5 -3 5 C-3.66 4.01 -4.32 3.02 -5 2 C-2 0 -2 0 0 0 Z " fill="#457546" transform="translate(104,339)"/>
<path d="M0 0 C0.598125 0.165 1.19625 0.33 1.8125 0.5 C4.11344336 1.1114124 4.11344336 1.1114124 7 1 C7.33 1.99 7.66 2.98 8 4 C5.125 3.6875 5.125 3.6875 2 3 C1.34 2.01 0.68 1.02 0 0 Z " fill="#0E6E42" transform="translate(250,211)"/>
<path d="M0 0 C-1.29299694 2.88437779 -2.65941363 4.87219421 -5 7 C-5 6.34 -5 5.68 -5 5 C-5.66 4.67 -6.32 4.34 -7 4 C-2.25 0 -2.25 0 0 0 Z " fill="#667D4A" transform="translate(103,124)"/>
<path d="M0 0 C0.66 0 1.32 0 2 0 C0.84826645 2.46800047 -0.04783565 4.04783565 -2 6 C-2.99 6 -3.98 6 -5 6 C-5 5.34 -5 4.68 -5 4 C-4.0409375 3.8453125 -4.0409375 3.8453125 -3.0625 3.6875 C-2.381875 3.460625 -1.70125 3.23375 -1 3 C-0.67 2.01 -0.34 1.02 0 0 Z " fill="#858B52" transform="translate(126,81)"/>
</svg>
