<?xml version="1.0" encoding="UTF-8"?>
<svg version="1.1" xmlns="http://www.w3.org/2000/svg" width="437" height="460">
<path d="M0 0 C144.21 0 288.42 0 437 0 C437 151.8 437 303.6 437 460 C292.79 460 148.58 460 0 460 C0 308.2 0 156.4 0 0 Z " fill="#F8E5D3" transform="translate(0,0)"/>
<path d="M0 0 C112.2 0 224.4 0 340 0 C340 36.3 340 72.6 340 110 C339.67 110 339.34 110 339 110 C336.90548975 74.39332578 338 38.66822427 338 3 C227.12 3 116.24 3 2 3 C2 6.63 2 10.26 2 14 C109.25 14 216.5 14 327 14 C327 50.63 327 87.26 327 125 C326.67 125 326.34 125 326 125 C324.00299369 89.05388648 325 53.00154318 325 17 C218.74 17 112.48 17 3 17 C3 123.26 3 229.52 3 339 C87.15 339 171.3 339 258 339 C258 339.33 258 339.66 258 340 C218.09358659 340.72123048 178.19434387 341.09875635 138.28125 341.09765625 C137.35703184 341.09767474 136.43281368 341.09769323 135.48058891 341.09771228 C119.82037961 341.09720566 104.16020446 341.07824492 88.5 341.0625 C59.295 341.041875 30.09 341.02125 0 341 C0 234.08 0 127.16 0 17 C-3.63 17 -7.26 17 -11 17 C-11 127.88 -11 238.76 -11 353 C73.48 353 157.96 353 245 353 C245 353.33 245 353.66 245 354 C203.62889169 354.6806798 162.26373565 355.09882843 120.88671875 355.09765625 C119.98721693 355.09767474 119.08771512 355.09769323 118.16095567 355.09771228 C103.0031235 355.09720825 87.84532725 355.07827384 72.6875 355.0625 C44.410625 355.041875 16.13375 355.02125 -13 355 C-13 242.8 -13 130.6 -13 15 C-8.71 15 -4.42 15 0 15 C0 10.05 0 5.1 0 0 Z " fill="#269875" transform="translate(44,37)"/>
<path d="M0 0 C1.6953125 1.5078125 1.6953125 1.5078125 3 3 C3.1513652 5.80025615 2.53436628 7.33333081 0.78515625 9.515625 C-11.60296872 21.50999539 -34.82484514 21.39376729 -51.01171875 21.15234375 C-61.89075028 20.73678819 -75.80486182 19.35141155 -84.75 12.5625 C-87.14843658 9.83094723 -88.18192485 8.63849705 -88 5 C-84.70424803 -1.2776228 -77.64101161 -3.74662189 -71.25390625 -5.9453125 C-50.9577253 -11.87582778 -17.26695854 -14.19628808 0 0 Z " fill="#F5E5D2" transform="translate(250,138)"/>
<path d="M0 0 C107.58 0 215.16 0 326 0 C326 36.3 326 72.6 326 110 C325.67 110 325.34 110 325 110 C323.00299369 74.05388648 324 38.00154318 324 2 C217.74 2 111.48 2 2 2 C2 108.26 2 214.52 2 324 C86.15 324 170.3 324 257 324 C257 324.33 257 324.66 257 325 C203.65597922 325.96408899 150.32474495 326.13024457 96.97301006 326.07202661 C86.24860283 326.06054155 75.52419468 326.05527536 64.79978275 326.05032361 C42.86651495 326.04006766 20.93325829 326.02266011 -1 326 C-1.02442438 305.79071563 -1.04147196 285.58143454 -1.05181217 265.37213802 C-1.05676153 255.96789429 -1.06349093 246.56366155 -1.07543945 237.15942383 C-1.16760211 158.10012919 -0.52359152 79.06232025 0 0 Z " fill="#2B9A77" transform="translate(45,52)"/>
<path d="M0 0 C12 0 12 0 14 1 C14 50.5 14 100 14 151 C13.67 151 13.34 151 13 151 C13 101.83 13 52.66 13 2 C9.37 2 5.74 2 2 2 C2 112.88 2 223.76 2 338 C86.48 338 170.96 338 258 338 C258 338.33 258 338.66 258 339 C216.62889169 339.6806798 175.26373565 340.09882843 133.88671875 340.09765625 C132.98721693 340.09767474 132.08771512 340.09769323 131.16095567 340.09771228 C116.0031235 340.09720825 100.84532725 340.07827384 85.6875 340.0625 C57.410625 340.041875 29.13375 340.02125 0 340 C0 227.8 0 115.6 0 0 Z " fill="#1C9570" transform="translate(31,52)"/>
<path d="M0 0 C3.51647559 0.06596563 4.75816226 0.1155294 7.6875 2.1875 C10.45716631 6.40220961 10.30055825 10.43193152 10.328125 15.296875 C10.33382507 16.07508606 10.33952515 16.85329712 10.34539795 17.65509033 C10.35484056 19.30259851 10.361379 20.95012552 10.36523438 22.59765625 C10.37491076 25.10190412 10.405928 27.60532071 10.4375 30.109375 C10.44403353 31.71353682 10.44928263 33.31770448 10.453125 34.921875 C10.4654718 35.66379089 10.4778186 36.40570679 10.49053955 37.17010498 C10.46894911 42.28182341 9.56020181 45.85125956 7.125 50.375 C3.44564479 52.82790347 0.40039066 53.07460938 -3.875 52.375 C-7.31997953 49.92725139 -8.60084538 47.33583358 -9.875 43.375 C-10.07478827 40.69428533 -10.17916839 38.12074724 -10.17578125 35.44140625 C-10.18220894 34.30807106 -10.18220894 34.30807106 -10.18876648 33.15184021 C-10.19449076 31.5591634 -10.1950241 29.96646045 -10.19067383 28.3737793 C-10.18751446 25.94859851 -10.21099309 23.52463954 -10.23632812 21.09960938 C-10.23860153 19.54687653 -10.23930442 17.99414042 -10.23828125 16.44140625 C-10.247491 15.72247696 -10.25670074 15.00354767 -10.26618958 14.26283264 C-10.19864619 6.84425403 -8.13468389 0.12069264 0 0 Z " fill="#109053" transform="translate(224.875,220.625)"/>
<path d="M0 0 C3.50320992 0.0350321 4.80284501 0.04980879 7.75 2.0625 C9.99292053 5.57315822 10.31284046 8.69402002 10.30102539 12.80566406 C10.30094986 13.68627502 10.30087433 14.56688599 10.30079651 15.47418213 C10.29563522 16.41598328 10.29047394 17.35778442 10.28515625 18.328125 C10.2837413 19.29909119 10.28232635 20.27005737 10.28086853 21.27044678 C10.27527663 24.36782935 10.26272559 27.46513932 10.25 30.5625 C10.24498395 32.66406146 10.24042123 34.76562404 10.23632812 36.8671875 C10.22530985 42.01565292 10.20805074 47.16406416 10.1875 52.3125 C8.2075 52.3125 6.2275 52.3125 4.1875 52.3125 C4.1875 47.3625 4.1875 42.4125 4.1875 37.3125 C1.8775 37.3125 -0.4325 37.3125 -2.8125 37.3125 C-2.8125 41.9325 -2.8125 46.5525 -2.8125 51.3125 C-4.7925 51.3125 -6.7725 51.3125 -8.8125 51.3125 C-8.8886466 44.99543999 -8.94114032 38.67849861 -8.97729492 32.36108398 C-8.99236915 30.21260149 -9.01283189 28.0641497 -9.03881836 25.91577148 C-9.07526114 22.82528092 -9.09224019 19.73519769 -9.10546875 16.64453125 C-9.12095261 15.68601761 -9.13643646 14.72750397 -9.15238953 13.73994446 C-9.15364151 8.76415164 -9.06917166 5.35489196 -5.8125 1.3125 C-4.16284831 -0.33715169 -2.2648645 0.06300502 0 0 Z " fill="#0D8F51" transform="translate(281.8125,220.6875)"/>
<path d="M0 0 C1.6953125 1.5078125 1.6953125 1.5078125 3 3 C3.1513652 5.80025615 2.53436628 7.33333081 0.78515625 9.515625 C-11.60296872 21.50999539 -34.82484514 21.39376729 -51.01171875 21.15234375 C-61.89075028 20.73678819 -75.80486182 19.35141155 -84.75 12.5625 C-87.14843658 9.83094723 -88.18192485 8.63849705 -88 5 C-84.70424803 -1.2776228 -77.64101161 -3.74662189 -71.25390625 -5.9453125 C-50.9577253 -11.87582778 -17.26695854 -14.19628808 0 0 Z M-71 -2 C-71.7940625 -1.69964844 -72.588125 -1.39929688 -73.40625 -1.08984375 C-76.92031176 0.52076789 -77.92829556 1.81220266 -79.3125 5.4375 C-79.33665729 9.15219595 -79.33665729 9.15219595 -76.625 11.75 C-62.95088677 21.39485017 -40.28863954 19.48339019 -24.625 16.8125 C-17.48428478 15.47010918 -11.2008281 13.2008281 -6 8 C-5.16516674 5.13023717 -5.16516674 5.13023717 -6 2 C-18.04908923 -8.94558353 -37.65979563 -6.57306691 -52.58691406 -6.18798828 C-59.14684728 -5.82667579 -64.90937306 -4.47217863 -71 -2 Z " fill="#149255" transform="translate(250,138)"/>
<path d="M0 0 C13 0 13 0 18 4 C19.2118486 7.63554581 19.2609802 11.02407752 19.3125 14.8125 C19.34150391 15.51181641 19.37050781 16.21113281 19.40039062 16.93164062 C19.46280518 22.06403784 18.36506524 24.9232141 15 29 C13 30 13 30 6 30 C6 37.26 6 44.52 6 52 C4.02 52 2.04 52 0 52 C0 34.84 0 17.68 0 0 Z " fill="#098E4F" transform="translate(245,221)"/>
<path d="M0 0 C3.65080229 0.08968734 4.77165395 0.16828396 7.75 2.4375 C9.5706707 6.40987244 9.41926531 9.09708666 9.125 13.4375 C7.145 13.4375 5.165 13.4375 3.125 13.4375 C2.795 11.1275 2.465 8.8175 2.125 6.4375 C0.805 6.4375 -0.515 6.4375 -1.875 6.4375 C-2.69301201 14.33592083 -2.69301201 14.33592083 0.25 21.3125 C1.19875 22.01375 2.1475 22.715 3.125 23.4375 C9.9231729 29.74776575 9.9231729 29.74776575 10.328125 35.14453125 C10.48752908 45.70505166 10.48752908 45.70505166 7.125 50.4375 C3.45718328 52.88271115 0.39046767 53.15987759 -3.875 52.4375 C-6.30619623 50.56734906 -7.51569173 49.15611655 -8.875 46.4375 C-8.94496014 44.73047265 -8.95940154 43.02081997 -8.9375 41.3125 C-8.92847656 40.40242188 -8.91945313 39.49234375 -8.91015625 38.5546875 C-8.89855469 37.85601562 -8.88695313 37.15734375 -8.875 36.4375 C-6.895 36.4375 -4.915 36.4375 -2.875 36.4375 C-2.545 39.0775 -2.215 41.7175 -1.875 44.4375 C-0.555 44.4375 0.765 44.4375 2.125 44.4375 C2.72375277 36.36395007 2.72375277 36.36395007 -0.875 29.4375 C-2.63275267 27.92387965 -4.40423034 26.46268478 -6.25390625 25.0625 C-9.69359402 21.61452382 -10.16767938 17.64159268 -10.1875 12.9375 C-10.06210795 5.77086219 -7.76175359 0.19577123 0 0 Z " fill="#0E9052" transform="translate(103.875,220.5625)"/>
<path d="M0 0 C-0.18542988 3.98674248 -0.68526571 5.66105538 -3.4375 8.625 C-13.24025093 15.90704355 -27.05660531 18.5416756 -39 19 C-39.78342773 19.03254883 -40.56685547 19.06509766 -41.37402344 19.09863281 C-56.40711873 19.64720503 -71.8887141 19.41101359 -85 11 C-87.04297734 9.08817676 -88.4027498 7.34596123 -90 5 C-90 4.01 -90 3.02 -90 2 C-87.93137407 3.0178953 -85.89250939 4.05998095 -83.87890625 5.18359375 C-72.37672318 11.40990196 -60.66351961 12.53736945 -47.75 12.4375 C-47.07256744 12.43479095 -46.39513489 12.43208191 -45.69717407 12.42929077 C-31.99463 12.34630134 -13.72213861 11.82647041 -3.3671875 1.34765625 C-2 0 -2 0 0 0 Z " fill="#139255" transform="translate(253,168)"/>
<path d="M0 0 C0.33 0 0.66 0 1 0 C1.05646371 2.82318532 1.02487312 4.42746495 0 7 C-10.57178568 17.64694056 -28.658835 19.164993 -42.8125 19.25 C-58.15635889 19.15825794 -74.63578162 18.42271976 -86.671875 7.87890625 C-88.3767357 5.46702979 -88.2576979 3.88918988 -88 1 C-87.34 1 -86.68 1 -86 1 C-85.34 1.7425 -84.68 2.485 -84 3.25 C-76.30429372 11.1700709 -62.73484897 12.031581 -52.34375 12.265625 C-50.06250004 12.27085123 -47.7812028 12.26557135 -45.5 12.25 C-44.36691406 12.25773438 -43.23382813 12.26546875 -42.06640625 12.2734375 C-31.43309356 12.2490771 -21.43741787 11.00059297 -11.5 7.125 C-10.82453125 6.88136719 -10.1490625 6.63773438 -9.453125 6.38671875 C-5.45058923 4.86607032 -2.82832397 3.20266097 0 0 Z " fill="#159255" transform="translate(251,158)"/>
<path d="M0 0 C4.95 0 9.9 0 15 0 C15 1.65 15 3.3 15 5 C12.36 5 9.72 5 7 5 C7 10.61 7 16.22 7 22 C9.31 22 11.62 22 14 22 C14 23.65 14 25.3 14 27 C11.69 27 9.38 27 7 27 C7 32.94 7 38.88 7 45 C9.64 45 12.28 45 15 45 C15 47.31 15 49.62 15 52 C10.05 52 5.1 52 0 52 C0 34.84 0 17.68 0 0 Z " fill="#169256" transform="translate(147,221)"/>
<path d="M0 0 C0.66 0 1.32 0 2 0 C1.92919026 2.97400911 1.62045167 5.2014376 -0.23828125 7.59375 C-11.96602294 18.56576609 -31.49044363 19.55961125 -46.75390625 19.15234375 C-48.1692715 19.10158104 -49.58463613 19.05080103 -51 19 C-52.14339844 18.98066406 -53.28679687 18.96132812 -54.46484375 18.94140625 C-64.47603449 18.53303877 -76.4326131 16.31999743 -84.5 10 C-87.24228319 6.70926017 -87.27272827 6.03637836 -87 2 C-86.07380859 2.59748047 -86.07380859 2.59748047 -85.12890625 3.20703125 C-72.73496516 10.9603186 -61.96485044 12.18042326 -47.5 12.1875 C-46.21351563 12.19974609 -44.92703125 12.21199219 -43.6015625 12.22460938 C-28.23792805 12.24779393 -14.09104461 10.6276656 -1 2 C-0.67 1.34 -0.34 0.68 0 0 Z " fill="#0F9053" transform="translate(251,179)"/>
<path d="M0 0 C0.33 0 0.66 0 1 0 C1.05649006 2.82450303 1.02989801 4.42784265 0 7 C-12.77887999 19.60098375 -33.90418922 19.40734526 -50.51489258 19.36572266 C-63.22742966 19.1818863 -76.15621968 18.00345761 -86 9 C-88 6 -88 6 -88 2 C-87.34 2 -86.68 2 -86 2 C-85.505 2.5775 -85.01 3.155 -84.5 3.75 C-72.89465405 14.19481136 -52.16083971 13.82949134 -37.4609375 13.17285156 C-24.75039066 12.28008696 -9.30322079 9.30322079 0 0 Z " fill="#0E9052" transform="translate(251,149)"/>
<path d="M0 0 C1.98 0 3.96 0 6 0 C7.57578241 5.29012667 8.84941444 10.60204011 10 16 C10.33 16 10.66 16 11 16 C11.99 10.72 12.98 5.44 14 0 C16.31 0 18.62 0 21 0 C20.7525 1.134375 20.505 2.26875 20.25 3.4375 C20.07082031 4.2728125 19.89164062 5.108125 19.70703125 5.96875 C19.19840801 8.14936678 18.6252586 10.31529788 18.01171875 12.46875 C14.40640167 25.50665949 14.18016819 38.53242801 14 52 C11.69 52 9.38 52 7 52 C7.00112793 51.37359619 7.00225586 50.74719238 7.00341797 50.10180664 C6.93654675 34.07452064 4.84315174 19.56038743 0.53491211 4.12524414 C0 2 0 2 0 0 Z " fill="#139255" transform="translate(300,221)"/>
<path d="M0 0 C0.33 0 0.66 0 1 0 C1 61.05 1 122.1 1 185 C3.31 185 5.62 185 8 185 C8 185.33 8 185.66 8 186 C5.69 186 3.38 186 1 186 C1 190.95 1 195.9 1 201 C-5.13809925 201.02479809 -11.27616905 201.04290645 -17.41430664 201.05493164 C-19.50057483 201.0599471 -21.58683953 201.06676105 -23.6730957 201.07543945 C-26.67920801 201.08762736 -29.68527366 201.09325631 -32.69140625 201.09765625 C-34.08088219 201.10539818 -34.08088219 201.10539818 -35.49842834 201.11329651 C-40.44436665 201.11372084 -45.12445339 200.84322739 -50 200 C-50 199.67 -50 199.34 -50 199 C-33.83 199 -17.66 199 -1 199 C-1 194.71 -1 190.42 -1 186 C-12.88 186 -24.76 186 -37 186 C-37 185.67 -37 185.34 -37 185 C-25.12 185 -13.24 185 -1 185 C-1.00523682 182.4513623 -1.01047363 179.90272461 -1.01586914 177.27685547 C-1.03922834 165.14291193 -1.05314418 153.00896191 -1.0625 140.875 C-1.06335602 139.77276974 -1.06421204 138.67053947 -1.06509399 137.53490829 C-1.08808357 103.95760441 -0.92572392 70.38715981 -0.5 36.8125 C-0.48804218 35.86887352 -0.47608437 34.92524704 -0.46376419 33.95302582 C-0.31943048 22.63520272 -0.16533494 11.31753579 0 0 Z " fill="#339D7B" transform="translate(370,191)"/>
<path d="M0 0 C2.31 0 4.62 0 7 0 C7 14.85 7 29.7 7 45 C9.64 45 12.28 45 15 45 C15 47.31 15 49.62 15 52 C10.05 52 5.1 52 0 52 C0 34.84 0 17.68 0 0 Z " fill="#189357" transform="translate(193,221)"/>
<path d="M0 0 C6.6 0 13.2 0 20 0 C20 1.98 20 3.96 20 6 C17.69 6 15.38 6 13 6 C13 21.18 13 36.36 13 52 C11.02 52 9.04 52 7 52 C7 36.82 7 21.64 7 6 C4.69 6 2.38 6 0 6 C0 4.02 0 2.04 0 0 Z " fill="#0A8E50" transform="translate(120,221)"/>
<path d="M0 0 C1.98 0 3.96 0 6 0 C6 14.85 6 29.7 6 45 C8.64 45 11.28 45 14 45 C14 47.31 14 49.62 14 52 C9.38 52 4.76 52 0 52 C0 34.84 0 17.68 0 0 Z " fill="#088E4F" transform="translate(171,221)"/>
<path d="M0 0 C0.99 0.33 1.98 0.66 3 1 C-6.0109229 9.61914365 -15.9751801 11.69487579 -28 14 C-28.76054687 14.18691406 -29.52109375 14.37382812 -30.3046875 14.56640625 C-46.6286613 17.19243682 -68.19835067 15.81350576 -82.265625 6.5 C-82.83796875 6.005 -83.4103125 5.51 -84 5 C-84 4.34 -84 3.68 -84 3 C-84.66 2.67 -85.32 2.34 -86 2 C-83 2 -83 2 -79.5625 3.8125 C-59.9172138 13.99626968 -32.35184231 11.46137892 -11.6015625 5.859375 C-7.65459712 4.55557262 -2.98535978 2.98535978 0 0 Z " fill="#DFDCC5" transform="translate(249,148)"/>
<path d="M0 0 C2.5 0.3125 2.5 0.3125 5 1 C6.51307117 4.02614234 6.18354647 7.17139914 6.203125 10.4921875 C6.20882507 11.23453644 6.21452515 11.97688538 6.22039795 12.74172974 C6.22984905 14.31364516 6.23638237 15.88558041 6.24023438 17.45751953 C6.24993436 19.85875152 6.28095289 22.25912543 6.3125 24.66015625 C6.31903077 26.18749492 6.32428095 27.71483971 6.328125 29.2421875 C6.3404718 29.95897675 6.3528186 30.67576599 6.36553955 31.41427612 C6.3470479 35.56689195 5.94340065 37.98568574 3 41 C1.68 40.34 0.36 39.68 -1 39 C-1.02464849 33.60653012 -1.04283531 28.21309275 -1.05493164 22.81958008 C-1.05997231 20.98331125 -1.06680477 19.14704646 -1.07543945 17.31079102 C-1.08751672 14.67723599 -1.09323081 12.04373384 -1.09765625 9.41015625 C-1.10281754 8.58411392 -1.10797882 7.75807159 -1.11329651 6.90699768 C-1.11349205 4.93763632 -1.06204152 2.96838386 -1 1 C-0.67 0.67 -0.34 0.34 0 0 Z " fill="#EDE1CC" transform="translate(223,226)"/>
<path d="M0 0 C0.99 0.33 1.98 0.66 3 1 C-1.05018174 5.77255885 -4.89534929 7.43234512 -10.8125 9.25 C-11.58142578 9.50523437 -12.35035156 9.76046875 -13.14257812 10.0234375 C-22.49762517 13.0233682 -31.49385822 13.18210987 -41.25 13.1875 C-42.97669922 13.20586914 -42.97669922 13.20586914 -44.73828125 13.22460938 C-54.66339228 13.24139367 -64.38880259 12.5335795 -73.625 8.625 C-74.60726562 8.22539062 -75.58953125 7.82578125 -76.6015625 7.4140625 C-79.23328498 5.86246065 -79.97626688 4.83032098 -81 2 C-76.89290446 2.92864398 -73.06703313 4.45442209 -69.14453125 5.96484375 C-60.44129163 8.82988537 -52.40290321 9.30892427 -43.25 9.25 C-41.47109375 9.26160156 -41.47109375 9.26160156 -39.65625 9.2734375 C-29.12461485 9.25044266 -18.69756287 8.53734414 -8.875 4.5 C-7.82054687 4.0771875 -6.76609375 3.654375 -5.6796875 3.21875 C-2.86122685 2.02337149 -2.86122685 2.02337149 0 0 Z " fill="#EBE1CC" transform="translate(247,158)"/>
<path d="M0 0 C1.32 0.33 2.64 0.66 4 1 C4 9.25 4 17.5 4 26 C2.02 26 0.04 26 -2 26 C-2.05785647 22.04172765 -2.09354717 18.0835633 -2.125 14.125 C-2.14175781 12.99707031 -2.15851563 11.86914062 -2.17578125 10.70703125 C-2.18222656 9.63066406 -2.18867188 8.55429688 -2.1953125 7.4453125 C-2.20578613 6.45031738 -2.21625977 5.45532227 -2.22705078 4.43017578 C-2 2 -2 2 0 0 Z " fill="#F3E4D1" transform="translate(281,226)"/>
<path d="M0 0 C1.98 0 3.96 0 6 0 C7.57977708 3.15955417 7.18447084 6.53463817 7.1875 10 C7.19974609 10.73734375 7.21199219 11.4746875 7.22460938 12.234375 C7.22987395 14.15770058 7.12203447 16.08054263 7 18 C6.34 18.66 5.68 19.32 5 20 C3.35 20 1.7 20 0 20 C0 13.4 0 6.8 0 0 Z " fill="#E2DEC7" transform="translate(251,226)"/>
<path d="M0 0 C0.33 0.66 0.66 1.32 1 2 C-1.31 1.67 -3.62 1.34 -6 1 C-6 1.99 -6 2.98 -6 4 C-3.69 4 -1.38 4 1 4 C1.33 5.32 1.66 6.64 2 8 C-4.36607809 9.66517133 -8.79892075 10.42650927 -15 8 C-11.98968256 7.06576355 -11.13349732 6.95550089 -8 8 C-7.67 5.69 -7.34 3.38 -7 1 C-7.598125 1.309375 -8.19625 1.61875 -8.8125 1.9375 C-11 3 -11 3 -14 4 C-14.33 3.01 -14.66 2.02 -15 1 C-9.48968737 -0.95156906 -5.75367546 -1.19041561 0 0 Z " fill="#1B9559" transform="translate(215,139)"/>
<path d="M0 0 C7.59 0 15.18 0 23 0 C23 0.99 23 1.98 23 3 C16.73 3 10.46 3 4 3 C4 2.34 4 1.68 4 1 C2.68 0.67 1.36 0.34 0 0 Z " fill="#21975D" transform="translate(197,129)"/>
<path d="M0 0 C-3.42388092 3.82669043 -6.00724943 5.72278474 -11 7 C-10.9375 5.25 -10.9375 5.25 -10 3 C-6.69928831 0.41203839 -4.20321079 -1.40107026 0 0 Z " fill="#DFDDC6" transform="translate(250,159)"/>
<path d="M0 0 C0 0.99 0 1.98 0 3 C-3.05263664 3.98120464 -4.94736336 3.98120464 -8 3 C-8 2.01 -8 1.02 -8 0 C-4.94736336 -0.98120464 -3.05263664 -0.98120464 0 0 Z " fill="#78B78D" transform="translate(217,144)"/>
<path d="M0 0 C0.66 0.66 1.32 1.32 2 2 C2.33 1.34 2.66 0.68 3 0 C3.66 0 4.32 0 5 0 C5 1.98 5 3.96 5 6 C3.35 6 1.7 6 0 6 C0 4.02 0 2.04 0 0 Z " fill="#91AA92" transform="translate(275,295)"/>
<path d="M0 0 C1.32 0.33 2.64 0.66 4 1 C3.67 2.65 3.34 4.3 3 6 C2.01 6 1.02 6 0 6 C0 4.02 0 2.04 0 0 Z " fill="#9FB29A" transform="translate(117,295)"/>
<path d="M0 0 C1.32 0.33 2.64 0.66 4 1 C3.67 2.65 3.34 4.3 3 6 C2.01 5.67 1.02 5.34 0 5 C0 3.35 0 1.7 0 0 Z " fill="#A0B39B" transform="translate(172,295)"/>
<path d="M0 0 C1.32 0 2.64 0 4 0 C3.67 1.32 3.34 2.64 3 4 C1.35 4 -0.3 4 -2 4 C-1.34 2.68 -0.68 1.36 0 0 Z " fill="#9FC5A2" transform="translate(204,140)"/>
<path d="M0 0 C1.32 0 2.64 0 4 0 C4 1.65 4 3.3 4 5 C2.68 5 1.36 5 0 5 C0 3.35 0 1.7 0 0 Z " fill="#92AA92" transform="translate(136,295)"/>
<path d="M0 0 C1.32 0 2.64 0 4 0 C4 1.65 4 3.3 4 5 C2.68 5 1.36 5 0 5 C0 3.35 0 1.7 0 0 Z " fill="#90AA91" transform="translate(248,295)"/>
</svg>
