<?xml version="1.0" encoding="UTF-8"?>
<svg version="1.1" xmlns="http://www.w3.org/2000/svg" width="542" height="377">
<path d="M0 0 C178.86 0 357.72 0 542 0 C542 124.41 542 248.82 542 377 C363.14 377 184.28 377 0 377 C0 252.59 0 128.18 0 0 Z " fill="#286466" transform="translate(0,0)"/>
<path d="M0 0 C10.32143055 8.84694047 16.49048753 18.53467567 20.69140625 31.44921875 C20.93890625 32.18527344 21.18640625 32.92132813 21.44140625 33.6796875 C23.57152114 41.32739164 22.85389541 49.58654891 22.69140625 57.44921875 C23.35140625 57.11921875 24.01140625 56.78921875 24.69140625 56.44921875 C26.25886212 56.35416605 27.83030015 56.32127186 29.40063477 56.31982422 C30.37827286 56.31667206 31.35591095 56.3135199 32.36317444 56.31027222 C33.42153 56.31229645 34.47988556 56.31432068 35.5703125 56.31640625 C36.65271713 56.31544952 37.73512177 56.3144928 38.85032654 56.31350708 C41.14102232 56.31282577 43.43172002 56.31467664 45.72241211 56.31884766 C49.24271953 56.32420174 52.76289966 56.31889831 56.28320312 56.3125 C58.50390653 56.31316069 60.72460986 56.31444166 62.9453125 56.31640625 C64.53588219 56.3133699 64.53588219 56.3133699 66.15858459 56.31027222 C67.62031349 56.31500046 67.62031349 56.31500046 69.11157227 56.31982422 C70.40491234 56.32101761 70.40491234 56.32101761 71.72438049 56.32223511 C73.69140625 56.44921875 73.69140625 56.44921875 74.69140625 57.44921875 C74.81727532 59.73827955 74.86718596 62.03172993 74.87890625 64.32421875 C74.89308594 65.57976562 74.90726563 66.8353125 74.921875 68.12890625 C74.69140625 71.44921875 74.69140625 71.44921875 72.69140625 74.44921875 C75.99140625 74.44921875 79.29140625 74.44921875 82.69140625 74.44921875 C85.22271784 79.51184192 85.16431366 83.37532059 84.31640625 88.88671875 C83.69140625 90.44921875 83.69140625 90.44921875 81.69140625 91.44921875 C79.35808563 91.53626505 77.02218084 91.55622942 74.68725586 91.546875 C73.96680588 91.54541473 73.2463559 91.54395447 72.5040741 91.54244995 C70.93804682 91.53864093 69.37202387 91.53252119 67.80601311 91.52438354 C65.33140579 91.51165526 62.85685185 91.50511365 60.38221741 91.50024414 C55.13108978 91.48879889 49.88000601 91.46955006 44.62890625 91.44921875 C38.54256573 91.4256707 32.45625018 91.40526571 26.36987495 91.39328003 C23.92517401 91.38676915 21.48054899 91.37426182 19.03587341 91.36157227 C17.54597033 91.35794169 16.05606654 91.35458972 14.56616211 91.3515625 C13.25981308 91.34632568 11.95346405 91.34108887 10.60752869 91.33569336 C7.79981105 91.1144591 7.79981105 91.1144591 6.69140625 92.44921875 C25.50140625 92.77921875 44.31140625 93.10921875 63.69140625 93.44921875 C65.12457523 96.3155567 64.82340986 98.82157376 64.81640625 102.01171875 C64.81898438 103.18863281 64.8215625 104.36554688 64.82421875 105.578125 C64.69140625 108.44921875 64.69140625 108.44921875 63.69140625 109.44921875 C61.25744606 109.54420521 58.85197673 109.57480292 56.41772461 109.56274414 C55.65680008 109.56289017 54.89587555 109.56303619 54.1118927 109.56318665 C51.58498327 109.56248737 49.05814663 109.5546943 46.53125 109.546875 C44.78390035 109.54501087 43.03655018 109.54358695 41.28919983 109.54258728 C36.68108691 109.53876168 32.0730053 109.52893104 27.46490479 109.5178833 C22.76632104 109.50767009 18.06773226 109.50308985 13.36914062 109.49804688 C4.14321538 109.4873088 -5.08268659 109.47023188 -14.30859375 109.44921875 C-11.28585324 106.33238358 -8.34133656 104.07921239 -4.62109375 101.82421875 C-0.8177687 99.74564148 -0.8177687 99.74564148 1.69140625 96.44921875 C0.92699219 96.96871094 0.16257812 97.48820312 -0.625 98.0234375 C-15.32277586 107.59202563 -31.41124052 112.82507934 -49.1015625 109.80078125 C-67.03182804 105.45292411 -81.83370856 95.53348746 -91.62109375 79.8125 C-100.02481702 63.06341264 -100.96746559 45.18386607 -95.62109375 27.32421875 C-93.40929704 21.08497132 -90.13514449 15.82043217 -86.30859375 10.44921875 C-85.58671875 9.41796875 -84.86484375 8.38671875 -84.12109375 7.32421875 C-63.00293832 -16.47669909 -24.78566551 -19.93967889 0 0 Z " fill="#2A6566" transform="translate(272.30859375,83.55078125)"/>
<path d="M0 0 C10.32143055 8.84694047 16.49048753 18.53467567 20.69140625 31.44921875 C20.93890625 32.18527344 21.18640625 32.92132813 21.44140625 33.6796875 C23.57152114 41.32739164 22.85389541 49.58654891 22.69140625 57.44921875 C23.35140625 57.11921875 24.01140625 56.78921875 24.69140625 56.44921875 C26.25886212 56.35416605 27.83030015 56.32127186 29.40063477 56.31982422 C30.37827286 56.31667206 31.35591095 56.3135199 32.36317444 56.31027222 C33.42153 56.31229645 34.47988556 56.31432068 35.5703125 56.31640625 C36.65271713 56.31544952 37.73512177 56.3144928 38.85032654 56.31350708 C41.14102232 56.31282577 43.43172002 56.31467664 45.72241211 56.31884766 C49.24271953 56.32420174 52.76289966 56.31889831 56.28320312 56.3125 C58.50390653 56.31316069 60.72460986 56.31444166 62.9453125 56.31640625 C64.53588219 56.3133699 64.53588219 56.3133699 66.15858459 56.31027222 C67.62031349 56.31500046 67.62031349 56.31500046 69.11157227 56.31982422 C70.40491234 56.32101761 70.40491234 56.32101761 71.72438049 56.32223511 C73.69140625 56.44921875 73.69140625 56.44921875 74.69140625 57.44921875 C74.81727532 59.73827955 74.86718596 62.03172993 74.87890625 64.32421875 C74.89308594 65.57976562 74.90726563 66.8353125 74.921875 68.12890625 C74.69140625 71.44921875 74.69140625 71.44921875 72.69140625 74.44921875 C75.99140625 74.44921875 79.29140625 74.44921875 82.69140625 74.44921875 C85.22271784 79.51184192 85.16431366 83.37532059 84.31640625 88.88671875 C83.69140625 90.44921875 83.69140625 90.44921875 81.69140625 91.44921875 C79.35808563 91.53626505 77.02218084 91.55622942 74.68725586 91.546875 C73.96680588 91.54541473 73.2463559 91.54395447 72.5040741 91.54244995 C70.93804682 91.53864093 69.37202387 91.53252119 67.80601311 91.52438354 C65.33140579 91.51165526 62.85685185 91.50511365 60.38221741 91.50024414 C55.13108978 91.48879889 49.88000601 91.46955006 44.62890625 91.44921875 C38.54256573 91.4256707 32.45625018 91.40526571 26.36987495 91.39328003 C23.92517401 91.38676915 21.48054899 91.37426182 19.03587341 91.36157227 C17.54597033 91.35794169 16.05606654 91.35458972 14.56616211 91.3515625 C13.25981308 91.34632568 11.95346405 91.34108887 10.60752869 91.33569336 C7.79981105 91.1144591 7.79981105 91.1144591 6.69140625 92.44921875 C25.50140625 92.77921875 44.31140625 93.10921875 63.69140625 93.44921875 C65.12457523 96.3155567 64.82340986 98.82157376 64.81640625 102.01171875 C64.81898438 103.18863281 64.8215625 104.36554688 64.82421875 105.578125 C64.69140625 108.44921875 64.69140625 108.44921875 63.69140625 109.44921875 C61.25744606 109.54420521 58.85197673 109.57480292 56.41772461 109.56274414 C55.65680008 109.56289017 54.89587555 109.56303619 54.1118927 109.56318665 C51.58498327 109.56248737 49.05814663 109.5546943 46.53125 109.546875 C44.78390035 109.54501087 43.03655018 109.54358695 41.28919983 109.54258728 C36.68108691 109.53876168 32.0730053 109.52893104 27.46490479 109.5178833 C22.76632104 109.50767009 18.06773226 109.50308985 13.36914062 109.49804688 C4.14321538 109.4873088 -5.08268659 109.47023188 -14.30859375 109.44921875 C-11.28585324 106.33238358 -8.34133656 104.07921239 -4.62109375 101.82421875 C-0.8177687 99.74564148 -0.8177687 99.74564148 1.69140625 96.44921875 C0.92699219 96.96871094 0.16257812 97.48820312 -0.625 98.0234375 C-15.32277586 107.59202563 -31.41124052 112.82507934 -49.1015625 109.80078125 C-67.03182804 105.45292411 -81.83370856 95.53348746 -91.62109375 79.8125 C-100.02481702 63.06341264 -100.96746559 45.18386607 -95.62109375 27.32421875 C-93.40929704 21.08497132 -90.13514449 15.82043217 -86.30859375 10.44921875 C-85.58671875 9.41796875 -84.86484375 8.38671875 -84.12109375 7.32421875 C-63.00293832 -16.47669909 -24.78566551 -19.93967889 0 0 Z M-72.30859375 7.44921875 C-73.14132813 8.07570313 -73.9740625 8.7021875 -74.83203125 9.34765625 C-83.19038691 16.44039338 -90.55606834 28.60275866 -91.50146484 39.71655273 C-91.88964322 51.6595074 -92.086497 61.70140401 -86.30859375 72.44921875 C-85.85097656 73.34769531 -85.39335937 74.24617188 -84.921875 75.171875 C-78.11834767 87.53006301 -66.53809193 96.70344871 -53.0078125 100.7890625 C-36.10783195 103.80500412 -21.12836254 101.75193107 -6.78125 92.23046875 C4.75029313 83.92338555 13.09112162 71.55835023 15.69140625 57.44921875 C15.96828337 54.67088867 16.02636656 51.9275727 16.00390625 49.13671875 C15.9982666 48.39470215 15.99262695 47.65268555 15.98681641 46.88818359 C15.65759466 31.88414707 9.10752821 19.75988746 -1.32421875 9.18359375 C-12.00985859 -0.99787435 -26.00649938 -5.22638916 -40.49658203 -5.09179688 C-52.63735432 -4.58753933 -62.87928364 -0.21423874 -72.30859375 7.44921875 Z " fill="#417069" transform="translate(272.30859375,83.55078125)"/>
<path d="M0 0 C10.31930912 8.8451221 16.49580951 18.53464753 20.69140625 31.44921875 C20.93890625 32.196875 21.18640625 32.94453125 21.44140625 33.71484375 C25.74406211 49.37173036 22.10480287 66.14291463 14.7109375 80.15234375 C11.61413442 85.2078598 7.93349676 89.33276507 3.69140625 93.44921875 C3.05460937 94.09503906 2.4178125 94.74085938 1.76171875 95.40625 C-8.8019595 105.46585232 -23.90477138 110.46150467 -38.30859375 110.94921875 C-56.13805883 110.32609201 -71.80701618 102.70971859 -83.98339844 89.90966797 C-94.66888288 78.13358692 -99.6660856 62.27816327 -99.30859375 46.44921875 C-98.23897154 32.88446436 -94.18726627 21.50827284 -86.30859375 10.44921875 C-85.58671875 9.41796875 -84.86484375 8.38671875 -84.12109375 7.32421875 C-63.00293832 -16.47669909 -24.78566551 -19.93967889 0 0 Z M-72.30859375 7.44921875 C-73.14132813 8.07570313 -73.9740625 8.7021875 -74.83203125 9.34765625 C-83.19038691 16.44039338 -90.55606834 28.60275866 -91.50146484 39.71655273 C-91.88964322 51.6595074 -92.086497 61.70140401 -86.30859375 72.44921875 C-85.85097656 73.34769531 -85.39335937 74.24617188 -84.921875 75.171875 C-78.11834767 87.53006301 -66.53809193 96.70344871 -53.0078125 100.7890625 C-36.10783195 103.80500412 -21.12836254 101.75193107 -6.78125 92.23046875 C4.75029313 83.92338555 13.09112162 71.55835023 15.69140625 57.44921875 C15.96828337 54.67088867 16.02636656 51.9275727 16.00390625 49.13671875 C15.9982666 48.39470215 15.99262695 47.65268555 15.98681641 46.88818359 C15.65759466 31.88414707 9.10752821 19.75988746 -1.32421875 9.18359375 C-12.00985859 -0.99787435 -26.00649938 -5.22638916 -40.49658203 -5.09179688 C-52.63735432 -4.58753933 -62.87928364 -0.21423874 -72.30859375 7.44921875 Z " fill="#B59756" transform="translate(272.30859375,83.55078125)"/>
<path d="M0 0 C0.70817871 0.00572021 1.41635742 0.01144043 2.14599609 0.01733398 C8.08812466 0.22060652 11.86582733 1.3958943 16.125 5.5 C16.69734375 6.04269531 17.2696875 6.58539063 17.859375 7.14453125 C24.33923497 13.9792407 24.59088694 21.81248657 24.4296875 30.90234375 C23.83093923 37.97217908 21.27892504 41.66338943 16.125 46.375 C8.72512632 52.58973766 1.39034805 52.23147485 -7.875 51.5 C-13.93213063 49.91551881 -18.36787539 44.46919767 -21.875 39.5 C-25.27304035 32.88394793 -24.69459228 24.22383186 -23.4453125 17.0234375 C-21.39036025 10.6556225 -16.76524409 5.29351809 -11.13671875 1.80078125 C-7.35925651 0.29432026 -4.0117572 -0.03748862 0 0 Z " fill="#DBCB81" transform="translate(313.875,219.5)"/>
<path d="M0 0 C2.72581937 2.04436453 3.87591631 3.15209478 4.375 6.5625 C4.58125 7.366875 4.7875 8.17125 5 9 C6.96303418 10.07074592 8.9697411 11.06295743 11 12 C13.9375 14.4375 13.9375 14.4375 16 17 C15.91236229 20.06731977 15.18647619 20.81352381 13 23 C9.6875 23.375 9.6875 23.375 6 23 C4.33333333 21.66666667 2.66666667 20.33333333 1 19 C-3.42668417 18.54206715 -5.2626144 18.5084096 -9 21 C-9.6567577 23.91714829 -9.6567577 23.91714829 -9 27 C-6.95992774 29.22287953 -6.95992774 29.22287953 -4.125 30.9375 C-3.12597656 31.61425781 -2.12695312 32.29101562 -1.09765625 32.98828125 C-0.07542969 33.65214844 0.94679687 34.31601563 2 35 C13.52024174 42.58961835 13.52024174 42.58961835 16 48 C16.65361995 53.22895961 15.87250224 56.59549657 13 61 C9.15539941 64.84460059 6.45780927 66.61015648 1 67 C1.04125 68.11375 1.0825 69.2275 1.125 70.375 C1 74 1 74 -1 76 C-7.05240175 76.55021834 -7.05240175 76.55021834 -9.9375 74.875 C-11.44484863 72.214973 -11.19986253 69.99793795 -11 67 C-11.99 66.67 -12.98 66.34 -14 66 C-14 62.37 -14 58.74 -14 55 C-12.68 55.66 -11.36 56.32 -10 57 C-7.51400015 57.35102515 -7.51400015 57.35102515 -4.9375 57.3125 C-3.65166016 57.33763672 -3.65166016 57.33763672 -2.33984375 57.36328125 C0.04587513 57.17022567 0.04587513 57.17022567 1.828125 55.7109375 C3.37772534 53.83552973 3.37772534 53.83552973 2.6875 50.3125 C2.3471875 48.6728125 2.3471875 48.6728125 2 47 C1.33097656 46.76925781 0.66195312 46.53851563 -0.02734375 46.30078125 C-3.82438269 44.63926487 -7.12275902 42.4840429 -10.5625 40.1875 C-11.22185547 39.76146484 -11.88121094 39.33542969 -12.56054688 38.89648438 C-17.36737613 35.70320384 -21.11504978 32.65485065 -23 27 C-23.61720885 21.6508566 -22.81735215 18.69722673 -19.5703125 14.578125 C-16.98485213 11.97980164 -14.31306375 10.56276592 -11 9 C-10.34 9 -9.68 9 -9 9 C-9.12375 7.6078125 -9.12375 7.6078125 -9.25 6.1875 C-9 3 -9 3 -7.3125 1.125 C-4.53278248 -0.22729501 -3.0516331 -0.53403579 0 0 Z " fill="#C7B06B" transform="translate(238,94)"/>
<path d="M0 0 C4.62 -0.12375 9.24 -0.2475 14 -0.375 C16.16175781 -0.45693604 16.16175781 -0.45693604 18.3671875 -0.54052734 C25.45331615 -0.63226036 30.19920641 -0.37061795 35.63085938 4.41992188 C39.06763957 8.38619175 39.40410917 12.9997996 39.25 18.046875 C38.67628196 22.52904717 36.75219783 25.30421701 33.5 28.3125 C30.25230681 30.5046929 27.82083239 31.12647242 23.98828125 31.09765625 C22.96408081 31.09390991 22.96408081 31.09390991 21.91918945 31.09008789 C21.05898193 31.08098389 20.19877441 31.07187988 19.3125 31.0625 C16.569375 31.041875 13.82625 31.02125 11 31 C11 36.94 11 42.88 11 49 C7.37 49 3.74 49 0 49 C0 32.83 0 16.66 0 0 Z " fill="#C4AA65" transform="translate(354,221)"/>
<path d="M0 0 C3.96 0 7.92 0 12 0 C14.42951608 6.33224937 16.85035386 12.66772133 19.26318359 19.00634766 C20.0853443 21.16253146 20.90987573 23.31781285 21.73681641 25.47216797 C22.9245336 28.567647 24.1037076 31.6662635 25.28125 34.765625 C25.65310425 35.72929993 26.0249585 36.69297485 26.40808105 37.68585205 C26.74843384 38.58648376 27.08878662 39.48711548 27.43945312 40.41503906 C27.89245789 41.60084564 27.89245789 41.60084564 28.35461426 42.81060791 C29 45 29 45 29 49 C25.37 49 21.74 49 18 49 C17.01 45.37 16.02 41.74 15 38 C8.73 38 2.46 38 -4 38 C-4.99 41.63 -5.98 45.26 -7 49 C-10.63 49 -14.26 49 -18 49 C-17.35588464 43.64220444 -15.6419934 39.01005994 -13.69140625 34.0234375 C-13.36462387 33.17576813 -13.03784149 32.32809875 -12.70115662 31.45474243 C-12.01202109 29.67029128 -11.32015887 27.88689102 -10.62573242 26.10449219 C-9.56415017 23.37923627 -8.51085453 20.65089232 -7.45898438 17.921875 C-6.78693919 16.18470973 -6.11442897 14.44772428 -5.44140625 12.7109375 C-5.12675919 11.89732758 -4.81211212 11.08371765 -4.4879303 10.24545288 C-4.19099777 9.48431183 -3.89406525 8.72317078 -3.58813477 7.93896484 C-3.3291188 7.27311371 -3.07010284 6.60726257 -2.80323792 5.92123413 C-1.96089819 3.90647386 -0.97660587 1.95321175 0 0 Z " fill="#AD8A4B" transform="translate(416,221)"/>
<path d="M0 0 C12.21 0 24.42 0 37 0 C37 2.97 37 5.94 37 9 C28.42 9 19.84 9 11 9 C11 12.63 11 16.26 11 20 C18.92 20 26.84 20 35 20 C35 22.64 35 25.28 35 28 C27.08 28 19.16 28 11 28 C11 31.96 11 35.92 11 40 C19.91 40 28.82 40 38 40 C38 42.97 38 45.94 38 49 C25.46 49 12.92 49 0 49 C0 32.83 0 16.66 0 0 Z " fill="#C2A863" transform="translate(141,221)"/>
<path d="M0 0 C0.68578125 -0.01998047 1.3715625 -0.03996094 2.078125 -0.06054688 C7.20753795 -0.0556524 10.01897798 1.30325371 14 4.4375 C14.763125 5.015 15.52625 5.5925 16.3125 6.1875 C18.79791136 9.50138182 18.72658637 12.33629558 19 16.4375 C15.37 16.4375 11.74 16.4375 8 16.4375 C7.7525 15.468125 7.505 14.49875 7.25 13.5 C6.36969431 10.39795299 6.36969431 10.39795299 4.3125 9.5625 C-2.18676278 8.98078703 -2.18676278 8.98078703 -8 11.4375 C-8.2502157 14.52115871 -8.2502157 14.52115871 -8 17.4375 C-6.9378125 17.67984375 -5.875625 17.9221875 -4.78125 18.171875 C14.97747662 22.80326447 14.97747662 22.80326447 20 30.4375 C21.7521315 33.941763 20.81032787 37.70622284 20 41.4375 C17.44538065 46.36426588 14.62862161 49.26402375 9.296875 50.98828125 C2.37172503 52.34268983 -6.46496756 53.00233998 -12.6875 49.25 C-17.01674437 45.89012991 -19.66567752 43.13697259 -20.75 37.625 C-20.8325 36.573125 -20.915 35.52125 -21 34.4375 C-17.37 34.4375 -13.74 34.4375 -10 34.4375 C-9.938125 35.38625 -9.87625 36.335 -9.8125 37.3125 C-9.34166941 40.52411676 -9.34166941 40.52411676 -7 41.8125 C-1.59449406 42.93864707 3.67442493 42.94701674 9 41.4375 C9 39.1275 9 36.8175 9 34.4375 C4.20492488 32.28435659 -0.50509723 30.66063065 -5.5625 29.1875 C-10.68060616 27.54877786 -15.02374025 26.0237404 -18.171875 21.4609375 C-19.82759336 17.4153615 -19.9315956 13.6822138 -19 9.4375 C-15.23609434 1.84616285 -7.86957414 -0.08135838 0 0 Z " fill="#956A31" transform="translate(56,219.5625)"/>
<path d="M0 0 C8.30998987 -0.06942922 16.6198591 -0.12277489 24.93006706 -0.15543652 C28.78860575 -0.17111039 32.6469464 -0.19237955 36.50537109 -0.22631836 C40.22713296 -0.25885119 43.94870403 -0.27684004 47.67059708 -0.28463173 C49.0924289 -0.29018625 50.51424996 -0.30103261 51.93600082 -0.31719017 C53.92321387 -0.33888117 55.91061783 -0.34022469 57.89794922 -0.34057617 C59.03046112 -0.34723801 60.16297302 -0.35389984 61.32980347 -0.36076355 C62.65155075 -0.18218559 62.65155075 -0.18218559 64 0 C66.85488368 4.28232553 66.38130949 8.52148832 65.625 13.4375 C65 15 65 15 63 16 C60.75335569 16.09202122 58.50389567 16.11749805 56.25537109 16.11352539 C55.21617775 16.11374443 55.21617775 16.11374443 54.1559906 16.1139679 C51.86177459 16.11327018 49.56763936 16.10548442 47.2734375 16.09765625 C45.68445887 16.09579157 44.09547966 16.0943679 42.50650024 16.09336853 C38.32090675 16.08954731 34.13534787 16.07972039 29.94976807 16.06866455 C25.68005847 16.05844194 21.4103433 16.05386909 17.140625 16.04882812 C8.76040077 16.03809778 0.38020469 16.02102608 -8 16 C-6.46591281 12.03413063 -4.71778039 9.08248934 -2.12109375 5.74609375 C-0.89529107 3.83691676 -0.49948527 2.19677083 0 0 Z " fill="#C6AB65" transform="translate(291,159)"/>
<path d="M0 0 C1.74135223 0.00045319 1.74135223 0.00045319 3.5178833 0.00091553 C4.76591736 0.02156067 6.01395142 0.04220581 7.29980469 0.06347656 C8.5815155 0.06913635 9.86322632 0.07479614 11.18377686 0.08062744 C14.58381597 0.09586688 17.98316662 0.13513241 21.38293457 0.17944336 C24.85512988 0.22043357 28.32743693 0.23864635 31.79980469 0.25878906 C38.60737835 0.30162957 45.41449593 0.36985944 52.22167969 0.45410156 C53.65484866 3.32043951 53.3536833 5.82645657 53.34667969 9.01660156 C53.35054687 10.78197266 53.35054687 10.78197266 53.35449219 12.58300781 C53.22167969 15.45410156 53.22167969 15.45410156 52.22167969 16.45410156 C49.7877195 16.54908802 47.38225016 16.57968573 44.94799805 16.56762695 C43.80661125 16.56784599 43.80661125 16.56784599 42.64216614 16.56806946 C40.1152567 16.56737018 37.58842007 16.55957711 35.06152344 16.55175781 C33.31417379 16.54989369 31.56682362 16.54846976 29.81947327 16.54747009 C25.21136034 16.54364449 20.60327874 16.53381385 15.99517822 16.52276611 C11.29659448 16.5125529 6.5980057 16.50797267 1.89941406 16.50292969 C-7.32651119 16.49219162 -16.55241315 16.47511469 -25.77832031 16.45410156 C-21.8039916 12.36037241 -17.4481231 9.52277534 -12.65332031 6.45410156 C-9.78105868 4.63089143 -9.78105868 4.63089143 -7.95977783 2.35748291 C-5.14901082 -0.09498818 -3.6911295 -0.03209678 0 0 Z " fill="#C7AE69" transform="translate(283.7783203125,176.5458984375)"/>
<path d="M0 0 C7.67536977 -0.02255523 15.35072729 -0.04091753 23.02612209 -0.05181217 C26.58977422 -0.05703995 30.15340257 -0.06413569 33.71704102 -0.07543945 C37.81006097 -0.08834176 41.9030558 -0.09322906 45.99609375 -0.09765625 C47.92418129 -0.10539818 47.92418129 -0.10539818 49.89122009 -0.11329651 C51.66294334 -0.11340981 51.66294334 -0.11340981 53.47045898 -0.11352539 C55.03932106 -0.11685631 55.03932106 -0.11685631 56.63987732 -0.12025452 C59 0 59 0 60 1 C60.09909302 3.33160055 60.12970504 5.66629942 60.125 8 C60.12886719 9.918125 60.12886719 9.918125 60.1328125 11.875 C60 15 60 15 59 16 C57.15881971 16.09381302 55.31402359 16.11743954 53.47045898 16.11352539 C52.28931015 16.11344986 51.10816132 16.11337433 49.89122009 16.11329651 C48.6058284 16.10813522 47.32043671 16.10297394 45.99609375 16.09765625 C44.68794205 16.0962413 43.37979034 16.09482635 42.03199768 16.09336853 C38.54837141 16.0895441 35.06478661 16.07971446 31.58117676 16.06866455 C28.02873292 16.05844882 24.47628241 16.05387056 20.92382812 16.04882812 C13.94919996 16.03809212 6.97460624 16.02049593 0 16 C0 10.72 0 5.44 0 0 Z " fill="#EEE293" transform="translate(297,122)"/>
<path d="M0 0 C4.33648554 -1.07294488 7.70754237 -1.35869116 12 0 C16.43469896 4.44740583 19.23423597 10.42351323 22 16 C22.33 16.66 22.66 17.32 23 18 C27.0170102 12.16084084 30.63357193 6.2377932 34 0 C37.96 0 41.92 0 46 0 C44.40875076 6.28069236 40.87139262 11.34596231 37.4375 16.75 C36.24813166 18.64026883 35.05930208 20.53087678 33.87109375 22.421875 C33.34443115 23.25299805 32.81776855 24.08412109 32.27514648 24.94042969 C30.35275861 28.04540081 29.84450461 29.93832446 29.68359375 33.5703125 C29.64169922 34.46621094 29.59980469 35.36210937 29.55664062 36.28515625 C29.51732422 37.22230469 29.47800781 38.15945313 29.4375 39.125 C29.39431641 40.06988281 29.35113281 41.01476562 29.30664062 41.98828125 C29.2004106 44.32534172 29.09968729 46.6626513 29 49 C25.37 49 21.74 49 18 49 C18.06574219 47.1128125 18.06574219 47.1128125 18.1328125 45.1875 C18.2396059 32.54117419 15.76085478 24.91680331 8.296875 14.81201172 C6.28620445 12.00267497 4.59664372 9.05773672 2.875 6.0625 C2.31554687 5.10472656 1.75609375 4.14695313 1.1796875 3.16015625 C0 1 0 1 0 0 Z " fill="#976C33" transform="translate(448,221)"/>
<path d="M0 0 C13.53 0 27.06 0 41 0 C41 2.97 41 5.94 41 9 C36.05 9 31.1 9 26 9 C26 22.2 26 35.4 26 49 C22.37 49 18.74 49 15 49 C15 35.8 15 22.6 15 9 C10.05 9 5.1 9 0 9 C0 6.03 0 3.06 0 0 Z " fill="#AC894B" transform="translate(87,221)"/>
<path d="M0 0 C3.63 0 7.26 0 11 0 C11 13.2 11 26.4 11 40 C18.92 40 26.84 40 35 40 C35 42.97 35 45.94 35 49 C23.45 49 11.9 49 0 49 C0 32.83 0 16.66 0 0 Z " fill="#EDE293" transform="translate(243,221)"/>
<path d="M0 0 C3.63 0 7.26 0 11 0 C11 13.2 11 26.4 11 40 C18.92 40 26.84 40 35 40 C35 42.97 35 45.94 35 49 C23.45 49 11.9 49 0 49 C0 32.83 0 16.66 0 0 Z " fill="#D9C57C" transform="translate(194,221)"/>
<path d="M0 0 C4.24295699 3.53579749 6.01296007 5.65472598 6.6015625 11.16796875 C6.76941025 18.40831022 6.54427729 23.89441494 1.75 29.6875 C-1.57142549 32.31696184 -5.40993143 32.26614888 -9.4609375 32.2265625 C-13.41045068 31.61998198 -15.05201195 29.77040181 -17.75 26.875 C-20.17016961 23.23227049 -20.08209545 19.79903593 -20.125 15.5 C-20.15335937 14.21351563 -20.18171875 12.92703125 -20.2109375 11.6015625 C-19.57029865 6.4221603 -17.47496121 3.31246768 -13.5 0 C-8.81985204 -1.91460598 -4.68014796 -1.91460598 0 0 Z " fill="#2B6667" transform="translate(320.75,230.125)"/>
<path d="M0 0 C4.94791294 -0.0246826 9.8957902 -0.04285166 14.84375 -0.05493164 C16.52767562 -0.05996653 18.21159686 -0.06679481 19.89550781 -0.07543945 C22.31316203 -0.08754196 24.73075856 -0.09323668 27.1484375 -0.09765625 C27.9036972 -0.10281754 28.65895691 -0.10797882 29.43710327 -0.11329651 C34.77225659 -0.11387171 34.77225659 -0.11387171 37 1 C37.05384521 3.29141286 37.09272087 5.58318188 37.125 7.875 C37.14820313 9.15117188 37.17140625 10.42734375 37.1953125 11.7421875 C37 15 37 15 35 17 C32.01904297 17.22705078 32.01904297 17.22705078 28.2421875 17.1953125 C27.57913605 17.1924826 26.91608459 17.18965271 26.23294067 17.18673706 C24.11344417 17.17553435 21.99436896 17.15043051 19.875 17.125 C18.43880818 17.11497028 17.00260975 17.10584441 15.56640625 17.09765625 C12.04413372 17.075595 8.52210797 17.04106494 5 17 C4.16301614 14.54285453 3.33027576 12.08441143 2.5 9.625 C2.26152344 8.92632812 2.02304687 8.22765625 1.77734375 7.5078125 C0 2.2265625 0 2.2265625 0 0 Z " fill="#A48E55" transform="translate(291,103)"/>
<path d="M0 0 C1.01255859 -0.00128906 2.02511719 -0.00257813 3.06835938 -0.00390625 C4.11443359 -0.00003906 5.16050781 0.00382813 6.23828125 0.0078125 C7.29595703 0.00394531 8.35363281 0.00007812 9.44335938 -0.00390625 C10.95639648 -0.00197266 10.95639648 -0.00197266 12.5 0 C13.88191528 0.00169189 13.88191528 0.00169189 15.29174805 0.00341797 C17.55078125 0.1328125 17.55078125 0.1328125 19.55078125 1.1328125 C19.55078125 6.0828125 19.55078125 11.0328125 19.55078125 16.1328125 C9.65078125 16.1328125 -0.24921875 16.1328125 -10.44921875 16.1328125 C-10.44921875 11.1828125 -10.44921875 6.2328125 -10.44921875 1.1328125 C-6.66511867 0.37599248 -3.77383551 0.00460344 0 0 Z " fill="#D1C37D" transform="translate(318.44921875,139.8671875)"/>
<path d="M0 0 C2.375 -0.4375 2.375 -0.4375 5 0 C7.72581937 2.04436453 8.87591631 3.15209478 9.375 6.5625 C9.58125 7.366875 9.7875 8.17125 10 9 C11.96303418 10.07074592 13.9697411 11.06295743 16 12 C18.9375 14.4375 18.9375 14.4375 21 17 C20.91236229 20.06731977 20.18647619 20.81352381 18 23 C13.93188591 23.46054122 11.83039141 23.66005471 8.5625 21.0625 C7.716875 20.381875 6.87125 19.70125 6 19 C3.30139098 18.36830313 0.78045823 18.18850564 -2 18 C-2.05397335 15.5622037 -2.09365616 13.12560315 -2.125 10.6875 C-2.14175781 9.99720703 -2.15851563 9.30691406 -2.17578125 8.59570312 C-2.21217794 4.82864604 -2.14378864 3.21568296 0 0 Z " fill="#EDE091" transform="translate(233,94)"/>
<path d="M0 0 C6.27 0 12.54 0 19 0 C19 5.28 19 10.56 19 16 C12.73 16 6.46 16 0 16 C0 10.72 0 5.44 0 0 Z " fill="#B69352" transform="translate(297,122)"/>
<path d="M0 0 C3.9290625 -0.0309375 3.9290625 -0.0309375 7.9375 -0.0625 C8.7637085 -0.071604 9.58991699 -0.08070801 10.44116211 -0.09008789 C12.29433759 -0.09723945 14.14749308 -0.0502852 16 0 C17 1 17 1 17.1328125 4.125 C17.13023437 5.40375 17.12765625 6.6825 17.125 8 C17.12886719 9.918125 17.12886719 9.918125 17.1328125 11.875 C17 15 17 15 16 16 C13.3013095 16.07325436 10.63497444 16.09222351 7.9375 16.0625 C5.318125 16.041875 2.69875 16.02125 0 16 C0 10.72 0 5.44 0 0 Z " fill="#AA8345" transform="translate(340,122)"/>
<path d="M0 0 C1.98 0.99 1.98 0.99 4 2 C7.05014928 2.24110759 7.05014928 2.24110759 10.25 2.125 C11.86648437 2.09792969 11.86648437 2.09792969 13.515625 2.0703125 C14.33546875 2.04710937 15.1553125 2.02390625 16 2 C16.10426005 7.75747153 16.17810951 13.34507437 15 19 C13 21 13 21 9.5625 21.3125 C6 21 6 21 4.0625 19.875 C2.55515137 17.214973 2.80013747 14.99793795 3 12 C2.01 11.67 1.02 11.34 0 11 C0 7.37 0 3.74 0 0 Z " fill="#EBDF90" transform="translate(224,149)"/>
<path d="M0 0 C12.62565445 -0.41623037 12.62565445 -0.41623037 17 3 C18.125 6.375 18.125 6.375 18 10 C16.375 12.9375 16.375 12.9375 13 15 C8.57743685 15.41712204 4.46128579 15.22531746 0 15 C0 10.05 0 5.1 0 0 Z " fill="#316968" transform="translate(365,229)"/>
<path d="M0 0 C4.95 0 9.9 0 15 0 C15 5.28 15 10.56 15 16 C10.05 16 5.1 16 0 16 C0 10.72 0 5.44 0 0 Z " fill="#E9DC8E" transform="translate(303,103)"/>
<path d="M0 0 C5.28 0 10.56 0 16 0 C16 0.33 16 0.66 16 1 C14.35 1 12.7 1 11 1 C11 5.95 11 10.9 11 16 C6.05 16 1.1 16 -4 16 C-2.68 10.72 -1.36 5.44 0 0 Z " fill="#BA9C5A" transform="translate(297,140)"/>
<path d="M0 0 C1.64574566 -0.02688151 3.29161413 -0.04634123 4.9375 -0.0625 C6.31228516 -0.07990234 6.31228516 -0.07990234 7.71484375 -0.09765625 C10 0 10 0 11 1 C11.12557162 3.30993382 11.17575729 5.62418536 11.1875 7.9375 C11.20167969 9.20464844 11.21585937 10.47179687 11.23046875 11.77734375 C11 15 11 15 9 17 C6.27514272 17.17517747 3.65340638 17.23149133 0.9296875 17.1953125 C0.13345978 17.1924826 -0.66276794 17.18965271 -1.48312378 17.18673706 C-4.03056763 17.1755264 -6.57766211 17.15042062 -9.125 17.125 C-10.85025535 17.11497133 -12.57551619 17.10584528 -14.30078125 17.09765625 C-18.53398914 17.07558422 -22.7669353 17.04104867 -27 17 C-27 16.67 -27 16.34 -27 16 C-17.43 16 -7.86 16 2 16 C2 11.05 2 6.1 2 1 C1.34 0.67 0.68 0.34 0 0 Z " fill="#988653" transform="translate(336,140)"/>
<path d="M0 0 C3.3 0 6.6 0 10 0 C10 5.28 10 10.56 10 16 C6.37 16 2.74 16 -1 16 C-1.02692484 13.70839681 -1.04636124 11.41670454 -1.0625 9.125 C-1.07410156 7.84882813 -1.08570313 6.57265625 -1.09765625 5.2578125 C-1 2 -1 2 0 0 Z " fill="#DBC77D" transform="translate(330,122)"/>
<path d="M0 0 C3.3 0 6.6 0 10 0 C10 4.95 10 9.9 10 15 C6.04 15 2.08 15 -2 15 C-2.16803599 9.45481226 -2.13843222 5.21242854 0 0 Z " fill="#EADD8E" transform="translate(315,141)"/>
<path d="M0 0 C0.99 0.33 1.98 0.66 3 1 C4.16796875 3.6171875 4.16796875 3.6171875 5.1875 6.875 C5.53167969 7.94492188 5.87585938 9.01484375 6.23046875 10.1171875 C7 13 7 13 7 16 C36.205 16.495 36.205 16.495 66 17 C66 17.33 66 17.66 66 18 C46.86 18 27.72 18 8 18 C8 23.28 8 28.56 8 34 C7.01 34.495 7.01 34.495 6 35 C5.96132813 33.63681641 5.96132813 33.63681641 5.921875 32.24609375 C5.54194075 23.82709608 4.30303274 16.33022223 1.9375 8.2421875 C1.1443138 5.49908521 0.50846264 2.80713748 0 0 Z " fill="#477065" transform="translate(289,104)"/>
<path d="M0 0 C2 2 2 2 2.25 4.4375 C2.4975 5.283125 2.745 6.12875 3 7 C4.96303418 8.07074592 6.9697411 9.06295743 9 10 C11.9375 12.4375 11.9375 12.4375 14 15 C13.91236229 18.06731977 13.18647619 18.81352381 11 21 C6.76147559 21.55980511 4.75135135 21.55013475 1.2578125 18.9921875 C-1.66550674 15.11803086 -1.38211745 12.27312539 -0.8125 7.6875 C-0.74224609 6.94693359 -0.67199219 6.20636719 -0.59960938 5.44335938 C-0.42377647 3.6264194 -0.21513903 1.81270606 0 0 Z " fill="#AF8D4E" transform="translate(240,96)"/>
<path d="M0 0 C2.64 0 5.28 0 8 0 C8 5.28 8 10.56 8 16 C5.36 16 2.72 16 0 16 C0 10.72 0 5.44 0 0 Z " fill="#A2773B" transform="translate(297,122)"/>
<path d="M0 0 C2.61943903 2.61943903 3.44197838 5.57473973 4.625 9 C4.85445313 9.64195312 5.08390625 10.28390625 5.3203125 10.9453125 C7 15.72442336 7 15.72442336 7 18 C2.71 18 -1.58 18 -6 18 C-4.02 12.06 -2.04 6.12 0 0 Z " fill="#356A68" transform="translate(421,233)"/>
<path d="M0 0 C0 7.59 0 15.18 0 23 C-5.49612974 18.60309621 -6.57613331 17.26982877 -7.4375 10.625 C-6.95177085 6.60038708 -4.87349377 0 0 0 Z " fill="#AC8849" transform="translate(222,107)"/>
<path d="M0 0 C3.68802044 1.22934015 4.72356973 2.93859378 7 6 C7.33 4.02 7.66 2.04 8 0 C8.66 0 9.32 0 10 0 C10.33 0.66 10.66 1.32 11 2 C11.66 1.34 12.32 0.68 13 0 C16.125 0.375 16.125 0.375 19 1 C19 1.33 19 1.66 19 2 C17.35 2 15.7 2 14 2 C14 2.66 14 3.32 14 4 C15.65 4.33 17.3 4.66 19 5 C19 6.32 19 7.64 19 9 C18.67 9.33 18.34 9.66 18 10 C16.906875 9.835 15.81375 9.67 14.6875 9.5 C11.53059663 9.07194531 9.90928883 8.95265602 7 10 C5.68 8.35 4.36 6.7 3 5 C2.67 6.65 2.34 8.3 2 10 C1.67 10 1.34 10 1 10 C0.67 6.7 0.34 3.4 0 0 Z " fill="#829672" transform="translate(303,297)"/>
<path d="M0 0 C3.62431851 0.90607963 5.44656387 2.17186325 7.4375 5.25 C9.04343406 8.30191453 9.03321132 8.84778146 8.25 12.4375 C7.8375 13.283125 7.425 14.12875 7 15 C4.0280615 13.87548273 1.66559313 12.77706209 -1 11 C-1.328125 8.65234375 -1.328125 8.65234375 -1.25 5.9375 C-1.23453125 5.03902344 -1.2190625 4.14054688 -1.203125 3.21484375 C-1 1 -1 1 0 0 Z " fill="#EDE192" transform="translate(232,125)"/>
<path d="M0 0 C2.64 0 5.28 0 8 0 C7.01 0.495 7.01 0.495 6 1 C5.56785888 2.92280632 5.56785888 2.92280632 5.4375 5.1875 C5.11159048 8.83070287 4.64673491 12.39676262 4 16 C1.36 16 -1.28 16 -4 16 C-2.68 10.72 -1.36 5.44 0 0 Z " fill="#A68145" transform="translate(297,140)"/>
<path d="M0 0 C5.99236641 4.79389313 5.99236641 4.79389313 7 8 C7.48459952 13.23367486 6.82735806 16.55700877 4 21 C2.68 21.99 1.36 22.98 0 24 C0 16.08 0 8.16 0 0 Z " fill="#946F38" transform="translate(247,134)"/>
<path d="M0 0 C7.75 -0.125 7.75 -0.125 10 1 C10 5.95 10 10.9 10 16 C8.02 16 6.04 16 4 16 C4 11.05 4 6.1 4 1 C2.68 0.67 1.36 0.34 0 0 Z " fill="#B49757" transform="translate(328,140)"/>
<path d="M0 0 C4 4 4 4 4.4699707 6.13476562 C4.45538818 6.88435547 4.44080566 7.63394531 4.42578125 8.40625 C4.41740234 9.23253906 4.40902344 10.05882812 4.40039062 10.91015625 C4.37138672 11.76480469 4.34238281 12.61945313 4.3125 13.5 C4.30283203 14.35464844 4.29316406 15.20929688 4.28320312 16.08984375 C4.14189945 23.96598767 4.14189945 23.96598767 3 27 C2.01 27.33 1.02 27.66 0 28 C0 18.76 0 9.52 0 0 Z " fill="#B89856" transform="translate(244,132)"/>
<path d="M0 0 C3 0.25 3 0.25 5 2.25 C5.1953125 5.0703125 5.1953125 5.0703125 5.125 8.375 C5.10695312 9.47070312 5.08890625 10.56640625 5.0703125 11.6953125 C5.04710937 12.53835937 5.02390625 13.38140625 5 14.25 C0.6068317 12.63301873 -2.00179308 10.93351136 -5 7.25 C-5.4375 4.5625 -5.4375 4.5625 -5 2.25 C-3 0.25 -3 0.25 0 0 Z " fill="#B08F50" transform="translate(220,146.75)"/>
<path d="M0 0 C1.98 0 3.96 0 6 0 C6 5.28 6 10.56 6 16 C4.02 16 2.04 16 0 16 C0 10.72 0 5.44 0 0 Z " fill="#BE9F5C" transform="translate(340,122)"/>
<path d="M0 0 C1.98 0 3.96 0 6 0 C6 5.28 6 10.56 6 16 C4.02 16 2.04 16 0 16 C0 10.72 0 5.44 0 0 Z " fill="#DAC77C" transform="translate(316,122)"/>
<path d="M0 0 C1.98 0.99 1.98 0.99 4 2 C6.32495277 2.38749213 8.65851268 2.72982839 11 3 C11 3.33 11 3.66 11 4 C9.35 4 7.7 4 6 4 C6 9.28 6 14.56 6 20 C5.01 19.34 4.02 18.68 3 18 C2.8125 14.875 2.8125 14.875 3 12 C2.01 11.67 1.02 11.34 0 11 C0 7.37 0 3.74 0 0 Z " fill="#CFBE78" transform="translate(224,149)"/>
<path d="M0 0 C1 1 1 1 1.1875 3.9375 C1 7 1 7 -1 9 C-4.625 8.625 -4.625 8.625 -8 8 C-9.32278481 2.58860759 -9.32278481 2.58860759 -7.9375 0.0625 C-5.06369928 -1.51345523 -3.08587291 -0.80501033 0 0 Z " fill="#C3C88A" transform="translate(260,298)"/>
<path d="M0 0 C1.65 0 3.3 0 5 0 C5 5.28 5 10.56 5 16 C3.35 16 1.7 16 0 16 C0 10.72 0 5.44 0 0 Z " fill="#C8AD67" transform="translate(311,122)"/>
<path d="M0 0 C1.37365621 2.74731243 1.0128639 4.81667064 0.87890625 7.8828125 C0.83056641 9.04941406 0.78222656 10.21601562 0.73242188 11.41796875 C0.67634766 12.64128906 0.62027344 13.86460938 0.5625 15.125 C0.51029297 16.35605469 0.45808594 17.58710937 0.40429688 18.85546875 C0.2743256 21.90388588 0.13934981 24.9519995 0 28 C-0.99 27.34 -1.98 26.68 -3 26 C-3.38818359 23.6015625 -3.38818359 23.6015625 -3.3984375 20.625 C-3.40230469 19.55765625 -3.40617188 18.4903125 -3.41015625 17.390625 C-3.39275391 15.71226563 -3.39275391 15.71226563 -3.375 14 C-3.38660156 12.88109375 -3.39820313 11.7621875 -3.41015625 10.609375 C-3.40628906 9.54203125 -3.40242187 8.4746875 -3.3984375 7.375 C-3.39505371 6.39273438 -3.39166992 5.41046875 -3.38818359 4.3984375 C-3.26008301 3.60695313 -3.13198242 2.81546875 -3 2 C-2.01 1.34 -1.02 0.68 0 0 Z " fill="#BC9E5B" transform="translate(225,104)"/>
<path d="M0 0 C2.475 0.495 2.475 0.495 5 1 C5 5.62 5 10.24 5 15 C3.35 15.33 1.7 15.66 0 16 C0 10.72 0 5.44 0 0 Z " fill="#966A31" transform="translate(352,122)"/>
<path d="M0 0 C2.475 0.495 2.475 0.495 5 1 C5 5.62 5 10.24 5 15 C3.35 15.33 1.7 15.66 0 16 C0 10.72 0 5.44 0 0 Z " fill="#956F38" transform="translate(323,103)"/>
<path d="M0 0 C5.625 -0.25 5.625 -0.25 9 2 C9.3125 5 9.3125 5 9 8 C7 10 7 10 3.875 10.125 C2.451875 10.063125 2.451875 10.063125 1 10 C0.67 6.7 0.34 3.4 0 0 Z " fill="#796033" transform="translate(81,297)"/>
<path d="M0 0 C5.625 -0.25 5.625 -0.25 9 2 C9.3125 5 9.3125 5 9 8 C7 10 7 10 3.875 10.125 C2.451875 10.063125 2.451875 10.063125 1 10 C0.67 6.7 0.34 3.4 0 0 Z " fill="#A6A46D" transform="translate(196,297)"/>
<path d="M0 0 C1.65 0 3.3 0 5 0 C5 4.62 5 9.24 5 14 C3.35 14.33 1.7 14.66 0 15 C0 10.05 0 5.1 0 0 Z " fill="#996C32" transform="translate(342,141)"/>
<path d="M0 0 C2.47379368 2.47379368 2.96652922 4.6928935 4 8 C4.33 8.66 4.66 9.32 5 10 C5.06996014 11.70702735 5.08440154 13.41668003 5.0625 15.125 C5.05347656 16.03507812 5.04445312 16.94515625 5.03515625 17.8828125 C5.01775391 18.93082031 5.01775391 18.93082031 5 20 C2.53199953 18.84826645 0.95216435 17.95216435 -1 16 C-0.98252073 13.24410223 -0.86136729 10.61213324 -0.625 7.875 C-0.56828125 7.12089844 -0.5115625 6.36679688 -0.453125 5.58984375 C-0.3115535 3.72581904 -0.15700041 1.86278863 0 0 Z " fill="#C4AE6B" transform="translate(240,96)"/>
<path d="M0 0 C1.57314184 3.14628368 1.26696326 6.48581488 1.3125 9.9375 C1.34150391 10.66646484 1.37050781 11.39542969 1.40039062 12.14648438 C1.46428752 17.50890825 1.46428752 17.50890825 -0.89453125 20.00390625 C-3 21 -3 21 -5 21 C-5.05422947 19.5629191 -5.09289723 18.12524538 -5.125 16.6875 C-5.14820313 15.88699219 -5.17140625 15.08648437 -5.1953125 14.26171875 C-5 12 -5 12 -3 9 C-2.835 7.824375 -2.67 6.64875 -2.5 5.4375 C-2 2 -2 2 0 0 Z " fill="#D2C47E" transform="translate(231,95)"/>
<path d="M0 0 C0.99 0.33 1.98 0.66 3 1 C1.54656021 5.1180794 -0.51120487 8.422357 -3 12 C-3.99 13.485 -3.99 13.485 -5 15 C-5.598125 15.12375 -6.19625 15.2475 -6.8125 15.375 C-10.08368244 16.30962355 -11.73762424 18.54909293 -14 21 C-14 18 -14 18 -12.4609375 16.30859375 C-11.77257812 15.69113281 -11.08421875 15.07367188 -10.375 14.4375 C-5.88550275 10.14771349 -2.93951861 5.43365561 0 0 Z " fill="#4E6A59" transform="translate(288,160)"/>
<path d="M0 0 C1.32 0 2.64 0 4 0 C4 5.28 4 10.56 4 16 C2.68 16 1.36 16 0 16 C0 10.72 0 5.44 0 0 Z " fill="#CFB76F" transform="translate(314,103)"/>
<path d="M0 0 C1.32 0 2.64 0 4 0 C4 5.28 4 10.56 4 16 C2.68 16 1.36 16 0 16 C0 10.72 0 5.44 0 0 Z " fill="#C9AE68" transform="translate(299,103)"/>
<path d="M0 0 C1.32 0 2.64 0 4 0 C4 5.28 4 10.56 4 16 C2.68 16 1.36 16 0 16 C0 10.72 0 5.44 0 0 Z " fill="#DFCD81" transform="translate(303,103)"/>
<path d="M0 0 C0.21206984 11.71096796 0.21206984 11.71096796 -1 17 C-1.99 17.66 -2.98 18.32 -4 19 C-4.33 13.06 -4.66 7.12 -5 1 C-2 0 -2 0 0 0 Z " fill="#DFD085" transform="translate(240,151)"/>
<path d="M0 0 C2.31 0 4.62 0 7 0 C7.79953138 3.28696233 8.09658936 4.71023192 7 8 C7.66 8 8.32 8 9 8 C9 8.66 9 9.32 9 10 C8.01 9.67 7.02 9.34 6 9 C5.67 8.34 5.34 7.68 5 7 C4.01 6.67 3.02 6.34 2 6 C2 7.32 2 8.64 2 10 C1.34 10 0.68 10 0 10 C0 6.7 0 3.4 0 0 Z " fill="#7D7E55" transform="translate(143,297)"/>
<path d="M0 0 C1.32 0 2.64 0 4 0 C4 4.95 4 9.9 4 15 C2.68 15 1.36 15 0 15 C0 10.05 0 5.1 0 0 Z " fill="#D0B770" transform="translate(328,141)"/>
<path d="M0 0 C-1.88725251 5.66175753 -8.9109439 8.29185485 -14 11 C-17.29246084 12.26697227 -20.5537362 13.25317985 -24 14 C-24.33 13.01 -24.66 12.02 -25 11 C-24.26136719 10.79246094 -23.52273437 10.58492187 -22.76171875 10.37109375 C-15.80008393 8.25695052 -10.1691237 5.52246795 -4.1796875 1.390625 C-2 0 -2 0 0 0 Z " fill="#3B6B64" transform="translate(274,180)"/>
<path d="M0 0 C0.99 0.33 1.98 0.66 3 1 C2.71459486 2.56365584 2.42136502 4.12588434 2.125 5.6875 C1.96257812 6.55761719 1.80015625 7.42773438 1.6328125 8.32421875 C1 11 1 11 -1 16 C4.28 16 9.56 16 15 16 C15 16.33 15 16.66 15 17 C8.73 17 2.46 17 -4 17 C-2.68 11.39 -1.36 5.78 0 0 Z " fill="#516B59" transform="translate(294,140)"/>
<path d="M0 0 C2.31 0 4.62 0 7 0 C7.38218767 1.65614657 7.71395102 3.32457024 8 5 C7 6 7 6 4.4375 6.0625 C3.2309375 6.0315625 3.2309375 6.0315625 2 6 C2 7.32 2 8.64 2 10 C1.34 10 0.68 10 0 10 C0 6.7 0 3.4 0 0 Z " fill="#82855D" transform="translate(368,297)"/>
<path d="M0 0 C2 0 2 0 4.125 2 C4.74375 2.66 5.3625 3.32 6 4 C6.99 2.68 7.98 1.36 9 0 C9.66 0.33 10.32 0.66 11 1 C10.67 3.97 10.34 6.94 10 10 C9.34 10 8.68 10 8 10 C7.67 8.68 7.34 7.36 7 6 C6.01 6 5.02 6 4 6 C3.67 5.67 3.34 5.34 3 5 C2.67 6.65 2.34 8.3 2 10 C1.34 10 0.68 10 0 10 C0 6.7 0 3.4 0 0 Z " fill="#8A7A4B" transform="translate(398,297)"/>
<path d="M0 0 C0.66 0 1.32 0 2 0 C3.38232443 1.62626404 4.71937515 3.2925002 6 5 C6.33 3.35 6.66 1.7 7 0 C7.66 0 8.32 0 9 0 C9 3.3 9 6.6 9 10 C5 8 5 8 3 5 C2.67 6.65 2.34 8.3 2 10 C1.34 10 0.68 10 0 10 C0 6.7 0 3.4 0 0 Z " fill="#9D9865" transform="translate(344,297)"/>
<path d="M0 0 C3.76687864 1.88343932 4.79421646 2.69132469 7 6 C7.33 4.02 7.66 2.04 8 0 C8.66 0 9.32 0 10 0 C10 3.3 10 6.6 10 10 C6 8 6 8 4 6 C3.67 7.32 3.34 8.64 3 10 C2.34 10 1.68 10 1 10 C0.67 6.7 0.34 3.4 0 0 Z " fill="#7F6D42" transform="translate(420,297)"/>
<path d="M0 0 C0.33 0 0.66 0 1 0 C1 5.94 1 11.88 1 18 C-2.3952204 14.6047796 -2.90226321 13.31944665 -3.25 8.625 C-2.98670679 4.80724842 -2.28481311 3.0159533 0 0 Z " fill="#94713B" transform="translate(218,109)"/>
<path d="M0 0 C0.66 0 1.32 0 2 0 C2.67154933 1.28913487 3.33708859 2.58140204 4 3.875 C4.37125 4.59429687 4.7425 5.31359375 5.125 6.0546875 C6 8 6 8 6 10 C2.7 10 -0.6 10 -4 10 C-2.68 6.7 -1.36 3.4 0 0 Z " fill="#988855" transform="translate(381,297)"/>
<path d="M0 0 C2.375 -0.125 2.375 -0.125 5 0 C7 2 7 2 7.1953125 5.6953125 C7.182009 7.17200108 7.15814835 8.64862358 7.125 10.125 C7.11597656 10.87910156 7.10695312 11.63320312 7.09765625 12.41015625 C7.0740687 14.27357254 7.03819719 16.13682593 7 18 C6.34 18 5.68 18 5 18 C4.09586327 14.16275828 3.89423102 10.62497726 3.9375 6.6875 C3.94652344 5.61886719 3.95554688 4.55023438 3.96484375 3.44921875 C3.98224609 2.23685547 3.98224609 2.23685547 4 1 C2.68 0.67 1.36 0.34 0 0 Z " fill="#DACB81" transform="translate(233,94)"/>
<path d="M0 0 C1.65 0.33 3.3 0.66 5 1 C5 1.33 5 1.66 5 2 C3.35 2 1.7 2 0 2 C0 2.66 0 3.32 0 4 C0.99 4 1.98 4 3 4 C3 4.66 3 5.32 3 6 C2.01 6 1.02 6 0 6 C0 6.66 0 7.32 0 8 C1.32 7.34 2.64 6.68 4 6 C4 5.34 4 4.68 4 4 C4.99 4 5.98 4 7 4 C6.67 5.98 6.34 7.96 6 10 C3.69 10 1.38 10 -1 10 C-2.46726798 6.18510326 -1.43336419 3.70988378 0 0 Z " fill="#C7C686" transform="translate(286,297)"/>
<path d="M0 0 C0.99 0 1.98 0 3 0 C3 5.28 3 10.56 3 16 C2.01 16 1.02 16 0 16 C0 10.72 0 5.44 0 0 Z " fill="#BC9C59" transform="translate(318,103)"/>
<path d="M0 0 C2.32947183 2.11770166 3.88750845 4.03335588 5 7 C4.67 7.99 4.34 8.98 4 10 C1.36 10 -1.28 10 -4 10 C-2.8905928 6.51329166 -1.73662334 3.22515763 0 0 Z " fill="#A6AC78" transform="translate(224,297)"/>
<path d="M0 0 C0.66 0 1.32 0 2 0 C3.32 3.3 4.64 6.6 6 10 C2.7 10 -0.6 10 -4 10 C-2.68 6.7 -1.36 3.4 0 0 Z " fill="#A29058" transform="translate(157,297)"/>
<path d="M0 0 C4.875 4.625 4.875 4.625 6 8 C5.0625 11.1875 5.0625 11.1875 4 14 C2.68 13.34 1.36 12.68 0 12 C0 8.04 0 4.08 0 0 Z " fill="#E2D68A" transform="translate(235,126)"/>
<path d="M0 0 C1.67542976 0.28604898 3.34385343 0.61781233 5 1 C4.67 1.66 4.34 2.32 4 3 C2.68 2.67 1.36 2.34 0 2 C0 2.66 0 3.32 0 4 C1.65 4 3.3 4 5 4 C5.38218767 5.65614657 5.71395102 7.32457024 6 9 C5 10 5 10 1.9375 10.0625 C0.968125 10.041875 -0.00125 10.02125 -1 10 C-1.33 9.34 -1.66 8.68 -2 8 C-0.02 8 1.96 8 4 8 C4 7.34 4 6.68 4 6 C2.35 5.67 0.7 5.34 -1 5 C-1 1 -1 1 0 0 Z " fill="#786238" transform="translate(443,297)"/>
<path d="M0 0 C0.99 0 1.98 0 3 0 C3 4.95 3 9.9 3 15 C2.01 15 1.02 15 0 15 C0 10.05 0 5.1 0 0 Z " fill="#C2A560" transform="translate(332,141)"/>
<path d="M0 0 C0.99 0 1.98 0 3 0 C3 4.95 3 9.9 3 15 C2.01 15 1.02 15 0 15 C0 10.05 0 5.1 0 0 Z " fill="#DCCA7F" transform="translate(325,141)"/>
<path d="M0 0 C0.99 0 1.98 0 3 0 C3 4.95 3 9.9 3 15 C2.01 15 1.02 15 0 15 C0 10.05 0 5.1 0 0 Z " fill="#CEB56D" transform="translate(308,141)"/>
<path d="M0 0 C0.99 0.495 0.99 0.495 2 1 C3.35088173 5.05264518 3.223454 8.81845796 3.25 13.0625 C3.270625 13.89072266 3.29125 14.71894531 3.3125 15.57226562 C3.31765625 16.36439453 3.3228125 17.15652344 3.328125 17.97265625 C3.3374707 18.69718994 3.34681641 19.42172363 3.35644531 20.16821289 C3.23881836 20.77270264 3.12119141 21.37719238 3 22 C2.01 22.66 1.02 23.32 0 24 C0 16.08 0 8.16 0 0 Z " fill="#A78245" transform="translate(247,134)"/>
<path d="M0 0 C0.99 0.33 1.98 0.66 3 1 C6.03261434 7.2424594 7.84683971 13.22825438 6 20 C5.67 20 5.34 20 5 20 C4.35220924 17.60468067 3.70670991 15.20878252 3.0625 12.8125 C2.88009766 12.13896484 2.69769531 11.46542969 2.50976562 10.77148438 C1.5511642 7.19851542 0.67116718 3.63843262 0 0 Z " fill="#46675B" transform="translate(289,104)"/>
<path d="M0 0 C2.64465038 3.1254959 3.84414715 6.08788267 5 10 C2.03 10 -0.94 10 -4 10 C-2.8905928 6.51329166 -1.73662334 3.22515763 0 0 Z " fill="#879169" transform="translate(337,297)"/>
<path d="M0 0 C2.31 0 4.62 0 7 0 C7 0.66 7 1.32 7 2 C5.35 2 3.7 2 2 2 C2 2.66 2 3.32 2 4 C3.32 4 4.64 4 6 4 C6 4.66 6 5.32 6 6 C4.68 6 3.36 6 2 6 C2 6.99 2 7.98 2 9 C3.65 9 5.3 9 7 9 C7 9.33 7 9.66 7 10 C4.69 10 2.38 10 0 10 C0 6.7 0 3.4 0 0 Z " fill="#877446" transform="translate(411,297)"/>
<path d="M0 0 C3.76687864 1.88343932 4.79421646 2.69132469 7 6 C7.33 4.02 7.66 2.04 8 0 C8.33 0 8.66 0 9 0 C9 3.3 9 6.6 9 10 C7.35 8.68 5.7 7.36 4 6 C3.67 7.32 3.34 8.64 3 10 C2.34 10 1.68 10 1 10 C0.67 6.7 0.34 3.4 0 0 Z " fill="#8E7A48" transform="translate(122,297)"/>
<path d="M0 0 C2.00720923 0.28674418 4.0085944 0.61866701 6 1 C6 1.33 6 1.66 6 2 C4.35 2 2.7 2 1 2 C1 2.66 1 3.32 1 4 C2.65 4.33 4.3 4.66 6 5 C6 6.32 6 7.64 6 9 C5 10 5 10 2.4375 10.0625 C1.633125 10.041875 0.82875 10.02125 0 10 C-0.33 9.34 -0.66 8.68 -1 8 C0.65 8 2.3 8 4 8 C4.33 7.34 4.66 6.68 5 6 C3.35 6 1.7 6 0 6 C-0.38218767 4.34385343 -0.71395102 2.67542976 -1 1 C-0.67 0.67 -0.34 0.34 0 0 Z " fill="#B3AF74" transform="translate(316,297)"/>
<path d="M0 0 C2.31 0 4.62 0 7 0 C7 0.66 7 1.32 7 2 C5.35 2 3.7 2 2 2 C2 2.66 2 3.32 2 4 C2.99 4 3.98 4 5 4 C5 4.66 5 5.32 5 6 C3.68 6 2.36 6 1 6 C1 6.99 1 7.98 1 9 C2.98 9 4.96 9 7 9 C7 9.33 7 9.66 7 10 C4.69 10 2.38 10 0 10 C0 6.7 0 3.4 0 0 Z " fill="#897342" transform="translate(113,297)"/>
<path d="M0 0 C1.2065625 0.0309375 1.2065625 0.0309375 2.4375 0.0625 C2.81968767 1.71864657 3.15145102 3.38707024 3.4375 5.0625 C2.4375 6.0625 2.4375 6.0625 -0.125 6.125 C-1.3315625 6.0940625 -1.3315625 6.0940625 -2.5625 6.0625 C-2.94468767 4.40635343 -3.27645102 2.73792976 -3.5625 1.0625 C-2.5625 0.0625 -2.5625 0.0625 0 0 Z " fill="#266363" transform="translate(256.5625,298.9375)"/>
<path d="M0 0 C2.31 0 4.62 0 7 0 C7 0.66 7 1.32 7 2 C5.35 2 3.7 2 2 2 C2 2.66 2 3.32 2 4 C2.99 4 3.98 4 5 4 C5 4.66 5 5.32 5 6 C3.68 6 2.36 6 1 6 C1 6.99 1 7.98 1 9 C2.98 9 4.96 9 7 9 C7 9.33 7 9.66 7 10 C4.69 10 2.38 10 0 10 C0 6.7 0 3.4 0 0 Z " fill="#ACA269" transform="translate(187,297)"/>
<path d="M0 0 C2 2 2 2 2.1953125 4.6015625 C2.17210937 5.59929687 2.14890625 6.59703125 2.125 7.625 C2.10695313 8.62789062 2.08890625 9.63078125 2.0703125 10.6640625 C2.03550781 11.82035156 2.03550781 11.82035156 2 13 C0.35 13 -1.3 13 -3 13 C-2.01 8.71 -1.02 4.42 0 0 Z " fill="#956F38" transform="translate(296,143)"/>
<path d="M0 0 C1.32 0.66 2.64 1.32 4 2 C3.67 2.33 3.34 2.66 3 3 C2.76712992 4.68183948 2.58735834 6.3712416 2.4375 8.0625 C2.31181641 9.44115234 2.31181641 9.44115234 2.18359375 10.84765625 C2.12300781 11.55792969 2.06242188 12.26820313 2 13 C1.01 12.34 0.02 11.68 -1 11 C-1.328125 8.65234375 -1.328125 8.65234375 -1.25 5.9375 C-1.23453125 5.03902344 -1.2190625 4.14054687 -1.203125 3.21484375 C-1 1 -1 1 0 0 Z " fill="#D7C77E" transform="translate(229,123)"/>
<path d="M0 0 C2.31 0 4.62 0 7 0 C6.40072174 3.35595828 5.15377564 5.37801226 3 8 C4.65 8.33 6.3 8.66 8 9 C8 9.33 8 9.66 8 10 C5.36 10 2.72 10 0 10 C1.07401108 7.08482708 1.77810176 5.22189824 4 3 C2.68 2.67 1.36 2.34 0 2 C0 1.34 0 0.68 0 0 Z " fill="#AD9F64" transform="translate(177,297)"/>
<path d="M0 0 C0.99 0.33 1.98 0.66 3 1 C3 3.31 3 5.62 3 8 C3.33 8 3.66 8 4 8 C4 11.3 4 14.6 4 18 C3.67 18 3.34 18 3 18 C3 16.02 3 14.04 3 12 C2.01 11.67 1.02 11.34 0 11 C0 7.37 0 3.74 0 0 Z " fill="#C2AB68" transform="translate(224,149)"/>
<path d="M0 0 C0.94875 0.04125 1.8975 0.0825 2.875 0.125 C1.555 0.455 0.235 0.785 -1.125 1.125 C-1.125 4.095 -1.125 7.065 -1.125 10.125 C-1.785 10.125 -2.445 10.125 -3.125 10.125 C-5.27415785 6.90126323 -5.50786803 5.85796326 -5.125 2.125 C-3.125 0.125 -3.125 0.125 0 0 Z " fill="#96723B" transform="translate(220.125,146.875)"/>
<path d="M0 0 C1.32 0.33 2.64 0.66 4 1 C3.67 1.66 3.34 2.32 3 3 C2.77049681 5.204364 2.58924067 7.41392173 2.4375 9.625 C2.35371094 10.81351563 2.26992188 12.00203125 2.18359375 13.2265625 C2.12300781 14.14179688 2.06242187 15.05703125 2 16 C1.34 16 0.68 16 0 16 C0 10.72 0 5.44 0 0 Z " fill="#866635" transform="translate(297,122)"/>
<path d="M0 0 C1.98 0 3.96 0 6 0 C6.33 0.66 6.66 1.32 7 2 C5.02 2 3.04 2 1 2 C1 2.99 1 3.98 1 5 C1.763125 4.896875 2.52625 4.79375 3.3125 4.6875 C4.199375 4.790625 5.08625 4.89375 6 5 C7.8125 7.5 7.8125 7.5 9 10 C7.68 9.67 6.36 9.34 5 9 C5 8.01 5 7.02 5 6 C3.68 6 2.36 6 1 6 C0.67 7.32 0.34 8.64 0 10 C0 6.7 0 3.4 0 0 Z " fill="#CCCA87" transform="translate(241,297)"/>
<path d="M0 0 C2.64 0 5.28 0 8 0 C8 0.66 8 1.32 8 2 C7.01 2 6.02 2 5 2 C5 4.64 5 7.28 5 10 C4.34 10 3.68 10 3 10 C3 7.36 3 4.72 3 2 C2.01 2 1.02 2 0 2 C0 1.34 0 0.68 0 0 Z " fill="#A4A36F" transform="translate(324,297)"/>
<path d="M0 0 C2.64 0 5.28 0 8 0 C8 0.66 8 1.32 8 2 C7.01 2 6.02 2 5 2 C5 4.64 5 7.28 5 10 C4.34 10 3.68 10 3 10 C3 7.36 3 4.72 3 2 C2.01 2 1.02 2 0 2 C0 1.34 0 0.68 0 0 Z " fill="#989261" transform="translate(355,297)"/>
<path d="M0 0 C2.475 0.495 2.475 0.495 5 1 C4.67 2.65 4.34 4.3 4 6 C2.68 6.33 1.36 6.66 0 7 C0 4.69 0 2.38 0 0 Z " fill="#205B5A" transform="translate(84,299)"/>
<path d="M0 0 C1.98 0.99 1.98 0.99 4 2 C4 5.96 4 9.92 4 14 C2.68 13.34 1.36 12.68 0 12 C0.37125 10.948125 0.7425 9.89625 1.125 8.8125 C2.04276246 4.81367786 1.91384609 3.50871784 0 0 Z " fill="#CEBB75" transform="translate(238,128)"/>
<path d="M0 0 C1.32 0 2.64 0 4 0 C4.33 4.62 4.66 9.24 5 14 C3.40964498 10.81928996 2.35151732 8.12342347 1.375 4.75 C0.98441406 3.41195312 0.98441406 3.41195312 0.5859375 2.046875 C0.39257812 1.37140625 0.19921875 0.6959375 0 0 Z " fill="#9B773F" transform="translate(291,103)"/>
<path d="M0 0 C1.32 0 2.64 0 4 0 C4.33 1.65 4.66 3.3 5 5 C3.35 5.33 1.7 5.66 0 6 C0 4.02 0 2.04 0 0 Z " fill="#276261" transform="translate(199,299)"/>
<path d="M0 0 C2.97 0 5.94 0 9 0 C9 0.66 9 1.32 9 2 C7.68 2 6.36 2 5 2 C5 4.64 5 7.28 5 10 C4.67 10 4.34 10 4 10 C4 7.36 4 4.72 4 2 C2.68 2 1.36 2 0 2 C0 1.34 0 0.68 0 0 Z " fill="#81683A" transform="translate(431,297)"/>
<path d="M0 0 C2.97 0 5.94 0 9 0 C9 0.66 9 1.32 9 2 C7.68 2 6.36 2 5 2 C5 4.64 5 7.28 5 10 C4.67 10 4.34 10 4 10 C4 7.36 4 4.72 4 2 C2.68 2 1.36 2 0 2 C0 1.34 0 0.68 0 0 Z " fill="#91804E" transform="translate(133,297)"/>
<path d="M0 0 C1.32 0.99 2.64 1.98 4 3 C3.6875 4.875 3.6875 4.875 3 7 C2.01 7.66 1.02 8.32 0 9 C0 6.03 0 3.06 0 0 Z " fill="#946F38" transform="translate(250,108)"/>
<path d="M0 0 C2.31 0 4.62 0 7 0 C6.67 1.32 6.34 2.64 6 4 C3.03 3.505 3.03 3.505 0 3 C0 2.01 0 1.02 0 0 Z " fill="#6D8A6C" transform="translate(212,299)"/>
<path d="M0 0 C2.31 0 4.62 0 7 0 C6.67 1.32 6.34 2.64 6 4 C3.03 3.505 3.03 3.505 0 3 C0 2.01 0 1.02 0 0 Z " fill="#6A8D72" transform="translate(242,299)"/>
<path d="M0 0 C0.99 1.32 1.98 2.64 3 4 C2.67 4.66 2.34 5.32 2 6 C1.34 5.67 0.68 5.34 0 5 C-0.66 6.65 -1.32 8.3 -2 10 C-2.66 10 -3.32 10 -4 10 C-2.8905928 6.51329166 -1.73662334 3.22515763 0 0 Z " fill="#B6A96C" transform="translate(337,297)"/>
<path d="M0 0 C0.66 0 1.32 0 2 0 C3.0625 2.375 3.0625 2.375 4 5 C3.67 5.66 3.34 6.32 3 7 C2.01 7 1.02 7 0 7 C-0.93423645 3.98968256 -1.04449911 3.13349732 0 0 Z " fill="#747D5A" transform="translate(381,297)"/>
<path d="M0 0 C0.33 0 0.66 0 1 0 C1.33 3.3 1.66 6.6 2 10 C1.01 10.33 0.02 10.66 -1 11 C-1.0270043 9.54176788 -1.04639787 8.08339325 -1.0625 6.625 C-1.07410156 5.81289062 -1.08570313 5.00078125 -1.09765625 4.1640625 C-1 2 -1 2 0 0 Z " fill="#CFB770" transform="translate(227,105)"/>
<path d="M0 0 C0.99 0.99 1.98 1.98 3 3 C2.34 5.31 1.68 7.62 1 10 C0.34 9.67 -0.32 9.34 -1 9 C-0.67 6.03 -0.34 3.06 0 0 Z " fill="#DCCA7F" transform="translate(238,130)"/>
<path d="M0 0 C0.99 0 1.98 0 3 0 C2.67 1.98 2.34 3.96 2 6 C-0.97 5.505 -0.97 5.505 -4 5 C-3.34 4.54625 -2.68 4.0925 -2 3.625 C-1.34 3.08875 -0.68 2.5525 0 2 C0 1.34 0 0.68 0 0 Z " fill="#B3B880" transform="translate(290,301)"/>
<path d="M0 0 C0.66 0 1.32 0 2 0 C2.66 1.65 3.32 3.3 4 5 C2.35 5 0.7 5 -1 5 C-0.67 3.35 -0.34 1.7 0 0 Z " fill="#687A5B" transform="translate(157,301)"/>
</svg>
