<?xml version="1.0" encoding="UTF-8"?>
<svg version="1.1" xmlns="http://www.w3.org/2000/svg" width="567" height="418">
<path d="M0 0 C187.11 0 374.22 0 567 0 C567 137.94 567 275.88 567 418 C379.89 418 192.78 418 0 418 C0 280.06 0 142.12 0 0 Z " fill="#FEFEFE" transform="translate(0,0)"/>
<path d="M0 0 C9.20946354 6.72583937 13.47463238 14.361957 16.08203125 25.265625 C17.56567835 40.10209602 13.52947461 49.18820996 5.39453125 61.390625 C17.93453125 61.390625 30.47453125 61.390625 43.39453125 61.390625 C43.39453125 64.360625 43.39453125 67.330625 43.39453125 70.390625 C42.39453125 71.390625 42.39453125 71.390625 40.26219177 71.51087952 C39.32287308 71.50865891 38.38355438 71.50643829 37.41577148 71.50415039 C36.35474716 71.50407486 35.29372284 71.50399933 34.20054626 71.50392151 C33.04639725 71.49876022 31.89224823 71.49359894 30.703125 71.48828125 C29.52814957 71.4868663 28.35317413 71.48545135 27.14259338 71.48399353 C23.37238061 71.47837492 19.60222621 71.46581926 15.83203125 71.453125 C13.28320398 71.4481124 10.73437578 71.44354908 8.18554688 71.43945312 C1.92185492 71.42839944 -4.34180274 71.41164321 -10.60546875 71.390625 C-8.60546875 70.05729167 -6.60546875 68.72395833 -4.60546875 67.390625 C-5.62640625 67.84115234 -5.62640625 67.84115234 -6.66796875 68.30078125 C-17.24364 72.44948207 -27.83674934 72.79704679 -38.30737305 68.265625 C-48.83164856 63.1442396 -55.42349525 55.23144901 -59.60546875 44.390625 C-61.94800291 35.48599195 -62.02512353 24.06856783 -57.984375 15.69140625 C-51.70620808 5.21593794 -43.01595357 -2.77838374 -31.03515625 -6.16796875 C-19.66556237 -8.2335059 -9.8062739 -6.05724865 0 0 Z " fill="#FBFCFD" transform="translate(295.60546875,128.609375)"/>
<path d="M0 0 C9.20946354 6.72583937 13.47463238 14.361957 16.08203125 25.265625 C17.56567835 40.10209602 13.52947461 49.18820996 5.39453125 61.390625 C17.93453125 61.390625 30.47453125 61.390625 43.39453125 61.390625 C43.39453125 64.360625 43.39453125 67.330625 43.39453125 70.390625 C42.39453125 71.390625 42.39453125 71.390625 40.26219177 71.51087952 C39.32287308 71.50865891 38.38355438 71.50643829 37.41577148 71.50415039 C36.35474716 71.50407486 35.29372284 71.50399933 34.20054626 71.50392151 C33.04639725 71.49876022 31.89224823 71.49359894 30.703125 71.48828125 C29.52814957 71.4868663 28.35317413 71.48545135 27.14259338 71.48399353 C23.37238061 71.47837492 19.60222621 71.46581926 15.83203125 71.453125 C13.28320398 71.4481124 10.73437578 71.44354908 8.18554688 71.43945312 C1.92185492 71.42839944 -4.34180274 71.41164321 -10.60546875 71.390625 C-8.60546875 70.05729167 -6.60546875 68.72395833 -4.60546875 67.390625 C-5.62640625 67.84115234 -5.62640625 67.84115234 -6.66796875 68.30078125 C-17.24364 72.44948207 -27.83674934 72.79704679 -38.30737305 68.265625 C-48.83164856 63.1442396 -55.42349525 55.23144901 -59.60546875 44.390625 C-61.94800291 35.48599195 -62.02512353 24.06856783 -57.984375 15.69140625 C-51.70620808 5.21593794 -43.01595357 -2.77838374 -31.03515625 -6.16796875 C-19.66556237 -8.2335059 -9.8062739 -6.05724865 0 0 Z M-48.60546875 10.390625 C-54.88823634 19.74256066 -57.34867523 28.02295454 -55.60546875 39.390625 C-52.50236221 50.62960751 -47.08529696 57.32790497 -37.16796875 63.12890625 C-29.17916724 67.06241675 -21.00685282 67.85363592 -12.375 65.515625 C-2.59630146 61.74791352 4.79603517 55.9262661 9.39453125 46.390625 C12.78225756 37.90347909 12.95120414 26.98437294 9.4921875 18.44140625 C4.52397735 9.15916309 -2.5548704 2.89717554 -12.54296875 -0.484375 C-25.5247838 -3.79973084 -39.99817545 -0.45306109 -48.60546875 10.390625 Z " fill="#2379BF" transform="translate(295.60546875,128.609375)"/>
<path d="M0 0 C-0.61294922 0.29132813 -1.22589844 0.58265625 -1.85742188 0.8828125 C-4.73905745 2.25358305 -7.619525 3.62679242 -10.5 5 C-11.46292969 5.45761719 -12.42585938 5.91523438 -13.41796875 6.38671875 C-27.28789483 13.0043959 -40.94554977 19.99212225 -54.55362892 27.12916565 C-64.59427382 32.39074152 -74.66762487 37.5870577 -84.75504875 42.7583313 C-91.50976717 46.22352161 -98.24936507 49.71363532 -104.96044922 53.26269531 C-110.86430199 56.38474876 -116.79101541 59.45722077 -122.74930966 62.47415924 C-125.8868313 64.06491403 -129.00830599 65.67656767 -132.10317612 67.34899902 C-152.2669502 78.21396494 -152.2669502 78.21396494 -160.34741211 76.06765747 C-164.2241137 74.5740245 -167.62553625 72.59631256 -171.04948044 70.26012039 C-174.37035004 68.11469433 -177.9754638 66.59897589 -181.578125 64.9921875 C-183.00558836 64.31996668 -184.43157258 63.64458794 -185.85546875 62.96484375 C-190.48990761 60.76079934 -195.12739075 58.56323256 -199.765625 56.3671875 C-200.55175171 55.99478943 -201.33787842 55.62239136 -202.14782715 55.2387085 C-209.41840794 51.79671016 -216.70682691 48.39380394 -224 45 C-235.77873 39.51731851 -247.53047736 33.97883171 -259.27526855 28.42385864 C-274.49150692 21.22801522 -289.73870756 14.09974443 -305 7 C-301.21263148 5.73754383 -300.44176707 6.46814018 -296.9375 8.1875 C-292.68406368 10.25488241 -288.38776051 12.06296372 -283.9934082 13.80102539 C-280.54703283 15.1814307 -277.11994004 16.60582919 -273.6953125 18.0390625 C-273.02529205 18.31930771 -272.35527161 18.59955292 -271.66494751 18.88829041 C-270.23650853 19.48592545 -268.80812494 20.08369293 -267.37979126 20.68157959 C-250.88408457 27.58349847 -234.34577843 34.37789867 -217.78710938 41.12719727 C-208.27470721 45.00721338 -198.77642837 48.91769602 -189.30078125 52.88671875 C-187.40519339 53.6792024 -185.50960422 54.47168292 -183.61401367 55.26416016 C-180.02915331 56.76334889 -176.44790906 58.27078215 -172.8684082 59.78271484 C-171.24833386 60.4609088 -169.62814178 61.1388216 -168.0078125 61.81640625 C-167.28173294 62.12591721 -166.55565338 62.43542816 -165.80757141 62.75431824 C-158.39218914 65.8794839 -158.39218914 65.8794839 -150.66479492 64.93041992 C-149.42960298 64.37938038 -148.2018066 63.81156906 -146.98046875 63.23046875 C-145.96229568 62.76926132 -145.96229568 62.76926132 -144.92355347 62.29873657 C-142.67166882 61.27534864 -140.43001862 60.23123115 -138.1875 59.1875 C-136.59317496 58.45940879 -134.99802286 57.73312625 -133.40209961 57.00854492 C-130.88318965 55.86468059 -128.36485922 54.71968811 -125.84895325 53.56922913 C-117.16748086 49.60140246 -108.42657213 45.77344408 -99.67861938 41.95498657 C-86.13964892 36.04237722 -72.63196497 30.06568429 -59.16259766 23.99609375 C-46.29929569 18.21171609 -33.37559353 12.56473097 -20.453125 6.9140625 C-19.59082779 6.53658371 -18.72853058 6.15910492 -17.84010315 5.77018738 C-16.21512957 5.05890876 -14.58977393 4.34850214 -12.963974 3.63911438 C-12.23586014 3.32032822 -11.50774628 3.00154205 -10.75756836 2.6730957 C-10.12556015 2.39697952 -9.49355194 2.12086334 -8.84239197 1.83638 C-6.93532457 1.00464594 -6.93532457 1.00464594 -4.95265198 -0.16706848 C-3 -1 -3 -1 0 0 Z " fill="#FBA033" transform="translate(448,313)"/>
<path d="M0 0 C0.850746 0.32290512 1.701492 0.64581024 2.57801819 0.97850037 C3.4966716 1.33178909 4.41532501 1.68507782 5.36181641 2.04907227 C6.33698715 2.42052872 7.3121579 2.79198517 8.31687927 3.17469788 C11.53383217 4.40118836 14.74859975 5.63330288 17.96337891 6.86547852 C20.21154406 7.72388114 22.45983683 8.5819496 24.70825195 9.43969727 C30.52700424 11.66075353 36.34385938 13.88672966 42.15997314 16.11468506 C45.46646774 17.38127893 48.7732239 18.64718717 52.08007812 19.9128418 C60.16088955 23.00586753 68.24129944 26.09993801 76.32055664 29.19702148 C99.3748218 38.03412296 122.46174322 46.7818109 145.58837891 55.42797852 C141.47206253 57.15977914 137.99999943 55.53351543 134.02587891 54.14672852 C132.91651726 53.77331078 132.91651726 53.77331078 131.78474426 53.39234924 C129.38243858 52.5808688 126.98551842 51.75458143 124.58837891 50.92797852 C122.93852934 50.36777714 121.28838174 49.80845272 119.63793945 49.25 C110.52332689 46.15776876 101.40928889 43.04878379 92.36767578 39.74829102 C87.7475948 38.08703741 83.0708736 36.68714725 78.35400391 35.33032227 C65.95359215 31.74436753 53.72351067 27.61296189 41.46710205 23.56842041 C31.17882293 20.17414552 20.88616449 16.79330823 10.58837891 13.42797852 C9.68562225 13.13166534 8.7828656 12.83535217 7.85275269 12.53005981 C5.59763777 11.79208665 3.33992612 11.06298709 1.08056641 10.33813477 C-0.08748535 9.96052002 -1.25553711 9.58290527 -2.45898438 9.19384766 C-9.73554708 7.30641776 -15.44214435 9.64193966 -22.22802734 12.26782227 C-25.88915472 13.60199997 -29.60281174 14.67873646 -33.34912109 15.74047852 C-39.79013676 17.58118281 -46.1040218 19.67344533 -52.41162109 21.92797852 C-58.47298065 24.0931622 -64.53024274 26.11451675 -70.72412109 27.86547852 C-78.466448 30.0564238 -86.03546588 32.67054657 -93.60424805 35.3984375 C-99.18472705 37.38712642 -104.79429274 39.14513075 -110.48583984 40.77954102 C-116.58663189 42.53679557 -122.59861331 44.46882127 -128.58740234 46.57641602 C-129.34113129 46.8410968 -130.09486023 47.10577759 -130.87142944 47.378479 C-133.94697277 48.46200866 -137.02052525 49.55075563 -140.09008789 50.65112305 C-142.37765308 51.46897318 -144.66952701 52.27359608 -146.96240234 53.07641602 C-147.99981316 53.45435806 -147.99981316 53.45435806 -149.05818176 53.8399353 C-152.64517141 55.08561561 -154.79957655 55.55299457 -158.41162109 54.42797852 C-157.82694565 54.20485992 -157.2422702 53.98174133 -156.63987732 53.75186157 C-120.8694373 40.10252933 -120.8694373 40.10252933 -85.1105957 26.42285156 C-81.31921236 24.97046651 -77.5270023 23.52027161 -73.73413086 22.07177734 C-64.66308609 18.60520207 -55.60086789 15.11846017 -46.55804443 11.57881165 C-42.19012167 9.87034682 -37.81861711 8.17116007 -33.44677734 6.4727478 C-31.35674062 5.65776023 -29.26848449 4.83819005 -27.18212891 4.01382446 C-24.30200901 2.87610125 -21.41625695 1.75397653 -18.52880859 0.63500977 C-17.24947952 0.12248657 -17.24947952 0.12248657 -15.94430542 -0.40039062 C-14.75806076 -0.85502686 -14.75806076 -0.85502686 -13.54785156 -1.31884766 C-12.8657663 -1.58654465 -12.18368103 -1.85424164 -11.48092651 -2.13005066 C-7.43884208 -2.9933758 -3.75835801 -1.43623206 0 0 Z " fill="#FBA034" transform="translate(300.41162109375,37.572021484375)"/>
<path d="M0 0 C3.40759228 2.80179809 5.50767022 4.97534099 6.09713745 9.49484253 C6.22657261 12.21840568 6.25441815 14.92569454 6.24609375 17.65234375 C6.2513356 18.65205704 6.25657745 19.65177032 6.26197815 20.68177795 C6.26839066 22.79231845 6.26707135 24.90289472 6.25854492 27.01342773 C6.25003825 30.23551343 6.2788027 33.45582384 6.31054688 36.67773438 C6.31215916 38.7317703 6.31158084 40.78580936 6.30859375 42.83984375 C6.32544472 44.27915504 6.32544472 44.27915504 6.34263611 45.74754333 C6.28369695 51.42952501 5.70080284 54.8580976 1.8125 59.3125 C-2.4307447 62.1413298 -6.20484529 61.96518001 -11.1875 61.3125 C-14.84463121 59.17917346 -16.58465967 57.16917471 -18.1875 53.3125 C-18.46165466 51.08755493 -18.46165466 51.08755493 -18.49389648 48.63916016 C-18.50988388 47.71785309 -18.52587128 46.79654602 -18.54234314 45.84732056 C-18.54770584 44.8587204 -18.55306854 43.87012024 -18.55859375 42.8515625 C-18.56762222 41.82823822 -18.5766507 40.80491394 -18.58595276 39.75057983 C-18.60045161 37.58700484 -18.60934109 35.42338604 -18.61303711 33.25976562 C-18.62493239 29.95627697 -18.67412217 26.65465699 -18.72460938 23.3515625 C-18.73407403 21.24740493 -18.74130886 19.14323591 -18.74609375 17.0390625 C-18.76562607 16.0545108 -18.78515839 15.06995911 -18.80528259 14.05557251 C-18.77559638 9.524724 -18.70545663 6.3290754 -15.77368164 2.72802734 C-10.74294563 -1.97074563 -6.41001094 -3.3935352 0 0 Z " fill="#1B81C7" transform="translate(323.1875,229.6875)"/>
<path d="M0 0 C5.61 0 11.22 0 17 0 C22.71246767 5.71246767 23.15887956 6.98255973 23.203125 14.421875 C23.20882507 15.15948059 23.21452515 15.89708618 23.22039795 16.65704346 C23.22985133 18.22056646 23.23638327 19.78410941 23.24023438 21.34765625 C23.24990619 23.72692268 23.28091079 26.10531264 23.3125 28.484375 C23.3190337 30.00520322 23.32428273 31.5260376 23.328125 33.046875 C23.3404718 33.75334167 23.3528186 34.45980835 23.36553955 35.18768311 C23.34471762 39.86255672 22.43720281 43.01908525 20 47 C16.50826638 49.84511628 12.28603935 49.14286798 8 49 C8 53.29 8 57.58 8 62 C5.36 62 2.72 62 0 62 C0 41.54 0 21.08 0 0 Z " fill="#157EC5" transform="translate(338,229)"/>
<path d="M0 0 C3.96 0 7.92 0 12 0 C12.30292969 1.70800781 12.60585938 3.41601562 12.91796875 5.17578125 C13.34104376 7.55470565 13.76422945 9.93361038 14.1875 12.3125 C14.40946045 13.56313232 14.6314209 14.81376465 14.86010742 16.10229492 C16.02101485 22.61684221 17.20504059 29.12496272 18.4453125 35.625 C18.67452393 36.83244873 18.90373535 38.03989746 19.13989258 39.28393555 C19.5796824 41.59111604 20.02462053 43.89732267 20.4753418 46.20239258 C21.49388959 51.56155249 22.2724568 56.54307953 22 62 C19.36 62 16.72 62 14 62 C13.49265716 59.6263603 12.99397614 57.25142575 12.5 54.875 C12.35691406 54.20984375 12.21382813 53.5446875 12.06640625 52.859375 C11.2387717 48.83943578 10.84669342 45.10095101 11 41 C8.03 41 5.06 41 2 41 C1.855625 42.44375 1.71125 43.8875 1.5625 45.375 C1.47097656 46.27992188 1.37945312 47.18484375 1.28515625 48.1171875 C1.09719202 50.01742866 0.91731053 51.91848921 0.74609375 53.8203125 C0.66488281 54.70460938 0.58367187 55.58890625 0.5 56.5 C0.4278125 57.3146875 0.355625 58.129375 0.28125 58.96875 C0 61 0 61 -1 63 C-3.64 63 -6.28 63 -9 63 C-9.17576995 57.14366492 -8.49844896 51.59805951 -7.625 45.8125 C-7.48707031 44.87341797 -7.34914063 43.93433594 -7.20703125 42.96679688 C-6.38346578 37.40580575 -5.49599929 31.85929 -4.53515625 26.3203125 C-3.60869415 20.57219 -2.83337106 14.80082874 -2.05273438 9.03125 C-1.93091797 8.15210938 -1.80910156 7.27296875 -1.68359375 6.3671875 C-1.57587646 5.57425293 -1.46815918 4.78131836 -1.35717773 3.96435547 C-1 2 -1 2 0 0 Z " fill="#1C82C7" transform="translate(376,229)"/>
<path d="M0 0 C2.81992717 1.82120296 4.50345478 3.00690956 6 6 C6.0716735 8.55157655 6.09308442 11.07472971 6.0625 13.625 C6.05798828 14.33140625 6.05347656 15.0378125 6.04882812 15.765625 C6.03703875 17.51045275 6.01910324 19.255237 6 21 C3.36 21 0.72 21 -2 21 C-2.33 17.04 -2.66 13.08 -3 9 C-4.65 9 -6.3 9 -8 9 C-8.8298345 16.58219874 -8.0425463 21.19398689 -3.42773438 27.31640625 C-2.81220703 28.07824219 -2.19667969 28.84007812 -1.5625 29.625 C-0.64500977 30.82576172 -0.64500977 30.82576172 0.29101562 32.05078125 C2.99727111 35.65222883 2.99727111 35.65222883 6 39 C6.18098107 41.93129989 6.27823019 44.81650407 6.3125 47.75 C6.34150391 48.56210937 6.37050781 49.37421875 6.40039062 50.2109375 C6.44376872 54.30849888 6.34780745 56.44307241 4.12890625 59.99609375 C0.93819562 62.9994599 -1.63360955 63.82556718 -5.9375 64.375 C-9.92155509 63.88715652 -11.91524186 62.5363567 -15 60 C-18.00236382 55.99684824 -18.33749711 53.1374047 -18.1875 48.1875 C-18.16042969 47.02605469 -18.13335937 45.86460937 -18.10546875 44.66796875 C-18.07066406 43.78753906 -18.03585938 42.90710938 -18 42 C-15.03 42 -12.06 42 -9 42 C-8.67 45.96 -8.34 49.92 -8 54 C-6.35 54 -4.7 54 -3 54 C-2.18300734 46.45394251 -2.93429451 41.83249922 -7.5234375 35.73242188 C-8.13445312 34.97509766 -8.74546875 34.21777344 -9.375 33.4375 C-9.97828125 32.64537109 -10.5815625 31.85324219 -11.203125 31.03710938 C-13.36299202 28.22208269 -15.48967725 25.51032275 -18 23 C-18.3359375 19.734375 -18.3359375 19.734375 -18.375 15.75 C-18.40335938 14.44546875 -18.43171875 13.1409375 -18.4609375 11.796875 C-17.82634058 6.56951728 -15.70963091 3.51424452 -11.8125 0.0625 C-7.69925071 -1.49139418 -4.21126935 -1.14436667 0 0 Z " fill="#1B81C7" transform="translate(165,228)"/>
<path d="M0 0 C6.93 0 13.86 0 21 0 C21 2.97 21 5.94 21 9 C16.71 9 12.42 9 8 9 C8 13.29 8 17.58 8 22 C11.96 22 15.92 22 20 22 C20 24.64 20 27.28 20 30 C16.04 30 12.08 30 8 30 C8 38.25 8 46.5 8 55 C12.29 55 16.58 55 21 55 C21 57.97 21 60.94 21 64 C14.07 64 7.14 64 0 64 C0 42.88 0 21.76 0 0 Z " fill="#1B81C6" transform="translate(217,228)"/>
<path d="M0 0 C2.05078125 0.03255208 4.1015625 0.06510417 6.15234375 0.09765625 C4.9406438 7.62104701 2.79926069 14.73959686 0.46875 21.97265625 C0.15442017 22.97159912 0.15442017 22.97159912 -0.16625977 23.99072266 C-0.63478138 25.43942976 -1.13180482 26.87912949 -1.65209961 28.31005859 C-4.19247648 35.72896635 -4.3947053 42.9296349 -4.53515625 50.72265625 C-4.56931641 52.01300781 -4.60347656 53.30335938 -4.63867188 54.6328125 C-4.72046457 57.78767342 -4.78983857 60.94228035 -4.84765625 64.09765625 C-7.81765625 64.09765625 -10.78765625 64.09765625 -13.84765625 64.09765625 C-13.8412915 63.38037354 -13.83492676 62.66309082 -13.82836914 61.92407227 C-13.78359352 44.84827858 -15.79801558 30.04870998 -21.04248047 13.81542969 C-22.28425989 9.62395349 -23.0684166 5.39717956 -23.84765625 1.09765625 C-20.87765625 1.09765625 -17.90765625 1.09765625 -14.84765625 1.09765625 C-14.49832031 2.38542969 -14.14898437 3.67320312 -13.7890625 5 C-13.32960303 6.67843359 -12.86995803 8.3568164 -12.41015625 10.03515625 C-12.18005859 10.88529297 -11.94996094 11.73542969 -11.71289062 12.61132812 C-11.49052734 13.42021484 -11.26816406 14.22910156 -11.0390625 15.0625 C-10.83482666 15.81136475 -10.63059082 16.56022949 -10.42016602 17.33178711 C-9.99373826 19.10309547 -9.99373826 19.10309547 -8.84765625 20.09765625 C-8.67113525 19.52732666 -8.49461426 18.95699707 -8.31274414 18.36938477 C-7.51510426 15.79862895 -6.71269631 13.22938632 -5.91015625 10.66015625 C-5.63236328 9.76232422 -5.35457031 8.86449219 -5.06835938 7.93945312 C-4.80087891 7.08544922 -4.53339844 6.23144531 -4.2578125 5.3515625 C-4.01168213 4.56080322 -3.76555176 3.77004395 -3.51196289 2.95532227 C-2.50242913 0.1322637 -2.50242913 0.1322637 0 0 Z " fill="#1D82C7" transform="translate(431.84765625,227.90234375)"/>
<path d="M0 0 C9.9 0 19.8 0 30 0 C30 2.64 30 5.28 30 8 C26.7 8 23.4 8 20 8 C20 26.15 20 44.3 20 63 C17.03 63 14.06 63 11 63 C11 44.85 11 26.7 11 8 C7.37 8 3.74 8 0 8 C0 5.36 0 2.72 0 0 Z " fill="#1E83C7" transform="translate(178,229)"/>
<path d="M0 0 C2.97 0 5.94 0 9 0 C9 18.15 9 36.3 9 55 C12.96 55 16.92 55 21 55 C21 57.97 21 60.94 21 64 C14.07 64 7.14 64 0 64 C0 42.88 0 21.76 0 0 Z " fill="#2788CA" transform="translate(246,228)"/>
<path d="M0 0 C2.64 0 5.28 0 8 0 C8 18.15 8 36.3 8 55 C11.96 55 15.92 55 20 55 C20 57.64 20 60.28 20 63 C13.4 63 6.8 63 0 63 C0 42.21 0 21.42 0 0 Z " fill="#157EC5" transform="translate(276,228)"/>
<path d="M0 0 C1.67542976 0.28604898 3.34385343 0.61781233 5 1 C5.33 2.65 5.66 4.3 6 6 C6.94875 6.226875 7.8975 6.45375 8.875 6.6875 C12 8 12 8 13.375 10.625 C13.58125 11.40875 13.7875 12.1925 14 13 C11 15 11 15 8.9375 14.75 C7 14 7 14 5 12 C2.5 11.66666667 2.5 11.66666667 0 12 C-0.66 12.66 -1.32 13.32 -2 14 C-2.08100212 16.00362667 -2.08100212 16.00362667 -1 18 C1.394199 19.83917389 1.394199 19.83917389 4.3125 21.4375 C8.45787172 23.82288747 11.36576123 25.95500776 14 30 C14.4745474 32.86328037 13.99285168 35.28242313 13 38 C10.625 40.5 10.625 40.5 8 42 C7.01 42 6.02 42 5 42 C5.020625 42.804375 5.04125 43.60875 5.0625 44.4375 C5 47 5 47 4 48 C2.00041636 48.04080783 -0.00045254 48.04254356 -2 48 C-2.20625 47.2575 -2.4125 46.515 -2.625 45.75 C-4.39232753 42.21534495 -6.74578288 41.14639853 -10 39 C-11 36.875 -11 36.875 -11 35 C-10.34 34.34 -9.68 33.68 -9 33 C-5.70285207 33.32971479 -4.3773161 33.6226839 -2 36 C1.59679066 35.67673447 1.59679066 35.67673447 5 35 C4.9561697 32.63352046 4.9561697 32.63352046 4 30 C1.3336772 27.76005413 1.3336772 27.76005413 -1.9375 25.875 C-7.81867025 22.27199463 -7.81867025 22.27199463 -10 19 C-10.66083304 13.87854393 -10.66083304 13.87854393 -10 11 C-8.1946846 8.68520909 -6.53150423 7.62016271 -4 6 C-3.34 6 -2.68 6 -2 6 C-1.855625 5.195625 -1.71125 4.39125 -1.5625 3.5625 C-1 1 -1 1 0 0 Z " fill="#1E7AC1" transform="translate(272,137)"/>
<path d="M0 0 C0.83920486 0.0028299 1.67840973 0.00565979 2.54304504 0.00857544 C5.22285228 0.01976865 7.90232506 0.04487149 10.58203125 0.0703125 C12.39908371 0.08034342 14.21614142 0.08946907 16.03320312 0.09765625 C20.487108 0.11970516 24.94076292 0.15422899 29.39453125 0.1953125 C29.42142341 1.67438142 29.44087746 3.15358733 29.45703125 4.6328125 C29.46863281 5.45652344 29.48023438 6.28023437 29.4921875 7.12890625 C29.39453125 9.1953125 29.39453125 9.1953125 28.39453125 10.1953125 C26.73714682 10.28878165 25.07578481 10.31276227 23.41577148 10.30883789 C22.35474716 10.30876236 21.29372284 10.30868683 20.20054626 10.30860901 C18.46932274 10.30086708 18.46932274 10.30086708 16.703125 10.29296875 C15.52814957 10.2915538 14.35317413 10.29013885 13.14259338 10.28868103 C9.37238061 10.28306242 5.60222621 10.27050676 1.83203125 10.2578125 C-0.71679602 10.2527999 -3.26562422 10.24823658 -5.81445312 10.24414062 C-12.07814508 10.23308694 -18.34180274 10.21633071 -24.60546875 10.1953125 C-21.1341117 7.88107447 -17.56476643 5.76632302 -13.98046875 3.6328125 C-8.91043787 0.5641096 -5.88882991 -0.07452052 0 0 Z " fill="#147EC6" transform="translate(309.60546875,189.8046875)"/>
<path d="M0 0 C1.71416077 0.00094672 3.42851019 0.03466732 5.14160156 0.09521484 C6.49816864 0.10794937 6.49816864 0.10794937 7.88214111 0.12094116 C10.76672213 0.1544915 13.64849277 0.22977159 16.53222656 0.30615234 C18.4892174 0.33624994 20.44625212 0.3636261 22.40332031 0.38818359 C27.19736958 0.45428803 31.98932188 0.55781948 36.78222656 0.68115234 C36.80911872 2.16022126 36.82857278 3.63942717 36.84472656 5.11865234 C36.85632813 5.94236328 36.86792969 6.76607422 36.87988281 7.61474609 C36.78222656 9.68115234 36.78222656 9.68115234 35.78222656 10.68115234 C34.3393287 10.7741105 32.89192872 10.79861747 31.44604492 10.79467773 C30.06472633 10.79456444 30.06472633 10.79456444 28.65550232 10.79444885 C27.65446976 10.78928757 26.65343719 10.78412628 25.62207031 10.77880859 C24.60246719 10.77739365 23.58286407 10.7759787 22.53236389 10.77452087 C19.26145549 10.76890331 15.99061443 10.75634784 12.71972656 10.74365234 C10.50813901 10.73863961 8.29655038 10.73407631 6.08496094 10.72998047 C0.65069299 10.71892818 -4.78353541 10.70217297 -10.21777344 10.68115234 C-9.91953674 10.08742828 -9.62130005 9.49370422 -9.31402588 8.88198853 C-8.41904979 7.08523472 -7.54527008 5.27793593 -6.67773438 3.46777344 C-4.01241987 0.44852972 -3.74539693 0.26399937 0 0 Z " fill="#1577C0" transform="translate(314.2177734375,177.31884765625)"/>
<path d="M0 0 C5.25105442 -0.02464928 10.50207545 -0.04283568 15.75317383 -0.05493164 C17.54094021 -0.05997218 19.32870245 -0.06680454 21.11645508 -0.07543945 C23.68051168 -0.0875173 26.24451397 -0.09323094 28.80859375 -0.09765625 C29.6127623 -0.10281754 30.41693085 -0.10797882 31.24546814 -0.11329651 C33.16401715 -0.11349215 35.08245368 -0.06201983 37 0 C38 1 38 1 38.1328125 3.03125 C38.13023437 3.8459375 38.12765625 4.660625 38.125 5.5 C38.12886719 6.72203125 38.12886719 6.72203125 38.1328125 7.96875 C38 10 38 10 37 11 C34.26105915 11.08858646 31.5474673 11.11523479 28.80859375 11.09765625 C27.98875504 11.0962413 27.16891632 11.09482635 26.32423401 11.09336853 C23.69528618 11.08775289 21.06642227 11.07519779 18.4375 11.0625 C16.65950643 11.05748701 14.88151154 11.05292376 13.10351562 11.04882812 C8.73564455 11.03777839 4.36783652 11.02050331 0 11 C0 7.37 0 3.74 0 0 Z " fill="#237AC0" transform="translate(313,154)"/>
<path d="M0 0 C4.39656173 -0.02465504 8.7930872 -0.04283842 13.18969727 -0.05493164 C14.68644918 -0.05997121 16.18319616 -0.06680287 17.67993164 -0.07543945 C19.82699807 -0.08752159 21.97399962 -0.09323191 24.12109375 -0.09765625 C26.06133423 -0.10551147 26.06133423 -0.10551147 28.04077148 -0.11352539 C31 0 31 0 32 1 C32 3.97 32 6.94 32 10 C20.78 10 9.56 10 -2 10 C-1.34 6.7 -0.68 3.4 0 0 Z " fill="#1676BF" transform="translate(313,166)"/>
<path d="M0 0 C1.65 0.33 3.3 0.66 5 1 C5 15.52 5 30.04 5 45 C2.525 45.495 2.525 45.495 0 46 C-2.37046531 43.62953469 -2.25183138 43.16595828 -2.25878906 39.94921875 C-2.26509338 39.11495361 -2.27139771 38.28068848 -2.27789307 37.42114258 C-2.2738446 36.51904053 -2.26979614 35.61693848 -2.265625 34.6875 C-2.26753845 33.76283936 -2.2694519 32.83817871 -2.27142334 31.88549805 C-2.27278566 29.92854541 -2.26908596 27.97158376 -2.26074219 26.01464844 C-2.25004334 23.0121641 -2.26063591 20.01027813 -2.2734375 17.0078125 C-2.27211591 15.10937367 -2.26955354 13.21093522 -2.265625 11.3125 C-2.26967346 10.41039795 -2.27372192 9.5082959 -2.27789307 8.57885742 C-2.27158875 7.74459229 -2.26528442 6.91032715 -2.25878906 6.05078125 C-2.25719788 5.31512939 -2.25560669 4.57947754 -2.25396729 3.8215332 C-2 2 -2 2 0 0 Z " fill="#F0F6FB" transform="translate(315,237)"/>
<path d="M0 0 C1.98 0 3.96 0 6 0 C7.90849948 1.90849948 7.13059633 5.31478774 7.1328125 7.84375 C7.13376923 8.52804077 7.13472595 9.21233154 7.13571167 9.9173584 C7.1363933 11.36661877 7.13454023 12.81588218 7.13037109 14.26513672 C7.12502252 16.49062928 7.1303166 18.71592001 7.13671875 20.94140625 C7.13605797 22.34635461 7.1347768 23.75130285 7.1328125 25.15625 C7.13168457 26.44337891 7.13055664 27.73050781 7.12939453 29.05664062 C7 32 7 32 6 33 C4.02 33 2.04 33 0 33 C0 22.11 0 11.22 0 0 Z " fill="#F3F8FC" transform="translate(346,237)"/>
<path d="M0 0 C3.64581687 -0.02887512 7.29160463 -0.04675585 10.9375 -0.0625 C12.49887695 -0.07506836 12.49887695 -0.07506836 14.09179688 -0.08789062 C15.57583008 -0.09272461 15.57583008 -0.09272461 17.08984375 -0.09765625 C18.46450806 -0.10551147 18.46450806 -0.10551147 19.86694336 -0.11352539 C22 0 22 0 23 1 C23.1328125 2.8125 23.1328125 2.8125 23.125 5 C23.12886719 6.0828125 23.12886719 6.0828125 23.1328125 7.1875 C23 9 23 9 22 10 C20.58429877 10.08651611 19.164405 10.10704904 17.74609375 10.09765625 C16.89208984 10.09443359 16.03808594 10.09121094 15.15820312 10.08789062 C14.26037109 10.07951172 13.36253906 10.07113281 12.4375 10.0625 C11.53580078 10.05798828 10.63410156 10.05347656 9.70507812 10.04882812 C7.46998686 10.03700225 5.23502563 10.0205222 3 10 C0 3.375 0 3.375 0 0 Z " fill="#1673BD" transform="translate(310,143)"/>
<path d="M0 0 C2.625 0.375 2.625 0.375 5 1 C5.33 2.65 5.66 4.3 6 6 C6.94875 6.226875 7.8975 6.45375 8.875 6.6875 C12 8 12 8 13.375 10.625 C13.58125 11.40875 13.7875 12.1925 14 13 C11 15 11 15 8.9375 14.75 C7 14 7 14 5 12 C2.5417707 11.83328148 2.5417707 11.83328148 0 12 C-0.99 12 -1.98 12 -3 12 C-2.88601335 10.37419034 -2.75844341 8.74932843 -2.625 7.125 C-2.55539062 6.22007812 -2.48578125 5.31515625 -2.4140625 4.3828125 C-2 2 -2 2 0 0 Z " fill="#1B7BC1" transform="translate(272,137)"/>
<path d="M0 0 C-0.61294922 0.29132813 -1.22589844 0.58265625 -1.85742188 0.8828125 C-12.50619387 5.94834652 -23.1419454 11.0271435 -33.66796875 16.34375 C-39.0447783 19.04920597 -44.49256778 21.57299597 -50 24 C-50 22.68 -50 21.36 -50 20 C-49.20526276 19.64961166 -49.20526276 19.64961166 -48.39447021 19.29214478 C-42.87850744 16.86000522 -37.36315116 14.42649436 -31.84814453 11.9921875 C-29.79003156 11.08395798 -27.73176438 10.17607784 -25.67333984 9.26855469 C-22.71411139 7.96381045 -19.75544038 6.65780947 -16.796875 5.3515625 C-15.87694763 4.94628326 -14.95702026 4.54100403 -14.00921631 4.1234436 C-13.1486261 3.74320038 -12.28803589 3.36295715 -11.40136719 2.97119141 C-10.64635925 2.63809967 -9.89135132 2.30500793 -9.11346436 1.96182251 C-6.97231945 1.02538971 -6.97231945 1.02538971 -4.91241455 -0.18569946 C-3 -1 -3 -1 0 0 Z " fill="#FBA742" transform="translate(448,313)"/>
<path d="M0 0 C0.66 0.33 1.32 0.66 2 1 C1.67 6.61 1.34 12.22 1 18 C-4 16 -4 16 -6 13 C-6.66481994 7.84764543 -6.66481994 7.84764543 -6 5 C-4.18591501 2.7956758 -2.41286475 1.6085765 0 0 Z " fill="#2853A0" transform="translate(268,143)"/>
<path d="M0 0 C0.33 0.99 0.66 1.98 1 3 C1.96824707 2.99476318 2.93649414 2.98952637 3.93408203 2.98413086 C7.54588894 2.965953 11.15769184 2.95452146 14.76953125 2.94506836 C16.32910849 2.94005728 17.88868108 2.93324663 19.44824219 2.92456055 C21.69727736 2.91235314 23.9462501 2.90673932 26.1953125 2.90234375 C27.23161301 2.89460182 27.23161301 2.89460182 28.28884888 2.88670349 C32.29915055 2.88624471 36.06545295 3.2264734 40 4 C40 4.33 40 4.66 40 5 C38.81446533 4.99363525 37.62893066 4.98727051 36.4074707 4.98071289 C31.99940506 4.96625836 27.59264022 4.99764242 23.18481445 5.04272461 C21.27893503 5.05584626 19.37292822 5.05661508 17.46704102 5.04467773 C14.72284883 5.02965087 11.9821845 5.05936412 9.23828125 5.09765625 C8.38913651 5.08340103 7.53999176 5.06914581 6.66511536 5.05445862 C2.04055675 5.13308562 2.04055675 5.13308562 -1.6835022 7.61837769 C-3.26724799 9.74263888 -3.26724799 9.74263888 -5 13 C-5 9.51038791 -4.09620626 7.88519705 -2.5 4.8125 C-2.0359375 3.91144531 -1.571875 3.01039063 -1.09375 2.08203125 C-0.7328125 1.39496094 -0.371875 0.70789063 0 0 Z " fill="#B0D1EA" transform="translate(310,173)"/>
<path d="M0 0 C0.33 0.66 0.66 1.32 1 2 C16.18 2 31.36 2 47 2 C47 2.33 47 2.66 47 3 C36.2672048 4.1162874 25.52878785 4.32212106 14.75 4.5625 C12.92577351 4.60579498 11.10155465 4.64941233 9.27734375 4.69335938 C4.85164153 4.79928691 0.42585929 4.90086126 -4 5 C-2.68 3.35 -1.36 1.7 0 0 Z " fill="#AFD3EB" transform="translate(303,186)"/>
<path d="M0 0 C-2.74637383 3.56995469 -6.70785448 4.56236818 -10.80859375 5.953125 C-11.9532888 6.34984406 -11.9532888 6.34984406 -13.12110901 6.75457764 C-14.7326299 7.31018859 -16.34570891 7.86129798 -17.96020508 8.40820312 C-20.42983434 9.24739517 -22.89165826 10.10706304 -25.35351562 10.96875 C-26.92144592 11.50646112 -28.48979235 12.0429607 -30.05859375 12.578125 C-31.16188271 12.96547821 -31.16188271 12.96547821 -32.28746033 13.36065674 C-35.97793007 14.59292072 -38.29123591 15.16833072 -42 14 C-36.50534358 11.83350509 -31.00609779 9.67927914 -25.50219727 7.53637695 C-23.62978358 6.80537392 -21.758678 6.07101113 -19.88891602 5.33325195 C-17.20403922 4.27453761 -14.51471898 3.22792034 -11.82421875 2.18359375 C-10.98662521 1.85032578 -10.14903168 1.5170578 -9.28605652 1.1736908 C-8.50547379 0.87330399 -7.72489105 0.57291718 -6.9206543 0.26342773 C-6.23448532 -0.00526627 -5.54831635 -0.27396027 -4.84135437 -0.55079651 C-3 -1 -3 -1 0 0 Z " fill="#FBAE51" transform="translate(184,78)"/>
<path d="M0 0 C2.97 0 5.94 0 9 0 C9 3.3 9 6.6 9 10 C7.02 10 5.04 10 3 10 C0 3.375 0 3.375 0 0 Z " fill="#1D5FAB" transform="translate(310,143)"/>
<path d="M0 0 C0.33 0 0.66 0 1 0 C3.29612756 14.59681093 3.29612756 14.59681093 3 22 C1.02 22 -0.96 22 -3 22 C-2.69305541 18.89525766 -2.378486 15.79133414 -2.0625 12.6875 C-1.97548828 11.80642578 -1.88847656 10.92535156 -1.79882812 10.01757812 C-1.71181641 9.17001953 -1.62480469 8.32246094 -1.53515625 7.44921875 C-1.456604 6.66893311 -1.37805176 5.88864746 -1.29711914 5.0847168 C-1 3 -1 3 0 0 Z " fill="#E7F1F9" transform="translate(382,239)"/>
<path d="M0 0 C5 4 5 4 6 7.4375 C6 11.38285113 5.48618941 12.98105571 3 16 C2.01 16.33 1.02 16.66 0 17 C0 11.39 0 5.78 0 0 Z " fill="#0EA0E1" transform="translate(280,161)"/>
<path d="M0 0 C4.22205622 0.70426 8.04073059 2.0193343 12.05078125 3.50390625 C12.70958786 3.7466478 13.36839447 3.98938934 14.04716492 4.23948669 C16.13690759 5.01036472 18.22471117 5.78634796 20.3125 6.5625 C21.73490077 7.08822969 23.15742557 7.61362391 24.58007812 8.13867188 C28.05482955 9.42190157 31.52786146 10.70971465 35 12 C30.97594095 13.60185251 28.07120924 12.32992858 24.08203125 11.015625 C23.42418137 10.79936462 22.76633148 10.58310425 22.08854675 10.36029053 C20.70255613 9.90133593 19.31832435 9.43703979 17.93579102 8.96777344 C15.81460387 8.25071121 13.68648349 7.55805359 11.55664062 6.8671875 C10.21045354 6.41811484 8.86473268 5.96764164 7.51953125 5.515625 C6.29339111 5.10602539 5.06725098 4.69642578 3.80395508 4.27441406 C2.8786499 3.85385742 1.95334473 3.43330078 1 3 C0.67 2.01 0.34 1.02 0 0 Z " fill="#FCB663" transform="translate(411,81)"/>
<path d="M0 0 C1.65 0 3.3 0 5 0 C6 1 6 1 6.1328125 2.8125 C6.13023437 3.534375 6.12765625 4.25625 6.125 5 C6.12757813 5.721875 6.13015625 6.44375 6.1328125 7.1875 C6 9 6 9 5 10 C3.35 10 1.7 10 0 10 C0 6.7 0 3.4 0 0 Z " fill="#11A4E3" transform="translate(327,143)"/>
<path d="M0 0 C4.70588235 0.70588235 4.70588235 0.70588235 6 2 C6.04092937 4.33297433 6.04241723 6.66705225 6 9 C3.28324005 8.63287028 1.38936287 8.27255401 -0.875 6.6875 C-2 5 -2 5 -1.75 2.875 C-1 1 -1 1 0 0 Z " fill="#315DA6" transform="translate(263,170)"/>
<path d="M0 0 C0.99 0.33 1.98 0.66 3 1 C-0.72790383 2.79430286 -4.45753949 4.58497696 -8.1875 6.375 C-9.24259766 6.88289063 -10.29769531 7.39078125 -11.38476562 7.9140625 C-12.91713867 8.64882813 -12.91713867 8.64882813 -14.48046875 9.3984375 C-15.41785889 9.84880371 -16.35524902 10.29916992 -17.32104492 10.76318359 C-19.85207365 11.93170556 -22.40202147 12.99047622 -25 14 C-25.66 13.34 -26.32 12.68 -27 12 C-26.25314941 11.67201416 -25.50629883 11.34402832 -24.73681641 11.00610352 C-21.36598132 9.52542444 -17.99548664 8.04397207 -14.625 6.5625 C-13.449375 6.04623047 -12.27375 5.52996094 -11.0625 4.99804688 C-9.94101562 4.50498047 -8.81953125 4.01191406 -7.6640625 3.50390625 C-6.62717285 3.04830322 -5.5902832 2.5927002 -4.52197266 2.12329102 C-3.00081685 1.44576557 -1.48941753 0.74470876 0 0 Z " fill="#FCBB6E" transform="translate(445,312)"/>
<path d="M0 0 C3.465 1.98 3.465 1.98 7 4 C6.67 5.98 6.34 7.96 6 10 C1.25 9.25 1.25 9.25 -1 7 C-0.625 3.375 -0.625 3.375 0 0 Z " fill="#2170B8" transform="translate(269,154)"/>
<path d="M0 0 C1.32 0.66 2.64 1.32 4 2 C4 5.3 4 8.6 4 12 C3.01 12.495 3.01 12.495 2 13 C1.731875 12.236875 1.46375 11.47375 1.1875 10.6875 C0.05575888 8.12619116 -0.91223401 6.80307062 -3 5 C-2.34 5 -1.68 5 -1 5 C-0.67 3.35 -0.34 1.7 0 0 Z " fill="#198BCE" transform="translate(276,159)"/>
<path d="M0 0 C1.32 0 2.64 0 4 0 C4 3.3 4 6.6 4 10 C2.68 10 1.36 10 0 10 C0 6.7 0 3.4 0 0 Z " fill="#0E87CE" transform="translate(323,143)"/>
<path d="M0 0 C2.4375 0.75 2.4375 0.75 5 2 C5.8125 4.125 5.8125 4.125 6 6 C3 8 3 8 0.8125 7.625 C0.214375 7.41875 -0.38375 7.2125 -1 7 C-0.67 4.69 -0.34 2.38 0 0 Z " fill="#1AA3E2" transform="translate(280,144)"/>
<path d="M0 0 C1.65 0 3.3 0 5 0 C5 3.3 5 6.6 5 10 C4.34 10 3.68 10 3 10 C0 3.375 0 3.375 0 0 Z " fill="#284E9C" transform="translate(310,143)"/>
<path d="M0 0 C4.17576168 0.68416434 7.88080407 2.01365009 11.8125 3.5625 C13.55466797 4.24505859 13.55466797 4.24505859 15.33203125 4.94140625 C16.21246094 5.29074219 17.09289062 5.64007813 18 6 C18 6.99 18 7.98 18 9 C9.09 5.04 9.09 5.04 0 1 C0 0.67 0 0.34 0 0 Z " fill="#FCB663" transform="translate(143,319)"/>
<path d="M0 0 C3.9492568 0.55105909 7.34920174 1.38935371 11 3 C10.67 3.99 10.34 4.98 10 6 C6.7 4.35 3.4 2.7 0 1 C0 0.67 0 0.34 0 0 Z " fill="#FBAA49" transform="translate(161,327)"/>
<path d="M0 0 C1.98 0.495 1.98 0.495 4 1 C3.34 2.32 2.68 3.64 2 5 C1.01 4.67 0.02 4.34 -1 4 C-0.67 2.68 -0.34 1.36 0 0 Z " fill="#384F9A" transform="translate(262,171)"/>
</svg>
