<?xml version="1.0" encoding="UTF-8"?>
<svg version="1.1" xmlns="http://www.w3.org/2000/svg" width="397" height="379">
<path d="M0 0 C131.01 0 262.02 0 397 0 C397 125.07 397 250.14 397 379 C265.99 379 134.98 379 0 379 C0 253.93 0 128.86 0 0 Z " fill="#0060D6" transform="translate(0,0)"/>
<path d="M0 0 C131.01 0 262.02 0 397 0 C397 125.07 397 250.14 397 379 C265.99 379 134.98 379 0 379 C0 253.93 0 128.86 0 0 Z M75.35919189 15.14266968 C58.55805934 16.09007427 41.82374772 16.2097354 25 16 C23.84020574 27.46296223 23.8186861 38.88864671 23.796875 50.3984375 C23.79404762 51.41798145 23.79122025 52.43752541 23.78830719 53.48796463 C23.77338345 58.89888 23.76411474 64.30976925 23.75976562 69.72070312 C23.75540733 74.12475998 23.74160912 78.52861802 23.71875 82.93261719 C20.84680488 121.8070137 20.84680488 121.8070137 28.03649902 159.01185608 C29.26179896 161.54021119 29.25394021 163.4331455 29.25878906 166.23754883 C29.26501282 167.29766174 29.27123657 168.35777466 29.27764893 169.45001221 C29.27368103 170.60732849 29.26971313 171.76464478 29.265625 172.95703125 C29.26826355 174.17823669 29.2709021 175.39944214 29.27362061 176.65765381 C29.2768245 180.00803972 29.26999146 183.3580811 29.25714111 186.70842361 C29.24997698 188.81928304 29.24675519 190.93011501 29.24462891 193.04098511 C29.21659346 215.55488256 28.66128254 238.02717721 27.85861206 260.5255127 C27.24170085 277.87535091 26.7992985 295.20087922 26.8125 312.5625 C26.8117749 313.46283966 26.8110498 314.36317932 26.81030273 315.290802 C26.81121469 325.10519276 27.00482783 334.90772223 27.38671875 344.71484375 C27.41683548 345.60998184 27.44695221 346.50511993 27.47798157 347.42738342 C27.73089595 353.16739773 28.60955186 358.42302865 30 364 C42.46543293 364.97020088 54.90969844 365.30058346 67.40698242 365.55224609 C69.94457939 365.60452812 72.48204228 365.66149728 75.01953125 365.71875 C75.77393997 365.73232544 76.52834869 365.74590088 77.30561829 365.7598877 C81.17745086 365.84835688 84.98488565 366.07841817 88.83544922 366.5 C94.42813653 367.09412691 99.99280548 367.20644166 105.61328125 367.28125 C107.24864082 367.30886414 107.24864082 367.30886414 108.91703796 367.33703613 C112.38214177 367.39527499 115.84729443 367.44819742 119.3125 367.5 C144.98208538 367.89034259 144.98208538 367.89034259 157.015625 368.51953125 C166.49483299 369.01222555 175.94614905 369.19692849 185.4375 369.1875 C186.31394165 369.18789276 187.1903833 369.18828552 188.09338379 369.18869019 C207.97405367 369.17845678 227.83776607 368.54710168 247.70635986 367.92269897 C264.94022042 367.38153878 282.16870218 366.92368034 299.41015625 366.71484375 C300.20730167 366.7049901 301.0044471 366.69513645 301.82574844 366.68498421 C309.5354093 366.59058192 317.24504095 366.50673868 324.95505333 366.44730473 C342.04141517 366.30970239 358.9848895 365.68272799 376 364 C376.21092285 363.11795898 376.4218457 362.23591797 376.63916016 361.32714844 C377.1422526 359.22330729 377.64534505 357.11946615 378.1484375 355.015625 C378.43799582 353.67830568 378.72123114 352.33960998 379 351 C379.25349952 349.82196178 379.25349952 349.82196178 379.51212025 348.62012482 C381.29267538 339.34978376 381.275636 330.27018135 381.24291992 320.87304688 C381.24399525 319.06717358 381.24593764 317.26130062 381.24867249 315.45542908 C381.25350059 310.56586897 381.245877 305.6764009 381.23571944 300.78685188 C381.22683922 295.59793351 381.22869873 290.4090172 381.2290802 285.22009277 C381.22814377 276.45742292 381.21948615 267.69478767 381.20581055 258.93212891 C381.19201524 250.06330681 381.18478414 241.19451657 381.18530273 232.32568359 C381.2081368 171.68400853 381.2081368 171.68400853 380.55078125 111.046875 C380.52183305 109.2757711 380.52183305 109.2757711 380.49230003 107.46888733 C380.23396185 92.27254728 379.74313484 77.10161055 378.75019836 61.9342041 C378.1072049 52.10464297 377.76399983 42.27580826 377.46875 32.43066406 C377.42295231 30.9305084 377.37705467 29.43035578 377.33105469 27.9302063 C377.21955096 24.28683861 377.10939954 20.64343155 377 17 C360.20554378 16.9766038 343.41109268 16.95898786 326.61662388 16.94818783 C318.81805945 16.94303913 311.01950518 16.93602369 303.22094727 16.92456055 C296.42099165 16.91457005 289.62104338 16.9081362 282.82108063 16.90591151 C279.22305798 16.9046118 275.62505636 16.901573 272.02704048 16.89426994 C268.00312506 16.88616923 263.97924582 16.88601167 259.95532227 16.88647461 C258.77208374 16.88287933 257.58884521 16.87928406 256.36975098 16.87557983 C246.08442965 16.16999038 246.08442965 16.16999038 237 19 C234.363593 19.11385268 231.75451223 19.16420119 229.1171875 19.16796875 C227.90749802 19.17296135 227.90749802 19.17296135 226.67337036 19.17805481 C224.95331391 19.18313504 223.23324754 19.1854628 221.51318359 19.18530273 C218.93439239 19.18745053 216.35605687 19.20548388 213.77734375 19.22460938 C204.78684685 19.25477737 196.19171754 18.82650577 187.29248047 17.47436523 C182.74053482 16.81854213 178.21696594 16.5915676 173.625 16.4375 C168.12478233 16.23200697 162.70539768 15.88776571 157.23876953 15.24291992 C130.23974591 12.31336392 102.40911947 13.60868764 75.35919189 15.14266968 Z " fill="#FCFDFE" transform="translate(0,0)"/>
<path d="M0 0 C3.30269781 -0.66053956 4.84150897 -0.96059893 8 0 C10.63906701 2.58309985 12.75219751 5.31552355 14.921875 8.30078125 C17.87347755 12.13453568 20.27329657 14.06326651 25 15 C26.65710573 15.09259227 28.31737359 15.13518478 29.97705078 15.1418457 C31.45976974 15.15239738 31.45976974 15.15239738 32.97244263 15.16316223 C34.03598969 15.16732651 35.09953674 15.17149078 36.1953125 15.17578125 C38.4609467 15.19898865 40.72657172 15.22310635 42.9921875 15.24804688 C46.5534471 15.28307164 50.11437083 15.3124598 53.67578125 15.32592773 C57.12020373 15.34149277 60.56365084 15.38176575 64.0078125 15.42578125 C65.05921417 15.42387283 66.11061584 15.42196442 67.19387817 15.41999817 C76.29488523 15.56898097 84.19934833 17.65272511 91 24 C90.9375 26.3125 90.9375 26.3125 90 29 C85.95827867 31.32478958 83.205241 32.21461147 78.55859375 31.80859375 C60.02537483 30.27131817 47.90007179 40.35358587 33.74536133 50.95288086 C29.73600013 53.94252014 27.80201937 55.25459791 22.8125 55.125 C21.91144531 55.10695312 21.01039063 55.08890625 20.08203125 55.0703125 C19.39496094 55.04710937 18.70789063 55.02390625 18 55 C19.33881723 52.14150848 20.85947123 49.71271043 22.78515625 47.21484375 C23.58083008 46.17166992 23.58083008 46.17166992 24.39257812 45.10742188 C25.50920041 43.65646589 26.62639146 42.20594744 27.74414062 40.75585938 C28.53788086 39.71461914 28.53788086 39.71461914 29.34765625 38.65234375 C29.83242432 38.02320068 30.31719238 37.39405762 30.81665039 36.74584961 C32.18454954 34.89720529 32.18454954 34.89720529 33 32 C32.0925 32.0825 31.185 32.165 30.25 32.25 C21.20221002 32.23172164 8.43631689 27.43631689 2 21 C2.12890625 19.15234375 2.12890625 19.15234375 2.5625 16.9375 C3.21449906 12.35127933 2.39346909 9.20428588 0.69140625 4.9453125 C0 3 0 3 0 0 Z " fill="#0865D7" transform="translate(157,123)"/>
<path d="M0 0 C2.625 1.3125 2.625 1.3125 4 4 C4.78457863 12.1402277 3.35234007 19.98670729 1.75 27.9375 C1.54503906 29.02740234 1.34007812 30.11730469 1.12890625 31.24023438 C-2.50447981 49.77050328 -2.50447981 49.77050328 -7.125 55.75 C-11.31727836 57.57272972 -15.50147812 57.84633208 -20 57 C-21.78125 55.91015625 -21.78125 55.91015625 -23 54 C-24.87852771 39.26644932 -22.84479319 15.52667122 -13.99609375 3.2109375 C-10.10589969 -1.09796629 -5.48874281 -0.58428552 0 0 Z " fill="#F5F9FD" transform="translate(227,201)"/>
<path d="M0 0 C0.85722656 -0.00773438 1.71445312 -0.01546875 2.59765625 -0.0234375 C5.47249513 0.46610101 6.18430513 1.07433908 7.9375 3.375 C9.87148072 14.47382478 6.40922451 26.79008298 4.4375 37.6875 C4.09924891 39.60333731 3.76200162 41.51935214 3.42578125 43.43554688 C2.60790387 48.08415717 1.77651039 52.73015945 0.9375 57.375 C-1.3725 57.375 -3.6825 57.375 -6.0625 57.375 C-6.3021943 51.74218401 -5.44779821 46.82961169 -4.0625 41.375 C-6.3725 41.375 -8.6825 41.375 -11.0625 41.375 C-11.7225 46.655 -12.3825 51.935 -13.0625 57.375 C-15.3725 57.375 -17.6825 57.375 -20.0625 57.375 C-20.20603534 51.65253633 -19.73877644 46.43147381 -18.671875 40.81640625 C-18.52598938 40.02781723 -18.38010376 39.23922821 -18.22979736 38.42674255 C-17.92074304 36.76971997 -17.60792431 35.11339544 -17.29150391 33.45776367 C-16.8148891 30.95007019 -16.35801036 28.43930777 -15.90234375 25.92773438 C-12.3549376 6.8470251 -12.3549376 6.8470251 -7.12890625 1.3359375 C-4.61446822 0.16665252 -2.7690896 -0.02505963 0 0 Z " fill="#F3F7FD" transform="translate(278.0625,200.625)"/>
<path d="M0 0 C2.41734542 -0.08117951 4.83194949 -0.14056926 7.25 -0.1875 C7.93191406 -0.21263672 8.61382812 -0.23777344 9.31640625 -0.26367188 C12.45697853 -0.30940836 14.65842457 -0.18289936 17.45117188 1.3125 C20.5798862 4.72133881 19.55614739 9.68078137 19.38671875 14.05078125 C18.72782979 20.77943512 17.1095148 26.40831039 12.8125 31.6875 C8.84737664 33.5378909 5.30254287 33.33745434 1 33 C0.95101562 33.64324219 0.90203125 34.28648437 0.8515625 34.94921875 C0.23832612 42.36092052 -0.79842569 49.66223066 -2 57 C-4.64 57 -7.28 57 -10 57 C-7.09529506 37.91342891 -3.63602399 18.95796679 0 0 Z " fill="#F3F7FD" transform="translate(240,201)"/>
<path d="M0 0 C3.30269781 -0.66053956 4.84150897 -0.96059893 8 0 C10.63906701 2.58309985 12.75219751 5.31552355 14.921875 8.30078125 C17.87347755 12.13453568 20.27329657 14.06326651 25 15 C26.65710573 15.09259227 28.31737359 15.13518478 29.97705078 15.1418457 C31.45976974 15.15239738 31.45976974 15.15239738 32.97244263 15.16316223 C34.03598969 15.16732651 35.09953674 15.17149078 36.1953125 15.17578125 C38.4609467 15.19898865 40.72657172 15.22310635 42.9921875 15.24804688 C46.5534471 15.28307164 50.11437083 15.3124598 53.67578125 15.32592773 C57.12020373 15.34149277 60.56365084 15.38176575 64.0078125 15.42578125 C65.05921417 15.42387283 66.11061584 15.42196442 67.19387817 15.41999817 C76.29488523 15.56898097 84.19934833 17.65272511 91 24 C90.9375 26.3125 90.9375 26.3125 90 29 C85.95827867 31.32478958 83.205241 32.21461147 78.55859375 31.80859375 C60.02537483 30.27131817 47.90007179 40.35358587 33.74536133 50.95288086 C29.73600013 53.94252014 27.80201937 55.25459791 22.8125 55.125 C21.91144531 55.10695312 21.01039063 55.08890625 20.08203125 55.0703125 C19.39496094 55.04710937 18.70789063 55.02390625 18 55 C19.33881723 52.14150848 20.85947123 49.71271043 22.78515625 47.21484375 C23.58083008 46.17166992 23.58083008 46.17166992 24.39257812 45.10742188 C25.50920041 43.65646589 26.62639146 42.20594744 27.74414062 40.75585938 C28.53788086 39.71461914 28.53788086 39.71461914 29.34765625 38.65234375 C29.83242432 38.02320068 30.31719238 37.39405762 30.81665039 36.74584961 C32.18454954 34.89720529 32.18454954 34.89720529 33 32 C32.0925 32.0825 31.185 32.165 30.25 32.25 C21.20221002 32.23172164 8.43631689 27.43631689 2 21 C2.12890625 19.15234375 2.12890625 19.15234375 2.5625 16.9375 C3.21449906 12.35127933 2.39346909 9.20428588 0.69140625 4.9453125 C0 3 0 3 0 0 Z M4 3 C4.31082872 4.75029762 4.62373179 6.50022694 4.9375 8.25 C5.11152344 9.22453125 5.28554687 10.1990625 5.46484375 11.203125 C5.90379729 13.49721795 6.40348592 15.74291971 7 18 C6.34 18 5.68 18 5 18 C5.18699237 19.95422795 5.18699237 19.95422795 6 22 C7.79535412 23.1947279 7.79535412 23.1947279 10.0859375 23.921875 C10.92995117 24.22536865 11.77396484 24.5288623 12.64355469 24.84155273 C13.54493164 25.14134033 14.44630859 25.44112793 15.375 25.75 C16.2815332 26.06074463 17.18806641 26.37148926 18.12207031 26.69165039 C24.48423007 28.76703471 30.28691696 29.97000971 37 29 C35.01079535 35.129998 32.49232523 39.45350969 28.375 44.375 C24.85672203 48.46584722 24.85672203 48.46584722 22 53 C27.98419027 52.61239842 31.67717669 49.88849232 36.4375 46.5625 C37.23317383 46.02842529 38.02884766 45.49435059 38.84863281 44.9440918 C42.58952055 42.42313999 46.23384361 39.85731865 49.73828125 37.015625 C58.95048607 29.78429278 66.60927364 28.88455693 78.2265625 29.0625 C81.93346231 29.11380657 84.66701769 28.80009171 88 27 C88 26.01 88 25.02 88 24 C84.37 24.66 80.74 25.32 77 26 C77 24.68 77 23.36 77 22 C77.66 22 78.32 22 79 22 C79 21.34 79 20.68 79 20 C75.40460013 18.36686691 72.60241917 17.75006543 68.66235352 17.74462891 C67.10031944 17.73419052 67.10031944 17.73419052 65.50672913 17.72354126 C64.39204758 17.72453827 63.27736603 17.72553528 62.12890625 17.7265625 C59.75715671 17.70627691 57.38541195 17.68542619 55.01367188 17.6640625 C51.28308063 17.64144839 47.55267818 17.62498461 43.82202148 17.61914062 C40.21563807 17.60961945 36.61010021 17.57584966 33.00390625 17.5390625 C31.89124893 17.54410797 30.77859161 17.54915344 29.63221741 17.55435181 C23.44330849 17.47576457 19.69001108 17.17624735 15 13 C12.76953125 10.421875 12.76953125 10.421875 10.8125 7.75 C8.93392034 5.09371037 8.93392034 5.09371037 7 3 C6.01 3 5.02 3 4 3 Z " fill="#E1ECFA" transform="translate(157,123)"/>
<path d="M0 0 C1.42505859 -0.02900391 1.42505859 -0.02900391 2.87890625 -0.05859375 C5.4375 0.4375 5.4375 0.4375 7.265625 2.10546875 C8.71588371 4.99148358 8.73977797 6.9737169 8.625 10.1875 C8.59792969 11.17234375 8.57085937 12.1571875 8.54296875 13.171875 C8.50816406 13.91953125 8.47335938 14.6671875 8.4375 15.4375 C5.7975 15.4375 3.1575 15.4375 0.4375 15.4375 C0.4375 12.1375 0.4375 8.8375 0.4375 5.4375 C-3.67545988 6.98125423 -3.67545988 6.98125423 -4.8125 10.0625 C-5.74009641 14.23668384 -6.03810754 17.15703214 -5.5625 21.4375 C-3.37518079 24.20819744 -3.37518079 24.20819744 -0.5625 26.4375 C2.15025548 28.85698462 3.31119462 30.47898252 3.7890625 34.10546875 C4.00106962 41.70881494 3.34266856 48.91608357 -1.625 54.9375 C-4.67309916 57.29731871 -6.68566586 57.66687197 -10.5 57.8125 C-11.37527344 57.86148438 -12.25054687 57.91046875 -13.15234375 57.9609375 C-15.5625 57.4375 -15.5625 57.4375 -17.36328125 55.3046875 C-18.73025776 52.03641141 -18.89942588 49.71669065 -18.8125 46.1875 C-18.79703125 45.13046875 -18.7815625 44.0734375 -18.765625 42.984375 C-18.5625 40.4375 -18.5625 40.4375 -17.5625 39.4375 C-15.22952567 39.39657063 -12.89544775 39.39508277 -10.5625 39.4375 C-10.5625 42.7375 -10.5625 46.0375 -10.5625 49.4375 C-9.2425 49.4375 -7.9225 49.4375 -6.5625 49.4375 C-4.57575078 44.47062696 -4.06012767 40.7124095 -4.5625 35.4375 C-6.49880188 32.35375996 -8.36928355 30.57802105 -11.3125 28.4375 C-14.9929412 23.53024506 -14.32382027 18.34646284 -13.5625 12.4375 C-11.43687692 4.86294464 -8.41653381 0.01145107 0 0 Z " fill="#F2F7FC" transform="translate(106.5625,200.5625)"/>
<path d="M0 0 C5.28 0 10.56 0 16 0 C16 1.98 16 3.96 16 6 C12.7 6 9.4 6 6 6 C5.86722656 6.88042969 5.73445312 7.76085937 5.59765625 8.66796875 C5.33275391 10.41013672 5.33275391 10.41013672 5.0625 12.1875 C4.88847656 13.33605469 4.71445313 14.48460937 4.53515625 15.66796875 C4.08620687 18.46325212 3.57917838 21.22933586 3 24 C5.31 24 7.62 24 10 24 C10 25.98 10 27.96 10 30 C7.36 30 4.72 30 2 30 C1.01 36.6 0.02 43.2 -1 50 C1.64 50 4.28 50 7 50 C7.04254356 51.99954746 7.04080783 54.00041636 7 56 C6 57 6 57 2.40234375 57.09765625 C0.91403133 57.0909822 -0.57426432 57.07902183 -2.0625 57.0625 C-3.20041992 57.05573242 -3.20041992 57.05573242 -4.36132812 57.04882812 C-6.24091871 57.0370068 -8.12046899 57.01907078 -10 57 C-9.40108091 50.0091523 -8.42968251 43.15374902 -7.1875 36.25 C-7.01371826 35.2700708 -6.83993652 34.2901416 -6.66088867 33.28051758 C-6.29626506 31.22981674 -5.92978816 29.17944463 -5.56152344 27.12939453 C-4.99671692 23.98170324 -4.43938045 20.83275106 -3.8828125 17.68359375 C-3.52648242 15.68481721 -3.16972702 13.68611643 -2.8125 11.6875 C-2.64580811 10.74487305 -2.47911621 9.80224609 -2.30737305 8.83105469 C-2.15051025 7.96254883 -1.99364746 7.09404297 -1.83203125 6.19921875 C-1.69514893 5.43440186 -1.5582666 4.66958496 -1.41723633 3.8815918 C-1 2 -1 2 0 0 Z " fill="#F2F7FD" transform="translate(147,201)"/>
<path d="M0 0 C2.31 0 4.62 0 7 0 C7.33 6.6 7.66 13.2 8 20 C8.49371094 18.64003906 8.98742187 17.28007812 9.49609375 15.87890625 C10.14308327 14.10671756 10.79022663 12.33458503 11.4375 10.5625 C11.76298828 9.66466797 12.08847656 8.76683594 12.42382812 7.84179688 C12.89272461 6.56079102 12.89272461 6.56079102 13.37109375 5.25390625 C13.65911865 4.46314697 13.94714355 3.6723877 14.24389648 2.85766602 C15 1 15 1 16 0 C18.33297433 -0.04092937 20.66705225 -0.04241723 23 0 C21.86407708 3.90598055 20.33380002 7.4863623 18.57421875 11.140625 C11.41207357 26.1834879 7.35542161 40.52013602 5 57 C2.69 57 0.38 57 -2 57 C-1.61592742 51.68362692 -1.18436127 46.5033338 0.0625 41.3125 C2.845185 28.08436308 0.76851761 13.39416412 0 0 Z " fill="#F5F8FD" transform="translate(294,201)"/>
<path d="M0 0 C6.93 0 13.86 0 21 0 C20.67 2.31 20.34 4.62 20 7 C17.36 7 14.72 7 12 7 C11.96914307 7.55985596 11.93828613 8.11971191 11.90649414 8.6965332 C11.18674947 18.647744 9.24195958 28.38945313 7.4375 38.1875 C7.1043762 40.01619567 6.7716903 41.84497117 6.43945312 43.67382812 C5.63134864 48.11682201 4.81732274 52.55869305 4 57 C1.69 57 -0.62 57 -3 57 C-1.50882699 40.16002893 1.8784774 23.59575255 5 7 C3.02 7 1.04 7 -1 7 C-0.67 4.69 -0.34 2.38 0 0 Z " fill="#F2F7FC" transform="translate(121,201)"/>
<path d="M0 0 C2.31 0 4.62 0 7 0 C6.28984069 6.02263858 5.37938386 11.98935596 4.37109375 17.96875 C4.21713638 18.88966431 4.06317902 19.81057861 3.90455627 20.75939941 C3.41707247 23.67319248 2.92732331 26.5865994 2.4375 29.5 C2.10466739 31.48695399 1.77198361 33.47393292 1.43945312 35.4609375 C0.62802272 40.3075817 -0.18543824 45.15388113 -1 50 C1.64 50 4.28 50 7 50 C7.04254356 51.99954746 7.04080783 54.00041636 7 56 C6 57 6 57 2.40234375 57.09765625 C0.91403133 57.0909822 -0.57426432 57.07902183 -2.0625 57.0625 C-3.20041992 57.05573242 -3.20041992 57.05573242 -4.36132812 57.04882812 C-6.24091871 57.0370068 -8.12046899 57.01907078 -10 57 C-9.25665367 50.6318121 -8.26195837 44.32791529 -7.1875 38.0078125 C-7.01371826 36.98066132 -6.83993652 35.95351013 -6.66088867 34.89523315 C-6.29534488 32.73859453 -5.92887453 30.58211277 -5.56152344 28.42578125 C-4.99833045 25.11518593 -4.44045182 21.80372224 -3.8828125 18.4921875 C-3.52636459 16.3931743 -3.16960485 14.29421403 -2.8125 12.1953125 C-2.64580811 11.20266388 -2.47911621 10.21001526 -2.30737305 9.18728638 C-2.15051025 8.27228363 -1.99364746 7.35728088 -1.83203125 6.41455078 C-1.69514893 5.60817169 -1.5582666 4.8017926 -1.41723633 3.97097778 C-1 2 -1 2 0 0 Z " fill="#F1F6FC" transform="translate(169,201)"/>
<path d="M0 0 C2.31 0 4.62 0 7 0 C6.2920819 8.72509062 4.87551665 17.29167471 3.41601562 25.91552734 C2.99751694 28.38967981 2.58432153 30.8646759 2.171875 33.33984375 C1.90655762 34.92192662 1.64094332 36.50395973 1.375 38.0859375 C1.25205566 38.82137787 1.12911133 39.55681824 1.00244141 40.31454468 C0.44657595 43.5890235 -0.19365029 46.77460117 -1 50 C1.97 50 4.94 50 8 50 C7.67 52.31 7.34 54.62 7 57 C1.72 57 -3.56 57 -9 57 C-8.41061505 44.84744359 -6.17753495 33.1257043 -3.9375 21.1875 C-3.55602249 19.12706747 -3.1751582 17.06652131 -2.79492188 15.00585938 C-1.87034458 10.00256836 -0.9374872 5.0008874 0 0 Z " fill="#F2F7FD" transform="translate(190,201)"/>
<path d="M0 0 C0.48426246 8.87814517 -1.29144162 17.33628271 -3 26 C-3.13341797 26.68481445 -3.26683594 27.36962891 -3.40429688 28.07519531 C-5.75469365 40.02012223 -5.75469365 40.02012223 -8 44 C-9.65 44 -11.3 44 -13 44 C-13.77596514 29.60153574 -11.67200156 13.3647972 -6 0 C-3.50907189 -1.24546405 -2.58919267 -0.7767578 0 0 Z " fill="#0B67D7" transform="translate(224,207)"/>
<path d="M0 0 C3.30269781 -0.66053956 4.84150897 -0.96059893 8 0 C10.63906701 2.58309985 12.75219751 5.31552355 14.921875 8.30078125 C17.87500222 12.13651604 20.27311762 14.05978484 25 15 C26.69384079 15.10705047 28.39108341 15.16551291 30.08813477 15.18945312 C31.60474449 15.21452942 31.60474449 15.21452942 33.1519928 15.2401123 C34.23749924 15.25368774 35.32300568 15.26726318 36.44140625 15.28125 C37.56062973 15.29965942 38.67985321 15.31806885 39.83299255 15.33703613 C44.62318385 15.41570316 49.4135149 15.48351439 54.20385742 15.55224609 C57.69977823 15.60394616 61.19557766 15.66120005 64.69140625 15.71875 C65.77893692 15.73232544 66.86646759 15.74590088 67.98695374 15.7598877 C68.99487473 15.77660522 70.00279572 15.79332275 71.04125977 15.81054688 C72.37218407 15.82933899 72.37218407 15.82933899 73.72999573 15.84851074 C76 16 76 16 79 17 C79 17.66 79 18.32 79 19 C71.54107021 18.96187815 64.08262751 18.90242316 56.62409019 18.81609726 C53.16034489 18.77667005 49.69685196 18.74445879 46.23291016 18.72900391 C42.24609063 18.71089447 38.25997044 18.66092188 34.2734375 18.609375 C33.03572601 18.60814636 31.79801453 18.60691772 30.52279663 18.60565186 C19.81795445 18.42379984 19.81795445 18.42379984 15 14 C12.76953125 11.45703125 12.76953125 11.45703125 10.8125 8.8125 C8.1102219 4.96859489 8.1102219 4.96859489 4 3 C4.2165625 3.74765625 4.433125 4.4953125 4.65625 5.265625 C4.9346875 6.25046875 5.213125 7.2353125 5.5 8.25 C5.7784375 9.22453125 6.056875 10.1990625 6.34375 11.203125 C7 14 7 14 7 18 C6.34 18 5.68 18 5 18 C5.64114125 21.08116393 5.64114125 21.08116393 7.82250977 21.95141602 C8.60424561 22.21623779 9.38598145 22.48105957 10.19140625 22.75390625 C11.05443359 23.05103516 11.91746094 23.34816406 12.80664062 23.65429688 C13.71607422 23.95400391 14.62550781 24.25371094 15.5625 24.5625 C16.44486328 24.86607422 17.32722656 25.16964844 18.23632812 25.48242188 C23.44397812 27.24909693 28.6466374 28.74442721 34 30 C34 30.33 34 30.66 34 31 C26.94203633 31.80747889 21.18574358 30.72008676 14.625 28.25 C13.94759766 27.99782715 13.27019531 27.7456543 12.57226562 27.48583984 C8.50678258 25.8711299 5.06403644 24.15380313 2 21 C1.8359375 18.95703125 1.8359375 18.95703125 2.375 16.8125 C3.20318914 12.21567037 2.40640207 9.23664734 0.69140625 4.9453125 C0 3 0 3 0 0 Z " fill="#E5EFFA" transform="translate(157,123)"/>
<path d="M0 0 C5.63816804 -0.67061911 9.7906995 -0.68299799 14.4765625 2.7734375 C15.88055562 3.94911772 17.26346861 5.15039682 18.625 6.375 C19.34300781 6.97828125 20.06101563 7.5815625 20.80078125 8.203125 C24.50103495 11.37477103 24.50103495 11.37477103 26 13 C26 13.66 26 14.32 26 15 C32.6 15 39.2 15 46 15 C46 15.33 46 15.66 46 16 C30.16 16 14.32 16 -2 16 C-2 15.67 -2 15.34 -2 15 C0.64 15 3.28 15 6 15 C5.566875 14.08476562 5.13375 13.16953125 4.6875 12.2265625 C3.8521875 10.44378906 3.8521875 10.44378906 3 8.625 C2.443125 7.44164062 1.88625 6.25828125 1.3125 5.0390625 C0 2 0 2 0 0 Z " fill="#196FDA" transform="translate(184,123)"/>
<path d="M0 0 C0.99 0.33 1.98 0.66 3 1 C3.16356156 7.69920873 2.57602131 13.9561169 1.5 20.5625 C1.28537109 21.93245117 1.28537109 21.93245117 1.06640625 23.33007812 C0.71703202 25.55442736 0.36148178 27.7775921 0 30 C-2.31 30 -4.62 30 -7 30 C-6.74495144 22.55258207 -5.84689236 15.47238518 -4.0625 8.25 C-3.89266602 7.54681641 -3.72283203 6.84363281 -3.54785156 6.11914062 C-3.10067394 4.39346089 -2.55804315 2.69308186 -2 1 C-1.34 0.67 -0.68 0.34 0 0 Z " fill="#0764D7" transform="translate(276,206)"/>
<path d="M0 0 C15.84 0 31.68 0 48 0 C48 0.33 48 0.66 48 1 C45.36 1 42.72 1 40 1 C40.66 1.99 41.32 2.98 42 4 C41.625 6.1875 41.625 6.1875 41 8 C40.071875 7.7525 40.071875 7.7525 39.125 7.5 C36.69513337 6.92826667 35.38487378 6.87972694 33 7.625 C32.34 7.74875 31.68 7.8725 31 8 C30.34 7.34 29.68 6.68 29 6 C27.02 6.99 27.02 6.99 25 8 C25.33 6.68 25.66 5.36 26 4 C25.34 4 24.68 4 24 4 C23.67 4.99 23.34 5.98 23 7 C22.34 7 21.68 7 21 7 C19.66216607 7.31478446 18.32796291 7.64587656 17 8 C16.67 6.35 16.34 4.7 16 3 C17.32 3 18.64 3 20 3 C20 2.34 20 1.68 20 1 C13.4 1 6.8 1 0 1 C0 0.67 0 0.34 0 0 Z " fill="#327FDD" transform="translate(183,141)"/>
<path d="M0 0 C1.99954746 -0.04254356 4.00041636 -0.04080783 6 0 C7 1 7 1 7.25 4.9375 C7.21119164 9.77302135 6.60131442 17.39868558 3 21 C1.00041636 21.04080783 -1.00045254 21.04254356 -3 21 C-2.41523944 13.90593106 -1.36766005 6.98436101 0 0 Z " fill="#0E69D8" transform="translate(246,207)"/>
<path d="M0 0 C5.67373539 -0.68808193 9.79785905 -0.69023209 14.4765625 2.84375 C15.88067328 4.03790029 17.26357266 5.25740692 18.625 6.5 C19.34300781 7.12003906 20.06101563 7.74007812 20.80078125 8.37890625 C22.55417976 9.89851829 24.28479516 11.43758456 26 13 C25.34 13.66 24.68 14.32 24 15 C22.96359375 14.2059375 21.9271875 13.411875 20.859375 12.59375 C19.48996043 11.5619993 18.12014788 10.53077668 16.75 9.5 C16.06808594 8.97535156 15.38617188 8.45070312 14.68359375 7.91015625 C14.01972656 7.41386719 13.35585937 6.91757813 12.671875 6.40625 C12.0644043 5.94541016 11.45693359 5.48457031 10.83105469 5.00976562 C8.76472224 3.67806368 8.76472224 3.67806368 5 4 C5.28875 4.55429688 5.5775 5.10859375 5.875 5.6796875 C6.431875 6.76636719 6.431875 6.76636719 7 7.875 C7.37125 8.59429687 7.7425 9.31359375 8.125 10.0546875 C9 12 9 12 9 14 C8.01 14 7.02 14 6 14 C4.99515796 12.04414675 3.99626195 10.08523763 3 8.125 C2.1646875 6.48917969 2.1646875 6.48917969 1.3125 4.8203125 C0 2 0 2 0 0 Z " fill="#E7F0FB" transform="translate(184,123)"/>
<path d="M0 0 C7.35065985 -0.02531484 14.7013085 -0.04285202 22.05200195 -0.05493164 C24.55363383 -0.05996641 27.05526276 -0.06679461 29.55688477 -0.07543945 C33.14860766 -0.08754238 36.74029172 -0.09323682 40.33203125 -0.09765625 C41.45398392 -0.10281754 42.57593658 -0.10797882 43.73188782 -0.11329651 C45.29316658 -0.11340981 45.29316658 -0.11340981 46.88598633 -0.11352539 C48.2616552 -0.11685631 48.2616552 -0.11685631 49.66511536 -0.12025452 C52 0 52 0 55 1 C55 1.66 55 2.32 55 3 C36.85 2.67 18.7 2.34 0 2 C0 1.34 0 0.68 0 0 Z " fill="#FDFEFE" transform="translate(181,139)"/>
<path d="M0 0 C2.4382963 1.53597459 4.72968791 3.22693206 7 5 C6.8125 7.375 6.8125 7.375 6 10 C3.4375 11.3125 3.4375 11.3125 1 12 C1 11.34 1 10.68 1 10 C0.34 9.67 -0.32 9.34 -1 9 C-0.360625 8.896875 0.27875 8.79375 0.9375 8.6875 C1.618125 8.460625 2.29875 8.23375 3 8 C3.33 7.01 3.66 6.02 4 5 C3.484375 5.33 2.96875 5.66 2.4375 6 C-0.78026512 7.32010877 -3.5570528 7.13242105 -7 7 C-7 5.68 -7 4.36 -7 3 C-6.34 3 -5.68 3 -5 3 C-5 2.34 -5 1.68 -5 1 C-5.99 0.67 -6.98 0.34 -8 0 C-4.52931203 -1.15689599 -3.4505468 -1.09790125 0 0 Z " fill="#E0EBFA" transform="translate(241,142)"/>
<path d="M0 0 C1.734375 0.74609375 1.734375 0.74609375 2.734375 1.74609375 C2.921875 4.18359375 2.921875 4.18359375 2.734375 6.74609375 C0.12263865 9.3578301 -1.13761388 9.04427265 -4.765625 9.05859375 C-5.7453125 9.07535156 -6.725 9.09210938 -7.734375 9.109375 C-8.98734375 8.92955078 -8.98734375 8.92955078 -10.265625 8.74609375 C-10.925625 7.75609375 -11.585625 6.76609375 -12.265625 5.74609375 C-10.69215324 4.71012475 -9.10640954 3.69277643 -7.515625 2.68359375 C-6.63390625 2.11511719 -5.7521875 1.54664063 -4.84375 0.9609375 C-2.265625 -0.25390625 -2.265625 -0.25390625 0 0 Z " fill="#C4DAF5" transform="translate(220.265625,158.25390625)"/>
<path d="M0 0 C1.98 0 3.96 0 6 0 C5.51448049 4.91316753 4.15928335 7.71040598 1.1875 11.625 C0.50042969 12.54539063 -0.18664062 13.46578125 -0.89453125 14.4140625 C-5.97995853 20.65998618 -5.97995853 20.65998618 -10 22 C-7.81735899 17.05029497 -4.28133044 13.02975413 -0.99609375 8.77734375 C1.12732843 6.11280853 1.12732843 6.11280853 2 3 C-0.31 3 -2.62 3 -5 3 C-5 2.67 -5 2.34 -5 2 C-3.35 1.67 -1.7 1.34 0 1 C0 0.67 0 0.34 0 0 Z " fill="#E2EDFA" transform="translate(188,152)"/>
<path d="M0 0 C7.92 0 15.84 0 24 0 C24 0.66 24 1.32 24 2 C21.42788678 3.28605661 19.43093034 3.21043941 16.5546875 3.31640625 C15.47832031 3.35830078 14.40195313 3.40019531 13.29296875 3.44335938 C12.16503906 3.48267578 11.03710938 3.52199219 9.875 3.5625 C8.73933594 3.60568359 7.60367188 3.64886719 6.43359375 3.69335938 C3.62252232 3.7996604 0.81136055 3.90169405 -2 4 C-1.34 2.68 -0.68 1.36 0 0 Z " fill="#D8E6F8" transform="translate(218,152)"/>
<path d="M0 0 C2.31 0 4.62 0 7 0 C7.33 1.98 7.66 3.96 8 6 C7.01 6 6.02 6 5 6 C5.33 5.01 5.66 4.02 6 3 C5.34 3 4.68 3 4 3 C3.67 3.99 3.34 4.98 3 6 C2.34 6 1.68 6 1 6 C-0.33783393 6.31478446 -1.67203709 6.64587656 -3 7 C-3.33 5.35 -3.66 3.7 -4 2 C-2.68 2 -1.36 2 0 2 C0 1.34 0 0.68 0 0 Z " fill="#6CA3E7" transform="translate(203,142)"/>
<path d="M0 0 C0 0.99 0 1.98 0 3 C1.1446875 2.7525 1.1446875 2.7525 2.3125 2.5 C5 2 5 2 8 2 C6.82421875 3.984375 6.82421875 3.984375 5 6 C2.51953125 6.390625 2.51953125 6.390625 -0.1875 6.25 C-1.53908203 6.19585937 -1.53908203 6.19585937 -2.91796875 6.140625 C-3.60503906 6.09421875 -4.29210937 6.0478125 -5 6 C-3.63016497 2.83884224 -3.0109362 2.0072908 0 0 Z " fill="#F3F7FD" transform="translate(180,172)"/>
<path d="M0 0 C2.46800047 1.15173355 4.04783565 2.04783565 6 4 C5.67 4.66 5.34 5.32 5 6 C2.69 6 0.38 6 -2 6 C-2 4.68 -2 3.36 -2 2 C-1.34 2 -0.68 2 0 2 C0 1.34 0 0.68 0 0 Z " fill="#83B2EB" transform="translate(236,143)"/>
<path d="M0 0 C2 1 2 1 3 3 C1.3970947 3.81498562 -0.20737278 4.62689927 -1.8125 5.4375 C-2.70582031 5.88996094 -3.59914062 6.34242188 -4.51953125 6.80859375 C-7 8 -7 8 -10 9 C-8.77946141 5.33838422 -7.63217696 4.83729526 -4.4375 2.8125 C-3.61121094 2.28269531 -2.78492188 1.75289062 -1.93359375 1.20703125 C-1.29550781 0.80871094 -0.65742188 0.41039062 0 0 Z " fill="#2979DC" transform="translate(218,155)"/>
<path d="M0 0 C1.98 0 3.96 0 6 0 C5.67 1.98 5.34 3.96 5 6 C4.01 6 3.02 6 2 6 C2 5.01 2 4.02 2 3 C-0.31 3 -2.62 3 -5 3 C-5 2.67 -5 2.34 -5 2 C-3.35 1.67 -1.7 1.34 0 1 C0 0.67 0 0.34 0 0 Z " fill="#B7D2F3" transform="translate(188,152)"/>
<path d="M0 0 C0.33 1.98 0.66 3.96 1 6 C-1.31 6 -3.62 6 -6 6 C-6 5.01 -6 4.02 -6 3 C-1.66666667 0 -1.66666667 0 0 0 Z " fill="#116AD8" transform="translate(218,160)"/>
<path d="M0 0 C0.66 0 1.32 0 2 0 C2.33 0.99 2.66 1.98 3 3 C3.99 2.67 4.98 2.34 6 2 C5 5 5 5 3 6 C1.00039988 6.039992 -1.00047242 6.04346799 -3 6 C-2.01 4.02 -1.02 2.04 0 0 Z " fill="#EAF2FB" transform="translate(163,149)"/>
<path d="M0 0 C1.65 0.33 3.3 0.66 5 1 C4.67 2.32 4.34 3.64 4 5 C2.68 4.67 1.36 4.34 0 4 C0 2.68 0 1.36 0 0 Z " fill="#A3C5F0" transform="translate(192,144)"/>
<path d="M0 0 C2.475 0.495 2.475 0.495 5 1 C4.67 2.32 4.34 3.64 4 5 C2.68 4.67 1.36 4.34 0 4 C0 2.68 0 1.36 0 0 Z " fill="#ABCAF1" transform="translate(213,144)"/>
<path d="M0 0 C2.475 0.495 2.475 0.495 5 1 C4.67 2.32 4.34 3.64 4 5 C2.68 4.67 1.36 4.34 0 4 C0 2.68 0 1.36 0 0 Z " fill="#ADCBF1" transform="translate(220,144)"/>
<path d="M0 0 C2.475 0.495 2.475 0.495 5 1 C4.67 2.32 4.34 3.64 4 5 C2.68 4.67 1.36 4.34 0 4 C0 2.68 0 1.36 0 0 Z " fill="#A8C8F1" transform="translate(199,144)"/>
<path d="M0 0 C0.99 0.33 1.98 0.66 3 1 C2.125 4.875 2.125 4.875 1 6 C-0.51928038 6.07179964 -2.04167482 6.08392007 -3.5625 6.0625 C-4.38878906 6.05347656 -5.21507812 6.04445312 -6.06640625 6.03515625 C-6.70449219 6.02355469 -7.34257812 6.01195312 -8 6 C-8 5.67 -8 5.34 -8 5 C-4.535 4.505 -4.535 4.505 -1 4 C-0.67 2.68 -0.34 1.36 0 0 Z " fill="#EAF2FB" transform="translate(220,161)"/>
<path d="M0 0 C2.31 0 4.62 0 7 0 C7 0.66 7 1.32 7 2 C5.68 2 4.36 2 3 2 C2.67 2.99 2.34 3.98 2 5 C2 4.34 2 3.68 2 3 C1.34 3 0.68 3 0 3 C0 2.01 0 1.02 0 0 Z " fill="#1B71DA" transform="translate(196,142)"/>
<path d="M0 0 C2.31 0.66 4.62 1.32 7 2 C5.68 3.32 4.36 4.64 3 6 C2.34 5.67 1.68 5.34 1 5 C1.33 4.01 1.66 3.02 2 2 C1.34 2 0.68 2 0 2 C0 1.34 0 0.68 0 0 Z " fill="#3681DE" transform="translate(163,147)"/>
</svg>
