<?xml version="1.0" encoding="UTF-8"?>
<svg version="1.1" xmlns="http://www.w3.org/2000/svg" width="550" height="335">
<path d="M0 0 C181.5 0 363 0 550 0 C550 110.55 550 221.1 550 335 C368.5 335 187 335 0 335 C0 224.45 0 113.9 0 0 Z " fill="#FEFEFE" transform="translate(0,0)"/>
<path d="M0 0 C3.1399081 2.91562895 3.87155628 4.21506613 4.5625 8.4375 C3.85851132 12.89609497 2.48057042 15.26474923 -1 18 C-9.74992268 23.14701334 -18.91973392 26.93925087 -28.9375 28.5625 C-29.67419922 28.68471924 -30.41089844 28.80693848 -31.16992188 28.93286133 C-33.44479927 29.30143987 -35.72180661 29.65257177 -38 30 C-38.6717627 30.10731445 -39.34352539 30.21462891 -40.03564453 30.32519531 C-66.58901357 34.47518849 -102.26377409 35.61972394 -125.265625 19.52734375 C-128.17380152 16.96631443 -129.8484509 14.9958941 -130.4375 11.125 C-129.75790513 6.27075092 -127.91071011 3.49286098 -124.03515625 0.46484375 C-111.30591864 -7.81657373 -96.74462013 -10.06866008 -82 -12 C-80.72125 -12.18691406 -79.4425 -12.37382813 -78.125 -12.56640625 C-54.19724707 -15.48982664 -19.99652226 -15.46122855 0 0 Z " fill="#FAFDFB" transform="translate(152,120)"/>
<path d="M0 0 C3.1399081 2.91562895 3.87155628 4.21506613 4.5625 8.4375 C3.85851132 12.89609497 2.48057042 15.26474923 -1 18 C-9.74992268 23.14701334 -18.91973392 26.93925087 -28.9375 28.5625 C-29.67419922 28.68471924 -30.41089844 28.80693848 -31.16992188 28.93286133 C-33.44479927 29.30143987 -35.72180661 29.65257177 -38 30 C-38.6717627 30.10731445 -39.34352539 30.21462891 -40.03564453 30.32519531 C-66.58901357 34.47518849 -102.26377409 35.61972394 -125.265625 19.52734375 C-128.17380152 16.96631443 -129.8484509 14.9958941 -130.4375 11.125 C-129.75790513 6.27075092 -127.91071011 3.49286098 -124.03515625 0.46484375 C-111.30591864 -7.81657373 -96.74462013 -10.06866008 -82 -12 C-80.72125 -12.18691406 -79.4425 -12.37382813 -78.125 -12.56640625 C-54.19724707 -15.48982664 -19.99652226 -15.46122855 0 0 Z M-116.5625 5.5 C-118.23567053 8.40986179 -118.65841371 9.70793144 -118 13 C-114.29541864 19.73560247 -106.27215843 22.37535972 -99.3125 24.6875 C-73.58117074 31.67625609 -40.26377864 30.53745377 -16 19 C-11.21325884 16.1160216 -8.50375498 13.91426892 -7.0625 8.4375 C-8.65476261 2.59920377 -12.32291293 0.53910706 -17.3984375 -2.37890625 C-42.59632794 -14.47244966 -95.2156823 -15.32616361 -116.5625 5.5 Z " fill="#0DA420" transform="translate(152,120)"/>
<path d="M0 0 C5.50220426 3.07715868 9.19478816 8.25615357 11.109375 14.1796875 C12.03282462 21.36326656 11.26629182 27.19645313 7.109375 33.1796875 C2.81060006 38.55315617 -1.85220453 40.69696085 -8.5703125 41.5 C-15.65160045 41.79423634 -21.09716208 40.62477117 -26.421875 35.7890625 C-31.59760919 30.0716817 -32.29549051 24.28041302 -32.14453125 16.86328125 C-31.59292468 11.03322416 -29.03218499 6.32124749 -24.890625 2.1796875 C-17.28806422 -3.21795426 -8.57464519 -3.19268704 0 0 Z " fill="#59A432" transform="translate(383.890625,127.8203125)"/>
<path d="M0 0 C0.99 0.495 0.99 0.495 2 1 C1.78367897 6.29986532 0.70794907 9.44763742 -2.984375 13.3125 C-18.24477686 26.0886504 -41.97593283 28.26635067 -61 29 C-61.97291992 29.03851074 -62.94583984 29.07702148 -63.94824219 29.11669922 C-85.38874964 29.82996337 -107.6158652 28.20380279 -126 16 C-130.21593397 11.58330727 -131.13118576 9.03454492 -131 3 C-130.53851563 3.37511719 -130.07703125 3.75023437 -129.6015625 4.13671875 C-114.65819636 15.86105938 -96.77850224 19.05203676 -78.14453125 19.23828125 C-76.92046822 19.25304001 -76.92046822 19.25304001 -75.67167664 19.26809692 C-50.05714504 19.51354386 -24.70535758 19.56710777 -3 4 C-1.16699091 1.89424357 -1.16699091 1.89424357 0 0 Z " fill="#0DA420" transform="translate(155,181)"/>
<path d="M0 0 C0.33 0 0.66 0 1 0 C1.4596998 5.74624746 0.67500704 8.55130726 -3 13 C-7.47398921 17.18728051 -11.72101644 19.49122285 -17.4375 21.625 C-18.22664795 21.92422363 -19.0157959 22.22344727 -19.82885742 22.53173828 C-48.21620449 32.93482074 -90.3092067 34.108709 -118.2331543 21.38891602 C-123.2962144 18.92867288 -127.31769105 16.30922535 -131 12 C-131.87293478 9.23651035 -131.85085822 6.93312175 -132 4 C-131.01 4 -130.02 4 -129 4 C-128.360625 4.70125 -127.72125 5.4025 -127.0625 6.125 C-115.90275149 17.74562308 -95.5428727 19.60833796 -80.33764648 20.12426758 C-76.22430802 20.2061238 -72.11403343 20.24655759 -68 20.25 C-66.90717209 20.25101212 -66.90717209 20.25101212 -65.79226685 20.25204468 C-46.25049069 20.22337337 -18.20880217 18.97240302 -3.25390625 4.28515625 C-2.10795853 2.90547415 -1.04246312 1.45944837 0 0 Z " fill="#0CA41F" transform="translate(155,149)"/>
<path d="M0 0 C0.33 0 0.66 0 1 0 C1.31057686 3.88221074 1.2320429 6.48317717 -0.375 10.0625 C-12.24493994 23.34552802 -35.05125315 26.9189448 -52 28 C-57.09326932 28.16357536 -62.1811893 28.22749256 -67.27685547 28.24023438 C-69.60030531 28.2498973 -71.92285163 28.28100508 -74.24609375 28.3125 C-92.34594705 28.44055935 -113.73750459 26.3104541 -128 14 C-131.25960561 10.32003801 -131.28228562 7.8929508 -131 3 C-130.34 3 -129.68 3 -129 3 C-128.38125 3.70125 -127.7625 4.4025 -127.125 5.125 C-116.30225491 16.1987073 -96.51391422 18.98837207 -81.7616272 19.19024658 C-80.66145767 19.1966214 -80.66145767 19.1966214 -79.5390625 19.203125 C-78.7496225 19.20882507 -77.9601825 19.21452515 -77.14682007 19.22039795 C-75.48119418 19.22978961 -73.8155502 19.23635852 -72.14990234 19.24023438 C-69.66598728 19.24984147 -67.18293691 19.28087916 -64.69921875 19.3125 C-44.75746709 19.44491732 -19.0939412 17.04448666 -3.25390625 3.5078125 C-2.12775512 2.37847114 -1.05520422 1.19589812 0 0 Z " fill="#0CA41F" transform="translate(155,165)"/>
<path d="M0 0 C0.66 0 1.32 0 2 0 C2.34287537 3.60019136 2.13805933 5.71187619 0.5625 9 C-11.67481733 23.32661541 -33.10574125 26.27947691 -50.82226562 27.79711914 C-106.9806555 31.38252341 -106.9806555 31.38252341 -126.1875 14.8125 C-129.79216354 11.41567291 -129.79216354 11.41567291 -131 9 C-131.039992 7.00039988 -131.04346799 4.99952758 -131 3 C-128.15990854 4.30842642 -125.99090541 5.7838164 -123.625 7.8125 C-108.42746446 19.45255999 -87.2434646 19.23666405 -69.0625 19.25 C-67.82386703 19.25101212 -67.82386703 19.25101212 -66.56021118 19.25204468 C-54.49449448 19.2363732 -42.75828155 18.98175126 -31 16 C-30.30229492 15.82839355 -29.60458984 15.65678711 -28.88574219 15.47998047 C-18.27604134 12.77559431 -6.66030488 9.14041841 0 0 Z " fill="#0CA41F" transform="translate(154,137)"/>
<path d="M0 0 C3.63 0 7.26 0 11 0 C14.65280309 8.589741 18.05741198 17.25225233 21.3125 26 C21.76689453 27.20011719 22.22128906 28.40023437 22.68945312 29.63671875 C23.11806641 30.78785156 23.54667969 31.93898437 23.98828125 33.125 C24.56896362 34.67574219 24.56896362 34.67574219 25.16137695 36.2578125 C26 39 26 39 26 43 C23.36 43 20.72 43 18 43 C17.01 40.03 16.02 37.06 15 34 C9.06 34.33 3.12 34.66 -3 35 C-3.99 37.64 -4.98 40.28 -6 43 C-8.97 43 -11.94 43 -15 43 C-14.24957275 38.16250005 -12.54557598 33.76222577 -10.83984375 29.19921875 C-10.53051407 28.36284378 -10.22118439 27.52646881 -9.90248108 26.66474915 C-8.91763897 24.00435909 -7.92764659 21.34591979 -6.9375 18.6875 C-6.26723702 16.87968372 -5.59731131 15.07174236 -4.92773438 13.26367188 C-3.28906041 8.84098913 -1.64576603 4.42004829 0 0 Z " fill="#7FBE2F" transform="translate(455,126)"/>
<path d="M0 0 C3.50625 -0.0825 7.0125 -0.165 10.625 -0.25 C11.71893066 -0.28641602 12.81286133 -0.32283203 13.93994141 -0.36035156 C19.96509533 -0.42888202 23.45890819 -0.08551302 28 4 C30.97425326 8.46137989 30.49867492 12.76774934 30 18 C28.41902382 21.79434283 26.53559827 23.9356293 23 26 C20.30796435 26.21479008 17.92275886 26.28526276 15.25 26.1875 C12.8575 26.125625 10.465 26.06375 8 26 C8 31.28 8 36.56 8 42 C5.36 42 2.72 42 0 42 C0 28.14 0 14.28 0 0 Z " fill="#6AB02D" transform="translate(405,127)"/>
<path d="M0 0 C3.20168461 2.34269605 5.23441987 4.65677159 7.5625 7.875 C7.5625 8.535 7.5625 9.195 7.5625 9.875 C4.5925 10.535 1.6225 11.195 -1.4375 11.875 C-2.0975 10.555 -2.7575 9.235 -3.4375 7.875 C-6.20850394 6.48949803 -8.3709706 6.6872533 -11.4375 6.875 C-12.4275 7.535 -13.4175 8.195 -14.4375 8.875 C-14.23826267 10.82718472 -14.23826267 10.82718472 -13.4375 12.875 C-11.70445987 14.05682932 -11.70445987 14.05682932 -9.5 14.8125 C-8.695625 15.14121094 -7.89125 15.46992188 -7.0625 15.80859375 C-6.19625 16.16050781 -5.33 16.51242188 -4.4375 16.875 C-2.61464993 17.68544328 -0.80173952 18.51864996 1 19.375 C1.82371094 19.7565625 2.64742187 20.138125 3.49609375 20.53125 C5.90570174 22.09817845 6.6051959 23.1914933 7.5625 25.875 C8.0165225 30.86924753 7.75457216 33.93811101 4.5625 37.875 C0.50938658 41.92811342 -2.73790683 42.20082908 -8.4375 42.375 C-13.91004043 42.2079435 -17.37719133 41.82845844 -21.4375 37.875 C-25.4375 33.55921053 -25.4375 33.55921053 -25.4375 29.875 C-22.4675 29.215 -19.4975 28.555 -16.4375 27.875 C-15.963125 28.865 -15.48875 29.855 -15 30.875 C-12.83573767 34.05331009 -12.83573767 34.05331009 -10.16796875 34.2734375 C-7.89878006 34.25199635 -5.69122556 34.13504526 -3.4375 33.875 C-3.1075 31.895 -2.7775 29.915 -2.4375 27.875 C-5.86063077 25.67973135 -9.06855622 24.22806362 -12.9375 23 C-18.32042396 21.11380023 -21.81078403 19.12843194 -24.4375 13.875 C-24.87502262 10.02480098 -24.58236622 8.1486362 -22.75 4.6875 C-16.81128763 -2.53525829 -8.53226988 -2.79237923 0 0 Z " fill="#10723E" transform="translate(209.4375,127.125)"/>
<path d="M0 0 C8.25 0 16.5 0 25 0 C25 2.64 25 5.28 25 8 C19.72 8 14.44 8 9 8 C9 11.3 9 14.6 9 18 C13.62 18 18.24 18 23 18 C23 20.64 23 23.28 23 26 C18.38 26 13.76 26 9 26 C9 28.97 9 31.94 9 35 C14.28 35 19.56 35 25 35 C25 37.64 25 40.28 25 43 C16.75 43 8.5 43 0 43 C0 28.81 0 14.62 0 0 Z " fill="#31883E" transform="translate(259,126)"/>
<path d="M0 0 C0.804375 0.37125 0.804375 0.37125 1.625 0.75 C-6.70593258 10.56859911 -19.24461174 14.76642875 -31.375 17.75 C-32.02629883 17.91516113 -32.67759766 18.08032227 -33.34863281 18.25048828 C-45.14422402 21.07523734 -57.12958367 21.03555677 -69.1875 21.0625 C-69.98046478 21.06617584 -70.77342957 21.06985168 -71.59042358 21.07363892 C-90.18744858 21.11858075 -111.41756088 20.19021156 -126.375 7.75 C-127.035 7.09 -127.695 6.43 -128.375 5.75 C-128.045 4.76 -127.715 3.77 -127.375 2.75 C-126.68277344 3.13671875 -125.99054688 3.5234375 -125.27734375 3.921875 C-100.72004757 16.99321579 -70.97940996 16.6030895 -44 13.4375 C-42.99702881 13.31995361 -41.99405762 13.20240723 -40.96069336 13.08129883 C-28.98433924 11.51507553 -14.7265859 8.61027986 -4.8125 1.375 C-2.375 -0.25 -2.375 -0.25 0 0 Z " fill="#F0F9F1" transform="translate(154.375,136.25)"/>
<path d="M0 0 C3.28219978 -0.88892911 5.75343655 -1.10393193 9 0 C11.57522934 3.18962416 13.4633494 6.44771959 15.37109375 10.05859375 C16.67932183 13.07541131 16.67932183 13.07541131 19 14 C19.226875 13.34 19.45375 12.68 19.6875 12 C23.37704918 3.56674473 23.37704918 3.56674473 26 1 C29.10554267 0.31740589 31.87435917 0.5097034 35 1 C33.95842349 4.14258513 32.62668413 6.62671847 30.65234375 9.25 C22.55970975 20.25337648 21.55620558 29.52953396 22 43 C19.03 43 16.06 43 13 43 C13.06703125 41.63230469 13.1340625 40.26460937 13.203125 38.85546875 C13.47623068 24.17900723 10.00199715 15.21717273 1.08569336 3.62207031 C0 2 0 2 0 0 Z " fill="#92CB2E" transform="translate(485,126)"/>
<path d="M0 0 C3.160755 2.13167197 4.32031654 3.24263207 5.6875 6.8125 C6.23981116 11.46878992 6.30412729 15.43242939 4.375 19.75 C0.4375 24.5625 0.4375 24.5625 -3.3125 25.8125 C-8.10816077 26.20558695 -10.38157584 26.29520142 -14.6875 24.0625 C-17.91023128 21.3001589 -19.10105163 19.44016071 -19.6484375 15.2265625 C-19.7319693 9.26239227 -19.55452761 5.40802991 -15.3125 0.8125 C-10.87719489 -2.67238259 -4.96532322 -1.78002153 0 0 Z " fill="#FCFDFB" transform="translate(380.3125,135.1875)"/>
<path d="M0 0 C9.57 0 19.14 0 29 0 C29 2.64 29 5.28 29 8 C25.7 8 22.4 8 19 8 C19 19.55 19 31.1 19 43 C16.03 43 13.06 43 10 43 C10 31.45 10 19.9 10 8 C6.7 8 3.4 8 0 8 C0 5.36 0 2.72 0 0 Z " fill="#278142" transform="translate(222,126)"/>
<path d="M0 0 C2.97 0 5.94 0 9 0 C9 11.55 9 23.1 9 35 C13.29 35 17.58 35 22 35 C22 37.64 22 40.28 22 43 C14.74 43 7.48 43 0 43 C0 28.81 0 14.62 0 0 Z " fill="#3D913A" transform="translate(294,126)"/>
<path d="M0 0 C2.97 0 5.94 0 9 0 C9 11.22 9 22.44 9 34 C13.62 34 18.24 34 23 34 C23 36.64 23 39.28 23 42 C15.41 42 7.82 42 0 42 C0 28.14 0 14.28 0 0 Z " fill="#4D9B3C" transform="translate(324,127)"/>
<path d="M0 0 C1.78515625 1.55078125 1.78515625 1.55078125 3 3 C-4.75 2.125 -4.75 2.125 -7 1 C-7 2.65 -7 4.3 -7 6 C-5.4221875 5.9071875 -5.4221875 5.9071875 -3.8125 5.8125 C0.15816493 6.0077786 1.84196969 6.70325068 5 9 C4.67 9.99 4.34 10.98 4 12 C0.24092359 13.62323754 -2.92086213 14.23994929 -7 14 C-7 14.66 -7 15.32 -7 16 C-7.99 16 -8.98 16 -10 16 C-10 15.34 -10 14.68 -10 14 C-11.2375 14.04125 -12.475 14.0825 -13.75 14.125 C-17.01637962 14.13658291 -19.2146947 13.8568702 -22 12 C-22 11.34 -22 10.68 -22 10 C-17.24792529 9.56799321 -14.21789302 11.01510917 -10 13 C-10 11.02 -10 9.04 -10 7 C-10.93972656 7.03480469 -10.93972656 7.03480469 -11.8984375 7.0703125 C-13.12433594 7.09738281 -13.12433594 7.09738281 -14.375 7.125 C-15.18710938 7.14820313 -15.99921875 7.17140625 -16.8359375 7.1953125 C-19 7 -19 7 -21 5 C-20.625 2.875 -20.625 2.875 -20 1 C-13.33259261 -0.71650275 -6.77163448 -1.85132759 0 0 Z " fill="#0DA420" transform="translate(99,122)"/>
<path d="M0 0 C10.48788962 -0.37016081 10.48788962 -0.37016081 12.83203125 1.32421875 C14.64548905 3.92613646 14.38474673 5.92202612 14 9 C12.83203125 10.67578125 12.83203125 10.67578125 11 12 C7.29631297 12.40199208 3.73655831 12.13187853 0 12 C0 8.04 0 4.08 0 0 Z " fill="#FAFCF8" transform="translate(413,134)"/>
<path d="M0 0 C2.67394998 3.17196359 3.92531217 6.18852149 5.1875 10.125 C5.53167969 11.17945313 5.87585938 12.23390625 6.23046875 13.3203125 C7 16 7 16 7 18 C3.04 18 -0.92 18 -5 18 C-4.42934122 11.58008874 -2.32655091 5.98410537 0 0 Z " fill="#F4F9ED" transform="translate(460,135)"/>
<path d="M0 0 C1.27875 -0.061875 2.5575 -0.12375 3.875 -0.1875 C4.95394531 -0.23970703 4.95394531 -0.23970703 6.0546875 -0.29296875 C6.69664062 -0.19628906 7.33859375 -0.09960938 8 0 C8.66 0.99 9.32 1.98 10 3 C10.33 2.01 10.66 1.02 11 0 C11.66 0 12.32 0 13 0 C13 2.64 13 5.28 13 8 C12.01 7.67 11.02 7.34 10 7 C9.67 6.34 9.34 5.68 9 5 C8.67 5.99 8.34 6.98 8 8 C5.36 8 2.72 8 0 8 C0 5.36 0 2.72 0 0 Z " fill="#A8D091" transform="translate(461,183)"/>
<path d="M0 0 C1.65322266 0.01740234 1.65322266 0.01740234 3.33984375 0.03515625 C4.99693359 0.04869141 4.99693359 0.04869141 6.6875 0.0625 C7.54214844 0.07410156 8.39679688 0.08570313 9.27734375 0.09765625 C8.28734375 0.42765625 7.29734375 0.75765625 6.27734375 1.09765625 C6.27734375 1.75765625 6.27734375 2.41765625 6.27734375 3.09765625 C7.26734375 3.42765625 8.25734375 3.75765625 9.27734375 4.09765625 C8.61734375 4.09765625 7.95734375 4.09765625 7.27734375 4.09765625 C7.27734375 4.75765625 7.27734375 5.41765625 7.27734375 6.09765625 C7.93734375 6.09765625 8.59734375 6.09765625 9.27734375 6.09765625 C9.27734375 6.75765625 9.27734375 7.41765625 9.27734375 8.09765625 C0.61067708 8.09765625 0.61067708 8.09765625 -2.72265625 7.09765625 C-3.72265625 6.09765625 -3.72265625 6.09765625 -3.84765625 3.59765625 C-3.6726072 0.09667528 -3.52616912 0.12647665 0 0 Z " fill="#B8D8A5" transform="translate(235.72265625,182.90234375)"/>
<path d="M0 0 C1.20849609 0.10248047 1.20849609 0.10248047 2.44140625 0.20703125 C3.64603516 0.29017578 3.64603516 0.29017578 4.875 0.375 C7.00390625 1.01953125 7.00390625 1.01953125 8.2890625 3.0703125 C8.52496094 3.71355469 8.76085937 4.35679687 9.00390625 5.01953125 C1.71819196 8.59095982 1.71819196 8.59095982 -2.99609375 7.01953125 C-3.03863731 5.01998379 -3.03690158 3.01911489 -2.99609375 1.01953125 C-1.99609375 0.01953125 -1.99609375 0.01953125 0 0 Z " fill="#23AC35" transform="translate(94.99609375,127.98046875)"/>
<path d="M0 0 C2.64 0 5.28 0 8 0 C8 0.66 8 1.32 8 2 C7.34 2 6.68 2 6 2 C6 3.98 6 5.96 6 8 C5.67 8 5.34 8 5 8 C5 6.02 5 4.04 5 2 C4.01 2 3.02 2 2 2 C2 3.98 2 5.96 2 8 C-1.875 7.125 -1.875 7.125 -3 6 C-3.33 6.99 -3.66 7.98 -4 9 C-4.66 9 -5.32 9 -6 9 C-6 6.36 -6 3.72 -6 1 C-5.01 1 -4.02 1 -3 1 C-2.34 1.99 -1.68 2.98 -1 4 C-0.67 2.68 -0.34 1.36 0 0 Z " fill="#73B34E" transform="translate(415,182)"/>
<path d="M0 0 C2.97 0 5.94 0 9 0 C8.34 1.65 7.68 3.3 7 5 C7.66 5.33 8.32 5.66 9 6 C9 6.66 9 7.32 9 8 C6.03 8 3.06 8 0 8 C0 5.36 0 2.72 0 0 Z " fill="#BADAA8" transform="translate(283,183)"/>
<path d="M0 0 C0 1.65 0 3.3 0 5 C-1.45635371 5.22174933 -2.91522956 5.42698698 -4.375 5.625 C-5.18710938 5.74101562 -5.99921875 5.85703125 -6.8359375 5.9765625 C-7.55007812 5.98429688 -8.26421875 5.99203125 -9 6 C-9.66 5.34 -10.32 4.68 -11 4 C-10.75 1.9375 -10.75 1.9375 -10 0 C-6.7169902 -1.6415049 -3.57454967 -0.51888624 0 0 Z " fill="#22AC34" transform="translate(89,123)"/>
<path d="M0 0 C0.99 0 1.98 0 3 0 C3.66 1.65 4.32 3.3 5 5 C5.33 3.35 5.66 1.7 6 0 C6.66 0 7.32 0 8 0 C8 1.98 8 3.96 8 6 C8.99 6 9.98 6 11 6 C11 6.66 11 7.32 11 8 C7.14453537 8.07414355 3.70736197 8.09847762 0 7 C-0.66 7 -1.32 7 -2 7 C-1.34 4.69 -0.68 2.38 0 0 Z " fill="#7BB758" transform="translate(271,183)"/>
<path d="M0 0 C2.4375 0.1875 2.4375 0.1875 3.4375 1.1875 C3.625 3.625 3.625 3.625 3.4375 6.1875 C2.7775 6.8475 2.1175 7.5075 1.4375 8.1875 C-1.1875 7.8125 -1.1875 7.8125 -3.5625 7.1875 C-4.1875 4.8125 -4.1875 4.8125 -4.5625 2.1875 C-2.5625 0.1875 -2.5625 0.1875 0 0 Z " fill="#74B34E" transform="translate(344.5625,182.8125)"/>
<path d="M0 0 C1.98 0.99 1.98 0.99 4 2 C4.33 1.34 4.66 0.68 5 0 C5.66 0 6.32 0 7 0 C7 2.64 7 5.28 7 8 C6.01 7.67 5.02 7.34 4 7 C3.67 6.34 3.34 5.68 3 5 C2.67 5.99 2.34 6.98 2 8 C1.34 8 0.68 8 0 8 C0 5.36 0 2.72 0 0 Z " fill="#79B654" transform="translate(379,183)"/>
<path d="M0 0 C1.66611905 -0.042721 3.33382885 -0.04063832 5 0 C6 1 6 1 6.0625 4.0625 C6.041875 5.031875 6.02125 6.00125 6 7 C4.02 7 2.04 7 0 7 C0 4.69 0 2.38 0 0 Z " fill="#61A937" transform="translate(300,183)"/>
<path d="M0 0 C1.66611905 -0.042721 3.33382885 -0.04063832 5 0 C6 1 6 1 6.125 3.5 C6 6 6 6 5 7 C3.33382885 7.04063832 1.66611905 7.042721 0 7 C0 4.69 0 2.38 0 0 Z " fill="#98C77D" transform="translate(218,183)"/>
<path d="M0 0 C3.96 0.33 7.92 0.66 12 1 C12 1.66 12 2.32 12 3 C10.68 2.67 9.36 2.34 8 2 C8 2.66 8 3.32 8 4 C7.34 4 6.68 4 6 4 C6 3.34 6 2.68 6 2 C5.34 2 4.68 2 4 2 C4 4.31 4 6.62 4 9 C3.34 9 2.68 9 2 9 C2 6.69 2 4.38 2 2 C1.34 2 0.68 2 0 2 C0 1.34 0 0.68 0 0 Z " fill="#8BC06B" transform="translate(475,182)"/>
<path d="M0 0 C1.98 0.99 1.98 0.99 4 2 C4.33 1.34 4.66 0.68 5 0 C5.66 0 6.32 0 7 0 C7 2.31 7 4.62 7 7 C5.68 6.34 4.36 5.68 3 5 C2.67 5.99 2.34 6.98 2 8 C1.34 8 0.68 8 0 8 C0 5.36 0 2.72 0 0 Z " fill="#77B552" transform="translate(247,183)"/>
<path d="M0 0 C1.65 0 3.3 0 5 0 C4.979375 0.763125 4.95875 1.52625 4.9375 2.3125 C4.87057159 5.10185786 4.87057159 5.10185786 6 8 C5.34 8 4.68 8 4 8 C3.67 7.34 3.34 6.68 3 6 C2.67 6.66 2.34 7.32 2 8 C1.34 8 0.68 8 0 8 C0 5.36 0 2.72 0 0 Z " fill="#84BC63" transform="translate(262,183)"/>
<path d="M0 0 C0.99 0 1.98 0 3 0 C3 0.99 3 1.98 3 3 C3.66 3 4.32 3 5 3 C5 2.01 5 1.02 5 0 C5.99 0 6.98 0 8 0 C8 2.31 8 4.62 8 7 C7.34 6.34 6.68 5.68 6 5 C5.67 5.66 5.34 6.32 5 7 C4.34 7 3.68 7 3 7 C2.67 6.01 2.34 5.02 2 4 C1.34 4.99 0.68 5.98 0 7 C0 4.69 0 2.38 0 0 Z " fill="#68AD40" transform="translate(450,183)"/>
<path d="M0 0 C1.65 0 3.3 0 5 0 C6 3 6 3 6 7 C5.34 7 4.68 7 4 7 C3.67 6.34 3.34 5.68 3 5 C2.67 5.99 2.34 6.98 2 8 C1.34 8 0.68 8 0 8 C0 5.36 0 2.72 0 0 Z " fill="#87BE66" transform="translate(333,183)"/>
<path d="M0 0 C0.99 0 1.98 0 3 0 C4.25664978 2.90600261 5 4.79604584 5 8 C4.34 8 3.68 8 3 8 C3 7.34 3 6.68 3 6 C1.35 6.33 -0.3 6.66 -2 7 C-1.125 1.125 -1.125 1.125 0 0 Z " fill="#80BA5E" transform="translate(320,183)"/>
<path d="M0 0 C0.99 0 1.98 0 3 0 C3.66 2.64 4.32 5.28 5 8 C4.34 8 3.68 8 3 8 C3 7.34 3 6.68 3 6 C1.35 6.33 -0.3 6.66 -2 7 C-1.125 1.125 -1.125 1.125 0 0 Z " fill="#7FB95C" transform="translate(403,183)"/>
<path d="M0 0 C1.65 0 3.3 0 5 0 C5.33 1.32 5.66 2.64 6 4 C4.68 4.33 3.36 4.66 2 5 C2 5.99 2 6.98 2 8 C1.34 8 0.68 8 0 8 C0 5.36 0 2.72 0 0 Z " fill="#8ABF6A" transform="translate(311,183)"/>
<path d="M0 0 C0.99 0 1.98 0 3 0 C3.66 2.31 4.32 4.62 5 7 C2.69 7 0.38 7 -2 7 C-1.34 4.69 -0.68 2.38 0 0 Z " fill="#7BB758" transform="translate(436,183)"/>
<path d="M0 0 C1.98 0 3.96 0 6 0 C5.34 1.65 4.68 3.3 4 5 C4.66 5.33 5.32 5.66 6 6 C6 6.66 6 7.32 6 8 C4.02 8 2.04 8 0 8 C1.875 3.125 1.875 3.125 3 2 C2.01 1.34 1.02 0.68 0 0 Z " fill="#7FB95C" transform="translate(286,183)"/>
<path d="M0 0 C2.64 0 5.28 0 8 0 C8 0.66 8 1.32 8 2 C7.34 2 6.68 2 6 2 C6 3.98 6 5.96 6 8 C5.67 8 5.34 8 5 8 C5 6.02 5 4.04 5 2 C4.01 2 3.02 2 2 2 C2 3.98 2 5.96 2 8 C1.67 8 1.34 8 1 8 C0.67 5.36 0.34 2.72 0 0 Z " fill="#9ECB85" transform="translate(415,182)"/>
<path d="M0 0 C1.65 0 3.3 0 5 0 C4.01 0.33 3.02 0.66 2 1 C2 1.66 2 2.32 2 3 C2.99 3.33 3.98 3.66 5 4 C4.01 4 3.02 4 2 4 C2 4.66 2 5.32 2 6 C2.99 6 3.98 6 5 6 C5 6.66 5 7.32 5 8 C3.35 7.67 1.7 7.34 0 7 C0 4.69 0 2.38 0 0 Z " fill="#80BA5E" transform="translate(293,183)"/>
<path d="M0 0 C0 2.31 0 4.62 0 7 C-1.65 6.67 -3.3 6.34 -5 6 C-5 4.35 -5 2.7 -5 1 C-2 0 -2 0 0 0 Z " fill="#EDF5E8" transform="translate(300,183)"/>
<path d="M0 0 C0.66 0 1.32 0 2 0 C2 1.98 2 3.96 2 6 C2.99 6 3.98 6 5 6 C5 6.66 5 7.32 5 8 C2.69 8 0.38 8 -2 8 C-1.34 7.67 -0.68 7.34 0 7 C0 4.69 0 2.38 0 0 Z " fill="#9BC980" transform="translate(277,183)"/>
<path d="M0 0 C2.31 0.33 4.62 0.66 7 1 C7 1.66 7 2.32 7 3 C4.69 3.33 2.38 3.66 0 4 C0 2.68 0 1.36 0 0 Z " fill="#F1F9F2" transform="translate(92,130)"/>
<path d="M0 0 C0 1.65 0 3.3 0 5 C-2.97 4.505 -2.97 4.505 -6 4 C-6 3.01 -6 2.02 -6 1 C-3 0 -3 0 0 0 Z " fill="#DCF2DF" transform="translate(89,123)"/>
<path d="M0 0 C1.98 0 3.96 0 6 0 C5.34 2.64 4.68 5.28 4 8 C3.34 8 2.68 8 2 8 C1.34 5.36 0.68 2.72 0 0 Z " fill="#7BB757" transform="translate(442,183)"/>
<path d="M0 0 C1.32 0.33 2.64 0.66 4 1 C3.01 1 2.02 1 1 1 C1 1.66 1 2.32 1 3 C1.99 3.33 2.98 3.66 4 4 C3.34 4 2.68 4 2 4 C2 4.66 2 5.32 2 6 C2.66 6 3.32 6 4 6 C4 6.66 4 7.32 4 8 C2.68 8 1.36 8 0 8 C0 5.36 0 2.72 0 0 Z " fill="#74B34E" transform="translate(241,183)"/>
<path d="M0 0 C1.98 0.495 1.98 0.495 4 1 C3.67 2.32 3.34 3.64 3 5 C1.68 5 0.36 5 -1 5 C-0.67 3.35 -0.34 1.7 0 0 Z " fill="#EBF4E6" transform="translate(343,184)"/>
<path d="M0 0 C1.98 0 3.96 0 6 0 C5.34 2.64 4.68 5.28 4 8 C3.34 8 2.68 8 2 8 C1.34 5.36 0.68 2.72 0 0 Z " fill="#7CB858" transform="translate(326,183)"/>
<path d="M0 0 C0.66 0 1.32 0 2 0 C2 1.98 2 3.96 2 6 C2.99 6 3.98 6 5 6 C5 6.66 5 7.32 5 8 C3.35 8 1.7 8 0 8 C0 5.36 0 2.72 0 0 Z " fill="#89BF6A" transform="translate(355,183)"/>
<path d="M0 0 C0.66 0 1.32 0 2 0 C2 2.64 2 5.28 2 8 C1.01 7.67 0.02 7.34 -1 7 C-1.8125 5.125 -1.8125 5.125 -2 3 C-1.34 2.01 -0.68 1.02 0 0 Z " fill="#76B552" transform="translate(472,183)"/>
<path d="M0 0 C4.55384615 -0.36923077 4.55384615 -0.36923077 6.8125 1.5 C7.204375 1.995 7.59625 2.49 8 3 C5.39417629 3.93065133 4.35801776 4.14917407 1.75 3.0625 C1.1725 2.711875 0.595 2.36125 0 2 C0 1.34 0 0.68 0 0 Z " fill="#32B242" transform="translate(77,132)"/>
<path d="M0 0 C0.66 0 1.32 0 2 0 C2 1.98 2 3.96 2 6 C2.66 6 3.32 6 4 6 C4 6.66 4 7.32 4 8 C2.68 8 1.36 8 0 8 C0 5.36 0 2.72 0 0 Z " fill="#84BC62" transform="translate(350,183)"/>
<path d="M0 0 C1.32 0.33 2.64 0.66 4 1 C3.67 2.32 3.34 3.64 3 5 C2.01 5 1.02 5 0 5 C0 3.35 0 1.7 0 0 Z " fill="#DBECD2" transform="translate(301,184)"/>
<path d="M0 0 C0.33 1.32 0.66 2.64 1 4 C-0.98 4.99 -0.98 4.99 -3 6 C-3.33 4.35 -3.66 2.7 -4 1 C-2.68 0.67 -1.36 0.34 0 0 Z " fill="#F1F7EE" transform="translate(246,183)"/>
</svg>
