<?xml version="1.0" encoding="UTF-8"?>
<svg version="1.1" xmlns="http://www.w3.org/2000/svg" width="568" height="330">
<path d="M0 0 C187.44 0 374.88 0 568 0 C568 108.9 568 217.8 568 330 C380.56 330 193.12 330 0 330 C0 221.1 0 112.2 0 0 Z " fill="#FEFEFE" transform="translate(0,0)"/>
<path d="M0 0 C4.63809404 1.69468821 7.59163197 3.64641164 10 8 C10.82911185 13.05927436 10.58687773 16.84720445 8.25 21.4375 C5.51540672 24.5518979 3.58137501 26.71334592 -0.5859375 27.46875 C-9.04558011 27.56353591 -9.04558011 27.56353591 -12.5625 24.75 C-16.40068531 20.41973965 -17.43423857 17.97766782 -17.24609375 12.0234375 C-16.6773086 7.34675964 -14.77808019 4.68760575 -11.3125 1.625 C-7.27397246 -0.35616445 -4.40826377 -0.72295526 0 0 Z " fill="#2C5E89" transform="translate(282,121)"/>
<path d="M0 0 C2.29974688 2.90072603 4.04155625 5.82588832 5.69921875 9.1328125 C6.42915039 10.58880859 6.42915039 10.58880859 7.17382812 12.07421875 C7.67333984 13.08097656 8.17285156 14.08773437 8.6875 15.125 C9.19861328 16.13949219 9.70972656 17.15398437 10.23632812 18.19921875 C10.71908203 19.16730469 11.20183594 20.13539063 11.69921875 21.1328125 C12.14096436 22.01855957 12.58270996 22.90430664 13.0378418 23.81689453 C14 26 14 26 14 28 C4.76 28 -4.48 28 -14 28 C-9.33333333 18.66666667 -4.66666667 9.33333333 0 0 Z " fill="#3D6B92" transform="translate(333,121)"/>
<path d="M0 0 C13.82857143 0 13.82857143 0 18.375 4.1875 C20 7 20 7 20.0625 10.5625 C18.77408944 14.73088712 17.84219511 15.9562792 14 18 C11.23869228 18.3119255 8.79489443 18.18948437 6 18 C6 20.97 6 23.94 6 27 C4.02 27 2.04 27 0 27 C0 18.09 0 9.18 0 0 Z " fill="#36658E" transform="translate(296,121)"/>
<path d="M0 0 C2.5 1.5 2.5 1.5 4 3 C3.6875 4.9375 3.6875 4.9375 3 7 C2.01 7.33 1.02 7.66 0 8 C-0.33 7.34 -0.66 6.68 -1 6 C-2.65 6 -4.3 6 -6 6 C-5.84042464 7.95117953 -5.84042464 7.95117953 -5 10 C-2.9897793 11.24474446 -2.9897793 11.24474446 -0.5625 12.0625 C2.99865651 13.3943611 3.79695316 13.69542974 6 17 C5.77674803 23.25105503 5.77674803 23.25105503 3.25390625 25.68359375 C-0.65302623 27.96545899 -4.63065451 27.91057442 -9 27 C-11.36011496 25.19459055 -12.3948524 23.56823615 -14 21 C-12.35 20.34 -10.7 19.68 -9 19 C-8.34 19.66 -7.68 20.32 -7 21 C-3.91652174 21.16681109 -3.91652174 21.16681109 -1 21 C-1 20.01 -1 19.02 -1 18 C-1.71027344 17.65066406 -2.42054688 17.30132812 -3.15234375 16.94140625 C-4.07144531 16.48636719 -4.99054688 16.03132813 -5.9375 15.5625 C-6.85402344 15.11003906 -7.77054688 14.65757812 -8.71484375 14.19140625 C-11 13 -11 13 -12 12 C-12.57692308 4.96153846 -12.57692308 4.96153846 -10.5 1.5 C-6.98847281 -0.60691631 -4.0001692 -0.71314492 0 0 Z " fill="#2F608B" transform="translate(174,121)"/>
<path d="M0 0 C5.28 0 10.56 0 16 0 C16 1.32 16 2.64 16 4 C12.37 4 8.74 4 5 4 C5 5.98 5 7.96 5 10 C7.64 10 10.28 10 13 10 C13 11.65 13 13.3 13 15 C10.36 15 7.72 15 5 15 C5 16.98 5 18.96 5 21 C8.63 21 12.26 21 16 21 C16 22.65 16 24.3 16 26 C10.72 26 5.44 26 0 26 C0 17.42 0 8.84 0 0 Z " fill="#245884" transform="translate(205,122)"/>
<path d="M0 0 C2.625 -0.5625 2.625 -0.5625 6 0 C8.39920247 2.7720515 10.21328523 5.80672254 12 9 C14.33484113 6.8261824 15.92660524 5.1537795 17.3125 2.25 C17.869375 1.5075 18.42625 0.765 19 0 C22.6875 -0.3125 22.6875 -0.3125 26 0 C24.87540329 1.77108948 23.75030797 3.54186236 22.625 5.3125 C21.99851562 6.29863281 21.37203125 7.28476563 20.7265625 8.30078125 C19.50348387 10.21287929 18.2590644 12.1114034 17 14 C16.70547416 16.38677076 16.5071783 18.78626094 16.375 21.1875 C16.30023438 22.45980469 16.22546875 23.73210937 16.1484375 25.04296875 C16.09945313 26.01878906 16.05046875 26.99460938 16 28 C14.02 28 12.04 28 10 28 C10.03222656 27.21238281 10.06445312 26.42476562 10.09765625 25.61328125 C10.00015637 16.45912614 7.37455815 11.54668397 1.93359375 4.58203125 C0 2 0 2 0 0 Z " fill="#2F608B" transform="translate(352,121)"/>
<path d="M0 0 C6.27 0 12.54 0 19 0 C19 1.98 19 3.96 19 6 C16.69 6 14.38 6 12 6 C12 12.93 12 19.86 12 27 C10.02 27 8.04 27 6 27 C6 20.07 6 13.14 6 6 C4.02 6 2.04 6 0 6 C0 4.02 0 2.04 0 0 Z " fill="#38678F" transform="translate(182,121)"/>
<path d="M0 0 C1.98 0 3.96 0 6 0 C6 7.26 6 14.52 6 22 C9.3 22 12.6 22 16 22 C16 23.65 16 25.3 16 27 C10.72 27 5.44 27 0 27 C0 18.09 0 9.18 0 0 Z " fill="#32628C" transform="translate(245,121)"/>
<path d="M0 0 C1.98 0 3.96 0 6 0 C6 7.26 6 14.52 6 22 C9.3 22 12.6 22 16 22 C16 23.65 16 25.3 16 27 C10.72 27 5.44 27 0 27 C0 18.09 0 9.18 0 0 Z " fill="#2C5E89" transform="translate(225,121)"/>
<path d="M0 0 C5.09742647 1.73529412 5.09742647 1.73529412 6.9375 4 C7.73975356 8.31415943 7.67966488 11.7828496 5.375 15.5625 C1.98231874 17.56331202 -0.18964161 17.55326548 -4.0625 17 C-6.5 15.5 -6.5 15.5 -8.0625 13 C-8.78148986 7.967071 -8.84893017 6.13338465 -5.9375 1.9375 C-3.0625 0 -3.0625 0 0 0 Z " fill="#F8FAFB" transform="translate(279.0625,126)"/>
<path d="M0 0 C2.3125 1.5625 2.3125 1.5625 4 4 C4.5 7.5625 4.5 7.5625 4 11 C2.4375 13 2.4375 13 0 14 C-3.77579201 13.93375803 -6.07482922 13.78061285 -9 11.3125 C-10.38906225 8.10029355 -10.05521374 6.3063364 -9 3 C-6.2508508 0.054483 -3.9684007 -0.69447012 0 0 Z " fill="#57B2CB" transform="translate(260,156)"/>
<path d="M0 0 C7.11008111 -0.4820394 7.11008111 -0.4820394 11 1.625 C13 4 13 4 13.625 7 C13 10 13 10 10.875 12.375 C7.60790131 14.221621 5.69212837 14.3434538 2 14 C1.93941406 13.24074219 1.87882813 12.48148438 1.81640625 11.69921875 C1.73261719 10.70535156 1.64882812 9.71148437 1.5625 8.6875 C1.48128906 7.70136719 1.40007812 6.71523437 1.31640625 5.69921875 C1.08187441 2.90624401 1.08187441 2.90624401 0 0 Z " fill="#70BED3" transform="translate(175,156)"/>
<path d="M0 0 C7.11008111 -0.4820394 7.11008111 -0.4820394 11 1.625 C13 4 13 4 13.625 7 C13 10 13 10 10.875 12.375 C7.60790131 14.221621 5.69212837 14.3434538 2 14 C1.93941406 13.24074219 1.87882812 12.48148438 1.81640625 11.69921875 C1.73261719 10.70535156 1.64882813 9.71148437 1.5625 8.6875 C1.48128906 7.70136719 1.40007813 6.71523437 1.31640625 5.69921875 C1.08187441 2.90624401 1.08187441 2.90624401 0 0 Z " fill="#6EBDD2" transform="translate(19,156)"/>
<path d="M0 0 C2.29648357 2.89585905 4.04347557 5.8172031 5.6875 9.125 C6.34298828 10.42824219 6.34298828 10.42824219 7.01171875 11.7578125 C8 14 8 14 8 16 C4.7 16 1.4 16 -2 16 C-2 15.34 -2 14.68 -2 14 C-0.02 13.67 1.96 13.34 4 13 C3.01 11.02 2.02 9.04 1 7 C-1.63740372 10.26535698 -3.03781867 13.07563735 -5 17 C-0.05 17.33 4.9 17.66 10 18 C10 18.66 10 19.32 10 20 C3.73 20 -2.54 20 -9 20 C-6.75 13.25 -6.75 13.25 -5.2734375 10.3515625 C-4.9640625 9.73925781 -4.6546875 9.12695312 -4.3359375 8.49609375 C-3.86027344 7.56990234 -3.86027344 7.56990234 -3.375 6.625 C-2.88773437 5.66400391 -2.88773437 5.66400391 -2.390625 4.68359375 C-1.59742593 3.12052499 -0.79922969 1.55999378 0 0 Z " fill="#E9EEF2" transform="translate(333,126)"/>
<path d="M0 0 C1.258125 -0.04125 2.51625 -0.0825 3.8125 -0.125 C4.52019531 -0.14820313 5.22789062 -0.17140625 5.95703125 -0.1953125 C8 0 8 0 11 2 C11.33694826 5.20100846 10.91004613 7.92859432 10 11 C10.66 11.33 11.32 11.66 12 12 C12 12.66 12 13.32 12 14 C10.125 13.75 10.125 13.75 8 13 C7.33333333 11.66666667 6.66666667 10.33333333 6 9 C3.94999129 8.19471111 3.94999129 8.19471111 2 8 C2 9.98 2 11.96 2 14 C1.34 14 0.68 14 0 14 C0 9.38 0 4.76 0 0 Z " fill="#6EBDD2" transform="translate(236,156)"/>
<path d="M0 0 C3.3 0 6.6 0 10 0 C10.80967438 2.91482778 11.21845993 4.46113217 10.0625 7.3125 C9.711875 7.869375 9.36125 8.42625 9 9 C9.99 9.66 10.98 10.32 12 11 C12 11.66 12 12.32 12 13 C10.125 12.8125 10.125 12.8125 8 12 C6.75 9.4375 6.75 9.4375 6 7 C4.68 7 3.36 7 2 7 C2 8.98 2 10.96 2 13 C1.34 13 0.68 13 0 13 C0 8.71 0 4.42 0 0 Z " fill="#5EB5CD" transform="translate(104,157)"/>
<path d="M0 0 C3.625 0.1875 3.625 0.1875 6.625 2.1875 C6.875 4.75 6.875 4.75 6.625 7.1875 C5.625 8.1875 5.625 8.1875 2.0625 8.25 C0.928125 8.229375 -0.20625 8.20875 -1.375 8.1875 C-1.375 10.1675 -1.375 12.1475 -1.375 14.1875 C-2.365 14.1875 -3.355 14.1875 -4.375 14.1875 C-4.40185938 12.04173363 -4.42133088 9.89587355 -4.4375 7.75 C-4.44910156 6.55503906 -4.46070313 5.36007813 -4.47265625 4.12890625 C-4.33354004 -0.06127396 -4.25969819 0.2366499 0 0 Z " fill="#87C8DA" transform="translate(413.375,155.8125)"/>
<path d="M0 0 C1.23556641 0.01740234 1.23556641 0.01740234 2.49609375 0.03515625 C3.32238281 0.04417969 4.14867187 0.05320313 5 0.0625 C5.63808594 0.07410156 6.27617187 0.08570313 6.93359375 0.09765625 C6.93359375 1.08765625 6.93359375 2.07765625 6.93359375 3.09765625 C4.62359375 3.09765625 2.31359375 3.09765625 -0.06640625 3.09765625 C-0.06640625 4.08765625 -0.06640625 5.07765625 -0.06640625 6.09765625 C1.58359375 6.09765625 3.23359375 6.09765625 4.93359375 6.09765625 C4.93359375 6.75765625 4.93359375 7.41765625 4.93359375 8.09765625 C3.28359375 8.09765625 1.63359375 8.09765625 -0.06640625 8.09765625 C-0.06640625 9.08765625 -0.06640625 10.07765625 -0.06640625 11.09765625 C2.57359375 11.09765625 5.21359375 11.09765625 7.93359375 11.09765625 C7.93359375 12.08765625 7.93359375 13.07765625 7.93359375 14.09765625 C4.30359375 14.09765625 0.67359375 14.09765625 -3.06640625 14.09765625 C-3.09326563 11.95188988 -3.11273713 9.8060298 -3.12890625 7.66015625 C-3.14050781 6.46519531 -3.15210938 5.27023438 -3.1640625 4.0390625 C-3.03472503 0.14341801 -3.03472503 0.14341801 0 0 Z " fill="#75C0D4" transform="translate(470.06640625,155.90234375)"/>
<path d="M0 0 C3.00048246 3.58211445 4.77698774 7.53012116 6.6875 11.75 C7.16799805 12.79607422 7.16799805 12.79607422 7.65820312 13.86328125 C8.44306261 15.57357208 9.22211648 17.28652507 10 19 C9.01 19 8.02 19 7 19 C4.03 13.06 4.03 13.06 1 7 C-1.55820816 10.41094421 -3.32943579 13.45129095 -5.1875 17.25 C-5.98220703 18.86648437 -5.98220703 18.86648437 -6.79296875 20.515625 C-7.19128906 21.33546875 -7.58960938 22.1553125 -8 23 C-8.66 22.67 -9.32 22.34 -10 22 C-8.4719611 16.90117545 -6.28963144 12.34334341 -3.875 7.625 C-3.50246094 6.88894531 -3.12992187 6.15289062 -2.74609375 5.39453125 C-1.8343878 3.59449642 -0.91770068 1.79698598 0 0 Z " fill="#34648D" transform="translate(333,121)"/>
<path d="M0 0 C2.66666667 1.33333333 5.33333333 2.66666667 8 4 C8.99 2.68 9.98 1.36 11 0 C11.99 0.33 12.98 0.66 14 1 C13.67 4.96 13.34 8.92 13 13 C12.34 13 11.68 13 11 13 C10.67 10.69 10.34 8.38 10 6 C8.02 6.99 8.02 6.99 6 8 C5.34 7.34 4.68 6.68 4 6 C3.67 8.31 3.34 10.62 3 13 C2.01 13 1.02 13 0 13 C0 8.71 0 4.42 0 0 Z " fill="#72BED3" transform="translate(450,157)"/>
<path d="M0 0 C7 0 7 0 10 2 C10.25 4.5625 10.25 4.5625 10 7 C9 8 9 8 5.4375 8.0625 C4.303125 8.041875 3.16875 8.02125 2 8 C2 9.98 2 11.96 2 14 C1.34 14 0.68 14 0 14 C0 9.38 0 4.76 0 0 Z " fill="#63B8CE" transform="translate(196,156)"/>
<path d="M0 0 C0.66 0 1.32 0 2 0 C3.00484204 1.95585325 4.00373805 3.91476237 5 5.875 C5.556875 6.96554688 6.11375 8.05609375 6.6875 9.1796875 C8 12 8 12 8 14 C7.01 13.67 6.02 13.34 5 13 C1.31617231 12.86843473 -1.49053585 12.83017862 -5 14 C-3.46527032 9.27775484 -1.76054874 4.64144669 0 0 Z " fill="#92CDDD" transform="translate(213,156)"/>
<path d="M0 0 C1.23556641 0.01740234 1.23556641 0.01740234 2.49609375 0.03515625 C3.32238281 0.04417969 4.14867188 0.05320313 5 0.0625 C5.63808594 0.07410156 6.27617188 0.08570313 6.93359375 0.09765625 C6.93359375 1.08765625 6.93359375 2.07765625 6.93359375 3.09765625 C4.62359375 3.09765625 2.31359375 3.09765625 -0.06640625 3.09765625 C-0.06640625 4.08765625 -0.06640625 5.07765625 -0.06640625 6.09765625 C1.58359375 6.09765625 3.23359375 6.09765625 4.93359375 6.09765625 C4.93359375 6.75765625 4.93359375 7.41765625 4.93359375 8.09765625 C2.95359375 8.09765625 0.97359375 8.09765625 -1.06640625 8.09765625 C-1.06640625 9.41765625 -1.06640625 10.73765625 -1.06640625 12.09765625 C1.90359375 12.09765625 4.87359375 12.09765625 7.93359375 12.09765625 C7.93359375 12.75765625 7.93359375 13.41765625 7.93359375 14.09765625 C4.30359375 14.09765625 0.67359375 14.09765625 -3.06640625 14.09765625 C-3.09326563 11.95188988 -3.11273713 9.8060298 -3.12890625 7.66015625 C-3.14050781 6.46519531 -3.15210938 5.27023438 -3.1640625 4.0390625 C-3.03472503 0.14341801 -3.03472503 0.14341801 0 0 Z " fill="#70BDD2" transform="translate(65.06640625,155.90234375)"/>
<path d="M0 0 C0.66 0 1.32 0 2 0 C3.00484204 1.95585325 4.00373805 3.91476237 5 5.875 C5.556875 6.96554688 6.11375 8.05609375 6.6875 9.1796875 C8 12 8 12 8 14 C7.34 14 6.68 14 6 14 C6 13.34 6 12.68 6 12 C4.741875 12.144375 3.48375 12.28875 2.1875 12.4375 C1.12595703 12.55931641 1.12595703 12.55931641 0.04296875 12.68359375 C-2.19396393 12.97170735 -2.19396393 12.97170735 -5 14 C-3.46527032 9.27775484 -1.76054874 4.64144669 0 0 Z " fill="#92CDDD" transform="translate(366,156)"/>
<path d="M0 0 C4.81429916 2.40714958 6.6345082 4.86962371 10 9 C10.33 6.03 10.66 3.06 11 0 C11.66 0 12.32 0 13 0 C13 4.62 13 9.24 13 14 C12.01 14 11.02 14 10 14 C8.39453125 12.25 8.39453125 12.25 6.8125 10 C6.28269531 9.2575 5.75289063 8.515 5.20703125 7.75 C4.80871094 7.1725 4.41039062 6.595 4 6 C3.67 8.64 3.34 11.28 3 14 C2.34 14 1.68 14 1 14 C0.67 9.38 0.34 4.76 0 0 Z " fill="#68BAD0" transform="translate(376,156)"/>
<path d="M0 0 C4.81429916 2.40714958 6.6345082 4.86962371 10 9 C10.33 6.03 10.66 3.06 11 0 C11.66 0 12.32 0 13 0 C13 4.62 13 9.24 13 14 C12.01 14 11.02 14 10 14 C8.39453125 12.25 8.39453125 12.25 6.8125 10 C6.28269531 9.2575 5.75289063 8.515 5.20703125 7.75 C4.80871094 7.1725 4.41039063 6.595 4 6 C3.67 8.64 3.34 11.28 3 14 C2.34 14 1.68 14 1 14 C0.67 9.38 0.34 4.76 0 0 Z " fill="#68BAD0" transform="translate(75,156)"/>
<path d="M0 0 C3 1 3 1 4.38671875 3.21484375 C4.81597656 4.11332031 5.24523437 5.01179687 5.6875 5.9375 C6.12449219 6.83339844 6.56148438 7.72929687 7.01171875 8.65234375 C8 11 8 11 8 13 C7.01 12.67 6.02 12.34 5 12 C1.31617231 11.86843473 -1.49053585 11.83017862 -5 13 C-4.54554036 11.58208592 -4.08625056 10.16571954 -3.625 8.75 C-3.24214844 7.56664062 -3.24214844 7.56664062 -2.8515625 6.359375 C-2.04826333 4.13372042 -1.10288338 2.09068328 0 0 Z " fill="#75C0D4" transform="translate(427,157)"/>
<path d="M0 0 C3 1 3 1 4.38671875 3.43359375 C4.81597656 4.42488281 5.24523437 5.41617188 5.6875 6.4375 C6.34298828 7.92056641 6.34298828 7.92056641 7.01171875 9.43359375 C8 12 8 12 8 14 C7.34 14 6.68 14 6 14 C6 13.34 6 12.68 6 12 C0.8306511 12.40556131 0.8306511 12.40556131 -4 14 C-3.21824485 9.15311808 -1.60155722 4.6233633 0 0 Z " fill="#53B0CA" transform="translate(122,156)"/>
<path d="M0 0 C4.81429916 2.40714958 6.6345082 4.86962371 10 9 C10.33 6.03 10.66 3.06 11 0 C11.66 0 12.32 0 13 0 C13 4.62 13 9.24 13 14 C12.01 14 11.02 14 10 14 C8.39453125 12.25 8.39453125 12.25 6.8125 10 C6.28269531 9.2575 5.75289063 8.515 5.20703125 7.75 C4.80871094 7.1725 4.41039062 6.595 4 6 C3.67 8.64 3.34 11.28 3 14 C2.34 14 1.68 14 1 14 C0.67 9.38 0.34 4.76 0 0 Z " fill="#68BAD0" transform="translate(480,156)"/>
<path d="M0 0 C3.4375 0.1875 3.4375 0.1875 4.4375 1.1875 C4.625 4.125 4.625 4.125 4.4375 7.1875 C3.7775 7.8475 3.1175 8.5075 2.4375 9.1875 C-1.1875 8.8125 -1.1875 8.8125 -4.5625 8.1875 C-5.1875 5.3125 -5.1875 5.3125 -5.5625 2.1875 C-3.5625 0.1875 -3.5625 0.1875 0 0 Z " fill="#F8FCFD" transform="translate(257.5625,158.8125)"/>
<path d="M0 0 C0.66 0 1.32 0 2 0 C2 4.62 2 9.24 2 14 C-2.0084034 11.9957983 -3.41409657 10.50944037 -6 7 C-6.33 9.31 -6.66 11.62 -7 14 C-7.66 14 -8.32 14 -9 14 C-9.33 9.71 -9.66 5.42 -10 1 C-9.01 1 -8.02 1 -7 1 C-5.39453125 2.75 -5.39453125 2.75 -3.8125 5 C-3.28269531 5.7425 -2.75289063 6.485 -2.20703125 7.25 C-1.80871094 7.8275 -1.41039062 8.405 -1 9 C-0.67 6.03 -0.34 3.06 0 0 Z " fill="#58B3CB" transform="translate(331,156)"/>
<path d="M0 0 C2.97 0 5.94 0 9 0 C9 0.99 9 1.98 9 3 C6.69 3 4.38 3 2 3 C2 3.99 2 4.98 2 6 C3.65 6 5.3 6 7 6 C7 6.66 7 7.32 7 8 C5.35 8 3.7 8 2 8 C2 9.32 2 10.64 2 12 C4.64 12 7.28 12 10 12 C10 12.66 10 13.32 10 14 C6.7 14 3.4 14 0 14 C0 9.38 0 4.76 0 0 Z " fill="#4DAEC8" transform="translate(35,156)"/>
<path d="M0 0 C0.78375 0.04125 1.5675 0.0825 2.375 0.125 C2.705 1.115 3.035 2.105 3.375 3.125 C0.405 2.63 0.405 2.63 -2.625 2.125 C-2.625 3.445 -2.625 4.765 -2.625 6.125 C-1.635 6.125 -0.645 6.125 0.375 6.125 C0.375 6.785 0.375 7.445 0.375 8.125 C-0.945 8.125 -2.265 8.125 -3.625 8.125 C-3.625 9.445 -3.625 10.765 -3.625 12.125 C-1.645 11.465 0.335 10.805 2.375 10.125 C2.375 8.805 2.375 7.485 2.375 6.125 C3.695 6.125 5.015 6.125 6.375 6.125 C6.045 8.765 5.715 11.405 5.375 14.125 C4.055 14.125 2.735 14.125 1.375 14.125 C0.075625 14.186875 0.075625 14.186875 -1.25 14.25 C-3.625 14.125 -3.625 14.125 -5.625 12.125 C-5.671875 9.8125 -5.671875 9.8125 -5.375 7.125 C-5.28734375 6.238125 -5.1996875 5.35125 -5.109375 4.4375 C-4.39577378 1.03062965 -3.48613381 0.16600637 0 0 Z " fill="#52B0C9" transform="translate(300.625,155.875)"/>
<path d="M0 0 C1.2375 0.1546875 1.2375 0.1546875 2.5 0.3125 C3.16 1.3025 3.82 2.2925 4.5 3.3125 C2.19 3.3125 -0.12 3.3125 -2.5 3.3125 C-2.5 4.3025 -2.5 5.2925 -2.5 6.3125 C-1.076875 6.2815625 -1.076875 6.2815625 0.375 6.25 C3.5 6.3125 3.5 6.3125 5.5 7.3125 C5.6875 9.6875 5.6875 9.6875 5.5 12.3125 C2.0647952 14.60263653 0.514669 14.49092973 -3.5 14.3125 C-4.16 12.9925 -4.82 11.6725 -5.5 10.3125 C-2.86 10.6425 -0.22 10.9725 2.5 11.3125 C2.83 10.3225 3.16 9.3325 3.5 8.3125 C2.1078125 8.374375 2.1078125 8.374375 0.6875 8.4375 C-2.5 8.3125 -2.5 8.3125 -5.5 6.3125 C-4.75209413 2.57297064 -4.13310341 0.51663793 0 0 Z " fill="#58B3CB" transform="translate(513.5,155.6875)"/>
<path d="M0 0 C2.97 0 5.94 0 9 0 C9 0.99 9 1.98 9 3 C6.69 3 4.38 3 2 3 C2 3.99 2 4.98 2 6 C3.65 6 5.3 6 7 6 C7 6.66 7 7.32 7 8 C5.35 8 3.7 8 2 8 C2 9.32 2 10.64 2 12 C4.64 12 7.28 12 10 12 C10 12.66 10 13.32 10 14 C6.7 14 3.4 14 0 14 C0 9.38 0 4.76 0 0 Z " fill="#4FAEC8" transform="translate(163,156)"/>
<path d="M0 0 C2.97 0 5.94 0 9 0 C8.55530671 5.03985731 6.28656638 7.37634988 3 11 C5.31 11.33 7.62 11.66 10 12 C10 12.66 10 13.32 10 14 C6.37 14 2.74 14 -1 14 C0.19344938 9.22620248 1.79645765 7.61425291 5 4 C3.35 3.67 1.7 3.34 0 3 C0 2.01 0 1.02 0 0 Z " fill="#5AB3CC" transform="translate(150,156)"/>
<path d="M0 0 C1.2065625 0.0309375 1.2065625 0.0309375 2.4375 0.0625 C3.0975 1.3825 3.7575 2.7025 4.4375 4.0625 C1.4675 3.5675 1.4675 3.5675 -1.5625 3.0625 C-1.8925 4.0525 -2.2225 5.0425 -2.5625 6.0625 C-0.8609375 6.0315625 -0.8609375 6.0315625 0.875 6 C4.4375 6.0625 4.4375 6.0625 5.4375 7.0625 C5.6875 9.5 5.6875 9.5 5.4375 12.0625 C1.5871895 14.62937367 -0.14819763 13.89538724 -4.5625 13.0625 C-4.5625 12.0725 -4.5625 11.0825 -4.5625 10.0625 C-2.2525 10.3925 0.0575 10.7225 2.4375 11.0625 C2.7675 10.0725 3.0975 9.0825 3.4375 8.0625 C2.48875 8.10375 1.54 8.145 0.5625 8.1875 C-2.5625 8.0625 -2.5625 8.0625 -4.5625 6.0625 C-3.83457637 0.09352625 -3.83457637 0.09352625 0 0 Z " fill="#55B1CA" transform="translate(341.5625,155.9375)"/>
<path d="M0 0 C3.63 0 7.26 0 11 0 C11 0.99 11 1.98 11 3 C9.68 3 8.36 3 7 3 C7 6.63 7 10.26 7 14 C6.01 14 5.02 14 4 14 C4 10.37 4 6.74 4 3 C2.68 3 1.36 3 0 3 C0 2.01 0 1.02 0 0 Z " fill="#82C6D8" transform="translate(349,156)"/>
<path d="M0 0 C0.66 0 1.32 0 2 0 C1.67 1.32 1.34 2.64 1 4 C8.59 3.67 16.18 3.34 24 3 C24.33 3.99 24.66 4.98 25 6 C15.76 6 6.52 6 -3 6 C-2.01 4.02 -1.02 2.04 0 0 Z " fill="#537C9E" transform="translate(322,143)"/>
<path d="M0 0 C0.66 0.99 1.32 1.98 2 3 C-0.64 3.33 -3.28 3.66 -6 4 C-6.67958603 6.39719432 -6.67958603 6.39719432 -7 9 C-5.18314627 11.26349674 -5.18314627 11.26349674 -2.5625 11.125 C-1.2940625 11.063125 -1.2940625 11.063125 0 11 C0.99 11 1.98 11 3 11 C1.9375 12.5625 1.9375 12.5625 0 14 C-3.75281005 13.93298553 -6.08874514 13.76887129 -9 11.3125 C-10.38906225 8.10029355 -10.05521374 6.3063364 -9 3 C-6.25315419 0.05695092 -3.97188647 -0.62713997 0 0 Z " fill="#5EB6CD" transform="translate(57,156)"/>
<path d="M0 0 C0.99 0.33 1.98 0.66 3 1 C3 4.3 3 7.6 3 11 C5.31 11 7.62 11 10 11 C10 11.99 10 12.98 10 14 C6.7 14 3.4 14 0 14 C0 9.38 0 4.76 0 0 Z " fill="#83C6D9" transform="translate(267,156)"/>
<path d="M0 0 C2.375 -0.125 2.375 -0.125 5 0 C5.66 0.66 6.32 1.32 7 2 C6.43181818 7.56818182 6.43181818 7.56818182 5 9 C3.33382885 9.04063832 1.66611905 9.042721 0 9 C0 6.03 0 3.06 0 0 Z " fill="#F5FAFC" transform="translate(179,159)"/>
<path d="M0 0 C2.375 -0.125 2.375 -0.125 5 0 C5.66 0.66 6.32 1.32 7 2 C6.43181818 7.56818182 6.43181818 7.56818182 5 9 C3.33382885 9.04063832 1.66611905 9.042721 0 9 C0 6.03 0 3.06 0 0 Z " fill="#F7FBFC" transform="translate(23,159)"/>
<path d="M0 0 C2.33294775 -0.04241723 4.66702567 -0.04092937 7 0 C8 1 8 1 8.125 3.5 C8 6 8 6 7 7 C4.66702567 7.04092937 2.33294775 7.04241723 0 7 C0 4.69 0 2.38 0 0 Z " fill="#F6F8FA" transform="translate(302,127)"/>
<path d="M0 0 C3.63 0 7.26 0 11 0 C11 0.99 11 1.98 11 3 C9.68 3 8.36 3 7 3 C7 6.63 7 10.26 7 14 C6.34 14 5.68 14 5 14 C5 10.04 5 6.08 5 2 C3.35 2 1.7 2 0 2 C0 1.34 0 0.68 0 0 Z " fill="#70BED2" transform="translate(495,156)"/>
<path d="M0 0 C3.63 0 7.26 0 11 0 C11 0.99 11 1.98 11 3 C9.68 3 8.36 3 7 3 C7 6.63 7 10.26 7 14 C6.34 14 5.68 14 5 14 C5 10.04 5 6.08 5 2 C3.35 2 1.7 2 0 2 C0 1.34 0 0.68 0 0 Z " fill="#6DBCD1" transform="translate(391,156)"/>
<path d="M0 0 C3.63 0 7.26 0 11 0 C11 0.99 11 1.98 11 3 C9.68 3 8.36 3 7 3 C7 6.63 7 10.26 7 14 C6.34 14 5.68 14 5 14 C5 10.04 5 6.08 5 2 C3.35 2 1.7 2 0 2 C0 1.34 0 0.68 0 0 Z " fill="#6EBDD2" transform="translate(90,156)"/>
<path d="M0 0 C3 1 3 1 4.0625 3 C4.371875 3.66 4.68125 4.32 5 5 C5.66 5.33 6.32 5.66 7 6 C7.66 4.35 8.32 2.7 9 1 C9.66 1 10.32 1 11 1 C9.125 5.875 9.125 5.875 8 7 C7.63239269 9.32817964 7.29758419 11.6618385 7 14 C6.34 14 5.68 14 5 14 C4.731875 12.7625 4.46375 11.525 4.1875 10.25 C3.35515759 6.86074962 2.27568097 4.68944114 0 2 C0 1.34 0 0.68 0 0 Z " fill="#5DB5CD" transform="translate(436,156)"/>
<path d="M0 0 C3 1 3 1 4.0625 3 C4.371875 3.66 4.68125 4.32 5 5 C5.66 5.33 6.32 5.66 7 6 C7.66 4.35 8.32 2.7 9 1 C9.66 1 10.32 1 11 1 C9.125 5.875 9.125 5.875 8 7 C7.63239269 9.32817964 7.29758419 11.6618385 7 14 C6.34 14 5.68 14 5 14 C4.9175 12.948125 4.835 11.89625 4.75 10.8125 C3.94044779 6.69727629 2.72699756 5.07886822 0 2 C0 1.34 0 0.68 0 0 Z " fill="#57B2CB" transform="translate(222,156)"/>
<path d="M0 0 C0.66 0 1.32 0 2 0 C2 3.96 2 7.92 2 12 C4.31 12 6.62 12 9 12 C9 12.66 9 13.32 9 14 C6.03 14 3.06 14 0 14 C0 9.38 0 4.76 0 0 Z " fill="#53B0C9" transform="translate(279,156)"/>
<path d="M0 0 C0.66 0 1.32 0 2 0 C2 3.96 2 7.92 2 12 C4.31 12 6.62 12 9 12 C9 12.66 9 13.32 9 14 C6.03 14 3.06 14 0 14 C0 9.38 0 4.76 0 0 Z " fill="#51AFC9" transform="translate(133,156)"/>
<path d="M0 0 C0.66 0 1.32 0 2 0 C2 0.66 2 1.32 2 2 C7.28 2 12.56 2 18 2 C18 2.66 18 3.32 18 4 C11.73 4 5.46 4 -1 4 C-0.67 2.68 -0.34 1.36 0 0 Z " fill="#FCFCFD" transform="translate(325,142)"/>
<path d="M0 0 C3 1 3 1 4.75 3.875 C6 7 6 7 5 10 C3.02 10 1.04 10 -1 10 C-0.835 9.0925 -0.67 8.185 -0.5 7.25 C0.10137146 3.88912497 0.10137146 3.88912497 0 0 Z " fill="#98D0DF" transform="translate(122,156)"/>
<path d="M0 0 C0.33 0 0.66 0 1 0 C1 2.97 1 5.94 1 9 C2.98 8.67 4.96 8.34 7 8 C7.66 5.69 8.32 3.38 9 1 C9.66 1 10.32 1 11 1 C11.3125 3.75 11.3125 3.75 11 7 C8.26513033 10.05661905 6.79836847 10.93974578 2.6875 11.25 C1.800625 11.1675 0.91375 11.085 0 11 C0 7.37 0 3.74 0 0 Z " fill="#4EAEC8" transform="translate(177,159)"/>
<path d="M0 0 C0.33 0 0.66 0 1 0 C1 2.97 1 5.94 1 9 C2.98 8.67 4.96 8.34 7 8 C7.66 5.69 8.32 3.38 9 1 C9.66 1 10.32 1 11 1 C11.3125 3.75 11.3125 3.75 11 7 C8.26513033 10.05661905 6.79836847 10.93974578 2.6875 11.25 C1.800625 11.1675 0.91375 11.085 0 11 C0 7.37 0 3.74 0 0 Z " fill="#52B0C9" transform="translate(21,159)"/>
<path d="M0 0 C0.66 0 1.32 0 2 0 C2.6875 2.3125 2.6875 2.3125 3 5 C1.625 6.6875 1.625 6.6875 0 8 C-0.33 8.66 -0.66 9.32 -1 10 C0.32 10.33 1.64 10.66 3 11 C-2.75 14 -2.75 14 -5 14 C-3.46527032 9.27775484 -1.76054874 4.64144669 0 0 Z " fill="#56B2CA" transform="translate(213,156)"/>
<path d="M0 0 C3 1 3 1 4.16796875 2.77734375 C4.50441406 3.49019531 4.84085937 4.20304688 5.1875 4.9375 C5.53167969 5.64777344 5.87585938 6.35804688 6.23046875 7.08984375 C7 9 7 9 7 11 C6.34 11 5.68 11 5 11 C5 10.34 5 9.68 5 9 C2.03 9 -0.94 9 -4 9 C-3.34 8.01 -2.68 7.02 -2 6 C-0.35 6.33 1.3 6.66 3 7 C2.01 4.69 1.02 2.38 0 0 Z " fill="#52B0C9" transform="translate(367,159)"/>
<path d="M0 0 C0 0.99 0 1.98 0 3 C-2.31 3.66 -4.62 4.32 -7 5 C-7 6.65 -7 8.3 -7 10 C-7.99 10.495 -7.99 10.495 -9 11 C-9.8125 8.3125 -9.8125 8.3125 -10 5 C-7.04894235 1.00739259 -5.03011718 -0.71858817 0 0 Z " fill="#68BAD0" transform="translate(260,156)"/>
<path d="M0 0 C0.66 0.99 1.32 1.98 2 3 C-0.31 3 -2.62 3 -5 3 C-4.24849977 6.27773504 -4.24849977 6.27773504 -1 8 C-3.97 7.505 -3.97 7.505 -7 7 C-7.6875 5.1875 -7.6875 5.1875 -8 3 C-5.89827701 -0.26934687 -3.72482884 -0.57305059 0 0 Z " fill="#6DBCD1" transform="translate(516,156)"/>
<path d="M0 0 C2.97 0 5.94 0 9 0 C8.67 1.65 8.34 3.3 8 5 C6.68 5.33 5.36 5.66 4 6 C4.33 5.34 4.66 4.68 5 4 C3.35 3.67 1.7 3.34 0 3 C0 2.01 0 1.02 0 0 Z " fill="#70BED2" transform="translate(150,156)"/>
<path d="M0 0 C2.97 0 5.94 0 9 0 C9 0.99 9 1.98 9 3 C6.69 3 4.38 3 2 3 C2.33 4.32 2.66 5.64 3 7 C2.01 7 1.02 7 0 7 C0 4.69 0 2.38 0 0 Z " fill="#6DBCD1" transform="translate(35,156)"/>
<path d="M0 0 C0.33 0 0.66 0 1 0 C1 1.65 1 3.3 1 5 C2.98 4.67 4.96 4.34 7 4 C7.33 3.01 7.66 2.02 8 1 C8.66 1 9.32 1 10 1 C9.67 2.65 9.34 4.3 9 6 C6.69 6 4.38 6 2 6 C2 7.98 2 9.96 2 12 C1.34 12 0.68 12 0 12 C0 8.04 0 4.08 0 0 Z " fill="#56B2CA" transform="translate(410,158)"/>
<path d="M0 0 C0.33 0 0.66 0 1 0 C1 1.65 1 3.3 1 5 C3.31 5 5.62 5 8 5 C8.12375 5.639375 8.2475 6.27875 8.375 6.9375 C8.58125 7.618125 8.7875 8.29875 9 9 C9.66 9.33 10.32 9.66 11 10 C11 10.66 11 11.32 11 12 C9.125 11.75 9.125 11.75 7 11 C6.33333333 9.66666667 5.66666667 8.33333333 5 7 C2.94999129 6.19471111 2.94999129 6.19471111 1 6 C1 7.65 1 9.3 1 11 C0.67 11 0.34 11 0 11 C0 7.37 0 3.74 0 0 Z " fill="#4CADC8" transform="translate(237,158)"/>
<path d="M0 0 C0.66 0 1.32 0 2 0 C2.625 1.875 2.625 1.875 3 4 C1 6 1 6 -1.625 6.125 C-2.40875 6.08375 -3.1925 6.0425 -4 6 C-4 4.68 -4 3.36 -4 2 C-2.68 2 -1.36 2 0 2 C0 1.34 0 0.68 0 0 Z " fill="#F0F8FA" transform="translate(301,162)"/>
<path d="M0 0 C2.97 0 5.94 0 9 0 C9 0.99 9 1.98 9 3 C6.69 3 4.38 3 2 3 C1.67 3.99 1.34 4.98 1 6 C0.67 4.02 0.34 2.04 0 0 Z " fill="#82C5D8" transform="translate(468,156)"/>
<path d="M0 0 C2.97 0 5.94 0 9 0 C9 0.99 9 1.98 9 3 C6.03 3 3.06 3 0 3 C0 2.01 0 1.02 0 0 Z " fill="#78C1D5" transform="translate(163,156)"/>
<path d="M0 0 C0.99 0.33 1.98 0.66 3 1 C3.33 2.32 3.66 3.64 4 5 C0.7 5 -2.6 5 -6 5 C-6 4.34 -6 3.68 -6 3 C-4.02 2.67 -2.04 2.34 0 2 C0 1.34 0 0.68 0 0 Z " fill="#E1E8EE" transform="translate(337,137)"/>
<path d="M0 0 C0.78375 0.04125 1.5675 0.0825 2.375 0.125 C2.705 1.115 3.035 2.105 3.375 3.125 C0.405 2.63 0.405 2.63 -2.625 2.125 C-2.955 3.775 -3.285 5.425 -3.625 7.125 C-3.955 7.125 -4.285 7.125 -4.625 7.125 C-4.75 4.75 -4.75 4.75 -4.625 2.125 C-2.625 0.125 -2.625 0.125 0 0 Z " fill="#62B7CE" transform="translate(300.625,155.875)"/>
<path d="M0 0 C2.31 0 4.62 0 7 0 C7 0.99 7 1.98 7 3 C4.69 3 2.38 3 0 3 C0 2.01 0 1.02 0 0 Z " fill="#FAFDFD" transform="translate(238,159)"/>
<path d="M0 0 C2.31 0 4.62 0 7 0 C7 0.99 7 1.98 7 3 C4.69 3 2.38 3 0 3 C0 2.01 0 1.02 0 0 Z " fill="#F8FBFC" transform="translate(106,159)"/>
<path d="M0 0 C0.99 0.33 1.98 0.66 3 1 C2.67 4.63 2.34 8.26 2 12 C1.67 12 1.34 12 1 12 C1 9.36 1 6.72 1 4 C0.01 3.67 -0.98 3.34 -2 3 C-1.34 2.01 -0.68 1.02 0 0 Z " fill="#45AAC5" transform="translate(461,157)"/>
<path d="M0 0 C0.78375 0.04125 1.5675 0.0825 2.375 0.125 C3.035 1.445 3.695 2.765 4.375 4.125 C3.42625 3.91875 2.4775 3.7125 1.5 3.5 C0.46875 3.37625 -0.5625 3.2525 -1.625 3.125 C-2.285 3.785 -2.945 4.445 -3.625 5.125 C-3.955 4.135 -4.285 3.145 -4.625 2.125 C-2.625 0.125 -2.625 0.125 0 0 Z " fill="#62B7CE" transform="translate(341.625,155.875)"/>
<path d="M0 0 C0.66 0 1.32 0 2 0 C2.25 2.8125 2.25 2.8125 2 6 C0 7.875 0 7.875 -2 9 C-1.34 6.03 -0.68 3.06 0 0 Z " fill="#5CB5CC" transform="translate(186,160)"/>
<path d="M0 0 C0.99 0.33 1.98 0.66 3 1 C3 5.29 3 9.58 3 14 C2.34 14 1.68 14 1 14 C0.67 9.38 0.34 4.76 0 0 Z " fill="#6BBBD1" transform="translate(75,156)"/>
<path d="M0 0 C1.98 0 3.96 0 6 0 C6 0.99 6 1.98 6 3 C4.02 3 2.04 3 0 3 C0 2.01 0 1.02 0 0 Z " fill="#FDFEFE" transform="translate(412,159)"/>
<path d="M0 0 C1.98 0 3.96 0 6 0 C6 0.99 6 1.98 6 3 C4.02 3 2.04 3 0 3 C0 2.01 0 1.02 0 0 Z " fill="#FDFEFE" transform="translate(198,159)"/>
<path d="M0 0 C2.375 -0.1875 2.375 -0.1875 5 0 C5.66 0.99 6.32 1.98 7 3 C4.69 3 2.38 3 0 3 C0 2.01 0 1.02 0 0 Z " fill="#76C0D4" transform="translate(52,156)"/>
<path d="M0 0 C0.66 0.66 1.32 1.32 2 2 C-1.22791555 4.1519437 -2.28400809 4.20086443 -6 4 C-6.33 3.34 -6.66 2.68 -7 2 C-4.69 1.34 -2.38 0.68 0 0 Z " fill="#51B0C9" transform="translate(58,166)"/>
<path d="M0 0 C0.33 0 0.66 0 1 0 C1 3.96 1 7.92 1 12 C0.01 11.67 -0.98 11.34 -2 11 C-2 10.34 -2 9.68 -2 9 C-1.34 9 -0.68 9 0 9 C0 6.03 0 3.06 0 0 Z " fill="#41A8C4" transform="translate(491,157)"/>
<path d="M0 0 C0.33 0 0.66 0 1 0 C1 3.96 1 7.92 1 12 C0.01 11.67 -0.98 11.34 -2 11 C-2 10.34 -2 9.68 -2 9 C-1.34 9 -0.68 9 0 9 C0 6.03 0 3.06 0 0 Z " fill="#41A8C4" transform="translate(387,157)"/>
<path d="M0 0 C0.33 0 0.66 0 1 0 C1 3.96 1 7.92 1 12 C0.01 11.67 -0.98 11.34 -2 11 C-2 10.34 -2 9.68 -2 9 C-1.34 9 -0.68 9 0 9 C0 6.03 0 3.06 0 0 Z " fill="#41A8C4" transform="translate(86,157)"/>
</svg>
