<?xml version="1.0" encoding="UTF-8"?>
<svg version="1.1" xmlns="http://www.w3.org/2000/svg" width="520" height="376">
<path d="M0 0 C171.6 0 343.2 0 520 0 C520 124.08 520 248.16 520 376 C348.4 376 176.8 376 0 376 C0 251.92 0 127.84 0 0 Z " fill="#2E2E2E" transform="translate(0,0)"/>
<path d="M0 0 C4.30468099 4.23811376 4.30468099 4.23811376 4.87109375 7.60546875 C4.51109092 12.31899422 3.59403863 14.98961153 0.078125 18.2421875 C-10.96643189 26.72143064 -24.14129311 29.92237733 -37.546875 32.6796875 C-38.75029541 32.93020874 -38.75029541 32.93020874 -39.97802734 33.18579102 C-51.90372301 35.5268323 -63.93398156 35.73081907 -76.046875 35.7421875 C-76.7962735 35.74319458 -77.545672 35.74420166 -78.31777954 35.74523926 C-89.94482901 35.73469782 -101.12863929 35.12332607 -112.484375 32.4921875 C-113.15404297 32.34765137 -113.82371094 32.20311523 -114.51367188 32.05419922 C-125.17033261 29.72531136 -137.73558801 26.54709611 -144.546875 17.34375 C-146.27187969 13.93686573 -146.51669694 11.16347328 -145.484375 7.4921875 C-141.41118489 -1.03949448 -130.73861427 -4.39778775 -122.52734375 -7.6953125 C-119.20743736 -8.8330582 -115.8994987 -9.69584942 -112.484375 -10.5078125 C-111.75283203 -10.68973145 -111.02128906 -10.87165039 -110.26757812 -11.05908203 C-78.60320467 -18.60520487 -26.97957701 -21.51074383 0 0 Z " fill="#333333" transform="translate(318.484375,74.5078125)"/>
<path d="M0 0 C1.29528122 0.00031723 1.29528122 0.00031723 2.61672974 0.00064087 C30.12775117 0.06736377 62.19824172 1.91814997 85.08203125 19.12890625 C88.07273426 22.14762521 89.10571335 24.69977845 89.375 28.9375 C88.87558056 35.21743383 85.66463864 38.79008813 81.0625 42.8125 C70.4821847 50.66521349 56.47279807 54.74052274 43.75 57.375 C42.92097168 57.55691895 42.09194336 57.73883789 41.23779297 57.92626953 C24.99612451 61.34815622 8.91535153 61.77489924 -7.625 61.8125 C-9.14285599 61.82162415 -9.14285599 61.82162415 -10.69137573 61.83093262 C-36.45535158 61.93216734 -68.29251122 60.24755453 -89.25 43.375 C-92.36506298 39.94843072 -94.11702064 37.75798536 -94.5625 33.125 C-94.09373531 27.49982378 -91.36797497 24.26667407 -87.4375 20.4375 C-75.98910826 11.09737741 -60.08905774 7.33430713 -46 4.25 C-44.93023926 4.01180542 -44.93023926 4.01180542 -43.83886719 3.76879883 C-29.32905563 0.74830477 -14.77813575 -0.03371601 0 0 Z M-75.8125 25.75 C-77.79328491 29.3670855 -78.20182847 32.41660224 -77.25 36.375 C-73.20713832 44.46072336 -63.87291227 47.82354645 -55.8046875 50.53125 C-51.97347226 51.62351871 -48.14231495 52.53491181 -44.25 53.375 C-43.59837891 53.52598145 -42.94675781 53.67696289 -42.27539062 53.83251953 C-21.14082636 58.59241775 4.48518446 58.52735962 25.75 54.375 C26.60980469 54.20838867 27.46960938 54.04177734 28.35546875 53.87011719 C50.11560161 49.70999751 50.11560161 49.70999751 68.75 38.375 C69.56404297 37.67503906 69.56404297 37.67503906 70.39453125 36.9609375 C72.57400554 34.41088977 72.75097596 31.9877348 72.984375 28.71484375 C72.63325483 25.20949408 71.33814906 23.46676514 68.88671875 21.00390625 C35.91535299 -4.13148593 -45.34655283 -2.48673153 -75.8125 25.75 Z " fill="#F5F5C5" transform="translate(250.25,53.625)"/>
<path d="M0 0 C7.33114056 3.81569602 11.17953684 9.67099412 14.6015625 17.00390625 C16.72515206 26.84963967 15.28613717 35.96784436 9.81640625 44.484375 C4.98898681 50.56715175 -0.95296203 54.42459911 -8.66796875 55.66796875 C-17.02570948 56.07566342 -23.37441619 53.87037443 -29.74609375 48.46484375 C-35.87473655 42.14102124 -38.82762514 34.38326586 -39.2109375 25.62890625 C-38.86894525 17.63768735 -35.93240506 10.59700135 -30.4921875 4.7265625 C-21.18493426 -3.29482023 -11.15078931 -4.95398844 0 0 Z " fill="#F9F9F9" transform="translate(304.7109375,224.80859375)"/>
<path d="M0 0 C0.99 0.495 0.99 0.495 2 1 C2.42449841 7.04910235 1.86207748 11.10571563 -2 16 C-17.68309748 33.9366804 -49.86594104 37.91204871 -72.1796875 39.68359375 C-92.47274388 40.95780892 -112.99564034 40.88985082 -133 37 C-133.77746582 36.85014648 -134.55493164 36.70029297 -135.35595703 36.54589844 C-151.3436677 33.3544546 -168.0186903 28.84504249 -178 15 C-179.60725635 11.78548731 -179.05748185 8.56387464 -179 5 C-176 6 -176 6 -173.78125 8.30859375 C-170.5821739 11.40432891 -167.47348276 13.1449415 -163.5 15.0625 C-162.79294922 15.40756592 -162.08589844 15.75263184 -161.35742188 16.1081543 C-144.7794385 23.99612591 -126.01281586 27.11824723 -107.74609375 27.203125 C-106.76874771 27.20882507 -105.79140167 27.21452515 -104.78443909 27.22039795 C-102.71608547 27.22980997 -100.64771712 27.23636675 -98.5793457 27.24023438 C-95.49857197 27.24981017 -92.41850449 27.2808151 -89.33789062 27.3125 C-62.26419487 27.45875263 -27.90521878 24.97351284 -6 7 C-3.81695784 4.75820101 -1.9293254 2.4734941 0 0 Z " fill="#F7F7C6" transform="translate(338,155)"/>
<path d="M0 0 C0.66 0 1.32 0 2 0 C2.62541713 6.00400448 2.1378705 10.18018913 -1.40234375 15.16015625 C-18.18446335 34.48626464 -52.01625336 38.00388816 -75.79174805 39.8190918 C-82.00405277 40.16939374 -88.21649845 40.24455472 -94.4375 40.25 C-95.13831696 40.25067474 -95.83913391 40.25134949 -96.56118774 40.25204468 C-108.59483333 40.23375984 -120.18887884 39.37249883 -132 37 C-132.87688477 36.83371094 -133.75376953 36.66742188 -134.65722656 36.49609375 C-149.62188022 33.60074693 -166.71552478 29.20191975 -177 17 C-178.8808041 13.98081448 -179.22892948 11.78360223 -179.125 8.25 C-179.10695312 7.45078125 -179.08890625 6.6515625 -179.0703125 5.828125 C-179.04710937 5.22484375 -179.02390625 4.6215625 -179 4 C-176 5 -176 5 -174.1875 7.31640625 C-162.35770522 21.82902949 -136.44560075 25.12616232 -119 27 C-97.20311841 29.0965432 -75.58799612 28.63076802 -54 25 C-53.30310059 24.89316895 -52.60620117 24.78633789 -51.88818359 24.67626953 C-34.38208478 21.99150142 -12.49687523 16.17625185 -1.3046875 1.50390625 C-0.65886719 0.75947266 -0.65886719 0.75947266 0 0 Z " fill="#F7F7C6" transform="translate(337,112)"/>
<path d="M0 0 C2 2 2 2 2.4375 5.125 C1.65660009 12.04154207 -1.84638341 16.31866293 -7.125 20.6875 C-12.11782059 24.29932766 -17.26580687 26.78120701 -23 29 C-23.91338135 29.36158203 -23.91338135 29.36158203 -24.84521484 29.73046875 C-65.31394716 45.46664495 -120.34565559 45.61533986 -160.703125 29.5234375 C-167.78591133 26.19559568 -176.06081024 21.69376143 -179 14 C-179.1953125 11.640625 -179.1953125 11.640625 -179.125 9.25 C-179.10695312 8.45078125 -179.08890625 7.6515625 -179.0703125 6.828125 C-179.04710937 6.22484375 -179.02390625 5.6215625 -179 5 C-178.34 5 -177.68 5 -177 5 C-176.42894531 5.7425 -175.85789063 6.485 -175.26953125 7.25 C-161.95899478 23.37842973 -133.66108406 25.88982087 -114.32965088 27.80545044 C-107.44080083 28.38073954 -100.53347615 28.39085624 -93.625 28.375 C-92.39691116 28.37518127 -92.39691116 28.37518127 -91.14401245 28.37536621 C-63.54716528 28.3178219 -25.12499238 25.70483368 -4 5.3125 C-1.88955976 2.96946652 -1.88955976 2.96946652 0 0 Z " fill="#F7F7C6" transform="translate(337,94)"/>
<path d="M0 0 C0.66 0 1.32 0 2 0 C2.34076129 4.78958921 2.5629354 8.75175193 0.5625 13.1875 C-6.4085091 20.83860754 -14.47226695 25.15041089 -24 29 C-25.09699219 29.4434375 -26.19398438 29.886875 -27.32421875 30.34375 C-38.86778488 34.58371606 -50.876756 36.23685305 -63 38 C-64.06299316 38.176521 -65.12598633 38.35304199 -66.22119141 38.53491211 C-70.78696604 39.09685814 -75.27128161 39.19918142 -79.8671875 39.23828125 C-81.28322769 39.25297203 -81.28322769 39.25297203 -82.72787476 39.26795959 C-152.42119731 39.84215682 -152.42119731 39.84215682 -174.0625 19.4375 C-177.50597598 15.68098075 -178.9304467 12.84316239 -179.125 7.6875 C-179.063125 6.3571875 -179.063125 6.3571875 -179 5 C-176 5 -176 5 -174.30078125 6.50390625 C-173.31658203 7.52291016 -173.31658203 7.52291016 -172.3125 8.5625 C-153.21552156 25.94013633 -121.1714948 27.37079452 -96.79589844 27.31567383 C-93.90000221 27.31252717 -91.00514495 27.33601717 -88.109375 27.36132812 C-61.97526251 27.4492396 -25.35965204 24.5010946 -5 6 C-3.21875169 4.06534274 -1.6196845 2.07522076 0 0 Z " fill="#F7F7C6" transform="translate(337,133)"/>
<path d="M0 0 C14.52 0 29.04 0 44 0 C44 6.27 44 12.54 44 19 C40.04 19 36.08 19 32 19 C32 16.36 32 13.72 32 11 C27.05 11 22.1 11 17 11 C17 14.63 17 18.26 17 22 C20.96 22 24.92 22 29 22 C29 25.63 29 29.26 29 33 C25.37 33 21.74 33 18 33 C18 37.29 18 41.58 18 46 C22.62 46 27.24 46 32 46 C32 42.7 32 39.4 32 36 C35.96 36 39.92 36 44 36 C44 42.6 44 49.2 44 56 C29.48 56 14.96 56 0 56 C0 52.7 0 49.4 0 46 C1.65 46 3.3 46 5 46 C5 34.45 5 22.9 5 11 C3.35 11 1.7 11 0 11 C0 7.37 0 3.74 0 0 Z " fill="#F9F9F9" transform="translate(119,223)"/>
<path d="M0 0 C4.26832981 -0.09965569 8.53602469 -0.17183391 12.80517578 -0.21972656 C14.25418917 -0.23971295 15.70312325 -0.26691197 17.15185547 -0.30175781 C32.20188936 -0.65441195 32.20188936 -0.65441195 39 4 C42.92618681 7.87573129 45.1493365 11.07744086 45.3125 16.625 C45.24432868 21.86661672 44.17058506 25.78876279 41 30 C35.40305926 34.54751435 31.30536818 35.13305368 24.25 35.0625 C23.07953125 35.05347656 21.9090625 35.04445313 20.703125 35.03515625 C19.81109375 35.02355469 18.9190625 35.01195312 18 35 C18 38.63 18 42.26 18 46 C19.65 46 21.3 46 23 46 C23 49.3 23 52.6 23 56 C15.41 56 7.82 56 0 56 C0 52.7 0 49.4 0 46 C1.98 46 3.96 46 6 46 C6 34.12 6 22.24 6 10 C4.02 10 2.04 10 0 10 C0 6.7 0 3.4 0 0 Z " fill="#FCFCFC" transform="translate(327,223)"/>
<path d="M0 0 C4.95 0 9.9 0 15 0 C21.09304228 14.52956235 27.14375985 30.47449662 30 46 C31.32 46 32.64 46 34 46 C34 49.3 34 52.6 34 56 C27.07 56 20.14 56 13 56 C13 52.7 13 49.4 13 46 C14.65 46 16.3 46 18 46 C17.34 43.69 16.68 41.38 16 39 C10.39 39 4.78 39 -1 39 C-1.66 41.31 -2.32 43.62 -3 46 C-1.35 46 0.3 46 2 46 C2 49.3 2 52.6 2 56 C-4.93 56 -11.86 56 -19 56 C-19 52.7 -19 49.4 -19 46 C-17.35 46 -15.7 46 -14 46 C-13.8956665 45.03505615 -13.79133301 44.0701123 -13.68383789 43.07592773 C-13.02007557 38.45968688 -11.5627778 34.18648227 -10.05859375 29.78515625 C-9.77146011 28.92941513 -9.48432648 28.07367401 -9.18849182 27.19200134 C-8.27714929 24.48022391 -7.3574681 21.77136183 -6.4375 19.0625 C-5.81520072 17.21568154 -5.19345015 15.36867809 -4.57226562 13.52148438 C-3.0545177 9.01215767 -1.52928886 4.50542513 0 0 Z " fill="#FBFBFB" transform="translate(394,223)"/>
<path d="M0 0 C1.68615782 1.64694485 3.35570171 3.31126121 5 5 C6.32 5.33 7.64 5.66 9 6 C9 9.63 9 13.26 9 17 C4.38 17 -0.24 17 -5 17 C-5.28875 15.865625 -5.5775 14.73125 -5.875 13.5625 C-6.24625 12.386875 -6.6175 11.21125 -7 10 C-10.25303044 8.37348478 -13.39225602 8.88546844 -17 9 C-18.35618499 10.12534105 -18.35618499 10.12534105 -18.0625 13.0625 C-18.041875 14.031875 -18.02125 15.00125 -18 16 C-17.31035156 16.24234375 -16.62070312 16.4846875 -15.91015625 16.734375 C3.60881962 23.69587531 3.60881962 23.69587531 7.25 30.25 C8.97317378 36.56830387 8.47099332 41.49816212 5.34375 47.171875 C2.42981209 51.13618588 -1.39001033 53.46333678 -6 55 C-14.03687944 55.87938155 -19.73758392 55.53112896 -26.29296875 50.60546875 C-28 49 -28 49 -30 46 C-31.32 45.67 -32.64 45.34 -34 45 C-34 41.37 -34 37.74 -34 34 C-29.71 34 -25.42 34 -21 34 C-20.34 36.64 -19.68 39.28 -19 42 C-17.37675914 42.22162329 -15.751279 42.42689803 -14.125 42.625 C-13.22007813 42.74101562 -12.31515625 42.85703125 -11.3828125 42.9765625 C-10.59648438 42.98429687 -9.81015625 42.99203125 -9 43 C-6.65026182 41.10244856 -6.65026182 41.10244856 -6.875 37.875 C-6.91625 36.92625 -6.9575 35.9775 -7 35 C-8.0621875 34.64808594 -9.124375 34.29617188 -10.21875 33.93359375 C-25.75705186 28.5815732 -25.75705186 28.5815732 -31 22 C-33.02254474 15.93236578 -33.0501294 9.21693984 -30.3125 3.4375 C-22.60727365 -4.68422507 -9.51616733 -5.6320174 0 0 Z " fill="#FAFAFA" transform="translate(52,225)"/>
<path d="M0 0 C7.92 0 15.84 0 24 0 C24 3.3 24 6.6 24 10 C22.68 10.33 21.36 10.66 20 11 C23.465 16.445 23.465 16.445 27 22 C29.31 18.04 31.62 14.08 34 10 C32.35 10 30.7 10 29 10 C29 6.7 29 3.4 29 0 C36.92 0 44.84 0 53 0 C53 3.3 53 6.6 53 10 C51.86340942 10.37040405 51.86340942 10.37040405 50.70385742 10.74829102 C47.67376273 12.1510265 46.62881711 13.31879046 44.73828125 16.02734375 C43.89620117 17.21553711 43.89620117 17.21553711 43.03710938 18.42773438 C42.18342773 19.67006836 42.18342773 19.67006836 41.3125 20.9375 C40.73177734 21.76185547 40.15105469 22.58621094 39.55273438 23.43554688 C34.21013 30.85796935 34.21013 30.85796935 32.375 39.6875 C32.30023438 40.86699219 32.22546875 42.04648437 32.1484375 43.26171875 C32.09945312 44.16535156 32.05046875 45.06898438 32 46 C34.31 46 36.62 46 39 46 C39 49.3 39 52.6 39 56 C30.75 56 22.5 56 14 56 C14 52.7 14 49.4 14 46 C15.98 46 17.96 46 20 46 C20.56946204 34.0412971 17.80801749 27.6194198 10.24072266 18.5625 C9.00354878 17.00446915 7.92358525 15.32579412 6.84765625 13.65234375 C5.23845847 10.76869169 5.23845847 10.76869169 2.25 10.125 C1.5075 10.08375 0.765 10.0425 0 10 C0 6.7 0 3.4 0 0 Z " fill="#F9F9F9" transform="translate(425,223)"/>
<path d="M0 0 C16.5 0 33 0 50 0 C50 5.61 50 11.22 50 17 C46.04 17 42.08 17 38 17 C38 14.69 38 12.38 38 10 C35.69 10 33.38 10 31 10 C31 21.88 31 33.76 31 46 C32.98 46 34.96 46 37 46 C37 49.3 37 52.6 37 56 C29.08 56 21.16 56 13 56 C13 52.7 13 49.4 13 46 C14.98 46 16.96 46 19 46 C19 34.12 19 22.24 19 10 C16.69 10 14.38 10 12 10 C12 12.31 12 14.62 12 17 C8.04 17 4.08 17 0 17 C0 11.39 0 5.78 0 0 Z " fill="#F9F9F9" transform="translate(63,223)"/>
<path d="M0 0 C7.92 0 15.84 0 24 0 C24 3.3 24 6.6 24 10 C22.02 10 20.04 10 18 10 C18 21.88 18 33.76 18 46 C25.68341329 46.48589129 25.68341329 46.48589129 32 44 C32.23192865 42.48530552 32.41215238 40.96245438 32.5625 39.4375 C32.706875 37.973125 32.85125 36.50875 33 35 C36.96 35 40.92 35 45 35 C45 41.93 45 48.86 45 56 C30.15 56 15.3 56 0 56 C0 52.7 0 49.4 0 46 C1.98 46 3.96 46 6 46 C6 34.12 6 22.24 6 10 C4.02 10 2.04 10 0 10 C0 6.7 0 3.4 0 0 Z " fill="#FAFAFA" transform="translate(169,223)"/>
<path d="M0 0 C7.92 0 15.84 0 24 0 C24 3.3 24 6.6 24 10 C22.02 10 20.04 10 18 10 C18 21.88 18 33.76 18 46 C22.62 45.67 27.24 45.34 32 45 C32.495 40.05 32.495 40.05 33 35 C36.96 35 40.92 35 45 35 C45 41.93 45 48.86 45 56 C30.15 56 15.3 56 0 56 C0 52.7 0 49.4 0 46 C1.98 46 3.96 46 6 46 C6 34.12 6 22.24 6 10 C4.02 10 2.04 10 0 10 C0 6.7 0 3.4 0 0 Z " fill="#F9F9F9" transform="translate(218,223)"/>
<path d="M0 0 C4.31728387 2.03645466 7.1009902 4.58377801 9.30859375 8.87890625 C11.09423181 14.35688064 10.82744422 20.55273528 8.8125 25.9375 C6.52256491 29.80670067 3.99931203 32.00034398 0 34 C-3.95343894 34.63609303 -7.51514728 34.83174081 -11.078125 32.8359375 C-15.60984142 29.12297657 -17.69722732 25.81296942 -18.3359375 19.87890625 C-18.46750307 8.70898972 -18.46750307 8.70898972 -14 4 C-13.278125 3.21625 -12.55625 2.4325 -11.8125 1.625 C-7.82333283 -0.67985214 -4.50113971 -0.77139674 0 0 Z " fill="#303030" transform="translate(297,234)"/>
<path d="M0 0 C0 0.66 0 1.32 0 2 C-5.65394631 2.34615998 -9.03006806 1.43425238 -14 -1 C-14 1.31 -14 3.62 -14 6 C-13.34773438 5.96519531 -12.69546875 5.93039063 -12.0234375 5.89453125 C-6.51434628 5.72389568 -2.80761576 5.9636111 2 9 C2 10.32 2 11.64 2 13 C-3.22771463 16.04157942 -6.92671312 17.50610724 -13 17 C-13 17.66 -13 18.32 -13 19 C-14.65 19 -16.3 19 -18 19 C-18 18.34 -18 17.68 -18 17 C-19.5159375 17.061875 -19.5159375 17.061875 -21.0625 17.125 C-25.09966185 16.99683613 -28.22137316 16.40772372 -32 15 C-32.66 14.01 -33.32 13.02 -34 12 C-32.741875 11.95875 -31.48375 11.9175 -30.1875 11.875 C-29.47980469 11.85179688 -28.77210938 11.82859375 -28.04296875 11.8046875 C-26 12 -26 12 -23 14 C-21.34450469 14.38499891 -19.6777567 14.72793135 -18 15 C-18 12.69 -18 10.38 -18 8 C-19.24716797 7.94392578 -19.24716797 7.94392578 -20.51953125 7.88671875 C-21.60621094 7.82097656 -22.69289062 7.75523438 -23.8125 7.6875 C-24.89144531 7.62949219 -25.97039062 7.57148437 -27.08203125 7.51171875 C-30 7 -30 7 -31.890625 5.5859375 C-33 4 -33 4 -32.9375 1.9375 C-31.7066266 -0.60630502 -30.56974685 -0.89996801 -28 -2 C-18.36662341 -4.93637682 -8.99553405 -4.5977174 0 0 Z " fill="#F7F7C6" transform="translate(265,77)"/>
<path d="M0 0 C8.12604043 -0.60642093 8.12604043 -0.60642093 12.0625 2.125 C14.32121048 5.4766349 14.60260235 7.04004171 14 11 C12 14 12 14 9 15 C7.43881572 15.06740865 5.8749748 15.08514456 4.3125 15.0625 C2.889375 15.041875 1.46625 15.02125 0 15 C0 10.05 0 5.1 0 0 Z " fill="#383838" transform="translate(345,233)"/>
<path d="M0 0 C-0.99 0.495 -0.99 0.495 -2 1 C-2.28926947 3.02488628 -2.57272154 5.05244016 -2.75390625 7.08984375 C-3 9 -3 9 -4 11 C-5.93833996 10.91284983 -7.8757429 10.80467036 -9.8125 10.6875 C-10.89144531 10.62949219 -11.97039062 10.57148437 -13.08203125 10.51171875 C-16 10 -16 10 -17.890625 8.5859375 C-19 7 -19 7 -18.9375 4.9375 C-17.70252065 2.38520934 -16.58704592 2.09400209 -14 1 C-12.34788456 0.54725683 -10.67886952 0.15288056 -9 -0.1875 C-8.154375 -0.36667969 -7.30875 -0.54585938 -6.4375 -0.73046875 C-3.96978589 -1.00334098 -2.34150494 -0.76424119 0 0 Z " fill="#C4C4A0" transform="translate(251,74)"/>
<path d="M0 0 C3.4375 1.5 3.4375 1.5 6 3 C6 4.32 6 5.64 6 7 C0.77228537 10.04157942 -2.92671312 11.50610724 -9 11 C-9.33 11.66 -9.66 12.32 -10 13 C-10.08086147 11.20906809 -10.13912702 9.41710372 -10.1875 7.625 C-10.22230469 6.62726563 -10.25710937 5.62953125 -10.29296875 4.6015625 C-10.14794922 3.31378906 -10.14794922 3.31378906 -10 2 C-6.25816125 -0.49455917 -4.43756964 -0.37606522 0 0 Z " fill="#E3E3B7" transform="translate(261,83)"/>
<path d="M0 0 C2.59947787 2.59947787 3.0684435 4.92738453 4.125 8.4375 C4.47820312 9.59121094 4.83140625 10.74492187 5.1953125 11.93359375 C6 15 6 15 6 18 C2.37 18 -1.26 18 -5 18 C-3.85440314 11.65515584 -2.43143813 5.96807541 0 0 Z " fill="#494949" transform="translate(401,234)"/>
<path d="M0 0 C0.89203125 0.01804687 1.7840625 0.03609375 2.703125 0.0546875 C3.71632812 0.08949219 3.71632812 0.08949219 4.75 0.125 C2.08788628 1.50079827 -0.31296616 2.49563561 -3.25 3.125 C-2.92 4.775 -2.59 6.425 -2.25 8.125 C-5.125 8.25 -5.125 8.25 -8.25 8.125 C-8.91 7.465 -9.57 6.805 -10.25 6.125 C-10.125 4.125 -10.125 4.125 -9.25 2.125 C-6.12573562 0.10341717 -3.67283316 -0.0966535 0 0 Z " fill="#F2F2C2" transform="translate(242.25,74.875)"/>
<path d="M0 0 C5.625 -0.25 5.625 -0.25 9 2 C9 2.99 9 3.98 9 5 C5.86501708 6.85776765 3.62528568 7.20140476 0 7 C0 4.69 0 2.38 0 0 Z " fill="#4A4A44" transform="translate(251,85)"/>
<path d="M0 0 C1.258125 -0.04125 2.51625 -0.0825 3.8125 -0.125 C4.52019531 -0.14820312 5.22789062 -0.17140625 5.95703125 -0.1953125 C8 0 8 0 11 2 C11 2.66 11 3.32 11 4 C12.65 4 14.3 4 16 4 C16 4.33 16 4.66 16 5 C10.92720445 5.20705288 6.77617678 4.77935998 2 3 C1.34 2.01 0.68 1.02 0 0 Z " fill="#E7E7BA" transform="translate(231,89)"/>
<path d="M0 0 C0 1.65 0 3.3 0 5 C-2.31 5 -4.62 5 -7 5 C-7.33 3.68 -7.66 2.36 -8 1 C-5.29120665 -0.35439668 -2.99066732 -0.06501451 0 0 Z " fill="#393937" transform="translate(247,77)"/>
<path d="M0 0 C5.65394631 -0.34615998 9.03006806 0.56574762 14 3 C14 3.66 14 4.32 14 5 C7.88225104 5.49940808 4.97504047 4.24900602 0 1 C0 0.67 0 0.34 0 0 Z " fill="#E1E1B6" transform="translate(251,74)"/>
<path d="M0 0 C0.99 0 1.98 0 3 0 C3.33 1.98 3.66 3.96 4 6 C2.35 6 0.7 6 -1 6 C-1.042721 4.33388095 -1.04063832 2.66617115 -1 1 C-0.67 0.67 -0.34 0.34 0 0 Z " fill="#93937A" transform="translate(269,293)"/>
<path d="M0 0 C1.32 0 2.64 0 4 0 C4 1.98 4 3.96 4 6 C2.68 6 1.36 6 0 6 C0 4.02 0 2.04 0 0 Z " fill="#8B8B74" transform="translate(223,293)"/>
<path d="M0 0 C0.66 0 1.32 0 2 0 C2.66 1.98 3.32 3.96 4 6 C2.02 6 0.04 6 -2 6 C-1.34 4.02 -0.68 2.04 0 0 Z " fill="#9A9A80" transform="translate(369,293)"/>
<path d="M0 0 C0.99 1.32 1.98 2.64 3 4 C2.67 4.66 2.34 5.32 2 6 C0.35 6 -1.3 6 -3 6 C-2.01 4.02 -1.02 2.04 0 0 Z " fill="#9C9C81" transform="translate(323,293)"/>
<path d="M0 0 C0.99 1.32 1.98 2.64 3 4 C2.67 4.66 2.34 5.32 2 6 C0.35 6 -1.3 6 -3 6 C-2.01 4.02 -1.02 2.04 0 0 Z " fill="#97977D" transform="translate(135,293)"/>
<path d="M0 0 C0.66 0 1.32 0 2 0 C2.66 1.98 3.32 3.96 4 6 C2.35 5.67 0.7 5.34 -1 5 C-0.67 3.35 -0.34 1.7 0 0 Z " fill="#98987E" transform="translate(205,293)"/>
<path d="M0 0 C1.32 0.33 2.64 0.66 4 1 C4 1.66 4 2.32 4 3 C3.34 3 2.68 3 2 3 C2 3.66 2 4.32 2 5 C2.66 5.33 3.32 5.66 4 6 C2.68 6 1.36 6 0 6 C0 4.02 0 2.04 0 0 Z " fill="#8A8A72" transform="translate(74,293)"/>
</svg>
